<svg width="451" height="451" viewBox="0 0 451 451" fill="none" xmlns="http://www.w3.org/2000/svg">
<path d="M106.167 31H346.7C388.192 31 421.867 64.6747 421.867 106.167V346.7C421.867 388.192 388.192 421.867 346.7 421.867H106.167C64.6747 421.867 31 388.192 31 346.7V106.167C31 64.6747 64.6747 31 106.167 31Z" stroke="#106546" stroke-width="45.1" stroke-miterlimit="2"/>
<path d="M346.7 121.2C363.305 121.2 376.767 107.739 376.767 91.1333C376.767 74.528 363.305 61.0667 346.7 61.0667C330.095 61.0667 316.633 74.528 316.633 91.1333C316.633 107.739 330.095 121.2 346.7 121.2Z" fill="#106546"/>
<path fill-rule="evenodd" clip-rule="evenodd" d="M98 225.783C98 155.262 155.262 98 225.783 98C296.305 98 353.567 155.262 353.567 225.783C353.567 296.305 296.305 353.567 225.783 353.567C155.262 353.567 98 296.305 98 225.783ZM165.65 225.783C165.65 192.59 192.59 165.65 225.783 165.65C258.977 165.65 285.917 192.59 285.917 225.783C285.917 258.977 258.977 285.917 225.783 285.917C192.59 285.917 165.65 258.977 165.65 225.783Z" fill="#106546"/>
</svg>
