<svg width="451" height="451" viewBox="0 0 451 451" fill="none" xmlns="http://www.w3.org/2000/svg">
<path d="M135.3 90.2H86.4417V360.8H135.3V90.2Z" fill="#106546"/>
<path d="M263.083 293.15C319.126 293.15 364.558 247.718 364.558 191.675C364.558 135.632 319.126 90.2 263.083 90.2C207.04 90.2 161.608 135.632 161.608 191.675C161.608 247.718 207.04 293.15 263.083 293.15Z" fill="#106546"/>
<path d="M105.167 30H345.7C387.192 30 420.867 63.6747 420.867 105.167V345.7C420.867 387.192 387.192 420.867 345.7 420.867H105.167C63.6747 420.867 30 387.192 30 345.7V105.167C30 63.6747 63.6747 30 105.167 30Z" stroke="#106546" stroke-width="45.1" stroke-miterlimit="2"/>
</svg>
