<?xml version="1.0" encoding="UTF-8"?>
<svg width="230px" height="303px" viewBox="0 0 230 303" version="1.1" xmlns="http://www.w3.org/2000/svg" xmlns:xlink="http://www.w3.org/1999/xlink">
    <!-- Generator: Sketch 52.6 (67491) - http://www.bohemiancoding.com/sketch -->
    <title>Group 21 Copy</title>
    <desc>Created with Sketch.</desc>
    <defs>
        <linearGradient x1="49.6474653%" y1="43.6948626%" x2="50%" y2="9.4695525%" id="linearGradient-1">
            <stop stop-color="#7BFF19" offset="0%"></stop>
            <stop stop-color="#ECFFDB" offset="57.9886199%"></stop>
            <stop stop-color="#BDFFCF" offset="100%"></stop>
        </linearGradient>
        <polygon id="path-2" points="0 0 529.710324 0 538 844 8.28967643 844"></polygon>
        <linearGradient x1="50%" y1="0%" x2="50%" y2="100%" id="linearGradient-4">
            <stop stop-color="#AC9083" offset="0%"></stop>
            <stop stop-color="#73574B" offset="100%"></stop>
        </linearGradient>
        <linearGradient x1="50%" y1="0%" x2="50%" y2="100%" id="linearGradient-5">
            <stop stop-color="#F2DCCF" offset="0%"></stop>
            <stop stop-color="#E1B7A1" offset="100%"></stop>
        </linearGradient>
        <linearGradient x1="50%" y1="0%" x2="50%" y2="100%" id="linearGradient-6">
            <stop stop-color="#D5A890" offset="0%"></stop>
            <stop stop-color="#737272" offset="28.8910557%"></stop>
            <stop stop-color="#6C8354" offset="100%"></stop>
        </linearGradient>
        <linearGradient x1="50%" y1="0%" x2="50%" y2="100%" id="linearGradient-7">
            <stop stop-color="#5B5C61" offset="0%"></stop>
            <stop stop-color="#82807C" offset="100%"></stop>
        </linearGradient>
        <linearGradient x1="50%" y1="0%" x2="50%" y2="100%" id="linearGradient-8">
            <stop stop-color="#5D5E63" offset="0%"></stop>
            <stop stop-color="#37383E" offset="100%"></stop>
        </linearGradient>
        <linearGradient x1="50%" y1="0%" x2="50%" y2="100%" id="linearGradient-9">
            <stop stop-color="#F2DDCF" offset="0%"></stop>
            <stop stop-color="#E1B7A1" offset="100%"></stop>
        </linearGradient>
        <linearGradient x1="-11.3770283%" y1="157.213749%" x2="71.0627226%" y2="0%" id="linearGradient-10">
            <stop stop-color="#B1A7A7" offset="0%"></stop>
            <stop stop-color="#73574B" offset="100%"></stop>
        </linearGradient>
        <linearGradient x1="50%" y1="0%" x2="50%" y2="33.9887691%" id="linearGradient-11">
            <stop stop-color="#ECD3C3" offset="0%"></stop>
            <stop stop-color="#D5A890" offset="100%"></stop>
        </linearGradient>
        <linearGradient x1="50%" y1="5.04424426%" x2="50%" y2="100%" id="linearGradient-12">
            <stop stop-color="#CAAA9A" offset="0%"></stop>
            <stop stop-color="#737271" offset="100%"></stop>
        </linearGradient>
        <linearGradient x1="142.018337%" y1="50%" x2="50%" y2="100%" id="linearGradient-13">
            <stop stop-color="#B9D295" stop-opacity="0.797865716" offset="0%"></stop>
            <stop stop-color="#77A245" stop-opacity="0.797865716" offset="100%"></stop>
        </linearGradient>
        <linearGradient x1="95.468284%" y1="16.922114%" x2="-1.04102401%" y2="86.9740029%" id="linearGradient-14">
            <stop stop-color="#DAF9FF" offset="0%"></stop>
            <stop stop-color="#D8D8D8" stop-opacity="0.374037591" offset="100%"></stop>
        </linearGradient>
        <polygon id="path-15" points="0.00518216876 0.0290532642 3.71081135 0.0290532642 3.71081135 3.42388442 0.00518216876 3.42388442 0.00518216876 0.0290532642"></polygon>
        <polygon id="path-17" points="3.49043313e-17 8.05494269 3.49043313e-17 0.0269192392 2.16531522 0.0269192392 2.16531522 8.05494269 0 8.05494269"></polygon>
        <polygon id="path-19" points="0 10.0446844 0 0.026633364 2.73226348 0.026633364 2.73226348 10.0446844 1.19159374e-16 10.0446844"></polygon>
    </defs>
    <g id="Symbols" stroke="none" stroke-width="1" fill="none" fill-rule="evenodd" opacity="0.96337183">
        <g id="Group-21-Copy">
            <g transform="translate(-172.000000, -67.000000)">
                <mask id="mask-3" fill="white">
                    <use xlink:href="#path-2"></use>
                </mask>
                <use id="Mask" fill="url(#linearGradient-1)" xlink:href="#path-2"></use>
                <g id="Group-23" mask="url(#mask-3)">
                    <g transform="translate(54.201493, 72.792541)" id="Group-21">
                        <g>
                            <path d="M187.997228,114.748782 C200.543529,106.371651 210.746776,96.0437818 218.606968,83.7651756 C226.46716,71.4865693 231.824399,63.0636268 234.678684,58.4963481 C243.82789,76.5604161 251.507394,91.6506583 257.717195,103.767075 C263.574342,115.195402 275.117981,136.394561 292.348113,167.364551 L187.997228,114.748782 Z" id="Path-23" fill="url(#linearGradient-4)"></path>
                            <path d="M234.957938,58.4963481 C234.957938,58.4963481 251.322073,90.31948 263.960778,114.011978 C276.599483,137.704477 286.833277,157.419069 293.60158,166.720745 C297.182226,171.641625 276.283986,147.177394 255.233972,133.341715 C236.212296,120.839216 216.622229,122.02752 224.614577,115.850045 C237.451274,105.928257 234.957938,58.4963481 234.957938,58.4963481 Z" id="Path-11-Copy" fill="url(#linearGradient-5)"></path>
                            <path d="M184.609533,87.7444952 L236.287188,87.7444952 C238.146993,87.7444952 239.740065,86.4130758 240.070213,84.582809 L240.070213,84.582809 C240.419748,82.6450648 239.644658,80.6761235 238.068001,79.4966412 L235.834347,77.8256665 C232.673249,75.4608795 230.103083,72.3958018 228.325488,68.8709024 L220.173448,52.7057361 C217.736676,47.8737126 211.844153,45.9319779 207.012129,48.3687502 C206.187166,48.7847764 205.425188,49.3153884 204.748833,49.9448223 C204.748833,49.9448223 204.748833,49.9448223 204.748833,49.9448223 C203.108277,51.4715685 201.622778,53.2428391 200.292337,55.258634 L200.292337,55.2586343 C195.200565,62.973345 189.063738,69.9448287 182.057138,75.9739628 C181.501916,76.4517281 180.950687,76.9608975 180.403451,77.5014711 C180.403451,77.5014711 180.403451,77.5014711 180.403451,77.5014711 L180.403451,77.5014711 C178.05187,79.8244258 178.028663,83.6138863 180.351617,85.9654682 C181.476068,87.1037761 183.009491,87.7444486 184.609533,87.7444486 Z" id="Path-24-Copy" fill="#FFFFFF" opacity="0.820199275" transform="translate(209.529107, 67.433176) scale(-1, 1) translate(-209.529107, -67.433176) "></path>
                            <path d="M194.613495,877.445221 C302.095561,877.445221 390.710985,703.344543 389.226991,495.59406 C387.742997,287.843577 302.095561,113.742899 194.613495,113.742899 C87.1314298,113.742899 0,284.703487 0,495.59406 C0,706.484633 87.1314298,877.445221 194.613495,877.445221 Z" id="Oval-3" fill="url(#linearGradient-6)"></path>
                            <path d="M12.766709,358.884179 C12.766709,358.884179 38.365986,367.122804 58.0002579,347.827264 C77.6345299,328.531724 97.2273681,276.016856 101.972581,267.94762 C106.717795,259.878384 124.852713,230.274707 149.731464,230.274707 C156.739198,230.274707 170.209154,234.191873 174.205538,234.191873 C178.201922,234.191873 181.303254,230.799261 184.564441,219.081949 C187.825629,207.364637 202.097997,180.323232 220.768126,176.976487 C239.438255,173.629741 300.147707,176.976487 300.147707,176.976487 C300.147707,176.976487 319.508497,201.020009 339.233031,243.362248 C358.957565,285.704487 370.070606,322.029182 377.967079,367.122804 C378.811173,371.943086 381.692713,389.152406 383.618461,406.499529 C385.544209,423.846652 387.588999,453.912022 387.588999,453.912022 L0.828181623,464.720988 C0.828181623,464.720988 3.09684992,424.048614 4.93188466,408.709853 C6.7669194,393.371092 12.766709,358.884179 12.766709,358.884179 Z" id="Path-5" fill="url(#linearGradient-7)"></path>
                            <path d="M13.364557,360.501046 C13.364557,360.501046 44.7392354,375.364708 65.1699534,355.502588 C85.6006715,335.640469 104.344187,283.193882 109.083004,275.068653 C113.821821,266.943424 125.001103,246.158487 149.846319,246.158487 C156.844607,246.158487 176.569221,250.189789 179.529678,250.189789 C182.490135,250.189789 188.039043,252.167922 192.665103,235.097391 C197.291163,218.026861 208.136267,193.725917 226.781229,190.355948 C245.426191,186.985979 300.265574,177.113943 300.265574,177.113943 C300.265574,177.113943 319.600267,201.324306 339.298213,243.96036 C358.996159,286.596415 370.09422,323.17317 377.980049,368.5797 C378.823005,373.433431 381.700661,390.762167 383.623813,408.229663 C385.546965,425.697159 387.588999,455.971156 387.588999,455.971156 L1.65636325,458.221393 C1.65636325,458.221393 3.23345713,428.785213 5.45539768,410.077364 C7.67733823,391.369515 13.364557,360.501046 13.364557,360.501046 Z" id="Path-5-Copy" fill="url(#linearGradient-8)"></path>
                            <path d="M189.375002,9.74939135 C189.375002,9.74939135 205.495192,48.4984159 215.58949,72.4715162 C225.683788,96.4446166 237.688126,123.49229 237.688126,123.49229 C237.688126,123.49229 236.841269,122.932781 221.088903,118.455946 C198.872787,112.142108 167.292688,118.455946 167.292688,118.455946 C167.292688,118.455946 172.724898,70.9272299 180.827775,46.5422018 C188.930653,22.1571738 189.375002,9.74939135 189.375002,9.74939135 Z" id="Path-11" fill="url(#linearGradient-9)"></path>
                            <path d="M188.987803,6.49959423 L151.557237,99.1624148 L163.595545,120.242493 L185.63844,114.153414 C185.63844,114.153414 204.693798,111.509446 204.560161,88.096001 C204.426525,64.6825557 188.987803,69.7050612 188.987803,50.3784206 L188.987803,6.49959423 Z" id="Path-10" fill="url(#linearGradient-10)"></path>
                            <path d="M12.4227243,360.72748 C12.4227243,360.72748 34.0186428,247.133133 75.958455,193.470908 C94.3816907,169.898275 97.9136882,158.983947 109.910654,137.501204 C121.907619,116.01846 147.259343,58.4963481 147.259343,58.4963481 C147.259343,58.4963481 164.5117,97.978916 171.745073,109.139705 C178.978445,120.300495 185.76813,114.597079 184.539757,116.01846 C182.443381,118.444229 170.603109,126.536493 164.501431,131.673467 C152.947807,141.40041 140.724653,160.963348 134.696826,167.414152 C127.807014,174.787426 118.020322,170.793335 104.619583,178.567415 C96.9599828,183.010927 76.1204215,200.162762 58.4591547,231.585411 C52.7422792,241.756785 49.3676697,245.167233 35.2745786,280.966839 C21.1814875,316.766445 12.4227243,360.72748 12.4227243,360.72748 Z" id="Path-9" fill="url(#linearGradient-11)"></path>
                            <path d="M145.660848,129.760947 C143.201848,144.534706 136.380447,156.1162 125.292955,160.694741 C114.205463,165.273282 98.7248964,175.814431 72.8161882,210.35453 C57.3065423,231.031157 47.1741471,253.266271 39.1302834,272.85236 C25.0827553,307.056835 20.3321781,329.196293 15.7354508,344.478494 C16.4398017,343.486322 18.3114237,332.495863 22.4540527,316.932387 C27.7583666,297.004567 36.5239999,269.283139 48.5288466,242.28561 C69.9093877,194.203216 96.332453,156.217717 103.628405,144.534706 C123.410211,112.858094 147.276859,58.4963481 147.276859,58.4963481 C147.276859,58.4963481 148.119848,114.987188 145.660848,129.760947 Z" id="Path-25" fill="url(#linearGradient-12)"></path>
                            <path d="M277.440844,237.23519 C276.708902,263.584056 276.239351,280.50262 276.032191,287.990882 C275.825031,295.479144 275.928611,302.934058 276.342931,310.355625 L274.152582,310.355625 C274.081158,303.205481 274.166122,295.750567 274.407474,287.990882 C274.648826,280.231197 275.659949,263.312633 277.440844,237.23519 Z" id="Rectangle-5-Copy-13" fill="#9D4C2A"></path>
                            <path d="M288.68291,232.360494 C288.589609,263.780799 288.589609,282.598333 288.68291,288.813096 C288.77621,295.027859 288.893703,302.208702 289.035386,310.355625 L286.550841,310.355625 C286.743593,302.331064 286.839969,295.150222 286.839969,288.813096 C286.839969,282.47597 287.454283,263.658436 288.68291,232.360494 Z" id="Rectangle-5-Copy-14" fill="#9D4C2A"></path>
                            <path d="M306.4272,219.361305 C305.583847,259.566161 305.200926,282.921677 305.278437,289.427854 C305.355948,295.93403 305.322652,303.451587 305.178547,311.980523 L303.114474,311.980523 C303.405403,302.96466 303.616374,295.447103 303.747387,289.427854 C303.878399,283.408604 304.77167,260.053088 306.4272,219.361305 Z" id="Rectangle-5-Copy-15" fill="#9D4C2A"></path>
                            <path d="M313.214521,248.609479 L314.459414,294.927959 L314.709017,311.980523 L311.39629,311.980523 C311.715651,305.748395 311.947239,300.551957 312.091054,296.391209 C312.23487,292.230462 312.609359,276.303218 313.214521,248.609479 Z" id="Rectangle-5-Copy-16" fill="#9D4C2A" transform="translate(313.052653, 280.295001) scale(-1, 1) translate(-313.052653, -280.295001) "></path>
                            <path d="M276.038063,237.23519 C277.215113,265.410441 277.847726,282.604732 277.935904,288.818062 C278.024081,295.031392 278.135122,302.21058 278.269025,310.355625 L275.78448,310.355625 C275.828888,302.259033 275.851091,295.079846 275.851091,288.818062 C275.851091,282.556278 275.913415,265.361987 276.038063,237.23519 Z" id="Rectangle-5-Copy-2" fill="#C16843" transform="translate(277.026753, 273.795407) scale(-1, 1) translate(-277.026753, -273.795407) "></path>
                            <path d="M206.470807,237.23519 C207.647856,263.532091 208.28047,279.580095 208.368647,285.379204 C208.456825,291.178312 208.567865,297.878887 208.701769,305.480929 L206.217224,305.480929 C206.261631,297.92411 206.283835,291.223535 206.283835,285.379204 C206.283835,279.534872 206.346159,263.486867 206.470807,237.23519 Z" id="Rectangle-5-Copy-10" fill="#C16843"></path>
                            <path d="M212.183551,258.358871 C212.96825,277.142372 213.389993,288.605232 213.448778,292.747452 C213.507563,296.889672 213.58159,301.675798 213.670859,307.105828 L212.014495,307.105828 C212.0441,301.7081 212.058903,296.921975 212.058903,292.747452 C212.058903,288.57293 212.100452,277.110069 212.183551,258.358871 Z" id="Rectangle-5-Copy-11" fill="#C16843" transform="translate(212.842677, 282.732349) scale(-1, 1) translate(-212.842677, -282.732349) "></path>
                            <path d="M313.306236,248.609479 C314.483286,273.028031 315.115899,287.929749 315.204077,293.314635 C315.292254,298.699522 315.403295,304.921484 315.537198,311.980523 L313.052653,311.980523 C313.097061,304.963477 313.119264,298.741515 313.119264,293.314635 C313.119264,287.887756 313.181588,272.986037 313.306236,248.609479 Z" id="Rectangle-5-Copy-5" fill="#C16843"></path>
                            <path d="M289.373497,227.485798 C290.942896,259.41775 291.786381,278.904612 291.903951,285.946387 C292.021521,292.988161 292.169575,301.124574 292.348113,310.355625 L289.035386,310.355625 C289.094596,301.179488 289.124201,293.043075 289.124201,285.946387 C289.124201,278.849698 289.207299,259.362836 289.373497,227.485798 Z" id="Rectangle-5-Copy-3" fill="#C16843"></path>
                            <path d="M303.368057,219.361305 C304.545106,255.049957 305.17772,276.829392 305.265897,284.69961 C305.354075,292.569829 305.465115,301.663466 305.599019,311.980523 L303.114474,311.980523 C303.158881,301.724841 303.181085,292.631203 303.181085,284.69961 C303.181085,276.768017 303.243409,254.988583 303.368057,219.361305 Z" id="Rectangle-5-Copy-4" fill="#C16843" transform="translate(304.356746, 265.670914) scale(-1, 1) translate(-304.356746, -265.670914) "></path>
                            <polygon id="Path-26-Copy-5" fill="url(#linearGradient-13)" transform="translate(325.889469, 258.358871) scale(-1, 1) translate(-325.889469, -258.358871) " points="324.379663 227.485798 315.537198 289.231943 336.241739 289.231943"></polygon>
                            <polygon id="Path-26-Copy" fill="url(#linearGradient-13)" transform="translate(276.612662, 265.670914) scale(-1, 1) translate(-276.612662, -265.670914) " points="275.646386 237.23519 269.987209 294.106639 283.238115 294.106639"></polygon>
                            <polygon id="Path-26-Copy-9" fill="url(#linearGradient-13)" points="206.907312 237.23519 201.248134 289.231943 214.49904 289.231943"></polygon>
                            <polygon id="Path-26-Copy-10" fill="url(#linearGradient-13)" transform="translate(211.600405, 275.420306) scale(-1, 1) translate(-211.600405, -275.420306) " points="210.815306 258.358871 206.217224 292.48174 216.983585 292.48174"></polygon>
                            <polygon id="Path-26-Copy-4" fill="url(#linearGradient-13)" points="313.742741 248.609479 308.083564 295.731538 321.33447 295.731538"></polygon>
                            <g id="Gautam-Bee-Copy" transform="translate(290.007842, 256.677858) scale(-1, 1) rotate(-10.000000) translate(-290.007842, -256.677858) translate(275.007842, 228.677858)" fill-rule="nonzero">
                                <path d="M25.2589087,55.5766855 C25.2754225,55.6441773 25.3081991,55.6914224 25.3463837,55.7027743 C25.3845683,55.7141263 25.423178,55.6881038 25.4494264,55.6333248 C26.1766912,54.1235342 29.4017532,44.871863 29.8817113,36.9423649 C30.2691584,30.5421271 29.1581104,24.9065195 27.9508875,21.9595073 C26.9799798,19.5912778 24.6836917,13.2211296 18.3526411,13.6317643 C11.846644,14.0530189 6.94814021,26.2375424 8.43564398,38.7070322 C9.6016491,48.4790767 12.3678199,54.7111666 13.0987485,55.8227123 C13.1287022,55.8686648 13.1684311,55.8832294 13.2050129,55.8616688 C13.2415946,55.8401083 13.2703548,55.7851775 13.2819386,55.7147437 L15.0588828,50.7446476 C15.0719884,50.6683388 15.1050414,50.6111686 15.145736,50.5944216 C15.1864306,50.5776746 15.2286699,50.60386 15.2567281,50.6632286 L17.3231127,55.6421747 C17.3468575,55.6937386 17.3814716,55.7215728 17.4171367,55.7177823 C17.4528019,55.7139917 17.4856275,55.6789899 17.5063028,55.6227049 L19.2347016,50.7198679 C19.2566264,50.6590994 19.2925406,50.6228823 19.3308764,50.6228823 C19.3692121,50.6228823 19.4051264,50.6590994 19.4270512,50.7198679 L21.0198893,55.458097 C21.0407571,55.5184038 21.0753083,55.555752 21.1128227,55.5585537 C21.150337,55.5613553 21.1862768,55.5292715 21.2094911,55.4722568 L23.2914468,50.321623 C23.3163744,50.260028 23.355977,50.2276266 23.3962144,50.2359061 C23.4364517,50.2441855 23.4716355,50.2919752 23.4892921,50.3623325 L25.2589087,55.5766855 Z" id="Shape" stroke="#092443" stroke-width="2" fill="#FFF299"></path>
                                <polygon id="Rectangle-path" fill="#092443" points="8.16768853 35.7294778 29.3434192 35.7294778 29.3434192 43.2333496 8.16768853 43.2333496"></polygon>
                                <polygon id="Shape" fill="#092443" points="29.3434192 30.2003091 8.16768853 30.2003091 9.76150091 22.3014967 25.8544628 22.3388981"></polygon>
                                <path d="M21.6265107,24.0247877 C21.6265107,24.0247877 19.7021268,18.8949071 15.6025133,20.719064 C11.5028999,22.5432208 11.6787695,30.2775024 11.6787695,30.2775024 C11.6787695,30.2775024 10.807752,44.2680859 21.8958689,41.2188562 C31.6233103,38.551677 28.7908838,26.632776 27.6764257,24.0247877 C26.5406782,21.3665769 24.0516602,17.9998685 21.6265107,24.0247877 Z" id="Shape" stroke="#092443" stroke-width="5" fill="#FFDF00"></path>
                                <path d="M21.7246921,25.1549241 C21.7246921,25.1549241 20.1583408,20.0828345 16.0329328,21.9077799 C11.9075248,23.7327253 12.0816673,31.8092323 12.0816673,31.8092323 C12.0816673,31.8092323 11.4176908,43.7963365 22.3607313,42.7768843 C31.7029645,41.906664 29.3161878,28.3930784 28.3206887,25.5882362 C27.2665212,22.6197783 24.1645496,19.1173216 21.7246921,25.1549241 Z" id="Shape" fill="#FFFFFF"></path>
                                <ellipse id="Oval" fill="#FEE7E2" transform="translate(22.353372, 31.582601) rotate(-3.140000) translate(-22.353372, -31.582601) " cx="22.3533722" cy="31.5826013" rx="3.91816053" ry="2.57177805"></ellipse>
                                <ellipse id="Oval" fill="#231F20" cx="20.5030656" cy="29.2129576" rx="1" ry="1.38229218"></ellipse>
                                <ellipse id="Oval" fill="#231F20" cx="24.2036787" cy="29.2129576" rx="1" ry="1.38229218"></ellipse>
                                <polygon id="Shape" fill="#092443" points="26.148929 54.6866277 24.3577796 54.6866277 23.1225987 50.7216821 21.8344683 54.6866277 20.1227431 54.6866277 19.1002725 50.6708262 18.11158 54.6866277 16.224574 54.6866277 14.9537892 50.7216821 13.9486641 54.6866277 11.7667849 54.6866277 9.60681585 47.5776965 28.1098814 47.5776965"></polygon>
                                <path d="M4.39205605,49.7688223 L7.48405462,44.2433145 C7.58534059,44.0631874 7.72779986,43.9870029 7.86513546,44.0395199 C8.00247105,44.0920368 8.11715225,44.2665514 8.1719095,44.5063493 L9.36776291,49.7617132 C9.42253309,50.0032625 9.40948727,50.2794922 9.33291232,50.4996332 C9.25633737,50.7197742 9.12613503,50.8553605 8.98508982,50.8618384 L4.69723784,51.1319822 C4.52162373,51.1389091 4.36166939,50.9451942 4.29421539,50.6438964 C4.2267614,50.3425987 4.26559308,49.9952932 4.39205605,49.7688223 Z" id="Shape" fill="#092443"></path>
                                <ellipse id="Oval" fill="#A4DDEB" opacity="0.49" transform="translate(10.120790, 8.873516) rotate(-25.200000) translate(-10.120790, -8.873516) " cx="10.1207899" cy="8.87351554" rx="3.62158669" ry="7.62579821"></ellipse>
                                <ellipse id="Oval" fill="#A4DDEB" opacity="0.49" transform="translate(7.242535, 12.427981) rotate(-65.980000) translate(-7.242535, -12.427981) " cx="7.24253525" cy="12.4279811" rx="5.24097909" ry="4.9931448"></ellipse>
                                <path d="M25.2179493,8.2264406 C25.2614659,8.7670776 25.2001991,9.32161636 25.047627,9.76806468 C24.8950549,10.214513 24.6636753,10.5163002 24.4043893,10.6070365 C24.2152122,10.6789657 24.0199602,10.6227682 23.8472032,10.446667 C23.7908009,10.3914286 23.117392,12.367537 22.7806875,14.2402961 C22.7131757,14.6180554 22.5499509,14.2402961 22.5593513,14.0763629 C22.6661738,12.1982581 23.5600643,10.0778172 23.5216082,9.99228678 C23.2294361,9.34903847 23.1663567,8.38908204 23.3647823,7.60567665 C23.5632079,6.82227127 23.9790069,6.38965345 24.3985273,6.53011735 C24.8180476,6.67058125 25.1479841,7.35288641 25.2188039,8.2264406 L25.2179493,8.2264406 Z" id="Shape" fill="#092443"></path>
                                <path d="M28.2957225,12.0974349 C28.2424568,12.6289031 28.0829143,13.0973262 27.8522384,13.399522 C27.6215626,13.7017177 27.3386765,13.8128958 27.0658931,13.7085666 C26.865906,13.636674 26.6829996,13.4418889 26.5439832,13.1527613 C26.4979323,13.0612997 25.4802982,14.3998054 24.8130119,15.8842979 C24.6784711,16.1833071 24.5854664,15.7172046 24.6233906,15.5729766 C25.0640343,13.9143552 26.3263702,12.6039916 26.3028933,12.4967 C26.1282757,11.6903456 26.2371077,10.7568795 26.5733987,10.1765397 C26.9096896,9.59619993 27.3985288,9.49826055 27.7884243,9.9331082 C28.1783199,10.3679558 28.3824203,11.2387256 28.2957225,12.0974349 Z" id="Shape" fill="#092443"></path>
                            </g>
                            <polygon id="Path-26-Copy-2" fill="url(#linearGradient-13)" points="289.596035 227.485798 280.75357 289.231943 301.458111 289.231943"></polygon>
                            <polygon id="Path-26-Copy-3" fill="url(#linearGradient-13)" transform="translate(305.599019, 253.484175) scale(-1, 1) translate(-305.599019, -253.484175) " points="304.391174 219.361305 297.317203 287.607045 313.880835 287.607045"></polygon>
                            <path d="M265.35623,219.361305 C266.925629,255.049957 267.769114,276.829392 267.886684,284.69961 C268.004254,292.569829 268.152308,301.663466 268.330846,311.980523 L265.018119,311.980523 C265.077329,301.724841 265.106934,292.631203 265.106934,284.69961 C265.106934,276.768017 265.190032,254.988583 265.35623,219.361305 Z" id="Rectangle-5-Copy" fill="#C16843"></path>
                            <path d="M264.879068,219.361305 C265.219619,254.731344 265.450469,276.399589 265.571619,284.366038 C265.692769,292.332488 265.784329,301.537316 265.846301,311.980523 L263.361756,311.980523 C263.422768,301.599441 263.453275,292.394613 263.453275,284.366038 C263.453275,276.337464 263.928539,254.669219 264.879068,219.361305 Z" id="Rectangle-5-Copy-12" fill="#9D4C2A"></path>
                            <polygon id="Path-26" fill="url(#linearGradient-13)" points="265.578768 219.361305 256.736303 287.607045 277.440844 287.607045"></polygon>
                            <path d="M134.165423,84.8326758 C134.165423,84.8326758 135.156034,93.6106193 137.392175,93.6106193 C139.628316,93.6106193 139.469013,89.2883701 141.68879,89.2883701 C144.444115,89.2883701 144.404283,99.1188121 147.476457,99.1188121 C150.505514,99.1188121 151.801929,89.7808887 153.724462,86.4400194 C155.646995,83.0991502 158.18269,81.5381767 158.18269,81.5381767 L148.043579,58.884757 C148.043579,58.884757 146.750669,57.6276784 145.83276,59.6365468 C144.914851,61.6454152 134.165423,84.8326758 134.165423,84.8326758 Z" id="Path-25-Copy-2" fill="#F6F1F1"></path>
                            <path d="M177.230867,32.835922 C177.230867,32.835922 178.084842,41.6138654 180.01255,41.6138654 C181.940258,41.6138654 181.802927,37.2916163 183.716528,37.2916163 C186.091808,37.2916163 186.057471,47.1220582 188.705896,47.1220582 C191.317152,47.1220582 192.434752,37.7841348 194.092108,34.4432656 C195.749464,31.1023963 197.935408,29.5414228 197.935408,29.5414228 L189.194795,6.88800314 C189.194795,6.88800314 188.080217,5.63092458 187.288917,7.63979295 C186.497616,9.64866132 177.230867,32.835922 177.230867,32.835922 Z" id="Path-25-Copy-3" fill="#F6F1F1"></path>
                            <path d="M134.165423,84.7898849 C134.165423,84.7898849 135.116402,93.5565527 137.26308,93.5565527 C139.409758,93.5565527 139.256828,89.2398557 141.387797,89.2398557 C143.795725,89.2398557 143.514599,97.3850148 146.499288,99.1159679 C146.68907,99.2700875 146.518825,93.1407074 146.499288,85.5993139 C146.468671,73.7812859 146.499288,58.4963481 146.499288,58.4963481 C146.499288,58.4963481 146.300625,58.5216451 146.101408,58.6323316 C145.902191,58.7430181 145.642176,59.005125 145.180793,60.0556029 C144.299608,62.0618908 134.165423,84.7898849 134.165423,84.7898849 Z" id="Path-25-Copy-4" fill="#E2E2E2"></path>
                            <path d="M177.230867,33.60256 C177.230867,33.60256 178.024632,41.5597988 179.890778,41.5597988 C181.756924,41.5597988 181.62398,37.2431018 183.476469,37.2431018 C185.569725,37.2431018 185.325337,45.388261 187.919981,47.119214 C188.084962,47.2733336 187.936965,41.1439536 187.919981,33.60256 C187.893365,21.7845321 187.919981,6.49959423 187.919981,6.49959423 C187.919981,6.49959423 187.74728,6.52489123 187.574097,6.63557771 C187.400915,6.7462642 187.174878,7.00837114 186.77379,8.05884903 C186.00776,10.0651369 177.230867,33.60256 177.230867,33.60256 Z" id="Path-25-Copy-5" fill="#E2E2E2"></path>
                            <path d="M121.947369,47.1220256 L183.351366,47.1220256 C185.578546,47.1220256 187.485567,45.5259425 187.877849,43.3335819 L187.877849,43.3335819 C188.29367,41.0096659 187.367865,38.6493076 185.482974,37.2278014 L182.843124,35.236936 C179.085719,32.4032573 176.034939,28.7386026 173.929482,24.5296981 L164.374029,5.42791607 C162.349,1.37979083 157.835344,-0.778233405 153.413176,0.187421483 L153.413176,0.187421483 C148.651095,1.22730208 144.60018,4.33535026 142.362775,8.66579877 L138.717941,15.7202925 C136.389022,20.2278612 132.178776,23.4685556 127.225307,24.566359 L127.225307,24.566359 C122.322311,25.6529761 118.251098,29.0505126 116.304662,33.6799286 L115.030487,36.7104365 C113.424334,40.5305247 115.219082,44.929363 119.039171,46.5355167 C119.959874,46.9226257 120.948596,47.1220256 121.947369,47.1220256 Z" id="Path-24" fill="#FFFFFF" opacity="0.820199275"></path>
                            <path d="M311.600961,204.737186 L373.004957,204.737186 C375.232137,204.737186 377.139159,203.141103 377.53144,200.948742 L377.53144,200.948742 C377.947261,198.624826 377.021456,196.264468 375.136566,194.842961 L372.496715,192.852096 C368.73931,190.018417 365.688531,186.353763 363.583074,182.144858 L354.027621,163.043076 C352.002591,158.994951 347.488936,156.836927 343.066768,157.802582 L343.066768,157.802582 C338.304686,158.842462 334.253772,161.95051 332.016366,166.280959 L328.371532,173.335453 C326.042614,177.843021 321.832368,181.083716 316.878898,182.181519 L316.878898,182.181519 C311.975903,183.268136 307.904689,186.665673 305.958254,191.295089 L304.684079,194.325597 C303.077925,198.145685 304.872674,202.544523 308.692762,204.150677 C309.613465,204.537786 310.602188,204.737186 311.600961,204.737186 Z" id="Path-24-Copy-2" fill="#FFFFFF" opacity="0.557801178"></path>
                            <path d="M349.195487,222.619684 L397.981875,222.619684 C400.18273,222.619684 402.051773,221.008136 402.37564,218.83124 L402.37564,218.83124 C402.72781,216.464097 401.874918,214.077407 400.102276,212.469574 L398.189454,210.734594 C395.061532,207.897487 392.598736,204.404634 390.976983,200.505532 L382.452609,180.010791 C381.030041,176.590582 377.302315,174.74414 373.719556,175.68508 L373.719556,175.68508 C369.774651,176.721129 366.527411,179.517519 364.917513,183.265038 L361.10019,192.150997 C359.423822,196.053245 356.049131,198.970164 351.945323,200.064017 L351.945323,200.064017 C347.879575,201.147727 344.614273,204.174392 343.225716,208.146375 L341.805788,212.208095 C340.379044,216.289313 342.53092,220.754398 346.612138,222.181143 C347.442499,222.471427 348.315847,222.619684 349.195487,222.619684 Z" id="Path-24-Copy-3" fill="#FFFFFF" opacity="0.820199275" transform="translate(371.840197, 199.054435) scale(-1, 1) translate(-371.840197, -199.054435) "></path>
                            <path d="M267.435163,66.9064531 C259.126042,81.2161175 234.468443,115.30708 197.184005,132.189417 C159.899568,149.071754 73.6232575,153.267062 94.2414936,132.189417 C96.8230256,129.550364 100.60365,127.417475 103.346599,125.47011 C109.279338,121.258146 115.103988,118.018006 120.820551,115.749693 C102.100137,121.838108 90.9295737,128.609314 87.3088598,136.06331 C81.8777888,147.244303 92.5724337,165.395214 176.290632,153.988606 C225.485253,147.285837 281.185427,109.921841 284.805433,91.7418715 C285.955011,85.9685971 275.744283,52.5967886 267.435163,66.9064531 Z" id="Path-40" fill="url(#linearGradient-14)" opacity="0.739923007"></path>
                            <g id="Page-1-Copy" transform="translate(279.602271, 78.872333) rotate(18.000000) translate(-279.602271, -78.872333) translate(265.102271, 56.872333)">
                                <path d="M25.8278819,32.5124792 C24.422607,32.5124792 22.3583424,31.0800694 21.6052244,29.3508174 C21.1272097,28.2530844 20.8463525,26.9136699 20.8463525,25.4680003 C20.8463525,23.3421925 21.4535579,21.4462208 22.4021252,20.2105862 C23.1149667,19.2822248 24.7266592,18.8023976 25.7123565,18.8023976 C28.0098296,18.8023976 28.9863568,21.7448311 28.9863568,25.4680003 C28.9863568,29.1911696 28.125355,32.5124792 25.8278819,32.5124792 Z" id="Fill-1" fill="#3CC4E6"></path>
                                <path d="M17.8087015,43.5775471 C17.8440285,43.7208957 17.9410877,43.750664 17.9962411,43.6340715 C18.7118836,42.122621 21.8850069,32.860956 22.3574156,24.9225633 C22.738623,18.5152892 21.6458285,12.8720685 20.4575971,9.92305681 C19.501875,7.55116052 17.2424779,1.17524954 11.013207,1.58580413 C4.61189708,2.00769902 -0.207267023,14.2045547 1.25637102,26.6884618 C2.40341769,36.4714266 5.1256709,42.7098364 5.84482806,43.8238444 C5.90773179,43.921123 6.00019485,43.8651302 6.02506796,43.7155799 L7.77375539,38.7400198 C7.80133209,38.5746994 7.9093859,38.5296925 7.96868483,38.6586885 L10.0015204,43.6432855 C10.0505457,43.7499552 10.137151,43.7409184 10.1801382,43.6246803 L11.8807016,38.716276 C11.9278343,38.5888747 12.0250737,38.5925958 12.069593,38.7235409 L13.6365085,43.4673335 C13.6801265,43.5954435 13.7747525,43.602354 13.8230568,43.4808001 L15.871393,38.323795 C15.9238428,38.1916096 16.0286523,38.2135814 16.0657817,38.3643721 L17.8087015,43.5775471 Z" id="Fill-3" fill="#00BBF1"></path>
                                <path d="M17.8087015,43.5775471 C17.8440285,43.7208957 17.9410877,43.750664 17.9962411,43.6340715 C18.7118836,42.122621 21.8850069,32.860956 22.3574156,24.9225633 C22.738623,18.5152892 21.6458285,12.8720685 20.4575971,9.92305681 C19.501875,7.55116052 17.2424779,1.17524954 11.013207,1.58580413 C4.61189708,2.00769902 -0.207267023,14.2045547 1.25637102,26.6884618 C2.40341769,36.4714266 5.1256709,42.7098364 5.84482806,43.8238444 C5.90773179,43.921123 6.00019485,43.8651302 6.02506796,43.7155799 L7.77375539,38.7400198 C7.80133209,38.5746994 7.9093859,38.5296925 7.96868483,38.6586885 L10.0015204,43.6432855 C10.0505457,43.7499552 10.137151,43.7409184 10.1801382,43.6246803 L11.8807016,38.716276 C11.9278343,38.5888747 12.0250737,38.5925958 12.069593,38.7235409 L13.6365085,43.4673335 C13.6801265,43.5954435 13.7747525,43.602354 13.8230568,43.4808001 L15.871393,38.323795 C15.9238428,38.1916096 16.0286523,38.2135814 16.0657817,38.3643721 L17.8087015,43.5775471 Z" id="Stroke-5" stroke="#A9DEF2" stroke-width="2"></path>
                                <path d="M14.3034371,11.1105713 C14.3034371,11.1105713 12.4233225,6.02259873 8.41652392,7.83157261 C4.40972535,9.64054648 4.58203452,17.3127166 4.58203452,17.3127166 C4.58203452,17.3127166 3.73089057,31.1820501 14.5661972,28.166204 C24.0713314,25.520622 21.3038925,13.696904 20.2151338,11.1105713 C19.1055713,8.47477518 16.6734343,5.13510373 14.3034371,11.1105713" id="Fill-7" fill="#D7D7D7"></path>
                                <path d="M14.0838075,13.0163426 C14.0838075,13.0163426 12.5715909,7.98209053 8.58799385,9.79504182 C4.60439677,11.6078148 4.77238086,19.6155067 4.77238086,19.6155067 C4.77238086,19.6155067 4.13146939,31.5040948 14.6988199,30.4928578 C23.720411,29.6298024 21.4153959,16.21999 20.4550628,13.4451955 C19.4360972,10.5009997 16.4400811,7.02773671 14.0838075,13.0163426" id="Fill-9" fill="#FEFEFE"></path>
                                <path d="M18.6616416,19.3537 C18.6189743,17.7485951 16.8958374,16.639233 14.8129617,16.8755371 C12.7300861,17.1118411 11.0761947,18.6045776 11.118862,20.2096824 C11.1615293,21.8146036 12.8846662,22.9241493 14.9675418,22.6878453 C17.0504174,22.4513577 18.7043089,20.9588048 18.6616416,19.3537" id="Fill-11" fill="#FCE6E1"></path>
                                <path d="M13.5004949,17.0396728 C13.5004949,17.7968462 13.2782603,18.410681 13.0041532,18.410681 C12.7300461,18.410681 12.5078115,17.7968462 12.5078115,17.0396728 C12.5078115,16.2824995 12.7300461,15.6686647 13.0041532,15.6686647 C13.2782603,15.6686647 13.5004949,16.2824995 13.5004949,17.0396728" id="Fill-13" fill="#231F20"></path>
                                <path d="M17.0741554,17.0396728 C17.0741554,17.7968462 16.8519208,18.410681 16.5778136,18.410681 C16.3037065,18.410681 16.0814719,17.7968462 16.0814719,17.0396728 C16.0814719,16.2824995 16.3037065,15.6686647 16.5778136,15.6686647 C16.8519208,15.6686647 17.0741554,16.2824995 17.0741554,17.0396728" id="Fill-15" fill="#231F20"></path>
                                <path d="M14.4568096,1.56686647 C14.4688616,1.81559952 14.3543226,2.04043235 14.2023592,2.06638116 L11.596599,2.15327555 C11.5774789,2.15651915 11.1711558,3.50893043 11.1540293,3.50176036 C11.1411618,3.49646817 11.1299254,3.48724951 11.1180547,3.4795673 C11.1651751,3.51371048 11.2158296,3.53231851 11.2697462,3.52309985 L14.3893911,3.16288932 C14.5693549,3.13198975 14.7049168,2.86584367 14.6906901,2.57135876 L14.4568096,1.56686647 Z" id="Fill-17" fill="#0495BB"></path>
                                <path d="M11.3165267,2.35143796 L10.8642487,0.832481887 C10.8557815,0.654473563 10.908487,0.489684575 10.9923021,0.391716617 L10.9864988,0.391716617 L10.5904464,0.89568118 C10.4363255,1.12222077 10.3101748,1.24101371 10.3251112,1.55338844 L10.8109723,3.13373293 C10.8278114,3.0821232 11.3230911,2.37262512 11.3165267,2.35143796" id="Fill-19" fill="#D5EEF6"></path>
                                <path d="M10.8056913,2.99694134 L10.7231911,2.74201632 C10.722727,2.74348381 10.7208705,2.74662845 10.7209865,2.74725737 C10.8118411,3.03635409 10.9137189,3.39945453 11.1180547,3.52544955 C10.9770734,3.42712732 10.8642884,3.21203433 10.8056913,2.99694134" id="Fill-21" fill="#79D0E8"></path>
                                <g id="Group-25" transform="translate(10.720981, 0.000000)">
                                    <mask id="mask-16" fill="white">
                                        <use xlink:href="#path-15"></use>
                                    </mask>
                                    <g id="Clip-24"></g>
                                    <path d="M0.804598432,2.02433933 L3.4515545,1.93416792 C3.60591502,1.9072405 3.72216865,1.67392862 3.70992658,1.41581517 L3.2822826,0.536422463 C3.1360221,0.252798829 3.03136622,-0.0003543081 2.84865565,0.0317105749 L0.180621132,0.0563349878 C0.0996209812,0.152175329 0.0485356587,0.313385514 0.0568197651,0.487527945 L0.423713631,1.66347653 C0.429972734,1.68438071 0.0214742446,2.68831271 0.00518216876,2.73880161 L0.0707186546,2.95422093 C0.11710965,3.13598099 0.206577999,3.31774104 0.31850548,3.40064914 C0.330655503,3.40862107 0.342069161,3.41818739 0.35513964,3.42385632 C0.372444217,3.43111964 0.785176805,2.02770525 0.804598432,2.02433933" id="Fill-23" fill="#79D0E8" mask="url(#mask-16)"></path>
                                </g>
                                <path d="M16.1525621,5.48403263 C16.1525621,5.83241478 16.0049487,6.1173416 15.8244608,6.1173416 L12.7346185,6.12285173 C12.7119654,6.12285173 12.1716067,7.39960119 12.1519004,7.38555925 C12.1370746,7.37507224 12.1242747,7.35960834 12.1107381,7.34609964 C12.1642399,7.40475582 12.2228985,7.44261572 12.2869901,7.44261572 L15.8914071,7.44261572 C16.1051379,7.44261572 16.2800086,7.10507608 16.2800086,6.69252763 L16.1525621,5.48403263 Z" id="Fill-26" fill="#0495BB"></path>
                                <path d="M12.5077672,5.75589522 L12.1124208,3.67916386 C12.1124208,3.44571025 12.1755771,3.24348966 12.2676194,3.13496814 L12.2616371,3.13373293 L11.824158,3.69980942 C11.6523797,3.95955524 11.515128,4.08554608 11.515128,4.49492808 L11.9423517,6.65918248 C11.9624353,6.59583415 12.5134931,5.78501075 12.5077672,5.75589522" id="Fill-28" fill="#D5EEF6"></path>
                                <path d="M11.9921748,6.90707132 L11.9148713,6.65918248 C11.9142049,6.66034356 11.9120946,6.66295597 11.9122056,6.6635365 C11.9967286,6.94437076 12.0895817,7.29515959 12.3092748,7.44261572 C12.1582219,7.33057228 12.0451544,7.11475805 11.9921748,6.90707132" id="Fill-30" fill="#79D0E8"></path>
                                <path d="M15.8376027,4.20220154 L16.2800086,5.48403263 L15.712124,3.41655162 C15.613579,3.06519399 15.4066619,2.78089752 15.2283165,2.78089752 L12.4682388,2.74201632 C12.4102766,2.74201632 12.3564999,2.77465512 12.3092748,2.82744794 L15.4536141,3.44954713 C15.6648078,3.44954713 15.8376027,3.78824161 15.8376027,4.20220154" id="Fill-32" fill="#79D0E8"></path>
                                <path d="M12.8629295,6.52960607 L15.9518983,6.5239123 C16.1323406,6.5239123 16.2800086,6.22930575 16.2800086,5.86949638 L15.8324014,4.54946067 C15.8324014,4.12316279 15.6575749,3.77437361 15.4438981,3.77437361 L12.2625908,3.13373293 C12.1633476,3.24668993 12.0954055,3.45717566 12.0954055,3.70017096 L12.4969816,5.68105104 C12.5031498,5.71135658 11.9338361,6.73605106 11.9122014,6.80198856 L11.9762768,7.11569678 C12.0201906,7.37852843 12.1139101,7.6516456 12.2391149,7.79362245 C12.2527401,7.80739769 12.2654447,7.82337698 12.2802668,7.8342135 C12.3000602,7.84872343 12.8402822,6.52960607 12.8629295,6.52960607" id="Fill-34" fill="#79D0E8"></path>
                                <path d="M2.21028464,14.1017982 C2.43278308,14.1887829 2.54831292,14.7765884 2.50174348,15.1923576 L2.18394234,21.7604918 C2.17801532,21.8128583 2.85416595,23.3761224 2.84014808,23.418121 C2.82961115,23.4495761 2.81644,23.4750565 2.80430372,23.502997 C2.85567122,23.3943979 2.89499653,23.2685777 2.91146047,23.121143 L3.36473635,15.1923576 C3.41996112,14.7001474 3.24939467,14.2130332 2.98587749,14.1100574 L2.21028464,14.1017982 Z" id="Fill-36" fill="#0495BB"></path>
                                <path d="M1.76104313,22.3635598 L0.306076687,22.4264364 C0.156368323,22.3713162 0.0440870496,22.17625 0,21.9361305 L0.19951735,22.9236736 C0.318552384,23.3854292 0.361420005,23.735129 0.62416006,23.831837 L2.18390359,23.8947136 C2.14872776,23.8328271 1.78130441,22.3569585 1.76104313,22.3635598" id="Fill-38" fill="#D5EEF6"></path>
                                <path d="M2.3637195,24.2275176 L2.18390359,24.2816611 C2.18462671,24.2828525 2.18599261,24.2865592 2.18639434,24.2864268 C2.38943045,24.2295033 2.64083526,24.1768159 2.77951367,23.8947136 C2.67699128,24.0861355 2.51211985,24.1991882 2.3637195,24.2275176" id="Fill-40" fill="#79D0E8"></path>
                                <g id="Group-44" transform="translate(0.000000, 14.101798)">
                                    <mask id="mask-18" fill="white">
                                        <use xlink:href="#path-17"></use>
                                    </mask>
                                    <g id="Clip-43"></g>
                                    <path d="M1.28585963,0.374671125 L2.16531522,0.0269192392 L0.914964206,0.380617142 C0.679601925,0.526564824 0.457650853,0.948551827 0.413686956,1.37486321 L-1.77631909e-05,8.05494269 L0.738842167,1.10026534 C0.790888317,0.595574654 1.03708614,0.269084283 1.28585963,0.374671125" id="Fill-42" fill="#79D0E8" mask="url(#mask-18)"></path>
                                </g>
                                <g id="Group-47" transform="translate(0.000000, 14.101798)">
                                    <mask id="mask-20" fill="white">
                                        <use xlink:href="#path-19"></use>
                                    </mask>
                                    <g id="Clip-46"></g>
                                    <path d="M2.11882608,7.76504604 L2.4150246,0.949923314 C2.45854442,0.530003943 2.32402862,0.114523465 2.11601268,0.026633364 L1.27287115,0.369138424 C1.02661053,0.265090749 0.782899546,0.586821786 0.731379115,1.08433302 L-1.75837647e-05,7.93745268 C0.0413042636,8.19597387 0.146543096,8.40566722 0.286949459,8.46497084 L1.54032022,8.409751 C1.55931068,8.40282633 2.01402684,9.97827858 2.04690848,10.0446844 L2.24367081,9.97206413 C2.40605688,9.9340672 2.58646631,9.78261213 2.69856281,9.52568895 C2.70990434,9.49745758 2.72221297,9.471712 2.73205988,9.43992952 C2.7452477,9.39749369 2.11337511,7.8177801 2.11882608,7.76504604" id="Fill-45" fill="#79D0E8" mask="url(#mask-20)"></path>
                                </g>
                                <polygon id="Fill-48" fill="#D5EEF6" points="2.58097698 15.2769481 0.298282526 18.4324537 0.19853669 19.9775475 2.51322682 16.7533512"></polygon>
                                <polygon id="Fill-50" fill="#D5EEF6" points="2.38244028 17.6272478 0.0237017116 20.7821587 0 21.1526973 2.36552377 18.0044953"></polygon>
                                <path d="M27.1205925,21.2248288 C27.1205925,21.2248288 28.1168998,18.861116 23.0302561,20.641575 L23.0622493,21.2872416 C23.0622493,21.2872416 26.0183481,20.4288968 25.8145873,21.9361305 L27.1205925,21.2248288 Z" id="Fill-52" fill="#E9F6FB"></path>
                                <path d="M27.779758,29.5358563 C27.779758,29.5358563 28.6984893,29.5063761 28.2827705,30.4778118 C27.0481368,33.3626388 24.9101282,33.0035801 22.2361093,30.5083512 L22.5253209,28.595313 C22.5253209,28.595313 25.4569246,30.7129476 25.4086617,29.0940057 L27.779758,29.5358563 Z" id="Fill-54" fill="#0495BB"></path>
                                <path d="M28.3907467,25.8532967 C28.3907467,23.2572456 27.5907776,21.1526973 26.6039624,21.1526973 C25.6170554,21.1526973 24.8170863,23.2572456 24.8170863,25.8532967 C24.8170863,28.4493478 25.6170554,30.5538961 26.6039624,30.5538961 C27.5907776,30.5538961 28.3907467,28.4493478 28.3907467,25.8532967" id="Fill-56" fill="#0495BB"></path>
                                <path d="M27.9936733,26.2450133 C27.9936733,23.8653513 27.2825318,21.9361305 26.4053798,21.9361305 C25.5282278,21.9361305 24.8170863,23.8653513 24.8170863,26.2450133 C24.8170863,28.6246753 25.5282278,30.5538961 26.4053798,30.5538961 C27.2825318,30.5538961 27.9936733,28.6246753 27.9936733,26.2450133" id="Fill-58" fill="#ED2643"></path>
                                <path d="M27.9936733,26.1569043 C27.9936733,23.9118307 27.3391522,21.9361305 26.3253952,21.9361305 C25.5071047,21.9361305 24.8170863,23.8623719 24.8170863,26.1074456 C24.8170863,27.3389682 25.0167236,28.4426048 25.3320282,29.1880187 C25.5914454,29.8014837 25.1319275,28.7388273 25.5012657,28.7388273 C26.2608884,28.7388273 27.1367344,27.7712023 27.4604731,25.8398384 C27.7086758,24.3594323 27.9936733,26.3176452 27.9936733,26.1569043" id="Fill-60" fill="#B0172F"></path>
                                <path d="M27.3980633,25.6574384 C27.3980633,23.8186109 26.8647548,22.3278472 26.2068431,22.3278472 C25.5490196,22.3278472 25.015623,23.8186109 25.015623,25.6574384 C25.015623,27.4962659 25.5490196,28.9870296 26.2068431,28.9870296 C26.8647548,28.9870296 27.3980633,27.4962659 27.3980633,25.6574384" id="Fill-62" fill="#8B071F"></path>
                            </g>
                            <g id="Gautam-Bee" transform="translate(238.348226, 220.893339) rotate(-8.000000) translate(-238.348226, -220.893339) translate(223.348226, 192.893339)" fill-rule="nonzero">
                                <path d="M25.2589087,55.5766855 C25.2754225,55.6441773 25.3081991,55.6914224 25.3463837,55.7027743 C25.3845683,55.7141263 25.423178,55.6881038 25.4494264,55.6333248 C26.1766912,54.1235342 29.4017532,44.871863 29.8817113,36.9423649 C30.2691584,30.5421271 29.1581104,24.9065195 27.9508875,21.9595073 C26.9799798,19.5912778 24.6836917,13.2211296 18.3526411,13.6317643 C11.846644,14.0530189 6.94814021,26.2375424 8.43564398,38.7070322 C9.6016491,48.4790767 12.3678199,54.7111666 13.0987485,55.8227123 C13.1287022,55.8686648 13.1684311,55.8832294 13.2050129,55.8616688 C13.2415946,55.8401083 13.2703548,55.7851775 13.2819386,55.7147437 L15.0588828,50.7446476 C15.0719884,50.6683388 15.1050414,50.6111686 15.145736,50.5944216 C15.1864306,50.5776746 15.2286699,50.60386 15.2567281,50.6632286 L17.3231127,55.6421747 C17.3468575,55.6937386 17.3814716,55.7215728 17.4171367,55.7177823 C17.4528019,55.7139917 17.4856275,55.6789899 17.5063028,55.6227049 L19.2347016,50.7198679 C19.2566264,50.6590994 19.2925406,50.6228823 19.3308764,50.6228823 C19.3692121,50.6228823 19.4051264,50.6590994 19.4270512,50.7198679 L21.0198893,55.458097 C21.0407571,55.5184038 21.0753083,55.555752 21.1128227,55.5585537 C21.150337,55.5613553 21.1862768,55.5292715 21.2094911,55.4722568 L23.2914468,50.321623 C23.3163744,50.260028 23.355977,50.2276266 23.3962144,50.2359061 C23.4364517,50.2441855 23.4716355,50.2919752 23.4892921,50.3623325 L25.2589087,55.5766855 Z" id="Shape" stroke="#000000" stroke-width="2" fill="#FFDF00"></path>
                                <polygon id="Rectangle-path" fill="#000000" points="8.16768853 35.7294778 29.3434192 35.7294778 29.3434192 43.2333496 8.16768853 43.2333496"></polygon>
                                <polygon id="Shape" fill="#000000" points="29.3434192 30.2003091 8.16768853 30.2003091 9.76150091 22.3014967 25.8544628 22.3388981"></polygon>
                                <path d="M21.6265107,24.0247877 C21.6265107,24.0247877 19.7021268,18.8949071 15.6025133,20.719064 C11.5028999,22.5432208 11.6787695,30.2775024 11.6787695,30.2775024 C11.6787695,30.2775024 10.807752,44.2680859 21.8958689,41.2188562 C31.6233103,38.551677 28.7908838,26.632776 27.6764257,24.0247877 C26.5406782,21.3665769 24.0516602,17.9998685 21.6265107,24.0247877 Z" id="Shape" stroke="#000000" stroke-width="4" fill="#FFDF00"></path>
                                <path d="M21.7246921,25.1549241 C21.7246921,25.1549241 20.1583408,20.0828345 16.0329328,21.9077799 C11.9075248,23.7327253 12.0816673,31.8092323 12.0816673,31.8092323 C12.0816673,31.8092323 11.4176908,43.7963365 22.3607313,42.7768843 C31.7029645,41.906664 29.3161878,28.3930784 28.3206887,25.5882362 C27.2665212,22.6197783 24.1645496,19.1173216 21.7246921,25.1549241 Z" id="Shape" fill="#FFFFFF"></path>
                                <ellipse id="Oval" fill="#FEE7E2" transform="translate(22.353372, 31.582601) rotate(-3.140000) translate(-22.353372, -31.582601) " cx="22.3533722" cy="31.5826013" rx="3.91816053" ry="2.57177805"></ellipse>
                                <ellipse id="Oval" fill="#231F20" cx="20.5030656" cy="29.2129576" rx="1" ry="1.38229218"></ellipse>
                                <ellipse id="Oval" fill="#231F20" cx="24.2036787" cy="29.2129576" rx="1" ry="1.38229218"></ellipse>
                                <polygon id="Shape" fill="#000000" points="26.148929 54.6866277 24.3577796 54.6866277 23.1225987 50.7216821 21.8344683 54.6866277 20.1227431 54.6866277 19.1002725 50.6708262 18.11158 54.6866277 16.224574 54.6866277 14.9537892 50.7216821 13.9486641 54.6866277 11.7667849 54.6866277 9.60681585 47.5776965 28.1098814 47.5776965"></polygon>
                                <path d="M4.39205605,49.7688223 L7.48405462,44.2433145 C7.58534059,44.0631874 7.72779986,43.9870029 7.86513546,44.0395199 C8.00247105,44.0920368 8.11715225,44.2665514 8.1719095,44.5063493 L9.36776291,49.7617132 C9.42253309,50.0032625 9.40948727,50.2794922 9.33291232,50.4996332 C9.25633737,50.7197742 9.12613503,50.8553605 8.98508982,50.8618384 L4.69723784,51.1319822 C4.52162373,51.1389091 4.36166939,50.9451942 4.29421539,50.6438964 C4.2267614,50.3425987 4.26559308,49.9952932 4.39205605,49.7688223 Z" id="Shape" fill="#000000"></path>
                                <ellipse id="Oval" fill="#A4DDEB" opacity="0.49" transform="translate(10.120790, 8.873516) rotate(-25.200000) translate(-10.120790, -8.873516) " cx="10.1207899" cy="8.87351554" rx="3.62158669" ry="7.62579821"></ellipse>
                                <ellipse id="Oval" fill="#A4DDEB" opacity="0.49" transform="translate(7.242535, 12.427981) rotate(-65.980000) translate(-7.242535, -12.427981) " cx="7.24253525" cy="12.4279811" rx="5.24097909" ry="4.9931448"></ellipse>
                                <path d="M25.2179493,8.2264406 C25.2614659,8.7670776 25.2001991,9.32161636 25.047627,9.76806468 C24.8950549,10.214513 24.6636753,10.5163002 24.4043893,10.6070365 C24.2152122,10.6789657 24.0199602,10.6227682 23.8472032,10.446667 C23.7908009,10.3914286 23.117392,12.367537 22.7806875,14.2402961 C22.7131757,14.6180554 22.5499509,14.2402961 22.5593513,14.0763629 C22.6661738,12.1982581 23.5600643,10.0778172 23.5216082,9.99228678 C23.2294361,9.34903847 23.1663567,8.38908204 23.3647823,7.60567665 C23.5632079,6.82227127 23.9790069,6.38965345 24.3985273,6.53011735 C24.8180476,6.67058125 25.1479841,7.35288641 25.2188039,8.2264406 L25.2179493,8.2264406 Z" id="Shape" fill="#000000"></path>
                                <path d="M28.2957225,12.0974349 C28.2424568,12.6289031 28.0829143,13.0973262 27.8522384,13.399522 C27.6215626,13.7017177 27.3386765,13.8128958 27.0658931,13.7085666 C26.865906,13.636674 26.6829996,13.4418889 26.5439832,13.1527613 C26.4979323,13.0612997 25.4802982,14.3998054 24.8130119,15.8842979 C24.6784711,16.1833071 24.5854664,15.7172046 24.6233906,15.5729766 C25.0640343,13.9143552 26.3263702,12.6039916 26.3028933,12.4967 C26.1282757,11.6903456 26.2371077,10.7568795 26.5733987,10.1765397 C26.9096896,9.59619993 27.3985288,9.49826055 27.7884243,9.9331082 C28.1783199,10.3679558 28.3824203,11.2387256 28.2957225,12.0974349 Z" id="Shape" fill="#000000"></path>
                            </g>
                            <path d="M333.09088,248.609479 L334.335773,294.927959 L334.585376,311.980523 L331.272649,311.980523 C331.59201,305.748395 331.823598,300.551957 331.967413,296.391209 C332.111229,292.230462 332.485718,276.303218 333.09088,248.609479 Z" id="Rectangle-5-Copy-18" fill="#9D4C2A" transform="translate(332.929012, 280.295001) scale(-1, 1) translate(-332.929012, -280.295001) "></path>
                            <path d="M347.998149,229.110697 L349.243042,286.118056 L349.492645,307.105828 L346.179918,307.105828 C346.499279,299.435516 346.730867,293.0399 346.874683,287.91898 C347.018498,282.798059 347.392987,263.195298 347.998149,229.110697 Z" id="Rectangle-5-Copy-19" fill="#9D4C2A" transform="translate(347.836282, 268.108262) scale(-1, 1) translate(-347.836282, -268.108262) "></path>
                            <path d="M322.990833,229.110697 C324.639284,263.981047 325.559486,283.99153 325.751438,289.142145 C325.943391,294.29276 326.127431,301.36392 326.303559,310.355625 L323.592902,310.355625 C323.826755,304.257277 323.996336,299.172387 324.101645,295.100954 C324.206955,291.029522 323.836684,269.03277 322.990833,229.110697 Z" id="Rectangle-5-Copy-17" fill="#9D4C2A" transform="translate(324.647196, 269.733161) scale(-1, 1) translate(-324.647196, -269.733161) "></path>
                            <path d="M325.813488,227.485798 C327.382887,259.41775 328.226372,278.904612 328.343942,285.946387 C328.461512,292.988161 328.609566,301.124574 328.788104,310.355625 L325.475378,310.355625 C325.534587,301.179488 325.564192,293.043075 325.564192,285.946387 C325.564192,278.849698 325.647291,259.362836 325.813488,227.485798 Z" id="Rectangle-5-Copy-6" fill="#C16843" transform="translate(327.131741, 268.920711) scale(-1, 1) translate(-327.131741, -268.920711) "></path>
                            <path d="M332.354414,240.484987 C333.531463,266.781888 334.164076,282.829893 334.252254,288.629001 C334.340432,294.428109 334.451472,301.128684 334.585376,308.730726 L332.100831,308.730726 C332.145238,301.173907 332.167442,294.473332 332.167442,288.629001 C332.167442,282.784669 332.229766,266.736665 332.354414,240.484987 Z" id="Rectangle-5-Copy-7" fill="#C16843"></path>
                            <polygon id="Path-26-Copy-6" fill="url(#linearGradient-13)" points="332.790918 240.484987 327.131741 292.48174 340.382647 292.48174"></polygon>
                            <polygon id="Path-26-Copy-7" fill="url(#linearGradient-13)" points="347.698188 227.485798 342.03901 285.982146 355.289916 285.982146"></polygon>
                        </g>
                    </g>
                </g>
            </g>
        </g>
    </g>
</svg>