<?xml version="1.0" encoding="UTF-8"?>
<svg width="233px" height="159px" viewBox="0 0 233 159" version="1.1" xmlns="http://www.w3.org/2000/svg" xmlns:xlink="http://www.w3.org/1999/xlink">
    <!-- Generator: Sketch 52.6 (67491) - http://www.bohemiancoding.com/sketch -->
    <title>Group 21 Copy</title>
    <desc>Created with Sketch.</desc>
    <defs>
        <filter x="-78.3%" y="-13.8%" width="240.9%" height="145.9%" filterUnits="objectBoundingBox" id="filter-1">
            <feOffset dx="3" dy="4" in="SourceAlpha" result="shadowOffsetOuter1"></feOffset>
            <feColorMatrix values="0 0 0 0 0.117647059   0 0 0 0 0.88627451   0 0 0 0 0.603921569  0 0 0 1 0" type="matrix" in="shadowOffsetOuter1" result="shadowMatrixOuter1"></feColorMatrix>
            <feMerge>
                <feMergeNode in="shadowMatrixOuter1"></feMergeNode>
                <feMergeNode in="SourceGraphic"></feMergeNode>
            </feMerge>
        </filter>
        <linearGradient x1="49.6474653%" y1="43.6948626%" x2="50%" y2="9.4695525%" id="linearGradient-2">
            <stop stop-color="#7BFF19" offset="0%"></stop>
            <stop stop-color="#ECFFDB" offset="57.9886199%"></stop>
            <stop stop-color="#BDFFCF" offset="100%"></stop>
        </linearGradient>
        <polygon id="path-3" points="0 0 529.710324 0 538 429 8.28967643 429"></polygon>
        <linearGradient x1="50%" y1="0%" x2="50%" y2="100%" id="linearGradient-5">
            <stop stop-color="#AC9083" offset="0%"></stop>
            <stop stop-color="#73574B" offset="100%"></stop>
        </linearGradient>
        <linearGradient x1="50%" y1="0%" x2="50%" y2="100%" id="linearGradient-6">
            <stop stop-color="#F2DCCF" offset="0%"></stop>
            <stop stop-color="#E1B7A1" offset="100%"></stop>
        </linearGradient>
        <linearGradient x1="50%" y1="0%" x2="50%" y2="100%" id="linearGradient-7">
            <stop stop-color="#D5A890" offset="0%"></stop>
            <stop stop-color="#737272" offset="28.8910557%"></stop>
            <stop stop-color="#6C8354" offset="100%"></stop>
        </linearGradient>
        <linearGradient x1="50%" y1="0%" x2="50%" y2="100%" id="linearGradient-8">
            <stop stop-color="#5B5C61" offset="0%"></stop>
            <stop stop-color="#82807C" offset="100%"></stop>
        </linearGradient>
        <linearGradient x1="50%" y1="0%" x2="50%" y2="100%" id="linearGradient-9">
            <stop stop-color="#5D5E63" offset="0%"></stop>
            <stop stop-color="#37383E" offset="100%"></stop>
        </linearGradient>
        <linearGradient x1="50%" y1="0%" x2="50%" y2="100%" id="linearGradient-10">
            <stop stop-color="#F2DDCF" offset="0%"></stop>
            <stop stop-color="#E1B7A1" offset="100%"></stop>
        </linearGradient>
        <linearGradient x1="-11.3770283%" y1="157.213749%" x2="71.0627226%" y2="0%" id="linearGradient-11">
            <stop stop-color="#B1A7A7" offset="0%"></stop>
            <stop stop-color="#73574B" offset="100%"></stop>
        </linearGradient>
        <linearGradient x1="50%" y1="0%" x2="50%" y2="33.9887691%" id="linearGradient-12">
            <stop stop-color="#ECD3C3" offset="0%"></stop>
            <stop stop-color="#D5A890" offset="100%"></stop>
        </linearGradient>
        <linearGradient x1="50%" y1="5.04424426%" x2="50%" y2="100%" id="linearGradient-13">
            <stop stop-color="#CAAA9A" offset="0%"></stop>
            <stop stop-color="#737271" offset="100%"></stop>
        </linearGradient>
        <linearGradient x1="142.018337%" y1="50%" x2="50%" y2="100%" id="linearGradient-14">
            <stop stop-color="#B9D295" stop-opacity="0.797865716" offset="0%"></stop>
            <stop stop-color="#77A245" stop-opacity="0.797865716" offset="100%"></stop>
        </linearGradient>
        <linearGradient x1="95.468284%" y1="16.922114%" x2="-1.04102401%" y2="86.9740029%" id="linearGradient-15">
            <stop stop-color="#DAF9FF" offset="0%"></stop>
            <stop stop-color="#D8D8D8" stop-opacity="0.374037591" offset="100%"></stop>
        </linearGradient>
        <polygon id="path-16" points="0.00518216876 0.0147675952 3.71081135 0.0147675952 3.71081135 1.74033935 0.00518216876 1.74033935 0.00518216876 0.0147675952"></polygon>
        <polygon id="path-18" points="3.49043313e-17 4.09427774 3.49043313e-17 0.0136828834 2.16531522 0.0136828834 2.16531522 4.09427774 0 4.09427774"></polygon>
        <polygon id="path-20" points="0 5.10565121 0 0.0135375748 2.73226348 0.0135375748 2.73226348 5.10565121 1.19159374e-16 5.10565121"></polygon>
    </defs>
    <g id="Symbols" stroke="none" stroke-width="1" fill="none" fill-rule="evenodd" opacity="0.96337183">
        <g id="Tutorial-Card1-Copy-2">
            <g filter="url(#filter-1)" id="Group-21-Copy">
                <g>
                    <g transform="translate(-172.000000, -34.000000)">
                        <mask id="mask-4" fill="white">
                            <use xlink:href="#path-3"></use>
                        </mask>
                        <use id="Mask" fill="url(#linearGradient-2)" xlink:href="#path-3"></use>
                        <g id="Group-23" mask="url(#mask-4)">
                            <g transform="translate(54.201493, 37.000000)" id="Group-21">
                                <g>
                                    <path d="M187.997228,58.3260987 C200.543529,54.0680546 210.746776,48.8184626 218.606968,42.5773226 C226.46716,36.3361827 231.824399,32.054853 234.678684,29.7333333 C243.82789,38.9151878 251.507394,46.5854649 257.717195,52.7441647 C263.574342,58.5531129 275.117981,69.3285148 292.348113,85.0703704 L187.997228,58.3260987 Z" id="Path-23" fill="url(#linearGradient-5)"></path>
                                    <path d="M234.957938,29.7333333 C234.957938,29.7333333 251.322073,45.9088352 263.960778,57.9515861 C276.599483,69.994337 286.833277,80.0151429 293.60158,84.7431275 C297.182226,87.2443804 276.283986,74.8093624 255.233972,67.7767724 C236.212296,61.4218288 216.622229,62.0258366 224.614577,58.8858641 C237.451274,53.8426805 234.957938,29.7333333 234.957938,29.7333333 Z" id="Path-11-Copy" fill="url(#linearGradient-6)"></path>
                                    <path d="M181.637168,44.5999863 L237.794639,44.5999863 C238.816869,44.5999863 239.728335,43.9562873 240.070213,42.9929207 L240.070213,42.9929207 C240.387229,42.0996116 239.932609,41.1166697 239.046608,40.779768 L235.834347,39.5583068 C232.666843,38.3538642 229.793412,36.4862141 227.406667,34.0805509 L221.739998,28.3689705 C217.280708,23.8743336 210.472231,22.6792953 204.748833,25.3866454 C204.748833,25.3866454 204.748833,25.3866454 204.748833,25.3866454 C203.266019,26.088064 201.909878,26.8910205 200.68041,27.7955149 L200.68041,27.7955149 C194.838267,32.0934591 188.545885,35.7430769 181.914317,38.6799559 C181.407357,38.9044697 180.903736,39.1423245 180.403451,39.3935203 C180.403451,39.3935203 180.403451,39.3935203 180.403451,39.3935203 L180.403451,39.3935203 C179.046442,40.0748829 178.498722,41.72731 179.180085,43.0843194 C179.646634,44.0135039 180.597431,44.6000235 181.637168,44.6000235 Z" id="Path-24-Copy" fill="#FFFFFF" opacity="0.820199275" transform="translate(209.529107, 34.275868) scale(-1, 1) translate(-209.529107, -34.275868) "></path>
                                    <path d="M194.613495,446 C302.095561,446 390.710985,357.505698 389.226991,251.907407 C387.742997,146.309117 302.095561,57.8148148 194.613495,57.8148148 C87.1314298,57.8148148 0,144.713028 0,251.907407 C0,359.101786 87.1314298,446 194.613495,446 Z" id="Oval-3" fill="url(#linearGradient-7)"></path>
                                    <path d="M12.766709,182.418617 C12.766709,182.418617 38.365986,186.606259 58.0002579,176.798455 C77.6345299,166.990651 97.2273681,140.297667 101.972581,136.196124 C106.717795,132.094581 124.852713,117.047215 149.731464,117.047215 C156.739198,117.047215 170.209154,119.038286 174.205538,119.038286 C178.201922,119.038286 181.303254,117.313842 184.564441,111.358005 C187.825629,105.402167 202.097997,91.6571879 220.768126,89.9560578 C239.438255,88.2549277 300.147707,89.9560578 300.147707,89.9560578 C300.147707,89.9560578 319.508497,102.177232 339.233031,123.699531 C358.957565,145.22183 370.070606,163.685449 377.967079,186.606259 C378.811173,189.056379 381.692713,197.80377 383.618461,206.621206 C385.544209,215.438642 387.588999,230.720684 387.588999,230.720684 L0.828181623,236.214815 C0.828181623,236.214815 3.09684992,215.541298 4.93188466,207.7447 C6.7669194,199.948102 12.766709,182.418617 12.766709,182.418617 Z" id="Path-5" fill="url(#linearGradient-8)"></path>
                                    <path d="M13.364557,183.240461 C13.364557,183.240461 44.7392354,190.795568 65.1699534,180.699775 C85.6006715,170.603983 104.344187,143.945706 109.083004,139.815702 C113.821821,135.685698 125.001103,125.120842 149.846319,125.120842 C156.844607,125.120842 176.569221,127.169928 179.529678,127.169928 C182.490135,127.169928 188.039043,128.175401 192.665103,119.498556 C197.291163,110.82171 208.136267,98.4696899 226.781229,96.7567556 C245.426191,95.0438213 300.265574,90.0259259 300.265574,90.0259259 C300.265574,90.0259259 319.600267,102.331904 339.298213,124.003548 C358.996159,145.675192 370.09422,164.266931 377.980049,187.346791 C378.823005,189.813912 381.700661,198.622002 383.623813,207.500623 C385.546965,216.379243 387.588999,231.767329 387.588999,231.767329 L1.65636325,232.911111 C1.65636325,232.911111 3.23345713,217.948882 5.45539768,208.439798 C7.67733823,198.930713 13.364557,183.240461 13.364557,183.240461 Z" id="Path-5-Copy" fill="url(#linearGradient-9)"></path>
                                    <path d="M189.375002,4.95555556 C189.375002,4.95555556 205.495192,24.651446 215.58949,36.8368252 C225.683788,49.0222044 237.688126,62.7703704 237.688126,62.7703704 C237.688126,62.7703704 236.841269,62.4859751 221.088903,60.2104275 C198.872787,57.0011426 167.292688,60.2104275 167.292688,60.2104275 C167.292688,60.2104275 172.724898,36.051874 180.827775,23.6571144 C188.930653,11.2623549 189.375002,4.95555556 189.375002,4.95555556 Z" id="Path-11" fill="url(#linearGradient-10)"></path>
                                    <path d="M188.987803,3.3037037 L151.557237,50.4036445 L163.595545,61.1185185 L185.63844,58.0234772 C185.63844,58.0234772 204.693798,56.6795646 204.560161,44.7786546 C204.426525,32.8777446 188.987803,35.4306532 188.987803,25.6070408 C188.987803,5.2324323 188.987803,3.3037037 188.987803,3.3037037 Z" id="Path-10" fill="url(#linearGradient-11)"></path>
                                    <path d="M12.4227243,183.355556 C12.4227243,183.355556 34.0186428,125.616249 75.958455,98.3400706 C94.3816907,86.3582464 97.9136882,80.8105609 109.910654,69.8910147 C121.907619,58.9714685 147.259343,29.7333333 147.259343,29.7333333 C147.259343,29.7333333 164.5117,49.8020794 171.745073,55.4750398 C178.978445,61.1480003 185.76813,58.2489894 184.539757,58.9714685 C182.443381,60.2044717 170.603109,64.3177198 164.501431,66.9288122 C152.947807,71.8729573 140.724653,81.816678 134.696826,85.0955819 C127.807014,88.8433719 118.020322,86.8132 104.619583,90.7647169 C96.9599828,93.0233265 76.1204215,101.741499 58.4591547,117.713437 C52.7422792,122.883485 49.3676697,124.616994 35.2745786,142.813713 C21.1814875,161.010432 12.4227243,183.355556 12.4227243,183.355556 Z" id="Path-9" fill="url(#linearGradient-12)"></path>
                                    <path d="M145.660848,65.95669 C143.201848,73.4661008 136.380447,79.3529025 125.292955,81.6801467 C114.205463,84.0073908 98.7248964,89.365392 72.8161882,106.921911 C57.3065423,117.431714 47.1741471,128.733685 39.1302834,138.689174 C25.0827553,156.075098 20.3321781,167.328448 15.7354508,175.096296 C16.4398017,174.591981 18.3114237,169.005599 22.4540527,161.09478 C27.7583666,150.965591 36.5239999,136.87496 48.5288466,123.152283 C69.9093877,98.7122983 96.332453,79.4045028 103.628405,73.4661008 C123.410211,57.365074 147.276859,29.7333333 147.276859,29.7333333 C147.276859,29.7333333 148.119848,58.4472792 145.660848,65.95669 Z" id="Path-25" fill="url(#linearGradient-13)"></path>
                                    <path d="M277.440844,120.585185 C276.708902,133.978152 276.239351,142.577754 276.032191,146.383991 C275.825031,150.190228 275.928611,153.979515 276.342931,157.751852 L274.152582,157.751852 C274.081158,154.117478 274.166122,150.328191 274.407474,146.383991 C274.648826,142.439791 275.659949,133.840189 277.440844,120.585185 Z" id="Rectangle-5-Copy-13" fill="#9D4C2A"></path>
                                    <path d="M288.68291,118.107407 C288.589609,134.078155 288.589609,143.642992 288.68291,146.801917 C288.77621,149.960843 288.893703,153.610821 289.035386,157.751852 L286.550841,157.751852 C286.743593,153.673017 286.839969,150.023039 286.839969,146.801917 C286.839969,143.580795 287.454283,134.015959 288.68291,118.107407 Z" id="Rectangle-5-Copy-14" fill="#9D4C2A"></path>
                                    <path d="M306.4272,111.5 C305.583847,131.93588 305.200926,143.807345 305.278437,147.114395 C305.355948,150.421444 305.322652,154.242572 305.178547,158.577778 L303.114474,158.577778 C303.405403,153.99507 303.616374,150.173942 303.747387,147.114395 C303.878399,144.054847 304.77167,132.183382 306.4272,111.5 Z" id="Rectangle-5-Copy-15" fill="#9D4C2A"></path>
                                    <path d="M313.214521,126.366667 L314.459414,149.910064 L314.709017,158.577778 L311.39629,158.577778 C311.715651,155.410025 311.947239,152.768708 312.091054,150.653826 C312.23487,148.538943 312.609359,140.443223 313.214521,126.366667 Z" id="Rectangle-5-Copy-16" fill="#9D4C2A" transform="translate(313.052653, 142.472222) scale(-1, 1) translate(-313.052653, -142.472222) "></path>
                                    <path d="M276.038063,120.585185 C277.215113,134.906492 277.847726,143.646244 277.935904,146.804441 C278.024081,149.962639 278.135122,153.611776 278.269025,157.751852 L275.78448,157.751852 C275.828888,153.636404 275.851091,149.987267 275.851091,146.804441 C275.851091,143.621615 275.913415,134.881863 276.038063,120.585185 Z" id="Rectangle-5-Copy-2" fill="#C16843" transform="translate(277.026753, 139.168519) scale(-1, 1) translate(-277.026753, -139.168519) "></path>
                                    <path d="M206.470807,120.585185 C207.647856,133.951738 208.28047,142.10884 208.368647,145.056491 C208.456825,148.004142 208.567865,151.410003 208.701769,155.274074 L206.217224,155.274074 C206.261631,151.43299 206.283835,148.027129 206.283835,145.056491 C206.283835,142.085853 206.346159,133.928751 206.470807,120.585185 Z" id="Rectangle-5-Copy-10" fill="#C16843"></path>
                                    <path d="M212.183551,131.322222 C212.96825,140.86976 213.389993,146.696261 213.448778,148.801726 C213.507563,150.907191 213.58159,153.339949 213.670859,156.1 L212.014495,156.1 C212.0441,153.356368 212.058903,150.92361 212.058903,148.801726 C212.058903,146.679842 212.100452,140.853341 212.183551,131.322222 Z" id="Rectangle-5-Copy-11" fill="#C16843" transform="translate(212.842677, 143.711111) scale(-1, 1) translate(-212.842677, -143.711111) "></path>
                                    <path d="M313.306236,126.366667 C314.483286,138.778466 315.115899,146.352918 315.204077,149.090022 C315.292254,151.827126 315.403295,154.989712 315.537198,158.577778 L313.052653,158.577778 C313.097061,155.011057 313.119264,151.848471 313.119264,149.090022 C313.119264,146.331573 313.181588,138.757121 313.306236,126.366667 Z" id="Rectangle-5-Copy-5" fill="#C16843"></path>
                                    <path d="M289.373497,115.62963 C290.942896,131.860444 291.786381,141.765496 291.903951,145.344787 C292.021521,148.924077 292.169575,153.059766 292.348113,157.751852 L289.035386,157.751852 C289.094596,153.087678 289.124201,148.95199 289.124201,145.344787 C289.124201,141.737584 289.207299,131.832531 289.373497,115.62963 Z" id="Rectangle-5-Copy-3" fill="#C16843"></path>
                                    <path d="M303.368057,111.5 C304.545106,129.640322 305.17772,140.710674 305.265897,144.711058 C305.354075,148.711441 305.465115,153.333681 305.599019,158.577778 L303.114474,158.577778 C303.158881,153.364878 303.181085,148.742638 303.181085,144.711058 C303.181085,140.679478 303.243409,129.609125 303.368057,111.5 Z" id="Rectangle-5-Copy-4" fill="#C16843" transform="translate(304.356746, 135.038889) scale(-1, 1) translate(-304.356746, -135.038889) "></path>
                                    <polygon id="Path-26-Copy-5" fill="url(#linearGradient-14)" transform="translate(325.889469, 131.322222) scale(-1, 1) translate(-325.889469, -131.322222) " points="324.379663 115.62963 315.537198 147.014815 336.241739 147.014815"></polygon>
                                    <polygon id="Path-26-Copy" fill="url(#linearGradient-14)" transform="translate(276.612662, 135.038889) scale(-1, 1) translate(-276.612662, -135.038889) " points="275.646386 120.585185 269.987209 149.492593 283.238115 149.492593"></polygon>
                                    <polygon id="Path-26-Copy-9" fill="url(#linearGradient-14)" points="206.907312 120.585185 201.248134 147.014815 214.49904 147.014815"></polygon>
                                    <polygon id="Path-26-Copy-10" fill="url(#linearGradient-14)" transform="translate(211.600405, 139.994444) scale(-1, 1) translate(-211.600405, -139.994444) " points="210.815306 131.322222 206.217224 148.666667 216.983585 148.666667"></polygon>
                                    <polygon id="Path-26-Copy-4" fill="url(#linearGradient-14)" points="313.742741 126.366667 308.083564 150.318519 321.33447 150.318519"></polygon>
                                    <g id="Gautam-Bee-Copy" transform="translate(289.105203, 130.142642) scale(-1, 1) rotate(-10.000000) translate(-289.105203, -130.142642) translate(275.105203, 115.642642)" fill-rule="nonzero">
                                        <path d="M23.2589087,28.7575807 C23.2754225,28.7918863 23.3081991,28.8159007 23.3463837,28.8216708 C23.3845683,28.827441 23.423178,28.8142139 23.4494264,28.7863701 C24.1766912,28.0189528 27.4017532,23.3163853 27.8817113,19.2858703 C28.2691584,16.0326689 27.1581104,13.1681242 25.9508875,11.6701761 C24.9799798,10.4664196 22.6836917,7.22851255 16.3526411,7.43723565 C9.84664402,7.65135676 4.94814021,13.844675 6.43564398,20.1828398 C7.6016491,25.1499098 10.3678199,28.3176428 11.0987485,28.8826346 C11.1287022,28.9059919 11.1684311,28.913395 11.2050129,28.9024359 C11.2415946,28.8914768 11.2703548,28.8635559 11.2819386,28.8277548 L13.0588828,26.3014856 C13.0719884,26.2626983 13.1050414,26.233639 13.145736,26.2251266 C13.1864306,26.2166142 13.2286699,26.2299241 13.2567281,26.2601008 L15.3231127,28.7908684 C15.3468575,28.817078 15.3814716,28.831226 15.4171367,28.8292993 C15.4528019,28.8273726 15.4856275,28.8095814 15.5063028,28.780972 L17.2347016,26.2888902 C17.2566264,26.2580019 17.2925406,26.239593 17.3308764,26.239593 C17.3692121,26.239593 17.4051264,26.2580019 17.4270512,26.2888902 L19.0198893,28.6973029 C19.0407571,28.7279564 19.0753083,28.7469403 19.1128227,28.7483644 C19.150337,28.7497884 19.1862768,28.7334804 19.2094911,28.7045002 L21.2914468,26.0864648 C21.3163744,26.0551564 21.355977,26.038687 21.3962144,26.0428954 C21.4364517,26.0471037 21.4716355,26.071395 21.4892921,26.1071572 L23.2589087,28.7575807 Z" id="Shape" stroke="#092443" stroke-width="2" fill="#FFF299"></path>
                                        <polygon id="Rectangle-path" fill="#092443" points="6.16768853 18.6693673 27.3434192 18.6693673 27.3434192 22.4835391 6.16768853 22.4835391"></polygon>
                                        <polygon id="Shape" fill="#092443" points="27.3434192 15.8589249 6.16768853 15.8589249 7.76150091 11.8440072 23.8544628 11.8630181"></polygon>
                                        <path d="M19.6265107,12.7199454 C19.6265107,12.7199454 17.7021268,10.1124587 13.6025133,11.0396664 C9.50289987,11.9668741 9.6787695,15.8981618 9.6787695,15.8981618 C9.6787695,15.8981618 8.80775205,23.0094892 19.8958689,21.4595845 C29.6233103,20.1038737 26.7908838,14.0455698 25.6764257,12.7199454 C24.5406782,11.3687932 22.0516602,9.6575161 19.6265107,12.7199454 Z" id="Shape" stroke="#092443" stroke-width="5" fill="#FFDF00"></path>
                                        <path d="M19.7246921,13.2943868 C19.7246921,13.2943868 18.1583408,10.7162749 14.0329328,11.6438834 C9.90752481,12.5714919 10.0816673,16.6767306 10.0816673,16.6767306 C10.0816673,16.6767306 9.41769081,22.7697018 20.3607313,22.2515206 C29.7029645,21.809193 27.3161878,14.9403206 26.3206887,13.5146367 C25.2665212,12.0057878 22.1645496,10.2255106 19.7246921,13.2943868 Z" id="Shape" fill="#FFFFFF"></path>
                                        <ellipse id="Oval" fill="#FEE7E2" transform="translate(20.353372, 16.561535) rotate(-3.140000) translate(-20.353372, -16.561535) " cx="20.3533722" cy="16.5615355" rx="3.90620274" ry="1.30484825"></ellipse>
                                        <ellipse id="Oval" fill="#231F20" cx="18.5030656" cy="15.3570602" rx="1" ry="1"></ellipse>
                                        <ellipse id="Oval" fill="#231F20" cx="22.2036787" cy="15.3570602" rx="1" ry="1"></ellipse>
                                        <polygon id="Shape" fill="#092443" points="24.148929 28.3051698 22.3577796 28.3051698 21.1225987 26.2898124 19.8344683 28.3051698 18.1227431 28.3051698 17.1002725 26.2639626 16.11158 28.3051698 14.224574 28.3051698 12.9537892 26.2898124 11.9486641 28.3051698 9.76678493 28.3051698 7.60681585 24.6917438 26.1098814 24.6917438"></polygon>
                                        <path d="M2.39205605,25.8054796 L5.48405462,22.996898 C5.58534059,22.9053405 5.72779986,22.8666164 5.86513546,22.8933105 C6.00247105,22.9200045 6.11715225,23.0087092 6.1719095,23.130597 L7.36776291,25.8018661 C7.42253309,25.9246441 7.40948727,26.0650499 7.33291232,26.1769462 C7.25633737,26.2888426 7.12613503,26.3577602 6.98508982,26.3610529 L2.69723784,26.4983654 C2.52162373,26.5018862 2.36166939,26.4034222 2.29421539,26.2502744 C2.2267614,26.0971266 2.26559308,25.9205933 2.39205605,25.8054796 Z" id="Shape" fill="#092443"></path>
                                        <ellipse id="Oval" fill="#A4DDEB" opacity="0.49" transform="translate(8.120790, 5.018647) rotate(-25.200000) translate(-8.120790, -5.018647) " cx="8.1207899" cy="5.01864712" rx="2.77545984" ry="4.21566358"></ellipse>
                                        <ellipse id="Oval" fill="#A4DDEB" opacity="0.49" transform="translate(5.242535, 6.825360) rotate(-65.980000) translate(-5.242535, -6.825360) " cx="5.24253525" cy="6.82536008" rx="2.77545984" ry="4.21566358"></ellipse>
                                        <path d="M23.2179493,4.68974291 C23.2614659,4.96454537 23.2001991,5.246414 23.047627,5.47334094 C22.8950549,5.70026787 22.6636753,5.85366443 22.4043893,5.89978512 C22.2152122,5.93634633 22.0199602,5.90778148 21.8472032,5.8182703 C21.7908009,5.79019297 21.117392,6.79463669 20.7806875,7.74654863 C20.7131757,7.93856132 20.5499509,7.74654863 20.5593513,7.66322237 C20.6661738,6.70859327 21.5600643,5.63078622 21.5216082,5.58731164 C21.2294361,5.26035249 21.1663567,4.77241255 21.3647823,4.37421242 C21.5632079,3.97601229 21.9790069,3.75611532 22.3985273,3.82751226 C22.8180476,3.89890919 23.1479841,4.2457207 23.2188039,4.68974291 L23.2179493,4.68974291 Z" id="Shape" fill="#092443"></path>
                                        <path d="M26.2957225,6.65734545 C26.2424568,6.92748749 26.0829143,7.16558406 25.8522384,7.31918829 C25.6215626,7.47279252 25.3386765,7.52930369 25.0658931,7.47627377 C24.865906,7.43973121 24.6829996,7.34072314 24.5439832,7.19376138 C24.4979323,7.147272 23.4802982,7.8276262 22.8130119,8.5821846 C22.6784711,8.73416912 22.5854664,8.49725208 22.6233906,8.42394191 C23.0640343,7.58087487 24.3263702,6.91482509 24.3028933,6.86028947 C24.1282757,6.45042446 24.2371077,5.97594941 24.5733987,5.68096627 C24.9096896,5.38598314 25.3985288,5.33620116 25.7884243,5.55723154 C26.1783199,5.77826191 26.3824203,6.22086883 26.2957225,6.65734545 Z" id="Shape" fill="#092443"></path>
                                    </g>
                                    <polygon id="Path-26-Copy-2" fill="url(#linearGradient-14)" points="289.596035 115.62963 280.75357 147.014815 301.458111 147.014815"></polygon>
                                    <polygon id="Path-26-Copy-3" fill="url(#linearGradient-14)" transform="translate(305.599019, 128.844444) scale(-1, 1) translate(-305.599019, -128.844444) " points="304.391174 111.5 297.317203 146.188889 313.880835 146.188889"></polygon>
                                    <path d="M265.35623,111.5 C266.925629,129.640322 267.769114,140.710674 267.886684,144.711058 C268.004254,148.711441 268.152308,153.333681 268.330846,158.577778 L265.018119,158.577778 C265.077329,153.364878 265.106934,148.742638 265.106934,144.711058 C265.106934,140.679478 265.190032,129.609125 265.35623,111.5 Z" id="Rectangle-5-Copy" fill="#C16843"></path>
                                    <path d="M264.879068,111.5 C265.219619,129.478373 265.450469,140.492208 265.571619,144.541505 C265.692769,148.590803 265.784329,153.26956 265.846301,158.577778 L263.361756,158.577778 C263.422768,153.301138 263.453275,148.62238 263.453275,144.541505 C263.453275,140.46063 263.928539,129.446795 264.879068,111.5 Z" id="Rectangle-5-Copy-12" fill="#9D4C2A"></path>
                                    <polygon id="Path-26" fill="url(#linearGradient-14)" points="265.578768 111.5 256.736303 146.188889 277.440844 146.188889"></polygon>
                                    <path d="M134.165423,43.1199265 C134.165423,43.1199265 135.156034,47.581701 137.392175,47.581701 C139.628316,47.581701 139.469013,45.3847284 141.68879,45.3847284 C144.444115,45.3847284 144.404283,50.3814815 147.476457,50.3814815 C150.505514,50.3814815 151.801929,45.6350726 153.724462,43.9369293 C155.646995,42.238786 158.18269,41.4453528 158.18269,41.4453528 L148.043579,29.9307592 C148.043579,29.9307592 146.750669,29.2917939 145.83276,30.3128893 C144.914851,31.3339847 134.165423,43.1199265 134.165423,43.1199265 Z" id="Path-25-Copy-2" fill="#F6F1F1"></path>
                                    <path d="M177.230867,16.6902968 C177.230867,16.6902968 178.084842,21.1520714 180.01255,21.1520714 C181.940258,21.1520714 181.802927,18.9550988 183.716528,18.9550988 C186.091808,18.9550988 186.057471,23.9518519 188.705896,23.9518519 C191.317152,23.9518519 192.434752,19.2054429 194.092108,17.5072997 C195.749464,15.8091564 197.935408,15.0157232 197.935408,15.0157232 L189.194795,3.50112956 C189.194795,3.50112956 188.080217,2.86216427 187.288917,3.88325969 C186.497616,4.9043551 177.230867,16.6902968 177.230867,16.6902968 Z" id="Path-25-Copy-3" fill="#F6F1F1"></path>
                                    <path d="M134.165423,43.0981761 C134.165423,43.0981761 135.116402,47.5542193 137.26308,47.5542193 C139.409758,47.5542193 139.256828,45.3600688 141.387797,45.3600688 C143.795725,45.3600688 143.514599,49.500203 146.499288,50.3800358 C146.68907,50.4583739 146.518825,47.3428477 146.499288,43.5096039 C146.468671,37.5025731 146.499288,29.7333333 146.499288,29.7333333 C146.499288,29.7333333 146.300625,29.7461916 146.101408,29.8024529 C145.902191,29.8587142 145.642176,29.9919415 145.180793,30.5258929 C144.299608,31.5456767 134.165423,43.0981761 134.165423,43.0981761 Z" id="Path-25-Copy-4" fill="#E2E2E2"></path>
                                    <path d="M177.230867,17.0799742 C177.230867,17.0799742 178.024632,21.1245897 179.890778,21.1245897 C181.756924,21.1245897 181.62398,18.9304392 183.476469,18.9304392 C185.569725,18.9304392 185.325337,23.0705734 187.919981,23.9504062 C188.084962,24.0287442 187.936965,20.9132181 187.919981,17.0799742 C187.893365,11.0729434 187.919981,3.3037037 187.919981,3.3037037 C187.919981,3.3037037 187.74728,3.31656201 187.574097,3.37282327 C187.400915,3.42908453 187.174878,3.56231187 186.77379,4.09626331 C186.00776,5.11604708 177.230867,17.0799742 177.230867,17.0799742 Z" id="Path-25-Copy-5" fill="#E2E2E2"></path>
                                    <path d="M117.520963,23.9518353 L185.158506,23.9518353 C186.381676,23.9518353 187.471695,23.1799623 187.877849,22.0261927 L187.877849,22.0261927 C188.255213,20.954206 187.710675,19.776616 186.649503,19.3698325 L182.843124,17.9107175 C179.078525,16.4676185 175.667178,14.2339718 172.839184,11.3604399 L166.237149,4.6520966 C162.886878,1.24787875 158.160321,-0.431641825 153.413176,0.0952651848 L153.413176,0.0952651848 C148.542955,0.635833003 143.9959,2.79811755 140.502792,6.23460699 L140.468823,6.26802494 C136.953199,9.72666503 132.37921,11.9063435 127.478493,12.4584076 L126.232888,12.5987245 C121.854705,13.0919254 117.838708,15.2647462 115.030487,18.6596887 L115.030487,18.6596887 C113.892744,20.0351405 114.085445,22.0724876 115.460897,23.2102308 C116.040393,23.6895768 116.768908,23.9518353 117.520963,23.9518353 Z" id="Path-24" fill="#FFFFFF" opacity="0.820199275"></path>
                                    <path d="M307.174555,104.06665 L374.812097,104.06665 C376.035267,104.06665 377.125287,103.294777 377.53144,102.141008 L377.53144,102.141008 C377.908804,101.069021 377.364267,99.8914308 376.303095,99.4846473 L372.496715,98.0255323 C368.732117,96.5824333 365.32077,94.3487866 362.492776,91.4752547 L355.89074,84.7669114 C352.54047,81.3626936 347.813912,79.683173 343.066768,80.21008 L343.066768,80.21008 C338.196547,80.7506478 333.649492,82.9129324 330.156383,86.3494218 L330.122415,86.3828398 C326.606791,89.8414798 322.032802,92.0211583 317.132084,92.5732224 L315.88648,92.7135393 C311.508296,93.2067402 307.4923,95.379561 304.684079,98.7745035 L304.684079,98.7745035 C303.546336,100.149955 303.739037,102.187302 305.114489,103.325046 C305.693984,103.804392 306.422499,104.06665 307.174555,104.06665 Z" id="Path-24-Copy-2" fill="#FFFFFF" opacity="0.557801178"></path>
                                    <path d="M344.589005,113.156214 L399.805583,113.156214 C400.994814,113.156214 402.041574,112.371918 402.37564,111.230571 L402.37564,111.230571 C402.699471,110.124188 402.164053,108.947529 401.117156,108.464872 L398.189454,107.115096 C395.063879,105.674094 392.306986,103.541079 390.127368,100.87744 L383.964387,93.3458699 C381.481927,90.3121385 377.605054,88.7809564 373.719556,89.2996437 L373.719556,89.2996437 C369.696706,89.8366664 366.017482,91.8510005 363.397695,94.9507475 L362.679029,95.8010767 C359.953747,99.0256459 356.129067,101.124478 351.945323,101.691307 L351.810386,101.709589 C347.75695,102.258764 344.123769,104.49377 341.805788,107.864067 L341.805788,107.864067 C340.748601,109.401196 341.137671,111.504304 342.674799,112.56149 C343.237999,112.94884 343.905461,113.156214 344.589005,113.156214 Z" id="Path-24-Copy-3" fill="#FFFFFF" opacity="0.820199275" transform="translate(371.840197, 101.178143) scale(-1, 1) translate(-371.840197, -101.178143) "></path>
                                    <path d="M267.435163,34.0081379 C259.126042,41.2816521 234.468443,58.6098785 197.184005,67.1910663 C159.899568,75.772254 73.6232575,77.9047032 94.2414936,67.1910663 C96.8230256,65.849652 100.60365,64.7655174 103.346599,63.7756841 C109.279338,61.6347683 115.103988,59.9878255 120.820551,58.8348556 C102.100137,61.9295599 90.9295737,65.371322 87.3088598,69.1601421 C81.8777888,74.8433722 92.5724337,84.0693684 176.290632,78.2714598 C225.485253,74.8644834 281.185427,55.8725947 284.805433,46.6318281 C285.955011,43.6973083 275.744283,26.7346236 267.435163,34.0081379 Z" id="Path-40" fill="url(#linearGradient-15)" opacity="0.739923007"></path>
                                    <g id="Page-1-Copy" transform="translate(279.409226, 40.392315) rotate(18.000000) translate(-279.409226, -40.392315) translate(264.909226, 28.892315)">
                                        <path d="M25.8278819,16.5258929 C24.422607,16.5258929 22.3583424,15.7978078 21.6052244,14.9188396 C21.1272097,14.3608687 20.8463525,13.6800526 20.8463525,12.9452277 C20.8463525,11.8646926 21.4535579,10.9009819 22.4021252,10.2729164 C23.1149667,9.80103608 24.7266592,9.55714286 25.7123565,9.55714286 C28.0098296,9.55714286 28.9863568,11.0527637 28.9863568,12.9452277 C28.9863568,14.8376917 28.125355,16.5258929 25.8278819,16.5258929 Z" id="Fill-1" fill="#3CC4E6"></path>
                                        <path d="M17.8087015,22.1501987 C17.8440285,22.2230619 17.9410877,22.238193 17.9962411,22.1789297 C18.7118836,21.4106687 21.8850069,16.7030215 22.3574156,12.6679854 C22.738623,9.41120744 21.6458285,6.5427931 20.4575971,5.04382864 C19.501875,3.83820837 17.2424779,0.597372099 11.013207,0.806054467 C4.61189708,1.02050104 -0.207267023,7.22008762 1.25637102,13.5655807 C2.40341769,18.5382014 5.1256709,21.7091467 5.84482806,22.2753901 C5.90773179,22.3248362 6.00019485,22.2963754 6.02506796,22.2203599 L7.77375539,19.6913134 C7.80133209,19.607282 7.9093859,19.5844053 7.96868483,19.6499732 L10.0015204,22.1836131 C10.0505457,22.2378327 10.137151,22.2332393 10.1801382,22.1741562 L11.8807016,19.6792446 C11.9278343,19.6144873 12.0250737,19.6163787 12.069593,19.6829373 L13.6365085,22.0941778 C13.6801265,22.1592954 13.7747525,22.1628079 13.8230568,22.1010228 L15.871393,19.4797489 C15.9238428,19.4125598 16.0286523,19.423728 16.0657817,19.500374 L17.8087015,22.1501987 Z" id="Fill-3" fill="#00BBF1"></path>
                                        <path d="M17.8087015,22.1501987 C17.8440285,22.2230619 17.9410877,22.238193 17.9962411,22.1789297 C18.7118836,21.4106687 21.8850069,16.7030215 22.3574156,12.6679854 C22.738623,9.41120744 21.6458285,6.5427931 20.4575971,5.04382864 C19.501875,3.83820837 17.2424779,0.597372099 11.013207,0.806054467 C4.61189708,1.02050104 -0.207267023,7.22008762 1.25637102,13.5655807 C2.40341769,18.5382014 5.1256709,21.7091467 5.84482806,22.2753901 C5.90773179,22.3248362 6.00019485,22.2963754 6.02506796,22.2203599 L7.77375539,19.6913134 C7.80133209,19.607282 7.9093859,19.5844053 7.96868483,19.6499732 L10.0015204,22.1836131 C10.0505457,22.2378327 10.137151,22.2332393 10.1801382,22.1741562 L11.8807016,19.6792446 C11.9278343,19.6144873 12.0250737,19.6163787 12.069593,19.6829373 L13.6365085,22.0941778 C13.6801265,22.1592954 13.7747525,22.1628079 13.8230568,22.1010228 L15.871393,19.4797489 C15.9238428,19.4125598 16.0286523,19.423728 16.0657817,19.500374 L17.8087015,22.1501987 Z" id="Stroke-5" stroke="#A9DEF2" stroke-width="2"></path>
                                        <path d="M14.3034371,5.64743493 C14.3034371,5.64743493 12.4233225,3.06124983 8.41652392,3.9807401 C4.40972535,4.90023038 4.58203452,8.79994718 4.58203452,8.79994718 C4.58203452,8.79994718 3.73089057,15.8496439 14.5661972,14.316708 C24.0713314,12.9719749 21.3038925,6.96205189 20.2151338,5.64743493 C19.1055713,4.30767601 16.6734343,2.61014159 14.3034371,5.64743493" id="Fill-7" fill="#D7D7D7"></path>
                                        <path d="M14.0838075,6.61612675 C14.0838075,6.61612675 12.5715909,4.05724744 8.58799385,4.97875941 C4.60439677,5.90018074 4.77238086,9.97044121 4.77238086,9.97044121 C4.77238086,9.97044121 4.13146939,16.0133373 14.6988199,15.4993318 C23.720411,15.060646 21.4153959,8.24452098 20.4550628,6.83411006 C19.4360972,5.33759347 16.4400811,3.57215527 14.0838075,6.61612675" id="Fill-9" fill="#FEFEFE"></path>
                                        <path d="M18.6616416,9.83736645 C18.6189743,9.02150155 16.8958374,8.45761963 14.8129617,8.57773152 C12.7300861,8.69784341 11.0761947,9.45659216 11.118862,10.2724571 C11.1615293,11.0882286 12.8846662,11.6522039 14.9675418,11.532092 C17.0504174,11.4118868 18.7043089,10.6532313 18.6616416,9.83736645" id="Fill-11" fill="#FCE6E1"></path>
                                        <path d="M13.5004949,8.66116071 C13.5004949,9.04602726 13.2782603,9.35803571 13.0041532,9.35803571 C12.7300461,9.35803571 12.5078115,9.04602726 12.5078115,8.66116071 C12.5078115,8.27629417 12.7300461,7.96428571 13.0041532,7.96428571 C13.2782603,7.96428571 13.5004949,8.27629417 13.5004949,8.66116071" id="Fill-13" fill="#231F20"></path>
                                        <path d="M17.0741554,8.66116071 C17.0741554,9.04602726 16.8519208,9.35803571 16.5778136,9.35803571 C16.3037065,9.35803571 16.0814719,9.04602726 16.0814719,8.66116071 C16.0814719,8.27629417 16.3037065,7.96428571 16.5778136,7.96428571 C16.8519208,7.96428571 17.0741554,8.27629417 17.0741554,8.66116071" id="Fill-15" fill="#231F20"></path>
                                        <path d="M14.4568096,0.796428571 C14.4688616,0.922858049 14.3543226,1.03713919 14.2023592,1.05032881 L11.596599,1.09449669 C11.5774789,1.0961454 11.1711558,1.78356772 11.1540293,1.77992322 C11.1411618,1.77723323 11.1299254,1.77254744 11.1180547,1.76864262 C11.1651751,1.78599739 11.2158296,1.79545573 11.2697462,1.79076995 L14.3893911,1.60767716 C14.5693549,1.59197109 14.7049168,1.45669068 14.6906901,1.30700582 L14.4568096,0.796428571 Z" id="Fill-17" fill="#0495BB"></path>
                                        <path d="M11.3165267,1.19522143 L10.8642487,0.423145414 C10.8557815,0.33266488 10.908487,0.248903653 10.9923021,0.199107143 L10.9864988,0.199107143 L10.5904464,0.455269225 C10.4363255,0.570417901 10.3101748,0.630799621 10.3251112,0.789577771 L10.8109723,1.59285714 C10.8278114,1.56662423 11.3230911,1.20599073 11.3165267,1.19522143" id="Fill-19" fill="#D5EEF6"></path>
                                        <path d="M10.8056913,1.52332682 L10.7231911,1.39375 C10.722727,1.39449592 10.7208705,1.39609432 10.7209865,1.396414 C10.8118411,1.54336008 10.9137189,1.7279218 11.1180547,1.79196429 C10.9770734,1.7419877 10.8642884,1.63265726 10.8056913,1.52332682" id="Fill-21" fill="#79D0E8"></path>
                                        <g id="Group-25" transform="translate(10.720981, 0.000000)">
                                            <mask id="mask-17" fill="white">
                                                <use xlink:href="#path-16"></use>
                                            </mask>
                                            <g id="Clip-24"></g>
                                            <path d="M0.804598432,1.02895921 L3.4515545,0.983125635 C3.60591502,0.969438595 3.72216865,0.850847603 3.70992658,0.719650126 L3.2822826,0.272660233 C3.1360221,0.128496087 3.03136622,-0.000180092624 2.84865565,0.0161182899 L0.180621132,0.0286347272 C0.0996209812,0.077349782 0.0485356587,0.159291926 0.0568197651,0.247807451 L0.423713631,0.84553487 C0.429972734,0.856160335 0.0214742446,1.36645279 0.00518216876,1.39211598 L0.0707186546,1.5016123 C0.11710965,1.59399982 0.206577999,1.68638733 0.31850548,1.72852901 C0.330655503,1.73258109 0.342069161,1.73744359 0.35513964,1.74032507 C0.372444217,1.74401697 0.785176805,1.03067009 0.804598432,1.02895921" id="Fill-23" fill="#79D0E8" mask="url(#mask-17)"></path>
                                        </g>
                                        <path d="M16.1525621,2.7875 C16.1525621,2.9645805 16.0049487,3.10940705 15.8244608,3.10940705 L12.7346185,3.11220781 C12.7119654,3.11220781 12.1716067,3.76117169 12.1519004,3.75403427 C12.1370746,3.74870378 12.1242747,3.74084358 12.1107381,3.73397719 C12.1642399,3.76379176 12.2228985,3.78303571 12.2869901,3.78303571 L15.8914071,3.78303571 C16.1051379,3.78303571 16.2800086,3.6114664 16.2800086,3.40177056 L16.1525621,2.7875 Z" id="Fill-26" fill="#0495BB"></path>
                                        <path d="M12.5077672,2.92568608 L12.1124208,1.87009632 C12.1124208,1.75143329 12.1755771,1.64864581 12.2676194,1.59348499 L12.2616371,1.59285714 L11.824158,1.88059033 C11.6523797,2.01261753 11.515128,2.0766579 11.515128,2.28474425 L11.9423517,3.38482143 C11.9624353,3.35262186 12.5134931,2.94048532 12.5077672,2.92568608" id="Fill-28" fill="#D5EEF6"></path>
                                        <path d="M11.9921748,3.5108218 L11.9148713,3.38482143 C11.9142049,3.38541159 11.9120946,3.38673947 11.9122056,3.38703455 C11.9967286,3.52978087 12.0895817,3.70808467 12.3092748,3.78303571 C12.1582219,3.72608473 12.0451544,3.61638768 11.9921748,3.5108218" id="Fill-30" fill="#79D0E8"></path>
                                        <path d="M15.8376027,2.13595315 L16.2800086,2.7875 L15.712124,1.73661214 C15.613579,1.55801922 15.4066619,1.41351307 15.2283165,1.41351307 L12.4682388,1.39375 C12.4102766,1.39375 12.3564999,1.4103401 12.3092748,1.43717437 L15.4536141,1.75338355 C15.6648078,1.75338355 15.8376027,1.92553987 15.8376027,2.13595315" id="Fill-32" fill="#79D0E8"></path>
                                        <path d="M12.8629295,3.31895853 L15.9518983,3.31606443 C16.1323406,3.31606443 16.2800086,3.16631773 16.2800086,2.98342885 L15.8324014,2.31246283 C15.8324014,2.09577824 15.6575749,1.91849085 15.4438981,1.91849085 L12.2625908,1.59285714 C12.1633476,1.65027249 12.0954055,1.75726109 12.0954055,1.8807741 L12.4969816,2.88764324 C12.5031498,2.90304736 11.9338361,3.42389325 11.9122014,3.45740888 L11.9762768,3.61686483 C12.0201906,3.75046054 12.1139101,3.88928432 12.2391149,3.96145027 C12.2527401,3.96845215 12.2654447,3.97657432 12.2802668,3.98208246 C12.3000602,3.98945776 12.8402822,3.31895853 12.8629295,3.31895853" id="Fill-34" fill="#79D0E8"></path>
                                        <path d="M2.21028464,7.16785714 C2.43278308,7.21207092 2.54831292,7.51084887 2.50174348,7.72218179 L2.18394234,11.0607239 C2.17801532,11.0873415 2.85416595,11.881939 2.84014808,11.9032866 C2.82961115,11.9192751 2.81644,11.9322266 2.80430372,11.9464286 C2.85567122,11.8912283 2.89499653,11.8272747 2.91146047,11.7523346 L3.36473635,7.72218179 C3.41996112,7.47199434 3.24939467,7.22439718 2.98587749,7.17205522 L2.21028464,7.16785714 Z" id="Fill-36" fill="#0495BB"></path>
                                        <path d="M1.76104313,11.3672596 L0.306076687,11.3992195 C0.156368323,11.3712022 0.0440870496,11.2720513 0,11.15 L0.19951735,11.6519621 C0.318552384,11.8866696 0.361420005,12.0644199 0.62416006,12.1135759 L2.18390359,12.1455357 C2.14872776,12.1140792 1.78130441,11.3639043 1.76104313,11.3672596" id="Fill-38" fill="#D5EEF6"></path>
                                        <path d="M2.3637195,12.3146979 L2.18390359,12.3422187 C2.18462671,12.3428243 2.18599261,12.3447084 2.18639434,12.3446411 C2.38943045,12.3157072 2.64083526,12.2889266 2.77951367,12.1455357 C2.67699128,12.2428343 2.51211985,12.3002983 2.3637195,12.3146979" id="Fill-40" fill="#79D0E8"></path>
                                        <g id="Group-44" transform="translate(0.000000, 7.167857)">
                                            <mask id="mask-19" fill="white">
                                                <use xlink:href="#path-18"></use>
                                            </mask>
                                            <g id="Clip-43"></g>
                                            <path d="M1.28585963,0.190443024 L2.16531522,0.0136828834 L0.914964206,0.193465348 C0.679601925,0.267649656 0.457650853,0.48214305 0.413686956,0.698834497 L-1.77631909e-05,4.09427774 L0.738842167,0.559258096 C0.790888317,0.302726927 1.03708614,0.136773883 1.28585963,0.190443024" id="Fill-42" fill="#79D0E8" mask="url(#mask-19)"></path>
                                        </g>
                                        <g id="Group-47" transform="translate(0.000000, 7.167857)">
                                            <mask id="mask-21" fill="white">
                                                <use xlink:href="#path-20"></use>
                                            </mask>
                                            <g id="Clip-46"></g>
                                            <path d="M2.11882608,3.94692506 L2.4150246,0.482840168 C2.45854442,0.269397739 2.32402862,0.0582115717 2.11601268,0.0135375748 L1.27287115,0.187630787 C1.02661053,0.134743995 0.782899546,0.298277898 0.731379115,0.551159796 L-1.75837647e-05,4.03455829 C0.0413042636,4.16596302 0.146543096,4.27254886 0.286949459,4.30269253 L1.54032022,4.27462462 C1.55931068,4.27110485 2.01402684,5.07189753 2.04690848,5.10565121 L2.24367081,5.06873876 C2.40605688,5.04942515 2.58646631,4.97244148 2.69856281,4.841849 C2.70990434,4.82749918 2.72221297,4.81441285 2.73205988,4.79825801 C2.7452477,4.77668814 2.11337511,3.97372946 2.11882608,3.94692506" id="Fill-45" fill="#79D0E8" mask="url(#mask-21)"></path>
                                        </g>
                                        <polygon id="Fill-48" fill="#D5EEF6" points="2.58097698 7.76517857 0.298282526 9.36910265 0.19853669 10.1544643 2.51322682 8.51562522"></polygon>
                                        <polygon id="Fill-50" fill="#D5EEF6" points="2.38244028 8.95982143 0.0237017116 10.5634432 0 10.7517857 2.36552377 9.15157402"></polygon>
                                        <path d="M27.1205925,10.7884497 C27.1205925,10.7884497 28.1168998,9.58698904 23.0302561,10.4919854 L23.0622493,10.8201737 C23.0622493,10.8201737 26.0183481,10.3838824 25.8145873,11.15 L27.1205925,10.7884497 Z" id="Fill-52" fill="#E9F6FB"></path>
                                        <path d="M27.779758,15.0128938 C27.779758,15.0128938 28.6984893,14.9979092 28.2827705,15.491684 C27.0481368,16.9580238 24.9101282,16.7755164 22.2361093,15.507207 L22.5253209,14.5348214 C22.5253209,14.5348214 25.4569246,15.6112021 25.4086617,14.7883039 L27.779758,15.0128938 Z" id="Fill-54" fill="#0495BB"></path>
                                        <path d="M28.3907467,13.1410714 C28.3907467,11.8215147 27.5907776,10.7517857 26.6039624,10.7517857 C25.6170554,10.7517857 24.8170863,11.8215147 24.8170863,13.1410714 C24.8170863,14.4606282 25.6170554,15.5303571 26.6039624,15.5303571 C27.5907776,15.5303571 28.3907467,14.4606282 28.3907467,13.1410714" id="Fill-56" fill="#0495BB"></path>
                                        <path d="M27.9936733,13.3401786 C27.9936733,12.130611 27.2825318,11.15 26.4053798,11.15 C25.5282278,11.15 24.8170863,12.130611 24.8170863,13.3401786 C24.8170863,14.5497461 25.5282278,15.5303571 26.4053798,15.5303571 C27.2825318,15.5303571 27.9936733,14.5497461 27.9936733,13.3401786" id="Fill-58" fill="#ED2643"></path>
                                        <path d="M27.9936733,13.2953933 C27.9936733,12.1542362 27.3391522,11.15 26.3253952,11.15 C25.5071047,11.15 24.8170863,12.1290966 24.8170863,13.2702537 C24.8170863,13.8962291 25.0167236,14.4572008 25.3320282,14.8360901 C25.5914454,15.1479106 25.1319275,14.6077689 25.5012657,14.6077689 C26.2608884,14.6077689 27.1367344,14.115931 27.4604731,13.1342307 C27.7086758,12.3817493 27.9936733,13.3770969 27.9936733,13.2953933" id="Fill-60" fill="#B0172F"></path>
                                        <path d="M27.3980633,13.0415179 C27.3980633,12.1068532 26.8647548,11.3491071 26.2068431,11.3491071 C25.5490196,11.3491071 25.015623,12.1068532 25.015623,13.0415179 C25.015623,13.9761826 25.5490196,14.7339286 26.2068431,14.7339286 C26.8647548,14.7339286 27.3980633,13.9761826 27.3980633,13.0415179" id="Fill-62" fill="#8B071F"></path>
                                    </g>
                                    <g id="Gautam-Bee" transform="translate(239.272638, 111.969802) rotate(-8.000000) translate(-239.272638, -111.969802) translate(225.272638, 97.469802)" fill-rule="nonzero">
                                        <path d="M23.2589087,28.7575807 C23.2754225,28.7918863 23.3081991,28.8159007 23.3463837,28.8216708 C23.3845683,28.827441 23.423178,28.8142139 23.4494264,28.7863701 C24.1766912,28.0189528 27.4017532,23.3163853 27.8817113,19.2858703 C28.2691584,16.0326689 27.1581104,13.1681242 25.9508875,11.6701761 C24.9799798,10.4664196 22.6836917,7.22851255 16.3526411,7.43723565 C9.84664402,7.65135676 4.94814021,13.844675 6.43564398,20.1828398 C7.6016491,25.1499098 10.3678199,28.3176428 11.0987485,28.8826346 C11.1287022,28.9059919 11.1684311,28.913395 11.2050129,28.9024359 C11.2415946,28.8914768 11.2703548,28.8635559 11.2819386,28.8277548 L13.0588828,26.3014856 C13.0719884,26.2626983 13.1050414,26.233639 13.145736,26.2251266 C13.1864306,26.2166142 13.2286699,26.2299241 13.2567281,26.2601008 L15.3231127,28.7908684 C15.3468575,28.817078 15.3814716,28.831226 15.4171367,28.8292993 C15.4528019,28.8273726 15.4856275,28.8095814 15.5063028,28.780972 L17.2347016,26.2888902 C17.2566264,26.2580019 17.2925406,26.239593 17.3308764,26.239593 C17.3692121,26.239593 17.4051264,26.2580019 17.4270512,26.2888902 L19.0198893,28.6973029 C19.0407571,28.7279564 19.0753083,28.7469403 19.1128227,28.7483644 C19.150337,28.7497884 19.1862768,28.7334804 19.2094911,28.7045002 L21.2914468,26.0864648 C21.3163744,26.0551564 21.355977,26.038687 21.3962144,26.0428954 C21.4364517,26.0471037 21.4716355,26.071395 21.4892921,26.1071572 L23.2589087,28.7575807 Z" id="Shape" stroke="#000000" stroke-width="2" fill="#FFDF00"></path>
                                        <polygon id="Rectangle-path" fill="#000000" points="6.16768853 18.6693673 27.3434192 18.6693673 27.3434192 22.4835391 6.16768853 22.4835391"></polygon>
                                        <polygon id="Shape" fill="#000000" points="27.3434192 15.8589249 6.16768853 15.8589249 7.76150091 11.8440072 23.8544628 11.8630181"></polygon>
                                        <path d="M19.6265107,12.7199454 C19.6265107,12.7199454 17.7021268,10.1124587 13.6025133,11.0396664 C9.50289987,11.9668741 9.6787695,15.8981618 9.6787695,15.8981618 C9.6787695,15.8981618 8.80775205,23.0094892 19.8958689,21.4595845 C29.6233103,20.1038737 26.7908838,14.0455698 25.6764257,12.7199454 C24.5406782,11.3687932 22.0516602,9.6575161 19.6265107,12.7199454 Z" id="Shape" stroke="#000000" stroke-width="4" fill="#FFDF00"></path>
                                        <path d="M19.7246921,13.2943868 C19.7246921,13.2943868 18.1583408,10.7162749 14.0329328,11.6438834 C9.90752481,12.5714919 10.0816673,16.6767306 10.0816673,16.6767306 C10.0816673,16.6767306 9.41769081,22.7697018 20.3607313,22.2515206 C29.7029645,21.809193 27.3161878,14.9403206 26.3206887,13.5146367 C25.2665212,12.0057878 22.1645496,10.2255106 19.7246921,13.2943868 Z" id="Shape" fill="#FFFFFF"></path>
                                        <ellipse id="Oval" fill="#FEE7E2" transform="translate(20.353372, 16.561535) rotate(-3.140000) translate(-20.353372, -16.561535) " cx="20.3533722" cy="16.5615355" rx="3.90620274" ry="1.30484825"></ellipse>
                                        <ellipse id="Oval" fill="#231F20" cx="18.5030656" cy="15.3570602" rx="1" ry="1"></ellipse>
                                        <ellipse id="Oval" fill="#231F20" cx="22.2036787" cy="15.3570602" rx="1" ry="1"></ellipse>
                                        <polygon id="Shape" fill="#000000" points="24.148929 28.3051698 22.3577796 28.3051698 21.1225987 26.2898124 19.8344683 28.3051698 18.1227431 28.3051698 17.1002725 26.2639626 16.11158 28.3051698 14.224574 28.3051698 12.9537892 26.2898124 11.9486641 28.3051698 9.76678493 28.3051698 7.60681585 24.6917438 26.1098814 24.6917438"></polygon>
                                        <path d="M2.39205605,25.8054796 L5.48405462,22.996898 C5.58534059,22.9053405 5.72779986,22.8666164 5.86513546,22.8933105 C6.00247105,22.9200045 6.11715225,23.0087092 6.1719095,23.130597 L7.36776291,25.8018661 C7.42253309,25.9246441 7.40948727,26.0650499 7.33291232,26.1769462 C7.25633737,26.2888426 7.12613503,26.3577602 6.98508982,26.3610529 L2.69723784,26.4983654 C2.52162373,26.5018862 2.36166939,26.4034222 2.29421539,26.2502744 C2.2267614,26.0971266 2.26559308,25.9205933 2.39205605,25.8054796 Z" id="Shape" fill="#000000"></path>
                                        <ellipse id="Oval" fill="#A4DDEB" opacity="0.49" transform="translate(8.120790, 5.018647) rotate(-25.200000) translate(-8.120790, -5.018647) " cx="8.1207899" cy="5.01864712" rx="2.77545984" ry="4.21566358"></ellipse>
                                        <ellipse id="Oval" fill="#A4DDEB" opacity="0.49" transform="translate(5.242535, 6.825360) rotate(-65.980000) translate(-5.242535, -6.825360) " cx="5.24253525" cy="6.82536008" rx="2.77545984" ry="4.21566358"></ellipse>
                                        <path d="M23.2179493,4.68974291 C23.2614659,4.96454537 23.2001991,5.246414 23.047627,5.47334094 C22.8950549,5.70026787 22.6636753,5.85366443 22.4043893,5.89978512 C22.2152122,5.93634633 22.0199602,5.90778148 21.8472032,5.8182703 C21.7908009,5.79019297 21.117392,6.79463669 20.7806875,7.74654863 C20.7131757,7.93856132 20.5499509,7.74654863 20.5593513,7.66322237 C20.6661738,6.70859327 21.5600643,5.63078622 21.5216082,5.58731164 C21.2294361,5.26035249 21.1663567,4.77241255 21.3647823,4.37421242 C21.5632079,3.97601229 21.9790069,3.75611532 22.3985273,3.82751226 C22.8180476,3.89890919 23.1479841,4.2457207 23.2188039,4.68974291 L23.2179493,4.68974291 Z" id="Shape" fill="#000000"></path>
                                        <path d="M26.2957225,6.65734545 C26.2424568,6.92748749 26.0829143,7.16558406 25.8522384,7.31918829 C25.6215626,7.47279252 25.3386765,7.52930369 25.0658931,7.47627377 C24.865906,7.43973121 24.6829996,7.34072314 24.5439832,7.19376138 C24.4979323,7.147272 23.4802982,7.8276262 22.8130119,8.5821846 C22.6784711,8.73416912 22.5854664,8.49725208 22.6233906,8.42394191 C23.0640343,7.58087487 24.3263702,6.91482509 24.3028933,6.86028947 C24.1282757,6.45042446 24.2371077,5.97594941 24.5733987,5.68096627 C24.9096896,5.38598314 25.3985288,5.33620116 25.7884243,5.55723154 C26.1783199,5.77826191 26.3824203,6.22086883 26.2957225,6.65734545 Z" id="Shape" fill="#000000"></path>
                                    </g>
                                    <path d="M333.09088,126.366667 L334.335773,149.910064 L334.585376,158.577778 L331.272649,158.577778 C331.59201,155.410025 331.823598,152.768708 331.967413,150.653826 C332.111229,148.538943 332.485718,140.443223 333.09088,126.366667 Z" id="Rectangle-5-Copy-18" fill="#9D4C2A" transform="translate(332.929012, 142.472222) scale(-1, 1) translate(-332.929012, -142.472222) "></path>
                                    <path d="M347.998149,116.455556 L349.243042,145.432045 L349.492645,156.1 L346.179918,156.1 C346.499279,152.201228 346.730867,148.950376 346.874683,146.347443 C347.018498,143.744511 347.392987,133.780549 347.998149,116.455556 Z" id="Rectangle-5-Copy-19" fill="#9D4C2A" transform="translate(347.836282, 136.277778) scale(-1, 1) translate(-347.836282, -136.277778) "></path>
                                    <path d="M322.990833,116.455556 C324.639284,134.17994 325.559486,144.351145 325.751438,146.969171 C325.943391,149.587197 326.127431,153.181424 326.303559,157.751852 L323.592902,157.751852 C323.826755,154.652099 323.996336,152.067481 324.101645,149.997997 C324.206955,147.928513 323.836684,136.747699 322.990833,116.455556 Z" id="Rectangle-5-Copy-17" fill="#9D4C2A" transform="translate(324.647196, 137.103704) scale(-1, 1) translate(-324.647196, -137.103704) "></path>
                                    <path d="M325.813488,115.62963 C327.382887,131.860444 328.226372,141.765496 328.343942,145.344787 C328.461512,148.924077 328.609566,153.059766 328.788104,157.751852 L325.475378,157.751852 C325.534587,153.087678 325.564192,148.95199 325.564192,145.344787 C325.564192,141.737584 325.647291,131.832531 325.813488,115.62963 Z" id="Rectangle-5-Copy-6" fill="#C16843" transform="translate(327.131741, 136.690741) scale(-1, 1) translate(-327.131741, -136.690741) "></path>
                                    <path d="M332.354414,122.237037 C333.531463,135.60359 334.164076,143.760692 334.252254,146.708343 C334.340432,149.655994 334.451472,153.061855 334.585376,156.925926 L332.100831,156.925926 C332.145238,153.084842 332.167442,149.678981 332.167442,146.708343 C332.167442,143.737705 332.229766,135.580603 332.354414,122.237037 Z" id="Rectangle-5-Copy-7" fill="#C16843"></path>
                                    <path d="M348.089864,115.62963 C349.266914,131.860444 349.899527,141.765496 349.987705,145.344787 C350.075882,148.924077 350.186923,153.059766 350.320826,157.751852 L347.836282,157.751852 C347.880689,153.087678 347.902892,148.95199 347.902892,145.344787 C347.902892,141.737584 347.965216,131.832531 348.089864,115.62963 Z" id="Rectangle-5-Copy-8" fill="#C16843"></path>
                                    <polygon id="Path-26-Copy-6" fill="url(#linearGradient-14)" points="332.790918 122.237037 327.131741 148.666667 340.382647 148.666667"></polygon>
                                    <polygon id="Path-26-Copy-7" fill="url(#linearGradient-14)" points="347.698188 115.62963 342.03901 145.362963 355.289916 145.362963"></polygon>
                                    <polygon id="Path-26-Copy-8" fill="url(#linearGradient-14)" points="355.42801 122.237037 361.087188 148.666667 347.836282 148.666667"></polygon>
                                </g>
                            </g>
                        </g>
                    </g>
                </g>
            </g>
        </g>
    </g>
</svg>