<?xml version="1.0" encoding="UTF-8"?>
<svg width="1902px" height="409px" viewBox="0 0 1902 409" version="1.1" xmlns="http://www.w3.org/2000/svg" xmlns:xlink="http://www.w3.org/1999/xlink" style="background: #FFFFFF;">
    <!-- Generator: Sketch 49.3 (51167) - http://www.bohemiancoding.com/sketch -->
    <title>Apple TV Copy 2</title>
    <desc>Created with Sketch.</desc>
    <defs>
        <linearGradient x1="62.6605415%" y1="162.315646%" x2="48.9191235%" y2="0%" id="linearGradient-1">
            <stop stop-color="#3023AE" offset="0%"></stop>
            <stop stop-color="#53A0FD" offset="47.5247532%"></stop>
            <stop stop-color="#B3FFA4" offset="100%"></stop>
        </linearGradient>
        <path d="M30,0 L1872,0 C1888.56854,-3.04359188e-15 1902,13.4314575 1902,30 L1902,306 L0,306 L0,30 C-2.02906125e-15,13.4314575 13.4314575,3.04359188e-15 30,0 Z" id="path-2"></path>
        <linearGradient x1="50%" y1="0%" x2="50%" y2="100%" id="linearGradient-4">
            <stop stop-color="#A6B0BB" offset="0%"></stop>
            <stop stop-color="#7B8794" offset="100%"></stop>
        </linearGradient>
        <linearGradient x1="0%" y1="100%" x2="100%" y2="100%" id="linearGradient-5">
            <stop stop-color="#FBD7FF" offset="0%"></stop>
            <stop stop-color="#FFFBE8" offset="100%"></stop>
        </linearGradient>
        <linearGradient x1="13.5902148%" y1="100%" x2="79.9706142%" y2="0%" id="linearGradient-6">
            <stop stop-color="#FFFA72" offset="0%"></stop>
            <stop stop-color="#FFE42D" offset="100%"></stop>
        </linearGradient>
        <linearGradient x1="50%" y1="0%" x2="71.8022408%" y2="144.529002%" id="linearGradient-7">
            <stop stop-color="#9ECDF1" offset="0%"></stop>
            <stop stop-color="#CC4E4E" offset="100%"></stop>
        </linearGradient>
        <linearGradient x1="53.6095381%" y1="0%" x2="56.1460905%" y2="69.8699815%" id="linearGradient-8">
            <stop stop-color="#9DD7E3" offset="0%"></stop>
            <stop stop-color="#C55A82" offset="100%"></stop>
        </linearGradient>
        <linearGradient x1="44.4793932%" y1="17.958519%" x2="47.8896842%" y2="72.9820565%" id="linearGradient-9">
            <stop stop-color="#CCBCBC" offset="0%"></stop>
            <stop stop-color="#708085" offset="100%"></stop>
        </linearGradient>
        <linearGradient x1="52.9059186%" y1="8.02456051%" x2="61.3939686%" y2="119.08438%" id="linearGradient-10">
            <stop stop-color="#DCB4BB" offset="0%"></stop>
            <stop stop-color="#984B06" offset="100%"></stop>
        </linearGradient>
        <linearGradient x1="52.9059186%" y1="8.02456051%" x2="0%" y2="50%" id="linearGradient-11">
            <stop stop-color="#EFA67D" offset="0%"></stop>
            <stop stop-color="#84888B" offset="100%"></stop>
        </linearGradient>
        <linearGradient x1="50%" y1="0%" x2="50%" y2="100%" id="linearGradient-12">
            <stop stop-color="#AC9083" offset="0%"></stop>
            <stop stop-color="#73574B" offset="100%"></stop>
        </linearGradient>
        <linearGradient x1="50%" y1="0%" x2="50%" y2="100%" id="linearGradient-13">
            <stop stop-color="#F2DCCF" offset="0%"></stop>
            <stop stop-color="#B4846B" offset="100%"></stop>
        </linearGradient>
        <linearGradient x1="100%" y1="100%" x2="-4.03868225%" y2="100%" id="linearGradient-14">
            <stop stop-color="#AFE3DB" offset="0%"></stop>
            <stop stop-color="#F3E1FF" offset="100%"></stop>
        </linearGradient>
        <linearGradient x1="50%" y1="0%" x2="50%" y2="100%" id="linearGradient-15">
            <stop stop-color="#F2DDCF" offset="0%"></stop>
            <stop stop-color="#D4A890" offset="100%"></stop>
        </linearGradient>
        <linearGradient x1="-11.3770283%" y1="157.213749%" x2="71.0627226%" y2="0%" id="linearGradient-16">
            <stop stop-color="#B1A7A7" offset="0%"></stop>
            <stop stop-color="#73574B" offset="100%"></stop>
        </linearGradient>
        <linearGradient x1="50%" y1="1.23712734%" x2="50%" y2="33.9887691%" id="linearGradient-17">
            <stop stop-color="#EFDDD2" offset="0%"></stop>
            <stop stop-color="#E8C3AF" offset="100%"></stop>
        </linearGradient>
        <linearGradient x1="50%" y1="5.04424426%" x2="50%" y2="100%" id="linearGradient-18">
            <stop stop-color="#CAAA9A" offset="0%"></stop>
            <stop stop-color="#737271" offset="100%"></stop>
        </linearGradient>
        <linearGradient x1="48.1356455%" y1="0%" x2="48.1356442%" y2="66.7740076%" id="linearGradient-19">
            <stop stop-color="#F29B6C" offset="0%"></stop>
            <stop stop-color="#FFDD5A" offset="100%"></stop>
        </linearGradient>
        <linearGradient x1="50%" y1="0%" x2="50%" y2="100%" id="linearGradient-20">
            <stop stop-color="#727E8A" offset="0%"></stop>
            <stop stop-color="#98A6B4" offset="100%"></stop>
        </linearGradient>
        <linearGradient x1="79.5702129%" y1="0%" x2="31.8500791%" y2="100%" id="linearGradient-21">
            <stop stop-color="#E2C5FF" offset="0%"></stop>
            <stop stop-color="#EAD6FF" offset="100%"></stop>
        </linearGradient>
        <linearGradient x1="79.5702129%" y1="0%" x2="31.8500791%" y2="100%" id="linearGradient-22">
            <stop stop-color="#D0A7F9" offset="0%"></stop>
            <stop stop-color="#EAD6FF" offset="100%"></stop>
        </linearGradient>
        <linearGradient x1="50%" y1="-10.0224463%" x2="50%" y2="41.248421%" id="linearGradient-23">
            <stop stop-color="#75828E" offset="0%"></stop>
            <stop stop-color="#8FDC8B" offset="100%"></stop>
        </linearGradient>
        <linearGradient x1="50%" y1="0%" x2="50%" y2="100%" id="linearGradient-24">
            <stop stop-color="#81D585" offset="0%"></stop>
            <stop stop-color="#688E54" offset="100%"></stop>
        </linearGradient>
        <linearGradient x1="50%" y1="0%" x2="50%" y2="100%" id="linearGradient-25">
            <stop stop-color="#94DF81" offset="0%"></stop>
            <stop stop-color="#749551" offset="100%"></stop>
        </linearGradient>
        <linearGradient x1="3.24699335%" y1="0%" x2="89.487302%" y2="97.4417449%" id="linearGradient-26">
            <stop stop-color="#FFD625" offset="0%"></stop>
            <stop stop-color="#FFC6A6" offset="100%"></stop>
        </linearGradient>
        <linearGradient x1="3.24699335%" y1="0%" x2="91.7514723%" y2="100%" id="linearGradient-27">
            <stop stop-color="#FAE452" offset="0%"></stop>
            <stop stop-color="#FFAB7C" offset="100%"></stop>
        </linearGradient>
        <linearGradient x1="142.018337%" y1="50%" x2="50%" y2="100%" id="linearGradient-28">
            <stop stop-color="#B9D295" stop-opacity="0.797865716" offset="0%"></stop>
            <stop stop-color="#77A245" stop-opacity="0.797865716" offset="100%"></stop>
        </linearGradient>
        <path d="M0,38 L0,13.9401383 C0.903759524,4.64671276 4.90375952,0 12,0 C19.0962405,0 23.0962405,4.24543833 24,12.736315 L24,32.77483 L0,38 Z" id="path-29"></path>
        <linearGradient x1="95.468284%" y1="16.922114%" x2="-1.04102401%" y2="86.9740029%" id="linearGradient-31">
            <stop stop-color="#DAF9FF" offset="0%"></stop>
            <stop stop-color="#D8D8D8" stop-opacity="0.374037591" offset="100%"></stop>
        </linearGradient>
        <polygon id="path-32" points="0.00625728537 0.017880048 4.48067338 0.017880048 4.48067338 2.10713733 0.00625728537 2.10713733 0.00625728537 0.017880048"></polygon>
        <polygon id="path-34" points="4.21457448e-17 4.95719727 4.21457448e-17 0.0165667199 2.6145415 0.0165667199 2.6145415 4.95719727 0 4.95719727"></polygon>
        <polygon id="path-36" points="8.52734352e-13 0.0163907856 3.29911146 0.0163907856 3.29911146 6.18173017 6.25277607e-13 6.18173017"></polygon>
        <linearGradient x1="50%" y1="50%" x2="50%" y2="121.12578%" id="linearGradient-38">
            <stop stop-color="#FFFDC1" offset="0%"></stop>
            <stop stop-color="#E7DA88" offset="100%"></stop>
        </linearGradient>
        <linearGradient x1="50%" y1="50%" x2="50%" y2="123.200961%" id="linearGradient-39">
            <stop stop-color="#FFFDC1" offset="0%"></stop>
            <stop stop-color="#E7DA88" offset="100%"></stop>
        </linearGradient>
        <linearGradient x1="63.133309%" y1="23.791677%" x2="0%" y2="114.929931%" id="linearGradient-40">
            <stop stop-color="#FFFDC1" offset="0%"></stop>
            <stop stop-color="#E7DA88" offset="100%"></stop>
        </linearGradient>
    </defs>
    <g id="Apple-TV-Copy-2" stroke="none" stroke-width="1" fill="none" fill-rule="evenodd">
        <g id="Screen-Shot-2018-01-25-at-4.35.58-AM-Copy-4" opacity="0.778985507">
            <mask id="mask-3" fill="white">
                <use xlink:href="#path-2"></use>
            </mask>
            <use id="Mask" fill="url(#linearGradient-1)" opacity="0.663269928" xlink:href="#path-2"></use>
        </g>
        <path d="M1056,272 C1223.66354,165.956358 1323.86843,113.292087 1356.61467,114.007185 C1389.36092,114.722283 1440.15603,165.154418 1509,265.303589 L1251.84024,272 L1056,272 Z" id="Path-21-Copy-5" fill="url(#linearGradient-4)" opacity="0.39770154"></path>
        <path d="M314.383726,98 L450.170516,98 C450.839243,97.6059724 451.103626,96.9544057 450.963665,96.0453 C449.565051,86.9607158 444.570309,80.6460905 437.812422,78.7613994 C432.018197,77.1454618 426.397955,77.8799901 420.951697,80.9649841 C417.516453,73.3650339 412.694155,69.1649053 406.484805,68.3645983 C400.275455,67.5642914 396.097598,68.4000752 393.951235,70.8719499 C387.06169,64.9573166 378.56481,62 368.460596,62 C358.356381,62 352.000614,67.5871331 349.393295,78.7613994 C341.323057,73.7402784 333.501466,72.536579 325.928521,75.1503013 C322.808775,76.2270488 317.723952,78.7613994 317.723952,88.0120934 C317.723952,89.2592946 314.603743,87.991893 312.669993,91.3591038 C311.380827,93.6039111 311.952071,95.8175431 314.383726,98 Z" id="Path-19-Copy-6" fill="url(#linearGradient-5)" opacity="0.608695652" transform="translate(381.500000, 80.000000) scale(-1, 1) translate(-381.500000, -80.000000) "></path>
        <circle id="Oval-7-Copy-2" fill="url(#linearGradient-6)" cx="281.5" cy="86.5" r="36.5"></circle>
        <path d="M701,346.075336 C837.667944,279.358445 918.484496,246 943.449656,246 C974.619507,246 1039.13629,257.690301 1137,281.070902 L870.990706,355 L701,346.075336 Z" id="Path-21-Copy-10" fill="url(#linearGradient-7)"></path>
        <path d="M621,347.075336 C757.667944,280.358445 838.484496,247 863.449656,247 C894.619507,247 959.136288,258.690301 1057,282.070902 L790.990706,356 L621,347.075336 Z" id="Path-21-Copy-9" fill="url(#linearGradient-8)" transform="translate(839.000000, 301.500000) scale(-1, 1) translate(-839.000000, -301.500000) "></path>
        <path d="M882,306.560452 C1044.65304,239.520151 1138.54787,206 1163.68449,206 C1195.06842,206 1246.50692,229.324666 1318,275.973998 L1053.15822,316 L882,306.560452 Z" id="Path-21-Copy-6" fill="url(#linearGradient-9)"></path>
        <path d="M487,298 C544.020627,276.803214 581.559775,263.074668 599.617445,256.81436 C669.342949,232.641636 675.537864,229.524741 719.503756,216.793363 C748.814351,208.305778 802.979766,229.945568 882,281.712733 L572.908568,298 L487,298 Z" id="Path-21-Copy-7" fill="url(#linearGradient-10)" transform="translate(684.500000, 256.500000) scale(-1, 1) translate(-684.500000, -256.500000) "></path>
        <path d="M268,288 C412.154721,222.738665 494.42039,185.128692 514.797006,175.170079 C535.173621,165.211466 605.907953,189.528329 727,248.120669 L353.880063,288 L268,288 Z" id="Path-21-Copy-8" fill="url(#linearGradient-11)" transform="translate(497.500000, 230.500000) scale(-1, 1) translate(-497.500000, -230.500000) "></path>
        <g id="Group-32-Copy" transform="translate(1459.500000, 152.000000) scale(-1, 1) translate(-1459.500000, -152.000000) translate(1360.000000, 89.000000)">
            <path d="M0,34.6190433 C15.1492141,29.4635639 27.4692732,23.1075556 36.9601772,15.5510185 C46.4510812,7.99448134 52.9197574,2.81080852 56.3662059,0 C67.4135485,11.1170435 76.6862772,20.4039261 84.1843918,27.8606478 C91.2566897,34.8939035 105.195226,47.9403542 126,67 L0,34.6190433 Z" id="Path-23" fill="url(#linearGradient-12)"></path>
            <path d="M56.7033943,0 C56.7033943,0 76.4625085,19.5846884 91.7232974,34.1655976 C106.984086,48.7465067 189.812901,119.626136 197.985387,125.350602 C202.308889,128.379025 103.759214,94.994159 78.3420674,86.479364 C55.3740666,78.7850376 34.5636757,39.0985466 44.2141524,35.2967862 C59.7140098,29.1906894 56.7033943,0 56.7033943,0 Z" id="Path-11-Copy" fill="url(#linearGradient-13)"></path>
        </g>
        <path d="M1440.32008,106 L1544,106 C1541.04371,101.069238 1538.95062,98.2650824 1537.72073,97.587533 C1531.47163,94.1448802 1529.67846,99.3932411 1528.80714,98.6406214 C1526.41385,96.5733882 1524.25337,93.955314 1520.83676,93.1448802 C1516.21378,92.0482934 1512.10414,92.3816267 1508.50783,94.1448802 C1504.02561,84.0482934 1496.11558,79 1484.77775,79 C1473.43993,79 1465.34342,82.3614175 1460.48824,89.0842524 C1455.67562,89.0842524 1451.53551,90.222835 1448.06791,92.5 C1444.80384,94.6435119 1440.36327,98.8672592 1439.02275,104.95586 C1438.89206,105.549422 1439.32451,105.897469 1440.32008,106 Z" id="Path-19-Copy-2" fill="url(#linearGradient-14)"></path>
        <g id="Group-31-Copy" transform="translate(1527.000000, 129.000000) scale(-1, 1) translate(-1527.000000, -129.000000) translate(1415.000000, 57.000000)">
            <path d="M81.6636135,2 C81.6636135,2 101.128172,25.8470422 113.316679,40.6006404 C125.505187,55.3542385 223.129697,143.794033 223.129697,143.794033 C223.129697,143.794033 132.337104,125.357585 113.316679,122.602438 C86.4915052,118.716757 0.0812869268,99.1820842 0.0812869268,99.1820842 C0.0812869268,99.1820842 61.559201,39.650251 71.3431388,24.643143 C81.1270766,9.6360351 81.6636135,2 81.6636135,2 Z" id="Path-11" fill="url(#linearGradient-15)"></path>
            <path d="M81.1960837,0 L36,57.0268341 L50.5358307,70 L77.1518464,66.2526405 C77.1518464,66.2526405 100.160517,64.6254817 99.9991552,50.2163082 C99.8377939,35.8071347 81.1960837,38.8981002 81.1960837,27.0040404 C81.1960837,2.33523194 81.1960837,0 81.1960837,0 Z" id="Path-10" fill="url(#linearGradient-16)"></path>
            <path d="M67.5629697,17.197179 C67.5629697,17.197179 68.1600618,18.9501196 70.4877005,18.9501196 C72.8153392,18.9501196 72.5206009,18.9501196 74.8312062,18.9501196 C77.6992728,18.9501196 77.6578117,25 80.8556916,25 C84.0086908,25 85.3581524,19.2532269 87.3593513,17.197179 C89.3605502,15.1411311 92,14.180472 92,14.180472 L81.4460195,0.239035789 C81.4460195,0.239035789 80.1002064,-0.534599316 79.1447388,0.701704552 C78.1892712,1.93800842 67.5629697,17.197179 67.5629697,17.197179 Z" id="Path-25-Copy-3" fill="#F6F1F1"></path>
            <path d="M67.4182769,17.2045258 C67.4182769,17.2045258 68.0013753,19.7082565 70.4337742,19.7082565 C72.8661731,19.7082565 72.6928886,18.9202627 75.1074875,18.9202627 C77.3162588,18.9202627 77.5336904,24.9982496 80.8993132,24.9982496 C81.1143555,25.0930984 80.921451,21.3209367 80.8993132,16.6797894 C80.8646212,9.40670282 80.8993132,0 80.8993132,0 C80.8993132,0 80.6742086,0.0155683551 80.4484764,0.0836873662 C80.2227441,0.151806377 79.4811701,0.351920491 78.9583782,0.998408782 C77.9599078,2.23312455 67.4182769,17.2045258 67.4182769,17.2045258 Z" id="Path-25-Copy-5" fill="#E2E2E2"></path>
        </g>
        <g id="Group-30-Copy-2" transform="translate(1601.000000, 143.500000) scale(-1, 1) translate(-1601.000000, -143.500000) translate(1492.000000, 89.000000)">
            <path d="M15.7171462,83.0664532 C37.9625514,68.5593118 42.2273134,61.8423831 56.7132246,48.6214079 C71.1991358,35.4004327 101.810446,0 101.810446,0 C101.810446,0 108.598631,8.56197875 131.376097,31.1670886 C139.69716,39.4251862 153.134538,54.3466273 170.701544,71.4547587 C192.610104,92.7910372 204.686388,114.712229 216.431336,106.679385 C228.176284,98.6465403 76.5173351,91.005744 69.1497751,94.1671564 C55.1991832,100.153341 -34.9236928,116.091422 15.7171462,83.0664532 Z" id="Path-9" fill="url(#linearGradient-17)"></path>
            <path d="M99.8803188,43.8578758 C96.9111633,52.9499875 88.6745628,60.0775053 75.2868089,62.8952448 C61.8990549,65.7129844 43.2068185,72.2002505 11.9229703,93.4570227 C-6.80437828,106.181895 40.3180278,60.139981 49.1276316,52.9499875 C73.0134625,33.4554708 101.831595,0 101.831595,0 C101.831595,0 102.849474,34.7657641 99.8803188,43.8578758 Z" id="Path-25" fill="url(#linearGradient-18)"></path>
            <path d="M87,16.5596634 C87,16.5596634 88.1817841,21.4538746 90.7887395,21.4538746 C93.3956948,21.4538746 93.141308,19.1544111 95.729186,19.1544111 C98.9414207,19.1544111 98.9367491,25 102.518375,25 C106.049734,25 107.561131,19.4830978 109.802473,17.5092918 C112.043816,15.5354858 115,14.6132532 115,14.6132532 L101.854382,0.219810279 C101.854382,0.219810279 100.97624,0.450990757 99.906116,1.63784247 C98.8359923,2.82469418 87,16.5596634 87,16.5596634 Z" id="Path-25-Copy-2" fill="#F6F1F1"></path>
            <path d="M87,16.1816482 C87,16.1816482 88.1482735,21.5768575 90.7403111,21.5768575 C93.3323487,21.5768575 93.1476916,18.9202627 95.720761,18.9202627 C98.6282484,18.9202627 98.2887994,23.9329813 101.892705,24.9982496 C102.121861,25.0930984 101.916296,21.3209367 101.892705,16.6797894 C101.855736,9.40670282 101.892705,0 101.892705,0 C101.892705,0 101.652827,0.0155683551 101.41228,0.0836873662 C101.171733,0.151806377 100.857773,0.313113029 100.30067,0.95960132 C99.23667,2.19431709 87,16.1816482 87,16.1816482 Z" id="Path-25-Copy-4" fill="#E2E2E2"></path>
        </g>
        <path d="M1164.15908,303.413404 C1048.10083,295.670598 946.852091,300.891387 836.036274,285.565814 C725.220457,270.240241 702.013488,256.457305 571.889654,229.836036 C531.946227,221.664245 480.587501,217.052233 417.813477,216 L245,358 L1442,339.22842 C1334.14488,320.513613 1241.53124,308.575275 1164.15908,303.413404 Z" id="Combined-Shape-Copy-5" fill="url(#linearGradient-19)"></path>
        <path d="M1100.38787,279.04783 C1116.14927,253.392773 1122.75966,246.232575 1131.63794,239.489767 C1140.51622,232.746959 1155.46366,221.526021 1185.45695,221.526021 L1218.63506,221.526021 C1228.3586,221.526021 1228.57876,220.449333 1228.57876,200.038597 C1228.57876,179.627861 1224.52207,180.000462 1263.5673,180.000462 C1302.61252,180.000462 1245.89591,180.000462 1449.22191,180.730825 C1514.68362,180.965969 1579.25163,180.327114 1637.00418,180.674988 C1758.63277,181.407621 1659.99893,221.526021 1625.63042,239.489767 C1554.06008,276.898183 1084.62648,304.702888 1100.38787,279.04783 Z" id="Path-5-Copy-6" fill="url(#linearGradient-20)"></path>
        <g id="Group-9-Copy-3" transform="translate(1251.000000, 180.000000)">
            <path d="M199.593758,2.11201951 L51.4799845,2.68175937 C51.4799845,2.68175937 40.3496485,3.0110445 40.3496485,13.6461884 C40.3496485,24.2813324 40.3496485,80.5318302 40.3496485,80.5318302 C40.3496485,80.5318302 30.7897163,84.9386589 18.8414684,86.8657623 C6.89322052,88.7928656 0.122649706,89.5316232 0.122649706,89.5316232 C0.122649706,89.5316232 0.122649706,13.5074304 0.122649706,10.2724083 C0.122649706,7.03738617 -1.35753821,0 9.51266212,7.66510474e-17 C20.3828625,1.53302095e-16 198.317732,0 198.317732,0 L199.593758,2.11201951 Z" id="Path-7" fill="#CCFCF4"></path>
            <path d="M193.275085,2.11201951 L55.307968,2.68175937 C55.307968,2.68175937 44.5142505,3.0110445 44.5142505,13.6461884 C44.5142505,24.2813324 44.5142505,80.5318302 44.5142505,80.5318302 C44.5142505,80.5318302 35.2434425,83.7796766 23.6565495,85.70678 C12.0696566,87.6338833 5.50385039,88.3726409 5.50385039,88.3726409 L5.50385039,10.2724083 C5.50385039,10.2724083 3.64664091,5.94045617e-16 14.6098775,7.66510474e-17 C25.5731141,7.66510474e-17 192.03765,0 192.03765,0 L193.275085,2.11201951 Z" id="Path-7-Copy" fill="#9FEADF"></path>
            <path d="M199.46503,2.11201951 L62.3317637,2.68175937 C62.3317637,2.68175937 51.5380462,3.0110445 51.5380462,13.6461884 C51.5380462,24.2813324 51.5380462,80.5318302 51.5380462,80.5318302 C51.5380462,80.5318302 42.2672382,83.7796766 30.6803452,85.70678 C19.0934522,87.6338833 12.5276461,88.3726409 12.5276461,88.3726409 C12.5276461,88.3726409 11.9594258,15.7869013 12.5276461,10.2724083 C13.0958663,4.75791529 10.6704366,5.94045617e-16 21.6336732,7.66510474e-17 C32.5969098,7.66510474e-17 198.227595,0 198.227595,0 L199.46503,2.11201951 Z" id="Path-7-Copy-8" fill="#6BC3B7"></path>
            <path d="M177.938929,2.11201951 L39.8162651,2.68175937 C39.8162651,2.68175937 29.5533691,3.0110445 29.5533691,13.6461884 L29.5533691,80.5318302 C29.5533691,80.5318302 42.9059717,83.7796766 31.8889076,85.70678 C20.8718435,87.6338833 14.6289354,88.3726409 14.6289354,88.3726409 L14.6289354,10.2724083 C14.6289354,10.2724083 12.8630612,6.13208379e-16 23.2871396,7.66510474e-17 C33.7112179,7.66510474e-17 198.245037,0 198.245037,0 L177.938929,2.11201951 Z" id="Path-7-Copy-2" fill="#78D3C6"></path>
            <path d="M199.529204,2.11201951 L54.1073009,2.68175937 C54.1073009,2.68175937 44.1033422,3.0110445 44.1033422,13.6461884 L44.1033422,80.5318302 C44.1033422,80.5318302 53.1936231,83.7796766 42.4545243,85.70678 C31.7154255,87.6338833 25.6300287,88.3726409 25.6300287,88.3726409 L25.6300287,10.2724083 C25.6300287,10.2724083 23.9087082,5.36557332e-16 34.0697825,0 L198.38231,0 L199.529204,2.11201951 Z" id="Path-7-Copy-3" fill="#6BC3B7"></path>
            <path d="M199.445579,2.11201951 L67.9207657,2.68175937 C67.9207657,2.68175937 57.9168071,3.0110445 57.9168071,13.6461884 L57.9168071,80.5318302 C57.9168071,80.5318302 67.0070879,83.7796766 56.2679891,85.70678 C45.5288903,87.6338833 39.4434935,88.3726409 39.4434935,88.3726409 L39.4434935,10.2724083 C39.4434935,10.2724083 37.722173,5.36557332e-16 47.8832474,0 L198.298684,0 L199.445579,2.11201951 Z" id="Path-7-Copy-7" fill="#4DB0A2"></path>
            <path d="M199.315783,2.11201951 L51.1348197,2.68175937 C51.1348197,2.68175937 41.429845,3.0110445 41.429845,13.6461884 L41.429845,80.5318302 C41.429845,80.5318302 50.6612201,83.7796766 40.243076,85.70678 C29.8249319,87.6338833 29.6068849,88.3726409 29.6068849,88.3726409 L29.6068849,10.2724083 C29.6068849,10.2724083 27.9370088,6.13208379e-16 37.7944036,7.66510474e-17 C47.6517984,7.66510474e-17 198.290503,0 198.290503,0 L199.315783,2.11201951 Z" id="Path-7-Copy-4" fill="#9FEADF"></path>
            <path d="M185.356442,2.11201951 L53.1427697,2.68175937 C53.1427697,2.68175937 43.9933041,3.0110445 43.9933041,13.6461884 L43.9933041,80.5318302 C43.9933041,80.5318302 50.8847278,83.7796766 41.0629145,85.70678 C31.2411012,87.6338833 34.7515471,86.0573999 34.7515471,86.0573999 L34.7515471,10.2724083 C34.7515471,10.2724083 33.177254,6.13208379e-16 42.4704151,7.66510474e-17 C51.7635762,7.66510474e-17 198.27703,0 198.27703,0 L185.356442,2.11201951 Z" id="Path-7-Copy-5" fill="#78D1C4"></path>
            <path d="M363.706486,2.11201951 L61.8313516,2.68175937 C61.8313516,2.68175937 53.1609201,3.0110445 53.1609201,13.6461884 C53.1609201,24.2813324 53.1609201,80.5318302 53.1609201,80.5318302 C53.1609201,80.5318302 43.4511245,85.70678 43.4300371,85.70678 C43.4089497,85.70678 43.4089497,10.2724083 43.4089497,10.2724083 C43.4089497,10.2724083 41.9170812,6.13208379e-16 50.7236849,7.66510474e-17 C59.5302885,7.66510474e-17 362.487724,0 362.487724,0 L363.706486,2.11201951 Z" id="Path-7-Copy-6" fill="#4FBEAE"></path>
        </g>
        <g id="Group-6-Copy-3" transform="translate(1187.000000, 239.000000)" fill="#9FEADF">
            <ellipse id="Oval-9" cx="56.7756818" cy="27.2360841" rx="7.84323851" ry="7.76518142"></ellipse>
            <ellipse id="Oval-8" cx="47.4106209" cy="29.3222522" rx="4.09721415" ry="4.05643806"></ellipse>
            <ellipse id="Oval-10" cx="35.3531049" cy="30.1335399" rx="12.8769588" ry="12.7488053"></ellipse>
            <ellipse id="Oval-11" cx="73.2816016" cy="25.9612036" rx="13.5793383" ry="13.4441947"></ellipse>
            <ellipse id="Oval-12" cx="93.8847356" cy="16.2257522" rx="16.3888566" ry="16.2257522"></ellipse>
            <ellipse id="Oval-13" cx="114.839059" cy="14.4872788" rx="6.90673242" ry="6.83799558"></ellipse>
            <ellipse id="Oval-14" cx="18.6130586" cy="29.3222522" rx="5.73609981" ry="5.67901328"></ellipse>
            <ellipse id="Oval-15" cx="2.92658153" cy="30.2494381" rx="2.92658153" ry="2.89745576"></ellipse>
            <ellipse id="Oval-16" cx="49.1665698" cy="12.5170089" rx="3.74602436" ry="3.70874337"></ellipse>
        </g>
        <path d="M583,235 L453,235 L460.627991,225.256575 C471.082123,211.903247 489.335026,207.471168 504.748787,214.543384 L515.716278,203.397215 C524.038394,194.939518 537.641121,194.829608 546.098818,203.151725 C546.841754,203.882751 547.530508,204.666872 548.159624,205.497876 L548.159624,205.497876 C558.352855,200.654573 570.542373,204.991546 575.385676,215.184776 C575.618862,215.67554 575.832381,216.175409 576.025723,216.683192 L583,235 Z" id="Path-18" fill="url(#linearGradient-21)"></path>
        <path d="M583,235 L491,235 L496.420766,228.048191 C503.800231,218.584466 516.722371,215.443888 527.622218,220.465036 L535.377537,212.551809 C541.24673,206.56311 550.85945,206.466232 556.848148,212.335425 C557.388392,212.864889 557.888313,213.433987 558.343734,214.037964 L558.343734,214.037964 C565.536604,210.606594 574.149252,213.65589 577.580623,220.84876 C577.751793,221.207568 577.908062,221.573297 578.049031,221.945011 L583,235 Z" id="Path-18-Copy" fill="url(#linearGradient-22)"></path>
        <path d="M1462.22447,217.660966 C1462.22447,217.660966 1436.03981,208.932475 1402.25941,211.458928 C1368.47902,213.985381 1323.71156,243.687195 1323.71156,243.687195 C1323.71156,243.687195 1299.14819,259.949653 1266.88881,266.23444 C1234.62943,272.519228 1201.66752,272.466634 1201.66752,272.466634 C1201.66752,272.466634 1130.07173,272.466634 1074.40501,272.466634 C1018.7383,272.466634 800,297.5 800,297.5 C800,297.5 1006.51569,319.101784 1007.39466,326.073802 C1007.39466,326.073802 1419.34562,326.073802 1419.34562,326.073802 C1419.34562,326.073802 1459.15214,329.878823 1459.15214,380.910143 L1459.15214,384 C1459.15214,384 1472.61708,351.054545 1474.70073,309.480547 C1477.29015,257.815056 1462.22447,217.660966 1462.22447,217.660966 Z" id="Path-3-Copy-6" fill="url(#linearGradient-23)"></path>
        <path d="M1462.03499,218.064527 C1462.03499,218.064527 1430.26366,212.578013 1396.70621,219.432418 C1363.14877,226.286824 1334.54838,249.250989 1316.53449,257.039895 C1298.52061,264.828801 1294.01565,267.161611 1266.88984,272.428402 C1239.76402,277.695193 1201.37915,277.219927 1201.37915,277.219927 L1130.90715,277.219927 C1130.90715,277.219927 1004.22788,290.45697 1005.00355,305.509524 C1005.77922,320.562078 1006.5269,324.048754 1007.40622,331 C1007.40622,331 1394.27824,331 1419.38648,331 C1444.49473,331 1791.56175,331 1901.37438,331 C2027.85682,331 1739.04182,176.61875 1665.10362,167.704218 C1562.4125,155.323021 1541.63027,214.290713 1487.46393,219.432418 C1474.18017,220.693371 1462.03499,218.064527 1462.03499,218.064527 Z" id="Path-3-Copy-7" fill="url(#linearGradient-24)"></path>
        <path d="M1093.96136,277.542379 C1093.96136,277.542379 1360.53668,271.822027 1451.56437,277.542379 C1542.59206,283.262731 1927.67701,273.388655 1922.95698,286.935791 C1918.23695,300.482928 1956.05507,393.215282 1529.14253,371.806058 C1529.14253,371.806058 1381.38114,359.028148 1259.80847,332.121567 C1185.36241,315.645094 1021.2263,309.059717 997.168225,298.538942 C973.110148,288.018167 1093.96136,277.542379 1093.96136,277.542379 Z" id="Path-28-Copy-6" fill="url(#linearGradient-25)"></path>
        <g id="Group-31-Copy-3" transform="translate(1071.000000, 272.000000)">
            <path d="M138,0.979859821 L22.6716262,1.24418749 C22.6716262,1.24418749 14.7378813,1.39695751 14.7378813,6.33107397 L14.7378813,37.362299 C14.7378813,37.362299 21.9470244,38.8691195 13.4302688,39.7631885 C4.91351325,40.6572575 0.0874251673,41 0.0874251673,41 L0.0874251673,4.76582725 C0.0874251673,4.76582725 -1.27768619,2.48932819e-16 6.78066098,0 L137.090444,0 L138,0.979859821 Z" id="Path-7-Copy-12" fill="#60C5B7"></path>
            <g id="Group-30" transform="translate(7.000000, 0.000000)">
                <path d="M173,0.990765234 L46.812382,1.25803475 C46.812382,1.25803475 37.3297354,1.41250504 37.3297354,6.40153606 C37.3297354,11.3905671 37.3297354,37.7781252 37.3297354,37.7781252 C37.3297354,37.7781252 29.1850163,39.8454037 19.005538,40.7494233 C8.82605978,41.6534429 3.05777651,42 3.05777651,42 C3.05777651,42 3.05777651,6.33644356 3.05777651,4.81886883 C3.05777651,3.3012941 1.79670954,0 11.05773,3.59576189e-17 C20.3187504,7.19152379e-17 171.912871,0 171.912871,0 L173,0.990765234 Z" id="Path-7-Copy-9" fill="#9FEADF"></path>
                <path d="M167,0.979859821 L44.3724674,1.24418749 C44.3724674,1.24418749 34.7788268,1.39695751 34.7788268,6.33107397 C34.7788268,11.2651904 34.7788268,37.362299 34.7788268,37.362299 C34.7788268,37.362299 26.5387742,38.8691195 16.2401456,39.7631885 C5.941517,40.6572575 0.105716234,41 0.105716234,41 L0.105716234,4.76582725 C0.105716234,4.76582725 -1.54500331,2.75604192e-16 8.19930881,3.55618313e-17 C17.9436209,3.55618313e-17 165.900146,0 165.900146,0 L167,0.979859821 Z" id="Path-7-Copy-10" fill="#5FC2B3"></path>
                <path d="M153.542835,0.979859821 L27.996728,1.24418749 C27.996728,1.24418749 18.6683049,1.39695751 18.6683049,6.33107397 L18.6683049,37.362299 C18.6683049,37.362299 30.8051059,38.8691195 20.7911844,39.7631885 C10.7772629,40.6572575 5.10279369,41 5.10279369,41 L5.10279369,4.76582725 C5.10279369,4.76582725 3.49770854,2.8449465e-16 12.9726377,3.55618313e-17 C22.4475669,3.55618313e-17 172,0 172,0 L153.542835,0.979859821 Z" id="Path-7-Copy-11" fill="#87D9CD"></path>
                <path d="M145.372929,0.999170601 L36.6283327,1.26870756 C36.6283327,1.26870756 29.1029768,1.42448833 29.1029768,6.45584486 L29.1029768,38.0986239 C29.1029768,38.0986239 34.7711129,39.6351403 26.6927568,40.5468294 C18.6144008,41.4585184 21.501712,40.7127034 21.501712,40.7127034 L21.501712,4.85975073 C21.501712,4.85975073 20.2068696,2.90101384e-16 27.8504139,3.62626731e-17 C35.4939581,3.62626731e-17 156,0 156,0 L145.372929,0.999170601 Z" id="Path-7-Copy-13" fill="#78D1C4"></path>
            </g>
        </g>
        <path d="M-18,319 C-18,319 285.618429,127.679692 359,168.788678 C361.578121,170.232964 458.64094,225.543156 487.519525,235.159801 C518.164545,245.364674 548.882692,240.480463 576.438358,240.480463 C596.201062,240.480463 612.461339,251.521933 618.660747,255.027032 C624.860154,258.532131 626.550386,259.379523 626.550386,259.379523 C626.550386,259.379523 663.471134,274.588614 699.762927,278.77801 C702.984301,279.149874 710.756424,279.964415 713.659881,280.094703 C739.867126,281.270716 735.767132,284.599975 735.767132,284.599975 C735.767132,284.599975 649.634356,277.325833 618.660747,277.325833 C587.687137,277.325833 418.136186,284.599975 418.136186,284.599975 C418.136186,284.599975 402.837912,269.705476 394.453713,246.539678 C386.069514,223.373879 -18,319 -18,319 Z" id="Path-2-Copy-6" fill="url(#linearGradient-26)"></path>
        <path d="M305.813244,187.159232 C370.537409,173.023688 411.815322,210.398233 428.473626,219.091192 C445.13193,227.784151 467.269606,238.201847 487.964187,242.393396 C508.658769,246.584945 531.896831,247.763114 559.479501,247.763114 C587.062171,247.763114 600.475342,252.254717 618.224107,261.727256 C629.503872,267.747282 660.814033,274.127016 687.203869,277.179897 C702.338564,278.930738 713.020792,279.340869 723.037211,279.340869 C745.64479,279.340869 795,299 795,299 C795,299 647.036003,275.500959 572.238649,285.167088 C497.441294,294.833217 297.776943,336.850103 297.776943,336.850103 C297.776943,336.850103 -297.008836,491.325988 -80.5982983,363.104731 C8.28723808,310.440866 242.411736,201.005912 305.813244,187.159232 Z" id="Path-2-Copy-7" fill="url(#linearGradient-27)"></path>
        <path d="M744,365 C796.10083,312.142011 856.133685,287.485937 924.098565,291.031779 C960.046086,292.907222 1041.33365,289.498834 1083.94621,291.031779 C1162.18306,293.846272 1244.19416,287 1355.97758,287 C1471.08924,287 1680.43004,287.335982 1984,288.007945 L1902.39217,365 L744,365 Z" id="Rectangle-17-Copy-4" fill="#B4ECE6" opacity="0.523720562"></path>
        <path d="M797.91706,303.17104 C902.695233,299.19614 979.85303,297.20869 1029.39045,297.20869 C1084.7243,297.20869 1079.83216,307.096248 1125.54919,303.17104 C1155.88347,300.566577 1184.20403,294.726077 1203.9956,294.186048 C1238.91739,293.233179 1262.81715,299.804177 1327.52389,294.186048 C1572.11781,272.949309 1462.64141,365.200322 1636.46224,355.245786 C1695.90709,351.841442 1403.75301,351.841442 760,355.245786 L797.91706,303.17104 Z" id="Rectangle-17-Copy-5" fill="#B4ECE6" opacity="0.851845562" transform="translate(1202.000000, 323.500000) scale(-1, 1) translate(-1202.000000, -323.500000) "></path>
        <path d="M653.5,249.5 L661.5,251.5" id="Line-Copy" stroke="#979797" stroke-linecap="square"></path>
        <path d="M650.5,251.5 L659.5,253.5" id="Line-2-Copy" stroke="#979797" stroke-linecap="square"></path>
        <path d="M649.5,254.5 L658.5,256.5" id="Line-3-Copy" stroke="#979797" stroke-linecap="square"></path>
        <path d="M648.5,257.5 L658.5,259.5" id="Line-4-Copy" stroke="#979797" stroke-linecap="square"></path>
        <path d="M647.5,260.5 L657.5,262.5" id="Line-5-Copy" stroke="#979797" stroke-linecap="square"></path>
        <path d="M647.5,264.5 L656.5,266.5" id="Line-6-Copy-2" stroke="#979797" stroke-linecap="square"></path>
        <path d="M1357,138 C1356.11621,154.215699 1355.54924,164.627773 1355.2991,169.236222 C1355.04896,173.844671 1355.17403,178.432597 1355.67431,183 L1353.02954,183 C1352.9433,178.599637 1353.04589,174.011711 1353.33731,169.236222 C1353.62874,164.460733 1354.84963,154.048659 1357,138 Z" id="Rectangle-5-Copy-60" fill="#9D4C2A"></path>
        <path d="M1370.5744,135 C1370.46174,154.33678 1370.46174,165.917523 1370.5744,169.742232 C1370.68705,173.56694 1370.82892,177.986196 1371,183 L1368,183 C1368.23274,178.061501 1368.34911,173.642245 1368.34911,169.742232 C1368.34911,165.842219 1369.09087,154.261475 1370.5744,135 Z" id="Rectangle-5-Copy-61" fill="#9D4C2A"></path>
        <path d="M1400.19545,145 L1401.69861,173.505459 L1402,184 L1398,184 C1398.38562,180.164605 1398.66525,176.966597 1398.8389,174.405977 C1399.01256,171.845357 1399.46474,162.043365 1400.19545,145 Z" id="Rectangle-5-Copy-62" fill="#9D4C2A" transform="translate(1400.000000, 164.500000) scale(-1, 1) translate(-1400.000000, -164.500000) "></path>
        <path d="M1355.95577,139 C1357.16302,155.697454 1357.81851,165.954406 1357.92222,169.770856 C1358.02593,173.587306 1358.02593,177.997021 1357.92222,183 L1355,183 C1355.05223,178.026783 1355.07834,173.617068 1355.07834,169.770856 C1355.07834,165.924644 1355.37082,155.667692 1355.95577,139 Z" id="Rectangle-5-Copy-63" fill="#C16843" transform="translate(1356.500000, 161.000000) scale(-1, 1) translate(-1356.500000, -161.000000) "></path>
        <path d="M1271.30619,138 C1272.72744,154.183719 1273.4913,164.06003 1273.59777,167.628935 C1273.70424,171.19784 1273.83832,175.321528 1274,180 L1271,180 C1271.05362,175.34936 1271.08043,171.225671 1271.08043,167.628935 C1271.08043,164.032199 1271.15568,154.155887 1271.30619,138 Z" id="Rectangle-5-Copy-64" fill="#C16843"></path>
        <path d="M1278.20413,150 C1279.15163,161.559799 1279.66086,168.614307 1279.73184,171.163525 C1279.80283,173.712743 1279.89221,176.658234 1280,180 L1278,180 C1278.03575,176.678114 1278.05362,173.732622 1278.05362,171.163525 C1278.05362,168.594428 1278.10379,161.539919 1278.20413,150 Z" id="Rectangle-5-Copy-65" fill="#C16843" transform="translate(1279.000000, 165.000000) scale(-1, 1) translate(-1279.000000, -165.000000) "></path>
        <path d="M1400,146 C1401.62537,160.360032 1402.4913,169.197197 1402.59777,172.511494 C1402.70424,175.825791 1402.83832,179.655293 1403,184 L1400,184 C1400.05362,179.681139 1400.08043,175.851637 1400.08043,172.511494 C1400.08043,169.171351 1400.05362,160.334186 1400,146 Z" id="Rectangle-5-Copy-66" fill="#C16843"></path>
        <path d="M1370.40826,132 C1372.30325,151.651658 1373.32173,163.644323 1373.46369,167.977993 C1373.60565,172.311663 1373.78442,177.318999 1374,183 L1370,183 C1370.07149,177.352794 1370.10724,172.345458 1370.10724,167.977993 C1370.10724,163.610527 1370.20758,151.617863 1370.40826,132 Z" id="Rectangle-5-Copy-67" fill="#C16843"></path>
        <path d="M1388.30619,127 C1389.72744,148.963618 1390.4913,162.367184 1390.59777,167.210698 C1390.70424,172.054211 1390.83832,177.650645 1391,184 L1388,184 C1388.05362,177.688417 1388.08043,172.091983 1388.08043,167.210698 C1388.08043,162.329413 1388.15568,148.925847 1388.30619,127 Z" id="Rectangle-5-Copy-68" fill="#C16843" transform="translate(1389.500000, 155.500000) scale(-1, 1) translate(-1389.500000, -155.500000) "></path>
        <polygon id="Path-26-Copy-33" fill="url(#linearGradient-28)" transform="translate(1356.000000, 155.500000) scale(-1, 1) translate(-1356.000000, -155.500000) " points="1354.83326 138 1348 173 1364 173"></polygon>
        <polygon id="Path-26-Copy-34" fill="url(#linearGradient-28)" points="1270.83326 136 1264 168 1280 168"></polygon>
        <polygon id="Path-26-Copy-35" fill="url(#linearGradient-28)" transform="translate(1278.500000, 159.500000) scale(-1, 1) translate(-1278.500000, -159.500000) " points="1277.55202 149 1272 170 1285 170"></polygon>
        <polygon id="Path-26-Copy-36" fill="url(#linearGradient-28)" points="1399.83326 145 1393 174 1409 174"></polygon>
        <polygon id="Path-26-Copy-37" fill="url(#linearGradient-28)" points="1370.67696 132 1360 170 1385 170"></polygon>
        <polygon id="Path-26-Copy-38" fill="url(#linearGradient-28)" transform="translate(1389.000000, 148.000000) scale(-1, 1) translate(-1389.000000, -148.000000) " points="1387.54157 127 1379 169 1399 169"></polygon>
        <path d="M1341.91344,128 C1343.47165,149.33341 1344.32173,162.416366 1344.46369,167.248868 C1344.60565,172.08137 1344.78442,177.665081 1345,184 L1341,184 C1341.07149,177.702766 1341.10724,172.119055 1341.10724,167.248868 C1341.10724,162.378681 1341.37597,149.295725 1341.91344,128 Z" id="Rectangle-5-Copy-69" fill="#C16843"></path>
        <path d="M1341.8321,127 C1342.2433,148.767537 1342.52205,162.102673 1342.66833,167.00541 C1342.81462,171.908147 1342.92517,177.57301 1343,184 L1340,184 C1340.07367,177.611243 1340.11051,171.94638 1340.11051,167.00541 C1340.11051,162.06444 1340.68437,148.729303 1341.8321,127 Z" id="Rectangle-5-Copy-70" fill="#9D4C2A"></path>
        <polygon id="Path-26-Copy-39" fill="url(#linearGradient-28)" points="1341.67696 126 1331 168 1356 168"></polygon>
        <path d="M1424.19545,145 L1425.69861,173.505459 L1426,184 L1422,184 C1422.38562,180.164605 1422.66525,176.966597 1422.8389,174.405977 C1423.01256,171.845357 1423.46474,162.043365 1424.19545,145 Z" id="Rectangle-5-Copy-71" fill="#9D4C2A" transform="translate(1424.000000, 164.500000) scale(-1, 1) translate(-1424.000000, -164.500000) "></path>
        <path d="M1447,141 C1448.64259,155.808347 1449.64885,165.154729 1450.0188,169.039145 C1450.38874,172.923562 1450.71581,177.57718 1451,183 L1447,183 C1447.38562,179.214815 1447.66525,176.058674 1447.8389,173.531576 C1448.01256,171.004478 1447.73292,160.160619 1447,141 Z" id="Rectangle-5-Copy-72" fill="#9D4C2A" transform="translate(1449.000000, 162.000000) scale(-1, 1) translate(-1449.000000, -162.000000) "></path>
        <path d="M1442.19545,135 L1443.69861,170.083642 L1444,183 L1440,183 C1440.38562,178.279514 1440.66525,174.343504 1440.8389,171.191972 C1441.01256,168.04044 1441.46474,155.976449 1442.19545,135 Z" id="Rectangle-5-Copy-73" fill="#9D4C2A" transform="translate(1442.000000, 159.000000) scale(-1, 1) translate(-1442.000000, -159.000000) "></path>
        <path d="M1412,134 C1414.67,154.806225 1416.11867,166.792523 1416.34603,169.958893 C1416.57339,173.125263 1416.79138,177.472299 1417,183 L1413.78933,183 C1413.16819,179.334374 1412.91999,176.250092 1413.04472,173.747156 C1413.16946,171.24422 1412.82122,157.995168 1412,134 Z" id="Rectangle-5-Copy-74" fill="#9D4C2A" transform="translate(1414.500000, 158.500000) scale(-1, 1) translate(-1414.500000, -158.500000) "></path>
        <path d="M1417,134 C1417.83383,152.854261 1418.32173,164.46797 1418.46369,168.841125 C1418.60565,173.214279 1418.78442,178.267238 1419,184 L1415,184 C1415.07149,178.301341 1415.10724,173.248383 1415.10724,168.841125 C1415.10724,164.433866 1415.73816,152.820158 1417,134 Z" id="Rectangle-5-Copy-75" fill="#C16843" transform="translate(1417.000000, 159.000000) scale(-1, 1) translate(-1417.000000, -159.000000) "></path>
        <path d="M1424,144 C1425.62537,158.905423 1426.4913,168.134275 1426.59777,171.686557 C1426.70424,175.238838 1426.83832,179.343319 1427,184 L1424,184 C1424.05362,179.371021 1424.08043,175.26654 1424.08043,171.686557 C1424.08043,168.106573 1424.05362,158.877721 1424,144 Z" id="Rectangle-5-Copy-76" fill="#C16843"></path>
        <path d="M1442,133 C1443.66035,152.005425 1444.53879,163.671887 1444.63532,167.999385 C1444.73185,172.326884 1444.85341,177.327089 1445,183 L1442.28009,183 C1442.3287,177.360836 1442.35301,172.360631 1442.35301,167.999385 C1442.35301,163.638139 1442.23534,151.971678 1442,133 Z" id="Rectangle-5-Copy-77" fill="#C16843"></path>
        <path d="M1451.69381,141 C1450.27256,157.183719 1449.5087,167.06003 1449.40223,170.628935 C1449.29576,174.19784 1449.16168,178.321528 1449,183 L1452,183 C1451.94638,178.34936 1451.91957,174.225671 1451.91957,170.628935 C1451.91957,167.032199 1451.84432,157.155887 1451.69381,141 Z" id="Rectangle-5-Copy-78" fill="#C16843"></path>
        <polygon id="Path-26-Copy-40" fill="url(#linearGradient-28)" points="1423.83326 140 1417 172 1433 172"></polygon>
        <polygon id="Path-26-Copy-41" fill="url(#linearGradient-28)" points="1441.83326 132 1435 168 1451 168"></polygon>
        <polygon id="Path-26-Copy-42" fill="url(#linearGradient-28)" points="1451.16674 140 1458 172 1442 172"></polygon>
        <polygon id="Path-26-Copy-43" fill="url(#linearGradient-28)" transform="translate(1415.500000, 151.000000) scale(-1, 1) translate(-1415.500000, -151.000000) " points="1413.67696 132 1403 170 1428 170"></polygon>
        <path d="M679.5,282.5 L687.5,288.5" id="Line-12-Copy-2" stroke="#979797" stroke-linecap="square"></path>
        <path d="M682.5,277.5 L693.68034,277.5" id="Line-5-Copy-4" stroke="#979797" stroke-linecap="square"></path>
        <path d="M681.5,279.5 L693.5,281.5" id="Line-5-Copy-5" stroke="#979797" stroke-linecap="square"></path>
        <path d="M673.5,285.5 L674.5,291.5" id="Line-7-Copy-2" stroke="#979797" stroke-linecap="square"></path>
        <path d="M675.5,284.5 L678.5,291.5" id="Line-8-Copy-2" stroke="#979797" stroke-linecap="square"></path>
        <path d="M677.5,283.5 L683.5,290.5" id="Line-9-Copy-2" stroke="#979797" stroke-linecap="square"></path>
        <path d="M680.5,281.5 L691.5,285.5" id="Line-10-Copy-2" stroke="#979797" stroke-linecap="square"></path>
        <path d="M607.5,285.5 L607.5,290.5" id="Line-11-Copy-96" stroke="#979797" stroke-linecap="square"></path>
        <path d="M634.5,285.5 L634.5,290.5" id="Line-11-Copy-97" stroke="#979797" stroke-linecap="square"></path>
        <path d="M616.5,285.5 L616.5,290.5" id="Line-11-Copy-98" stroke="#979797" stroke-linecap="square"></path>
        <path d="M643.5,285.5 L643.5,290.5" id="Line-11-Copy-99" stroke="#979797" stroke-linecap="square"></path>
        <path d="M625.5,285.5 L625.5,290.5" id="Line-11-Copy-100" stroke="#979797" stroke-linecap="square"></path>
        <path d="M652.5,285.5 L652.5,290.5" id="Line-11-Copy-101" stroke="#979797" stroke-linecap="square"></path>
        <path d="M610.5,285.5 L610.5,290.5" id="Line-11-Copy-102" stroke="#979797" stroke-linecap="square"></path>
        <path d="M637.5,285.5 L637.5,290.5" id="Line-11-Copy-103" stroke="#979797" stroke-linecap="square"></path>
        <path d="M619.5,285.5 L619.5,290.5" id="Line-11-Copy-104" stroke="#979797" stroke-linecap="square"></path>
        <path d="M646.5,285.5 L646.5,290.5" id="Line-11-Copy-105" stroke="#979797" stroke-linecap="square"></path>
        <path d="M628.5,285.5 L628.5,290.5" id="Line-11-Copy-106" stroke="#979797" stroke-linecap="square"></path>
        <path d="M655.5,285.5 L655.5,290.5" id="Line-11-Copy-107" stroke="#979797" stroke-linecap="square"></path>
        <path d="M571.5,285.5 L571.5,290.5" id="Line-11-Copy-108" stroke="#979797" stroke-linecap="square"></path>
        <path d="M535.5,285.5 L535.5,290.5" id="Line-11-Copy-109" stroke="#979797" stroke-linecap="square"></path>
        <path d="M532.5,285.5 L532.5,290.5" id="Line-11-Copy-110" stroke="#979797" stroke-linecap="square"></path>
        <path d="M529.5,285.5 L529.5,290.5" id="Line-11-Copy-111" stroke="#979797" stroke-linecap="square"></path>
        <path d="M526.5,285.5 L526.5,290.5" id="Line-11-Copy-112" stroke="#979797" stroke-linecap="square"></path>
        <path d="M613.5,285.5 L613.5,290.5" id="Line-11-Copy-113" stroke="#979797" stroke-linecap="square"></path>
        <path d="M598.5,285.5 L598.5,290.5" id="Line-11-Copy-114" stroke="#979797" stroke-linecap="square"></path>
        <path d="M562.5,285.5 L562.5,290.5" id="Line-11-Copy-115" stroke="#979797" stroke-linecap="square"></path>
        <path d="M640.5,285.5 L640.5,290.5" id="Line-11-Copy-116" stroke="#979797" stroke-linecap="square"></path>
        <path d="M580.5,285.5 L580.5,290.5" id="Line-11-Copy-117" stroke="#979797" stroke-linecap="square"></path>
        <path d="M544.5,285.5 L544.5,290.5" id="Line-11-Copy-118" stroke="#979797" stroke-linecap="square"></path>
        <path d="M622.5,285.5 L622.5,290.5" id="Line-11-Copy-119" stroke="#979797" stroke-linecap="square"></path>
        <path d="M649.5,285.5 L649.5,290.5" id="Line-11-Copy-120" stroke="#979797" stroke-linecap="square"></path>
        <path d="M589.5,285.5 L589.5,290.5" id="Line-11-Copy-121" stroke="#979797" stroke-linecap="square"></path>
        <path d="M553.5,285.5 L553.5,290.5" id="Line-11-Copy-122" stroke="#979797" stroke-linecap="square"></path>
        <path d="M661.5,285.5 L661.5,290.5" id="Line-11-Copy-123" stroke="#979797" stroke-linecap="square"></path>
        <path d="M664.5,285.5 L664.5,290.5" id="Line-11-Copy-124" stroke="#979797" stroke-linecap="square"></path>
        <path d="M574.5,285.5 L574.5,290.5" id="Line-11-Copy-125" stroke="#979797" stroke-linecap="square"></path>
        <path d="M538.5,285.5 L538.5,290.5" id="Line-11-Copy-126" stroke="#979797" stroke-linecap="square"></path>
        <path d="M667.5,285.5 L667.5,290.5" id="Line-11-Copy-127" stroke="#979797" stroke-linecap="square"></path>
        <path d="M601.5,285.5 L601.5,290.5" id="Line-11-Copy-128" stroke="#979797" stroke-linecap="square"></path>
        <path d="M565.5,285.5 L565.5,290.5" id="Line-11-Copy-129" stroke="#979797" stroke-linecap="square"></path>
        <path d="M631.5,285.5 L631.5,290.5" id="Line-11-Copy-130" stroke="#979797" stroke-linecap="square"></path>
        <path d="M583.5,285.5 L583.5,290.5" id="Line-11-Copy-131" stroke="#979797" stroke-linecap="square"></path>
        <path d="M547.5,285.5 L547.5,290.5" id="Line-11-Copy-132" stroke="#979797" stroke-linecap="square"></path>
        <path d="M658.5,285.5 L658.5,290.5" id="Line-11-Copy-133" stroke="#979797" stroke-linecap="square"></path>
        <path d="M670.5,285.5 L670.5,290.5" id="Line-6-Copy-3" stroke="#979797" stroke-linecap="square"></path>
        <path d="M592.5,285.5 L592.5,290.5" id="Line-11-Copy-134" stroke="#979797" stroke-linecap="square"></path>
        <path d="M556.5,285.5 L556.5,290.5" id="Line-11-Copy-135" stroke="#979797" stroke-linecap="square"></path>
        <path d="M577.5,285.5 L577.5,290.5" id="Line-11-Copy-136" stroke="#979797" stroke-linecap="square"></path>
        <path d="M541.5,285.5 L541.5,290.5" id="Line-11-Copy-137" stroke="#979797" stroke-linecap="square"></path>
        <path d="M604.5,285.5 L604.5,290.5" id="Line-11-Copy-138" stroke="#979797" stroke-linecap="square"></path>
        <path d="M568.5,285.5 L568.5,290.5" id="Line-11-Copy-139" stroke="#979797" stroke-linecap="square"></path>
        <path d="M586.5,285.5 L586.5,290.5" id="Line-11-Copy-140" stroke="#979797" stroke-linecap="square"></path>
        <path d="M550.5,285.5 L550.5,290.5" id="Line-11-Copy-141" stroke="#979797" stroke-linecap="square"></path>
        <path d="M595.5,285.5 L595.5,290.5" id="Line-11-Copy-142" stroke="#979797" stroke-linecap="square"></path>
        <path d="M559.5,285.5 L559.5,290.5" id="Line-11-Copy-143" stroke="#979797" stroke-linecap="square"></path>
        <path d="M526,292 L680,292 C688.836556,292 696,284.836556 696,276 L692.453325,276 L692.453325,276 C692.453325,283.003363 686.775977,288.680711 679.772614,288.680711 L526,288.680711 L526,292 Z" id="Path-20-Copy-4" fill="#8E8360"></path>
        <path d="M526,288 L671.454588,288 C678.383228,288 684,282.383228 684,275.454588 L680.464383,275 L680.464383,275 C680.464383,280.254202 676.20501,284.513575 670.950808,284.513575 L526,284.513575 L526,288 Z" id="Path-20-Copy-5" fill="#8E8360"></path>
        <g id="Group-34-Copy-4" transform="translate(526.000000, 254.000000)">
            <mask id="mask-30" fill="white">
                <use xlink:href="#path-29"></use>
            </mask>
            <use id="Mask" fill="#776C67" xlink:href="#path-29"></use>
            <g mask="url(#mask-30)">
                <g transform="translate(-24.000000, 11.000000)">
                    <polygon id="Path-15" fill="#F55A23" points="29.6892558 1.6673266 28.8336552 20.0079191 2.59975538 20.0079191 1.28240741 1.6673266"></polygon>
                    <polygon id="Path-16" fill="#FBB3D9" points="0.271604938 0 0.511071209 2.14192819 30.3112973 2.14857077 30.7062307 0"></polygon>
                    <rect id="Rectangle-3-Copy-4" fill="#4E4E4E" x="0.473765432" y="16.8816818" width="2.02160494" height="3.12623737"></rect>
                    <rect id="Rectangle-3-Copy-5" fill="#4E4E4E" transform="translate(29.865004, 18.497196) rotate(3.000000) translate(-29.865004, -18.497196) " x="28.8542013" y="16.9340778" width="2.02160494" height="3.12623737"></rect>
                    <g id="Group-19-Copy" stroke-width="1" fill="none" transform="translate(2.495370, 15.005939)">
                        <g id="Group-17">
                            <ellipse id="Oval" fill="#707070" cx="4.64969136" cy="4.79356396" rx="4.64969136" ry="4.79356396"></ellipse>
                            <ellipse id="Oval-2" fill="#D8D8D8" cx="4.64969136" cy="4.79356396" rx="2.42592593" ry="2.50098989"></ellipse>
                        </g>
                        <g id="Group-16" transform="translate(16.981481, 0.000000)">
                            <ellipse id="Oval-Copy" fill="#707070" cx="4.64969136" cy="4.79356396" rx="4.64969136" ry="4.79356396"></ellipse>
                            <ellipse id="Oval-2-Copy" fill="#D8D8D8" cx="4.64969136" cy="4.79356396" rx="2.42592593" ry="2.50098989"></ellipse>
                        </g>
                    </g>
                </g>
            </g>
        </g>
        <path d="M533.5,283.5 L578.5,283.5" id="Line" stroke="#D7D3D3" stroke-linecap="square"></path>
        <g id="Group-35-Copy-4" transform="translate(1284.000000, 115.000000)" fill-rule="nonzero">
            <path d="M29.6750299,33.2732415 C29.6949698,33.3147776 29.7345464,33.3438533 29.7806529,33.3508395 C29.8267594,33.3578257 29.8733793,33.3418109 29.9050733,33.3080986 C30.7832198,32.3789387 34.6773681,26.6852472 35.2569006,21.8052514 C35.7247292,17.8663976 34.383178,14.3981149 32.9254991,12.5844558 C31.7531625,11.1269927 28.9804758,7.20665682 21.3359563,7.45937089 C13.480195,7.71862066 7.56542503,15.2172571 9.3615332,22.8912683 C10.7694431,28.9052096 14.1094965,32.7405813 14.9920669,33.4246521 C15.0282349,33.4529323 15.0762062,33.4618957 15.1203774,33.4486268 C15.1645485,33.435358 15.1992754,33.4015523 15.2132624,33.3582057 L17.3588596,30.2994941 C17.3746842,30.2525319 17.4145945,30.217348 17.4637318,30.2070416 C17.5128691,30.1967351 17.5638716,30.2128501 17.5977509,30.249387 L20.0928371,33.3135451 C20.1215082,33.3452787 20.1633034,33.3624085 20.2063679,33.3600757 C20.2494323,33.3577429 20.2890681,33.336202 20.3140327,33.3015629 L22.401013,30.2842441 C22.4274865,30.2468457 22.4708517,30.224557 22.5171407,30.224557 C22.5634298,30.224557 22.606795,30.2468457 22.6332684,30.2842441 L24.556564,33.2002595 C24.5817612,33.2373736 24.6234806,33.2603586 24.6687778,33.2620828 C24.714075,33.263807 24.7574711,33.2440619 24.7855015,33.2089737 L27.2993893,30.039155 C27.3294886,30.001248 27.3773073,29.9813075 27.4258925,29.9864028 C27.4744776,29.9914982 27.5169608,30.0209091 27.5382806,30.0642086 L29.6750299,33.2732415 Z" id="Shape" stroke="#000000" stroke-width="2" fill="#FFDF00" transform="translate(22.194822, 20.451174) rotate(-8.000000) translate(-22.194822, -20.451174) "></path>
            <rect id="Rectangle-path" fill="#000000" transform="translate(22.232004, 23.391279) rotate(-8.000000) translate(-22.232004, -23.391279) " x="9.44753183" y="21.0822509" width="25.5689453" height="4.61805556"></rect>
            <polygon id="Shape" fill="#000000" transform="translate(21.098807, 15.328158) rotate(-8.000000) translate(-21.098807, -15.328158) " points="33.8832795 17.7587141 8.31433418 17.7587141 10.2388062 12.8976029 29.6704882 12.9206206"></polygon>
            <path d="M24.9531881,13.6706564 C24.9531881,13.6706564 22.6295627,10.5136097 17.6794245,11.6362378 C12.7292863,12.758866 12.9416427,17.518721 12.9416427,17.518721 C12.9416427,17.518721 11.8899199,26.1288484 25.2784286,24.2522821 C37.0239699,22.6108386 33.603915,15.2756724 32.2582464,13.6706564 C30.8868715,12.0347322 27.8814704,9.96278231 24.9531881,13.6706564 Z" id="Shape" stroke="#000000" stroke-width="4" fill="#FFDF00" transform="translate(23.348426, 17.957326) rotate(-8.000000) translate(-23.348426, -17.957326) "></path>
            <path d="M25.1683873,14.2899748 C25.1683873,14.2899748 23.2770735,11.1684941 18.2957894,12.2916075 C13.3145052,13.4147209 13.5247762,18.3851894 13.5247762,18.3851894 C13.5247762,18.3851894 12.723048,25.7623294 25.9363821,25.134935 C37.2167981,24.5993815 34.3348497,16.2828096 33.1328197,14.5566451 C31.8599498,12.7297877 28.1144289,10.5742952 25.1683873,14.2899748 Z" id="Shape" fill="#FFFFFF" transform="translate(23.941559, 18.610299) rotate(-8.000000) translate(-23.941559, -18.610299) "></path>
            <ellipse id="Oval" fill="#FEE2FE" transform="translate(25.857429, 17.972874) rotate(-11.140000) translate(-25.857429, -17.972874) " cx="25.857429" cy="17.9728745" rx="4.71660156" ry="1.57986111"></ellipse>
            <ellipse id="Oval" fill="#231F20" transform="translate(23.442031, 16.839671) rotate(-8.000000) translate(-23.442031, -16.839671) " cx="23.4420315" cy="16.8396713" rx="1" ry="1"></ellipse>
            <ellipse id="Oval" fill="#231F20" transform="translate(27.866905, 16.217796) rotate(-8.000000) translate(-27.866905, -16.217796) " cx="27.8669051" cy="16.2177958" rx="1" ry="1"></ellipse>
            <polygon id="Shape" fill="#000000" transform="translate(23.352808, 30.474364) rotate(-8.000000) translate(-23.352808, -30.474364) " points="32.1559258 32.661864 29.9931764 32.661864 28.5017391 30.2217452 26.9463673 32.661864 24.8795196 32.661864 23.6449226 30.1904473 22.4511113 32.661864 20.1726184 32.661864 18.6381907 30.2217452 17.4245377 32.661864 14.7899959 32.661864 12.1819097 28.286864 34.5237065 28.286864"></polygon>
            <path d="M5.72215934,31.677717 L9.45563819,28.2771923 C9.57793741,28.1663379 9.74995193,28.1194522 9.91577981,28.1517723 C10.0816077,28.1840925 10.2200812,28.2914928 10.2861986,28.4390699 L11.7301493,31.6733419 C11.7962823,31.8219969 11.78053,31.991995 11.6880684,32.1274749 C11.5956069,32.2629547 11.4383922,32.3463976 11.2680851,32.3503843 L6.09065555,32.5166371 C5.87860773,32.5209 5.68546852,32.4016834 5.60402021,32.2162578 C5.5225719,32.0308322 5.56945977,31.8170924 5.72215934,31.677717 Z" id="Shape" fill="#000000" transform="translate(8.667528, 30.329248) rotate(-8.000000) translate(-8.667528, -30.329248) "></path>
            <ellipse id="Oval" fill="#A4DDEB" opacity="0.49" transform="translate(9.285723, 6.188834) rotate(-33.200000) translate(-9.285723, -6.188834) " cx="9.28572276" cy="6.18883432" rx="3.35126953" ry="5.10416667"></ellipse>
            <ellipse id="Oval" fill="#A4DDEB" opacity="0.49" transform="translate(6.148596, 8.838727) rotate(-73.980000) translate(-6.148596, -8.838727) " cx="6.14859555" cy="8.83872661" rx="3.35126953" ry="5.10416667"></ellipse>
            <path d="M27.488452,3.46638935 C27.5409966,3.79910981 27.4670192,4.14038574 27.2827938,4.41514032 C27.0985683,4.6898949 26.8191858,4.87562168 26.506107,4.93146287 C26.2776824,4.97572981 26.0419225,4.94114457 25.8333245,4.8327678 C25.7652208,4.79877283 24.9521033,6.01491545 24.5455445,7.16745457 C24.4640264,7.3999363 24.2669383,7.16745457 24.2782889,7.06656628 C24.4072733,5.91073731 25.4866145,4.60576913 25.4401801,4.55313176 C25.0873927,4.15726193 25.0112265,3.56648263 25.2508184,3.08435692 C25.4904103,2.6022312 25.9924729,2.33598823 26.4990288,2.42243295 C27.0055848,2.50887767 27.4039715,2.92878398 27.4894838,3.46638935 L27.488452,3.46638935 Z" id="Shape" fill="#000000" transform="translate(25.891393, 4.836836) rotate(-8.000000) translate(-25.891393, -4.836836) "></path>
            <path d="M31.3775165,5.40263805 C31.3132,5.72971585 31.1205581,6.01799421 30.8420252,6.20397243 C30.5634922,6.38995064 30.2219173,6.45837224 29.8925411,6.39416561 C29.6510636,6.34992126 29.4302107,6.23004601 29.2623532,6.05211025 C29.2067484,5.99582266 27.9779912,6.8195699 27.1722667,7.73316079 C27.0098134,7.91717791 26.8975135,7.63032769 26.9433057,7.54156649 C27.4753674,6.52081268 28.9995933,5.7143847 28.9712457,5.64835503 C28.7604012,5.15210591 28.891812,4.57762939 29.2978714,4.22047492 C29.7039308,3.86332045 30.2941868,3.8030463 30.7649719,4.07066156 C31.235757,4.33827682 31.482201,4.8741686 31.3775165,5.40263805 Z" id="Shape" fill="#000000" transform="translate(29.167182, 5.849119) rotate(-8.000000) translate(-29.167182, -5.849119) "></path>
        </g>
        <g id="Group-7-Copy-3" transform="translate(1119.000000, 236.000000)">
            <path d="M23.1538462,2 C23.1538462,5.50167778 23.1538462,8.17031796 23.1538462,10.0059205 C23.1538462,11.8415231 23.1538462,14.5101633 23.1538462,18.0118411 L45.0905568,18.0118411 L39.5424063,10.2664414 L45.0905568,2 L23.1538462,2 Z" id="Path-38" fill="#FBD182"></path>
            <g id="Page-1-Copy" transform="translate(0.076923, 0.050091)">
                <path d="M20.9489378,32.1777528 C20.9880993,32.2589654 21.0956933,32.2758304 21.1568332,32.2097761 C21.9501522,31.35348 25.4676895,26.1063825 25.9912741,21.6089707 C26.413958,17.9789979 25.2025505,14.7818914 23.8853472,13.1111603 C22.8258901,11.7673877 20.3212557,8.15518336 13.4158535,8.38777868 C6.31973902,8.62679874 0.977498004,15.5367972 2.60000079,22.6094217 C3.87154906,28.151856 6.88927836,31.6861606 7.68649357,32.31729 C7.75622492,32.3724021 7.85872402,32.34068 7.88629688,32.2559539 L9.82478859,29.4371033 C9.8553585,29.3434428 9.97514059,29.3179446 10.0408759,29.391026 L12.2943575,32.2149962 C12.348704,32.2754288 12.4447095,32.2703091 12.4923626,32.2044556 L14.3775068,29.4236515 C14.4297554,29.3514737 14.5375493,29.3535818 14.5869007,29.4277674 L16.3238908,32.1153125 C16.3722432,32.1878919 16.4771399,32.1918069 16.5306872,32.1229419 L18.8013519,29.2012956 C18.8594947,29.1264074 18.9756803,29.1388553 19.0168398,29.2242841 L20.9489378,32.1777528 Z" id="Fill-1" fill="#FEFEFE"></path>
                <path d="M20.9489378,32.1777528 C20.9880993,32.2589654 21.0956933,32.2758304 21.1568332,32.2097761 C21.9501522,31.35348 25.4676895,26.1063825 25.9912741,21.6089707 C26.413958,17.9789979 25.2025505,14.7818914 23.8853472,13.1111603 C22.8258901,11.7673877 20.3212557,8.15518336 13.4158535,8.38777868 C6.31973902,8.62679874 0.977498004,15.5367972 2.60000079,22.6094217 C3.87154906,28.151856 6.88927836,31.6861606 7.68649357,32.31729 C7.75622492,32.3724021 7.85872402,32.34068 7.88629688,32.2559539 L9.82478859,29.4371033 C9.8553585,29.3434428 9.97514059,29.3179446 10.0408759,29.391026 L12.2943575,32.2149962 C12.348704,32.2754288 12.4447095,32.2703091 12.4923626,32.2044556 L14.3775068,29.4236515 C14.4297554,29.3514737 14.5375493,29.3535818 14.5869007,29.4277674 L16.3238908,32.1153125 C16.3722432,32.1878919 16.4771399,32.1918069 16.5306872,32.1229419 L18.8013519,29.2012956 C18.8594947,29.1264074 18.9756803,29.1388553 19.0168398,29.2242841 L20.9489378,32.1777528 Z" id="Stroke-3" stroke="#E65485" stroke-width="2"></path>
                <path d="M17.4344384,16.7779692 C14.6311387,16.9557767 12.4052,18.0789896 12.462625,19.2867544 C12.5200501,20.4943809 14.8391849,21.3292611 17.6424846,21.1514536 C20.4457844,20.9735079 22.6717231,19.8504332 22.614298,18.6426684 C22.556873,17.4349037 20.2377382,16.6001617 17.4344384,16.7779692 Z" id="Fill-5" fill="#FAE1FC"></path>
                <path d="M15.6923077,16.7540995 C15.6923077,17.2681477 15.3823303,17.6848828 15,17.6848828 C14.6176697,17.6848828 14.3076923,17.2681477 14.3076923,16.7540995 C14.3076923,16.2400513 14.6176697,15.8233162 15,15.8233162 C15.3823303,15.8233162 15.6923077,16.2400513 15.6923077,16.7540995" id="Fill-7" fill="#231F20"></path>
                <path d="M20.3076923,16.7540995 C20.3076923,17.2681477 19.9977149,17.6848828 19.6153846,17.6848828 C19.2330543,17.6848828 18.9230769,17.2681477 18.9230769,16.7540995 C18.9230769,16.2400513 19.2330543,15.8233162 19.6153846,15.8233162 C19.9977149,15.8233162 20.3076923,16.2400513 20.3076923,16.7540995" id="Fill-9" fill="#231F20"></path>
                <path d="M10.5621871,0.422976376 C10.446453,0.791865521 10.3588786,1.16921404 10.2948704,1.55069154 L10.142389,3.47590415 C10.138195,3.53381058 10.1934159,3.50279288 10.142389,3.47590415 L6.42312179,1.36236976 C6.36909925,1.33376901 6.30459174,1.37425316 6.3060896,1.43568433 L6.63491811,5.14028605 C6.63651582,5.2057455 6.56411963,5.24572611 6.5102968,5.20916953 L3.2840227,3.06209976 C3.23089888,3.02604671 3.15940139,3.06431531 3.15940139,3.1289691 L3.4873312,7.5388208 C3.48723134,7.5992449 3.42382226,7.63811774 3.37059857,7.61042336 L0.640113602,6.65129144 C0.0190041629,6.44615162 -0.364545894,6.39660385 0.518987276,7.01343323 C0.810369485,7.21686104 0.96045429,7.47366348 1.2511375,8.00046094 L3.79508993,12.2166534 L3.80217976,12.212323 C3.8210527,12.2543178 3.84212249,12.2952047 3.86578856,12.3347825 C4.60832389,13.5742823 8.9499987,13.0997517 11.7745488,11.3788732 C14.598999,9.65789407 15.2243025,7.98908107 14.4817671,6.74968202 C14.4581011,6.71000353 14.4320384,6.67213776 14.4039787,6.6358833 L14.4110685,6.6315529 L11.6240646,1.56489121 C11.0537822,0.750172891 10.9237687,-0.729210551 10.5621871,0.422976376" id="Fill-11" fill="#EC208B"></path>
                <path d="M12.3350144,1.23122397 C12.2205958,1.60084829 11.8886929,3.04120251 11.8254122,3.42354118 L11.5264824,5.22998796 C11.5224348,5.28800979 11.4614247,5.32282289 11.4109778,5.29577967 L8.57292186,1.95463012 C8.51961205,1.92607329 8.45583773,1.96653721 8.45721984,2.02819172 L7.94337257,6.96347858 C7.94495212,7.02906848 7.87347749,7.06912878 7.82016769,7.03249934 L4.04020648,5.35218699 C3.98768645,5.31606209 3.9170016,5.35450786 3.9170016,5.41918959 L4.83156089,9.36679346 C4.83156089,9.42733798 4.76887251,9.4663892 4.71625376,9.43863963 L1.09434624,8.24238074 C0.480395002,8.03683209 0.101105624,7.98718558 0.974596623,8.60524426 C1.26276573,8.80907749 2.03802848,9.21815665 2.32550653,9.746004 L3.92687378,12.4434644 C3.94543349,12.4854419 3.9662638,12.5264103 3.98975961,12.5661679 C4.72375662,13.808037 9.01608428,13.3325607 11.8085307,11.6082526 C14.6009772,9.8839446 15.2190748,8.21180576 14.4850778,6.96983576 C14.461582,6.93007819 13.1432503,5.1181824 14.4221919,6.84713219 L14.415084,6.85147121 L12.8758128,3.3809582 C12.3121109,2.5646162 12.6924863,0.0767408033 12.3350144,1.23122397" id="Fill-13" fill="#EE79AF"></path>
                <path d="M3.23076923,8.92116479 C3.23076923,8.92116479 3.79029034,9.22095275 4.09495105,9.80088213 C4.39961175,10.3808115 6.2201009,13.2636621 6.2201009,13.2636621 C6.2201009,13.2636621 7.24105772,13.2167344 7.58763958,13.1514834 C7.95513151,13.0821606 4.5505279,7.9116581 4.5505279,7.9116581 L4.8959986,9.3347602 L3.23076923,8.92116479 Z" id="Fill-15" fill="#F7D4E4"></path>
            </g>
        </g>
        <polygon id="Path-22-Copy-2" fill="#FFD252" points="1112 261 1117.45324 272 1155.59548 272 1161 261"></polygon>
        <polygon id="Path-31-Copy-3" fill="#E65485" points="1115 266 1160 266 1157.81748 270 1117.17419 270"></polygon>
        <g id="Group-35-Copy-5" transform="translate(252.500000, 181.000000) rotate(-10.000000) translate(-252.500000, -181.000000) translate(127.000000, 148.000000)">
            <g id="Group-33">
                <g id="Group-2">
                    <path d="M218.918494,10.1757723 C208.885525,18.9822694 179.112347,39.9626332 134.092708,50.3524121 C89.0730698,60.7421909 -15.1025222,63.3240801 9.79326828,50.3524121 C12.9103769,48.7282782 17.4753471,47.4156489 20.7873609,46.217196 C27.950933,43.6250558 34.9839924,41.6309995 41.886539,40.235027 C19.2823025,43.9819783 5.79424225,48.1491343 1.42235828,52.7364949 C-5.13546768,59.6175358 7.77793755,70.7880245 108.864699,63.7681351 C168.265463,59.6430965 235.521453,36.6484331 239.892481,25.4600609 C241.280555,21.9070549 228.951464,1.36927522 218.918494,10.1757723 Z" id="Path-40-Copy" fill="url(#linearGradient-31)" opacity="0.739923007"></path>
                    <g id="Group" transform="translate(214.000000, 0.000000)">
                        <g id="Group-32">
                            <path d="M32.0781589,27.7496477 C30.3813391,27.7496477 27.8888127,26.8681097 26.9794493,25.8038882 C26.4022635,25.1283181 26.0631384,24.3040115 26.0631384,23.4143132 C26.0631384,22.1060421 26.7963174,20.9392174 27.9416789,20.1787794 C28.8024098,19.6074444 30.7484714,19.3121477 31.938666,19.3121477 C34.7127835,19.3121477 35.8919055,21.122989 35.8919055,23.4143132 C35.8919055,25.7056373 34.8522764,27.7496477 32.0781589,27.7496477 Z" id="Fill-1-Copy" fill="#3CC4E6" transform="translate(30.977522, 23.530898) rotate(18.000000) translate(-30.977522, -23.530898) "></path>
                            <path d="M23.6939023,29.2174897 C23.7365584,29.3057098 23.8537539,29.3240299 23.9203497,29.2522761 C24.7844627,28.3220947 28.6158968,22.6222528 29.1863136,17.736783 C29.646608,13.793599 28.3270974,10.3206309 26.8923499,8.50574122 C25.7383494,7.04602161 23.0102073,3.12213913 15.4885831,3.37480388 C7.75922801,3.63444772 1.9402579,11.1406736 3.70754904,18.8235576 C5.0925673,24.8442195 8.3795917,28.6834805 9.24794853,29.3690668 C9.32390255,29.4289343 9.43554843,29.394475 9.46558183,29.3024383 L11.57706,26.240364 C11.6103579,26.138622 11.7408291,26.1109237 11.8124304,26.1903109 L14.2670075,29.2579466 C14.3262037,29.3235937 14.4307765,29.3180322 14.4826821,29.2464966 L16.5360522,26.2257515 C16.5929633,26.1473459 16.7103764,26.1496359 16.7641319,26.2302225 L18.6561269,29.1496617 C18.7087941,29.2285036 18.8230516,29.2327565 18.8813773,29.1579494 L21.3546709,25.9842097 C21.4180021,25.9028597 21.5445559,25.9163817 21.5893884,26.0091817 L23.6939023,29.2174897 Z" id="Fill-3-Copy" fill="#00BBF1" transform="translate(16.334361, 16.381006) rotate(18.000000) translate(-16.334361, -16.381006) "></path>
                            <path d="M23.6939023,29.2174897 C23.7365584,29.3057098 23.8537539,29.3240299 23.9203497,29.2522761 C24.7844627,28.3220947 28.6158968,22.6222528 29.1863136,17.736783 C29.646608,13.793599 28.3270974,10.3206309 26.8923499,8.50574122 C25.7383494,7.04602161 23.0102073,3.12213913 15.4885831,3.37480388 C7.75922801,3.63444772 1.9402579,11.1406736 3.70754904,18.8235576 C5.0925673,24.8442195 8.3795917,28.6834805 9.24794853,29.3690668 C9.32390255,29.4289343 9.43554843,29.394475 9.46558183,29.3024383 L11.57706,26.240364 C11.6103579,26.138622 11.7408291,26.1109237 11.8124304,26.1903109 L14.2670075,29.2579466 C14.3262037,29.3235937 14.4307765,29.3180322 14.4826821,29.2464966 L16.5360522,26.2257515 C16.5929633,26.1473459 16.7103764,26.1496359 16.7641319,26.2302225 L18.6561269,29.1496617 C18.7087941,29.2285036 18.8230516,29.2327565 18.8813773,29.1579494 L21.3546709,25.9842097 C21.4180021,25.9028597 21.5445559,25.9163817 21.5893884,26.0091817 L23.6939023,29.2174897 Z" id="Stroke-5-Copy" stroke="#A9DEF2" stroke-width="2" transform="translate(16.334361, 16.381006) rotate(18.000000) translate(-16.334361, -16.381006) "></path>
                            <path d="M20.2699113,10.0871499 C20.2699113,10.0871499 17.9997395,6.9558944 13.161672,8.06917859 C8.32360457,9.18246278 8.53166179,13.904093 8.53166179,13.904093 C8.53166179,13.904093 7.5039356,22.4396003 20.5871849,20.5835791 C32.064298,18.955427 28.7227135,11.6788386 27.4080759,10.0871499 C26.0683185,8.46502027 23.1315991,6.40970953 20.2699113,10.0871499" id="Fill-7-Copy" fill="#D7D7D7" transform="translate(18.701072, 14.338734) rotate(18.000000) translate(-18.701072, -14.338734) "></path>
                            <path d="M19.7708569,11.0176086 C19.7708569,11.0176086 17.9449089,7.91941393 13.1348564,9.03514592 C8.3248039,10.1507682 8.52763875,15.0788862 8.52763875,15.0788862 C8.52763875,15.0788862 7.75376083,22.3953972 20.5134626,21.7730586 C31.4067146,21.2419145 28.6234904,12.989207 27.4639222,11.2815346 C26.2335573,9.46960868 22.6159739,7.33208261 19.7708569,11.0176086" id="Fill-9-Copy" fill="#FEFEFE" transform="translate(18.587076, 15.301694) rotate(18.000000) translate(-18.587076, -15.301694) "></path>
                            <path d="M25.4444005,15.8636587 C25.3928812,14.8758402 23.3122544,14.1931132 20.7972558,14.3385401 C18.2822572,14.4839671 16.2852418,15.4026315 16.3367611,16.39045 C16.3882803,17.3781555 18.4689072,18.0609955 20.9839058,17.9155685 C23.4989044,17.7700286 25.4959197,16.8514771 25.4444005,15.8636587" id="Fill-11-Copy" fill="#FCE6E1" transform="translate(20.890581, 16.127053) rotate(18.000000) translate(-20.890581, -16.127053) "></path>
                            <path d="M19.4300307,13.9876525 C19.4300307,14.4536344 19.1616902,14.8314025 18.8307156,14.8314025 C18.4997409,14.8314025 18.2314005,14.4536344 18.2314005,13.9876525 C18.2314005,13.5216706 18.4997409,13.1439025 18.8307156,13.1439025 C19.1616902,13.1439025 19.4300307,13.5216706 19.4300307,13.9876525" id="Fill-13-Copy" fill="#231F20" transform="translate(18.830716, 13.987652) rotate(18.000000) translate(-18.830716, -13.987652) "></path>
                            <path d="M23.4300307,14.9876525 C23.4300307,15.4536344 23.1616902,15.8314025 22.8307156,15.8314025 C22.4997409,15.8314025 22.2314005,15.4536344 22.2314005,14.9876525 C22.2314005,14.5216706 22.4997409,14.1439025 22.8307156,14.1439025 C23.1616902,14.1439025 23.4300307,14.5216706 23.4300307,14.9876525" id="Fill-15-Copy" fill="#231F20" transform="translate(22.830716, 14.987652) rotate(18.000000) translate(-22.830716, -14.987652) "></path>
                            <path d="M23.1120691,4.63721756 C23.1266214,4.79029361 22.9883197,4.92866091 22.8048293,4.94463041 L19.658466,4.99810722 C19.6353792,5.0001034 19.1447584,5.83240846 19.1240788,5.82799583 C19.1085417,5.82473889 19.0949742,5.81906552 19.0806407,5.81433771 C19.1375369,5.83535021 19.1987004,5.84680202 19.2638029,5.84112864 L23.0306637,5.61944679 C23.2479636,5.60043048 23.4116498,5.43663805 23.3944715,5.25540526 L23.1120691,4.63721756 Z" id="Fill-17-Copy" fill="#0495BB" transform="translate(21.238175, 5.239896) rotate(18.000000) translate(-21.238175, -5.239896) "></path>
                            <path d="M20.4299526,4.34996013 L19.8838429,3.41515958 C19.8736191,3.30560915 19.9372591,3.20419421 20.0384629,3.14390248 L20.0314556,3.14390248 L19.5532363,3.45405388 C19.3671408,3.59347156 19.2148183,3.66657947 19.2328534,3.85882207 L19.8195136,4.83140248 C19.8398462,4.79964066 20.4378789,4.36299919 20.4299526,4.34996013" id="Fill-19-Copy" fill="#D5EEF6" transform="translate(19.830716, 3.987652) rotate(18.000000) translate(-19.830716, -3.987652) "></path>
                            <path d="M19.2323211,5.28692349 L19.1327051,5.13003676 C19.1321446,5.13093989 19.1299029,5.13287517 19.130043,5.13326222 C19.2397467,5.311179 19.3627606,5.53463938 19.6094888,5.61217961 C19.4392589,5.55166985 19.303075,5.41929667 19.2323211,5.28692349" id="Fill-21-Copy" fill="#79D0E8" transform="translate(19.630037, 5.630037) rotate(18.000000) translate(-19.630037, -5.630037) "></path>
                            <g id="Group-25-Copy" transform="translate(21.841167, 5.199127) rotate(18.000000) translate(-21.841167, -5.199127) translate(19.341167, 3.699127)">
                                <mask id="mask-33" fill="white">
                                    <use xlink:href="#path-32"></use>
                                </mask>
                                <g id="Clip-24"></g>
                                <path d="M0.971524132,1.24582505 L4.16762991,1.19033149 C4.35401477,1.17375973 4.49438691,1.03017423 4.47960505,0.871325265 L3.96324008,0.330126739 C3.7866357,0.155578222 3.66026743,-0.000218049366 3.43965089,0.0195154182 L0.218093625,0.0346698491 C0.120288809,0.0936522025 0.0586050902,0.192864664 0.0686078554,0.300035927 L0.511619214,1.02374177 C0.519176859,1.03660668 0.0259293904,1.65444956 0.00625728537,1.6855216 L0.0853902727,1.81809561 C0.141405758,1.92995493 0.249435623,2.04181426 0.384584096,2.09283781 C0.399254818,2.09774392 0.413036406,2.10363125 0.428818546,2.10712004 C0.449713212,2.11159006 0.948073205,1.24789652 0.971524132,1.24582505" id="Fill-23" fill="#79D0E8" mask="url(#mask-33)"></path>
                            </g>
                            <path d="M24.9434005,7.74833668 C24.9434005,7.96273908 24.7651626,8.13808961 24.5472299,8.13808961 L20.8163546,8.14148067 C20.7890018,8.14148067 20.1365378,8.92722169 20.1127431,8.91857997 C20.0948415,8.91212602 20.0793861,8.90260917 20.0630411,8.89429561 C20.1276426,8.93039397 20.1984708,8.95369383 20.2758591,8.95369383 L24.6280652,8.95369383 C24.8861376,8.95369383 25.0972877,8.74596416 25.0972877,8.49207234 L24.9434005,7.74833668 Z" id="Fill-26-Copy" fill="#0495BB" transform="translate(22.580164, 8.351015) rotate(18.000000) translate(-22.580164, -8.351015) "></path>
                            <path d="M20.5044723,6.74584267 L20.0271055,5.46777436 C20.0271055,5.32410163 20.1033645,5.19965042 20.2145024,5.13286377 L20.207279,5.1321036 L19.6790384,5.48048011 C19.4716223,5.64033367 19.3058957,5.71787134 19.3058957,5.96981445 L19.8217532,7.30174646 C19.8460033,7.26276043 20.5113862,6.76376104 20.5044723,6.74584267" id="Fill-28-Copy" fill="#D5EEF6" transform="translate(19.905211, 6.216925) rotate(18.000000) translate(-19.905211, -6.216925) "></path>
                            <path d="M19.2266018,8.28259326 L19.1332605,8.13003676 C19.1324559,8.13075131 19.1299077,8.13235904 19.1300419,8.13271632 C19.2321004,8.30554819 19.3442172,8.52143172 19.6094888,8.61217961 C19.4270978,8.5432255 19.2905728,8.41040845 19.2266018,8.28259326" id="Fill-30-Copy" fill="#79D0E8" transform="translate(19.630037, 8.630037) rotate(18.000000) translate(-19.630037, -8.630037) "></path>
                            <path d="M24.4037339,6.59812972 L24.9379234,7.3869981 L24.2522228,6.11462266 C24.1332332,5.89838909 23.8833881,5.72342649 23.6680423,5.72342649 L20.3353462,5.6994981 C20.2653589,5.6994981 20.2004255,5.71958477 20.1434028,5.75207469 L23.9400812,6.13492886 C24.1950902,6.13492886 24.4037339,6.34336925 24.4037339,6.59812972" id="Fill-32-Copy" fill="#79D0E8" transform="translate(22.540663, 6.543248) rotate(18.000000) translate(-22.540663, -6.543248) "></path>
                            <path d="M20.4658783,7.83397887 L24.1956987,7.8304748 C24.4135764,7.8304748 24.5918803,7.64916714 24.5918803,7.42773217 L24.0514104,6.61535179 C24.0514104,6.35299825 23.8403137,6.13834536 23.5823065,6.13834536 L19.7409905,5.74408033 C19.6211578,5.81359667 19.5391202,5.94313443 19.5391202,6.09267934 L20.0240091,7.31175857 C20.031457,7.33040929 19.3440308,7.96102987 19.3179077,8.00160933 L19.3952765,8.1946726 C19.4483008,8.35642525 19.5614638,8.52450785 19.7126442,8.61188367 C19.7290962,8.62036127 19.7444365,8.63019529 19.7623336,8.63686434 C19.7862335,8.64579408 20.4385324,7.83397887 20.4658783,7.83397887" id="Fill-34-Copy" fill="#79D0E8" transform="translate(21.954894, 7.190509) rotate(18.000000) translate(-21.954894, -7.190509) "></path>
                            <path d="M35.0019776,20.5159424 C35.0019776,20.5159424 36.2049834,19.061259 30.0630411,20.1569945 L30.1016718,20.5543526 C30.1016718,20.5543526 33.6710565,20.0261075 33.4250226,20.9536938 L35.0019776,20.5159424 Z" id="Fill-52-Copy" fill="#E9F6FB" transform="translate(32.580164, 20.351015) rotate(18.000000) translate(-32.580164, -20.351015) "></path>
                            <path d="M33.8843735,25.6680686 C33.8843735,25.6680686 34.993709,25.6499258 34.4917433,26.2477697 C33.0009668,28.0231587 30.4193971,27.8021857 27.1906139,26.2665644 L27.5398267,25.0892366 C27.5398267,25.0892366 31.0796344,26.3924777 31.0213587,25.3961436 L33.8843735,25.6680686 Z" id="Fill-54-Copy" fill="#0495BB" transform="translate(30.906367, 26.294594) rotate(18.000000) translate(-30.906367, -26.294594) "></path>
                            <path d="M35.1034133,24.4179854 C35.1034133,22.8203157 34.1374789,21.5251282 32.9459344,21.5251282 C31.7542792,21.5251282 30.7883448,22.8203157 30.7883448,24.4179854 C30.7883448,26.015655 31.7542792,27.3108425 32.9459344,27.3108425 C34.1374789,27.3108425 35.1034133,26.015655 35.1034133,24.4179854" id="Fill-56-Copy" fill="#0495BB" transform="translate(32.945879, 24.417985) rotate(18.000000) translate(-32.945879, -24.417985) "></path>
                            <path d="M34.5611991,24.1146334 C34.5611991,22.6501346 33.7025208,21.4628477 32.6433909,21.4628477 C31.5842609,21.4628477 30.7255826,22.6501346 30.7255826,24.1146334 C30.7255826,25.5791322 31.5842609,26.7664191 32.6433909,26.7664191 C33.7025208,26.7664191 34.5611991,25.5791322 34.5611991,24.1146334" id="Fill-58-Copy" fill="#ED2643" transform="translate(32.643391, 24.114633) rotate(18.000000) translate(-32.643391, -24.114633) "></path>
                            <path d="M34.4494563,24.0781074 C34.4494563,22.6964374 33.6591452,21.480546 32.4350694,21.480546 C31.4470127,21.480546 30.6138399,22.6659993 30.6138399,24.0476694 C30.6138399,24.8055768 30.8548948,25.4847801 31.235614,25.943525 C31.5488511,26.3210655 30.9939995,25.6670823 31.4399623,25.6670823 C32.3571798,25.6670823 33.4147329,25.0715836 33.8056359,23.8829778 C34.1053319,22.9719017 34.4494563,24.1770311 34.4494563,24.0781074" id="Fill-60-Copy" fill="#B0172F" transform="translate(32.531648, 23.770725) rotate(18.000000) translate(-32.531648, -23.770725) "></path>
                            <path d="M33.4395231,24.3932932 C33.4395231,23.2616364 32.795572,22.3441861 32.0011669,22.3441861 C31.2068683,22.3441861 30.5628108,23.2616364 30.5628108,24.3932932 C30.5628108,25.52495 31.2068683,26.4424003 32.0011669,26.4424003 C32.795572,26.4424003 33.4395231,25.52495 33.4395231,24.3932932" id="Fill-62-Copy" fill="#8B071F" transform="translate(32.001167, 24.393293) rotate(18.000000) translate(-32.001167, -24.393293) "></path>
                        </g>
                        <g id="Group-34" transform="translate(3.000000, 6.000000)">
                            <path d="M3.89059712,1.08065174 C4.15925611,1.13418412 4.2987543,1.4959332 4.24252335,1.75180715 L3.85878972,5.79398817 C3.85163305,5.82621575 4.66806101,6.78828446 4.65113493,6.81413141 C4.63841196,6.83348958 4.62250826,6.84917078 4.60785413,6.86636603 C4.66987858,6.79953167 4.71736249,6.72209898 4.73724212,6.63136431 L5.2845567,1.75180715 C5.35123866,1.4488896 5.1452857,1.1491083 4.82709804,1.08573461 L3.89059712,1.08065174 Z" id="Fill-36-Copy" fill="#0495BB" transform="translate(4.577921, 3.973509) rotate(18.000000) translate(-4.577921, -3.973509) "></path>
                            <path d="M3.24810352,5.6409894 L1.49128304,5.67968514 C1.31051549,5.64576289 1.17493982,5.52571468 1.12170627,5.3779396 L1.36261641,5.98569635 C1.506347,6.26987139 1.55810814,6.48508472 1.87535746,6.544601 L3.75869257,6.58329674 C3.716219,6.54521038 3.27256831,5.63692685 3.24810352,5.6409894" id="Fill-38-Copy" fill="#D5EEF6" transform="translate(2.440199, 5.980618) rotate(18.000000) translate(-2.440199, -5.980618) "></path>
                            <path d="M3.3471581,7.33485197 L3.13003676,7.36817314 C3.1309099,7.36890637 3.13255917,7.37118753 3.13304424,7.37110606 C3.37820316,7.33607402 3.68176558,7.30364902 3.84921484,7.13003676 C3.72542268,7.24784217 3.52634627,7.31741742 3.3471581,7.33485197" id="Fill-40-Copy" fill="#79D0E8" transform="translate(3.630037, 7.630037) rotate(18.000000) translate(-3.630037, -7.630037) "></path>
                            <g id="Group-44-Copy" transform="translate(3.199127, 2.841167) rotate(18.000000) translate(-3.199127, -2.841167) translate(1.699127, 0.341167)">
                                <mask id="mask-35" fill="white">
                                    <use xlink:href="#path-34"></use>
                                </mask>
                                <g id="Clip-43"></g>
                                <path d="M1.55263,0.23058124 L2.6145415,0.0165667199 L1.1047869,0.234240556 C0.820595274,0.324060121 0.552597209,0.583760643 0.499512359,0.846122485 L-2.14484244e-05,4.95719727 L0.892125769,0.677128636 C0.954969653,0.36653036 1.25224482,0.165600666 1.55263,0.23058124" id="Fill-42" fill="#79D0E8" mask="url(#mask-35)"></path>
                            </g>
                            <g id="Group-47-Copy" transform="translate(2.983673, 3.946732) rotate(18.000000) translate(-2.983673, -3.946732) translate(0.983673, 0.446732)">
                                <mask id="mask-37" fill="white">
                                    <use xlink:href="#path-36"></use>
                                </mask>
                                <g id="Clip-46"></g>
                                <path d="M2.55840751,4.77878819 L2.91605674,0.584604688 C2.96860538,0.326176634 2.80618231,0.0704803782 2.55501042,0.0163907856 L1.53694687,0.227176289 C1.23959588,0.163142953 0.945323495,0.361143644 0.883114398,0.667323519 L-2.12317734e-05,4.88489121 C0.0498734366,5.0439911 0.176945603,5.17304122 0.346481316,5.20953804 L1.85988215,5.17555447 C1.88281247,5.17129287 2.43186614,6.14086248 2.47156955,6.18173017 L2.7091531,6.13703796 C2.90522853,6.11365377 3.12306653,6.02044484 3.25841909,5.86232839 C3.27211358,5.84495416 3.28697582,5.82910973 3.29886562,5.80955006 C3.31478945,5.78343408 2.55182566,4.81124194 2.55840751,4.77878819" id="Fill-45" fill="#79D0E8" mask="url(#mask-37)"></path>
                            </g>
                            <polygon id="Fill-48-Copy" fill="#D5EEF6" transform="translate(2.814929, 2.820112) rotate(18.000000) translate(-2.814929, -2.820112) " points="4.25328518 1.37368325 1.49701241 3.31565411 1.37657285 4.26654039 4.17147926 2.28229578"></polygon>
                            <polygon id="Fill-50-Copy" fill="#D5EEF6" transform="translate(2.703186, 3.476203) rotate(18.000000) translate(-2.703186, -3.476203) " points="4.14154242 2.39138156 1.29344907 4.33298642 1.2648301 4.56102442 4.12111633 2.62354838"></polygon>
                        </g>
                    </g>
                </g>
            </g>
        </g>
        <path d="M653.309508,247 L657,247.907858 C654.065487,250.638921 652.129571,253.377459 651.192253,256.123473 C650.254936,258.869487 649.732248,262.161663 649.624191,266 L646,264.922326 C646,261.20733 646.508518,257.956565 647.525555,255.17003 C648.542592,252.383495 650.470576,249.660151 653.309508,247 Z" id="Path-33-Copy-2" fill="#8E8360"></path>
        <path d="M662.451667,250 L666,250.919116 C663.561232,253.913831 661.891243,256.801221 660.990031,259.581287 C660.088819,262.361352 659.587005,265.834256 659.484589,270 L656.000003,268.908962 C655.998525,264.86809 656.486716,261.437109 657.464576,258.61602 C658.442436,255.794932 660.1048,252.922925 662.451667,250 Z" id="Path-33-Copy-3" fill="#8E8360"></path>
        <path d="M51.5350053,283.567957 C190.644868,275.746231 430.650052,298.93463 526.483157,314.537229 C622.316262,330.139828 700.333406,322.845423 791.272662,314.537229 C882.211917,306.229035 894.352778,288.837863 1046.10816,290.919633 C1197.86355,293.001403 1286.94735,322.322452 1397.68517,336.54174 C1508.42299,350.761027 1541.60446,346.720226 1597.16639,346.720226 C1652.72832,346.720226 1971.65689,279.444822 1971.89216,314.537229 C1972.12742,349.629636 1971.90443,472 1971.90443,472 C1973.53774,471.994747 1546.04685,471.993788 689.431783,471.997124 C561.950577,471.99762 349.344893,471.998579 51.6147314,472 C-41.1783275,351.593122 -41.2049029,288.782441 51.5350053,283.567957 Z" id="Rectangle-17-Copy-4" fill="#FFFFFF" transform="translate(977.000000, 377.000000) scale(-1, 1) translate(-977.000000, -377.000000) "></path>
        <g id="Group-34-Copy-3" transform="translate(541.000000, 265.000000)">
            <polygon id="Path-15" fill="#F55A23" points="29.6892558 1.6673266 28.8336552 20.0079191 2.59975538 20.0079191 1.28240741 1.6673266"></polygon>
            <polygon id="Path-16" fill="#FBB3D9" points="0.271604938 0 0.511071209 2.14192819 30.3112973 2.14857077 30.7062307 0"></polygon>
            <rect id="Rectangle-3-Copy-4" fill="#4E4E4E" x="0.473765432" y="16.8816818" width="2.02160494" height="3.12623737"></rect>
            <rect id="Rectangle-3-Copy-5" fill="#4E4E4E" transform="translate(29.865004, 18.497196) rotate(3.000000) translate(-29.865004, -18.497196) " x="28.8542013" y="16.9340778" width="2.02160494" height="3.12623737"></rect>
            <g id="Group-19-Copy" transform="translate(2.495370, 15.005939)">
                <g id="Group-17">
                    <ellipse id="Oval" fill="#707070" cx="4.64969136" cy="4.79356396" rx="4.64969136" ry="4.79356396"></ellipse>
                    <ellipse id="Oval-2" fill="#D8D8D8" cx="4.64969136" cy="4.79356396" rx="2.42592593" ry="2.50098989"></ellipse>
                </g>
                <g id="Group-16" transform="translate(16.981481, 0.000000)">
                    <ellipse id="Oval-Copy" fill="#707070" cx="4.64969136" cy="4.79356396" rx="4.64969136" ry="4.79356396"></ellipse>
                    <ellipse id="Oval-2-Copy" fill="#D8D8D8" cx="4.64969136" cy="4.79356396" rx="2.42592593" ry="2.50098989"></ellipse>
                </g>
            </g>
        </g>
        <g id="Group-33-Copy-3" transform="translate(576.000000, 239.000000)">
            <path d="M1.62914877,24.9814859 L1,13 L33.3839108,13 L33.3839108,24.9814859 L57,24.9814859 L55.6892144,45 L2.87545321,45 L1.62914877,24.9814859 Z M4.19197749,15.8437194 L4.87578801,26.9500447 L30.813267,27.5977594 L30.813267,15.8437194 L4.19197749,15.8437194 Z" id="Combined-Shape" fill="#F55A23"></path>
            <polygon id="Path-14" fill="#FBB3D9" points="0 12.9175583 0 9 33.9511005 10.7771089 35 14"></polygon>
            <polygon id="Path-13" fill="#FBB3D9" transform="translate(56.000000, 35.000000) rotate(-3.000000) translate(-56.000000, -35.000000) " points="55.1805391 24 58 25.8894649 56.8929223 43.9772449 54 46"></polygon>
            <polygon id="Path-4" fill="#818181" points="3.86196127 10 8 10 8 0 3 0"></polygon>
            <g id="Group-14" transform="translate(41.000000, 41.000000)">
                <ellipse id="Oval-Copy-2" fill="#707070" cx="4.34853916" cy="5" rx="4.34853916" ry="5"></ellipse>
                <ellipse id="Oval-2-Copy-2" fill="#D8D8D8" cx="4.34853916" cy="5" rx="2.26880304" ry="2.60869565"></ellipse>
            </g>
            <g id="Group-17" transform="translate(6.000000, 41.000000)">
                <ellipse id="Oval" fill="#707070" cx="4.34853916" cy="4.89130435" rx="4.34853916" ry="4.89130435"></ellipse>
                <ellipse id="Oval-2" fill="#D8D8D8" cx="4.34853916" cy="4.89130435" rx="2.26880304" ry="2.55198488"></ellipse>
            </g>
            <g id="Group-16" transform="translate(23.000000, 41.000000)">
                <ellipse id="Oval-Copy" fill="#707070" cx="4.34853916" cy="4.89130435" rx="4.34853916" ry="4.89130435"></ellipse>
                <ellipse id="Oval-2-Copy" fill="#D8D8D8" cx="4.34853916" cy="4.89130435" rx="2.26880304" ry="2.55198488"></ellipse>
            </g>
        </g>
        <path d="M1587.52151,71 L1706,71 C1701.75386,59.934818 1696.36187,52.7632023 1689.82402,49.485153 C1683.28617,46.2071038 1675.38277,46.2071038 1666.11381,49.485153 C1660.94765,31.1617177 1651.83066,22 1638.76283,22 C1625.69501,22 1616.36308,28.1003502 1610.76706,40.3010507 C1605.2201,40.3010507 1600.44826,42.3673671 1596.45156,46.5 C1592.68943,50.3900772 1587.57129,58.0553963 1586.02622,69.1050791 C1585.87559,70.1822843 1586.37402,70.8139246 1587.52151,71 Z" id="Path-19" fill="url(#linearGradient-14)"></path>
        <path d="M1626.17917,86 L1718,86 C1714.70924,77.4188384 1710.53045,71.8571773 1705.46361,69.3150166 C1700.39678,66.772856 1694.27164,66.772856 1687.0882,69.3150166 C1683.08443,55.1050055 1676.01876,48 1665.8912,48 C1655.76363,48 1648.53139,52.7308839 1644.19447,62.1926516 C1639.89557,62.1926516 1636.1974,63.795101 1633.09996,67 C1630.18431,70.0167946 1626.21775,75.9613277 1625.02032,84.5304695 C1624.90358,85.3658532 1625.28987,85.8556967 1626.17917,86 Z" id="Path-19-Copy" fill="url(#linearGradient-14)"></path>
        <path d="M78.3097783,126 L266.84827,126 C267.776791,125.452739 268.143884,124.547786 267.949549,123.285139 C266.007589,110.667661 259.072443,101.897348 249.68919,99.2797214 C241.643971,97.0353636 233.840327,98.0555417 226.278256,102.340256 C221.508456,91.7847693 214.812748,85.9512574 206.191132,84.8397199 C197.569516,83.7281824 191.768607,84.8889933 188.788405,88.3221526 C179.222346,80.1073842 167.424521,76 153.394928,76 C139.365335,76 130.540422,83.7599071 126.920187,99.2797214 C115.714749,92.3059422 104.854553,90.6341375 94.3396009,94.2643073 C90.0078673,95.7597899 82.9476457,99.2797214 82.9476457,112.127908 C82.9476457,113.860131 78.6152691,112.099851 75.9302784,116.776533 C74.1402846,119.894321 74.9334512,122.96881 78.3097783,126 Z" id="Path-19-Copy-5" fill="url(#linearGradient-5)" transform="translate(171.500000, 101.000000) scale(-1, 1) translate(-171.500000, -101.000000) "></path>
        <g id="Group-3" transform="translate(1739.000000, 57.000000)">
            <path d="M14.1794565,62.1143886 C28.0834929,60.5401268 38.888918,48.7017982 38.888918,34.3314607 C38.888918,18.8892067 26.4113685,6.37078652 11.0195312,6.37078652 C7.10548114,6.37078652 3.37988462,7.18029488 9.9475983e-14,8.64153814 C5.62834529,3.28568319 13.2331405,0 21.6028426,0 C38.9430138,0 53,14.1030304 53,31.5 C53,48.8969696 38.9430138,63 21.6028426,63 C19.0454456,63 16.5594627,62.6932377 14.1794565,62.1143886 Z" id="Combined-Shape" fill="#FFFDC1"></path>
            <path d="M40.9649807,50.8627446 C38.8316458,50.2911192 37.56563,48.0983156 38.1372554,45.9649807 C38.7088808,43.8316458 40.9016844,42.56563 43.0350193,43.1372554 C45.1683542,43.7088808 46.43437,45.9016844 45.8627446,48.0350193 C45.2911192,50.1683542 43.0983156,51.43437 40.9649807,50.8627446 Z" id="Oval-19" fill="url(#linearGradient-38)" transform="translate(42.000000, 47.000000) rotate(-27.000000) translate(-42.000000, -47.000000) "></path>
            <circle id="Oval-19-Copy" fill="url(#linearGradient-39)" transform="translate(44.000000, 18.000000) rotate(336.000000) translate(-44.000000, -18.000000) " cx="44" cy="18" r="4"></circle>
            <circle id="Oval-19-Copy-3" fill="url(#linearGradient-39)" transform="translate(32.000000, 8.000000) rotate(637.000000) translate(-32.000000, -8.000000) " cx="32" cy="8" r="4"></circle>
            <circle id="Oval-19-Copy-2" fill="url(#linearGradient-40)" transform="translate(45.000000, 30.000000) rotate(635.000000) translate(-45.000000, -30.000000) " cx="45" cy="30" r="6"></circle>
        </g>
        <path d="M150.746099,134 L315.30569,134.00002 C316.410271,134.00002 317.30571,133.104581 317.30571,132 C317.30571,131.765636 317.264518,131.533096 317.184014,131.312992 C314.611658,124.280003 309.194014,119.635239 300.931083,117.3787 C291.657798,114.846243 284.542552,116.899317 279.585344,123.537925 C278.645296,119.431775 276.272023,116.609973 272.465523,115.07252 C268.659022,113.535066 264.978992,114.303793 261.425431,117.3787 C254.234087,102.200031 243.253015,93.8223536 228.482214,92.2456684 C213.711414,90.6689833 201.976672,96.6816005 193.277988,110.28352 C183.290252,104.093708 173.610241,102.609842 164.237955,105.831921 C160.376953,107.159287 154.08397,110.28352 154.08397,121.687359 C154.08397,123.224852 150.222396,121.662457 147.829184,125.813402 C146.350639,128.377891 146.849425,130.909375 149.325543,133.407854 L149.325551,133.407846 C149.701125,133.786812 150.212553,134 150.746099,134 Z" id="Path-19-Copy-4" fill="url(#linearGradient-5)" transform="translate(232.500000, 113.000000) scale(-1, 1) translate(-232.500000, -113.000000) "></path>
        <circle id="Oval-20" fill="#FFFEF4" cx="1817.5" cy="136.5" r="2.5"></circle>
        <circle id="Oval-20-Copy-9" fill="#FFFEF4" cx="1850.5" cy="119.5" r="2.5"></circle>
        <circle id="Oval-20-Copy-12" fill="#FFFEF4" cx="1874.5" cy="177.5" r="2.5"></circle>
        <circle id="Oval-20-Copy-4" fill="#FFFEF4" cx="1727.5" cy="124.5" r="2.5"></circle>
        <circle id="Oval-20-Copy-5" fill="#FFFEF4" cx="1864.5" cy="33.5" r="2.5"></circle>
        <circle id="Oval-20-Copy" fill="#FFFEF4" cx="1829.5" cy="102.5" r="1.5"></circle>
        <circle id="Oval-20-Copy-11" fill="#FFFEF4" cx="1878.5" cy="125.5" r="1.5"></circle>
        <circle id="Oval-20-Copy-2" fill="#FFFEF4" cx="1817" cy="85" r="1"></circle>
        <circle id="Oval-20-Copy-10" fill="#FFFEF4" cx="1832" cy="154" r="1"></circle>
        <circle id="Oval-20-Copy-3" fill="#FFFEF4" cx="1838" cy="70" r="1"></circle>
        <circle id="Oval-20-Copy-8" fill="#FFFEF4" cx="1881" cy="97" r="1"></circle>
        <circle id="Oval-20-Copy-6" fill="#FFFEF4" cx="1807" cy="31" r="1"></circle>
        <circle id="Oval-20-Copy-7" fill="#FFFEF4" cx="1854" cy="17" r="1"></circle>
        <path d="M1864.5,34.5 L1850.5,119.5" id="Line-2" stroke="#FFFEF3" stroke-width="0.2" stroke-linecap="square"></path>
        <path d="M1817.5,136.5 L1851.5,118.5" id="Line-2-Copy-2" stroke="#FFFEF3" stroke-width="0.2" stroke-linecap="square"></path>
        <path d="M1818.5,136.5 L1872.5,177.5" id="Line-2-Copy-3" stroke="#FFFEF3" stroke-width="0.2" stroke-linecap="square"></path>
        <text id="wick-editor" font-family="Nunito-Regular, Nunito" font-size="60" font-weight="normal" fill="#1EE29A">
            <tspan x="806" y="144">wick editor</tspan>
        </text>
        <text id="animations,-games-an" font-family="Nunito-Regular, Nunito" font-size="16" font-weight="normal" fill="#0C8257">
            <tspan x="786.644" y="178">animations, games and everything in between.</tspan>
        </text>
    </g>
</svg>