<?xml version="1.0" encoding="UTF-8" standalone="no"?>
<svg
   xmlns:dc="http://purl.org/dc/elements/1.1/"
   xmlns:cc="http://creativecommons.org/ns#"
   xmlns:rdf="http://www.w3.org/1999/02/22-rdf-syntax-ns#"
   xmlns:svg="http://www.w3.org/2000/svg"
   xmlns="http://www.w3.org/2000/svg"
   xmlns:sodipodi="http://sodipodi.sourceforge.net/DTD/sodipodi-0.dtd"
   xmlns:inkscape="http://www.inkscape.org/namespaces/inkscape"
   width="24"
   height="29"
   viewBox="0 0 24 29"
   fill="none"
   version="1.1"
   id="svg835"
   sodipodi:docname="apple-light.svg"
   inkscape:version="1.0.1 (c497b03c, 2020-09-10)">
  <metadata
     id="metadata841">
    <rdf:RDF>
      <cc:Work
         rdf:about="">
        <dc:format>image/svg+xml</dc:format>
        <dc:type
           rdf:resource="http://purl.org/dc/dcmitype/StillImage" />
        <dc:title></dc:title>
      </cc:Work>
    </rdf:RDF>
  </metadata>
  <defs
     id="defs839" />
  <sodipodi:namedview
     pagecolor="#ffffff"
     bordercolor="#666666"
     borderopacity="1"
     objecttolerance="10"
     gridtolerance="10"
     guidetolerance="10"
     inkscape:pageopacity="0"
     inkscape:pageshadow="2"
     inkscape:window-width="776"
     inkscape:window-height="480"
     id="namedview837"
     showgrid="false"
     inkscape:zoom="1"
     inkscape:cx="12"
     inkscape:cy="14.5"
     inkscape:window-x="724"
     inkscape:window-y="156"
     inkscape:window-maximized="0"
     inkscape:current-layer="svg835" />
  <path
     d="M24 21.1284C23.0568 23.8644 20.2332 28.7088 17.3244 28.7616C15.3948 28.7988 14.7744 27.618 12.5688 27.618C10.3644 27.618 9.6744 28.7256 7.8504 28.7976C4.764 28.9164 0 21.8052 0 15.6036C0 9.9072 3.9696 7.0836 7.4376 7.032C9.2976 6.9984 11.0544 8.286 12.1884 8.286C13.3272 8.286 15.4608 6.738 17.7036 6.9648C18.642 7.0044 21.2784 7.3428 22.9704 9.8172C18.4812 12.7476 19.1808 18.876 24 21.1284ZM17.7336 0C14.3424 0.1368 11.5752 3.6948 11.9616 6.6372C15.096 6.8808 18.1032 3.3672 17.7336 0Z"
     fill="black"
     id="path833"
     style="fill:#eaeaea;fill-opacity:1" />
</svg>
