<svg width="24" height="32" viewBox="0 0 24 32" fill="none" xmlns="http://www.w3.org/2000/svg">
<path d="M23.4413 25.3987C22.708 24.804 22.9933 23.4907 22.232 22.8427C22.9693 18.356 20.9027 14.4013 18.4387 11.8667C16.3707 9.74 17.0373 7.67067 17.0373 5.88C17.0373 3.01867 15.8627 0 12.304 0C8.5 0 7.45733 3.17333 7.42 4.984C7.32933 9.33333 8.29867 10.464 5.75333 13.6293C2.75867 17.3533 2.31733 21.068 2.99333 23.0387C2.67733 23.4067 2.25067 23.8147 1.45333 24.152C-0.749333 25.112 0.865333 26.7187 0.256 27.8587C0.0826666 28.1827 0 28.5213 0 28.8453C0 29.8453 0.794667 30.7107 2.23867 30.5813C4.18667 30.408 5.984 31.788 7.14667 31.788C8.17333 31.788 9.016 31.204 9.408 30.4C11.244 29.948 13.5107 30.0053 15.3453 30.4787C15.6747 31.4 16.568 32 17.5613 32C19.736 32 20.1547 29.5347 22.6493 28.7C23.548 28.4 24 27.528 24 26.716C24 26.196 23.8147 25.7013 23.4413 25.3987ZM11.2453 11.4453C10.82 11.4453 10.468 11.1013 9.912 10.688C9.208 10.1653 8.492 9.864 8.5 9.31467C8.5 8.93733 9.00533 8.82133 9.65867 8.40667C10.36 7.96267 10.6333 7.512 11.324 7.512C12.0307 7.512 12.244 7.86933 13.204 8.284C14.148 8.69333 14.8053 8.85333 14.8053 9.31467C14.8053 9.788 13.8173 10.1267 13.2613 10.472C12.444 10.976 12.024 11.4453 11.2453 11.4453V11.4453ZM13.4653 4.492C14.6413 4.68 14.7733 6.74667 14.2107 7.764L13.7373 7.57067C13.9827 6.84667 13.9787 5.65467 13.1573 5.57867C12.636 5.53067 12.3 6.21867 12.228 6.808C12.024 6.72267 11.8013 6.66133 11.5307 6.63867C11.6133 5.408 12.408 4.32267 13.4653 4.492V4.492ZM8.928 4.93333C9.82933 4.70933 10.3613 5.75733 10.3653 6.84667L9.952 7.1C9.896 6.64267 9.692 5.904 9.18 6.06133C8.632 6.232 8.72133 7.50533 9.02667 7.76667L8.61867 7.99333C8.05867 7.05067 8.06 5.14933 8.928 4.93333V4.93333ZM6.108 30.5907C3.49067 29.4 2.60133 29.6707 2.10133 29.6707C1.06533 29.6707 0.726667 28.8987 1.116 28.168C1.44667 27.548 1.344 26.8987 1.26267 26.3773C1.13733 25.5787 1.11467 25.3187 1.9 24.9747C2.98667 24.5133 3.46933 23.92 3.82933 23.476C4.84 22.2267 5.86 24.192 6.696 25.9427C7.23867 27.0773 8.30667 27.652 8.636 28.9093C8.93867 30.0707 7.68933 31.3107 6.108 30.5907V30.5907ZM15.424 28.092C13.5787 28.9893 11.228 29.4013 9.46933 28.4907C9.20933 27.74 8.79333 27.2547 8.34533 26.7667C9.064 26.5773 9.59733 25.6813 8.95867 24.7813C8.27733 23.82 6.88533 23.1493 5.47867 22.0613C4.16267 21.044 3.74667 18.536 5.53867 15.7333C4.66533 18.216 5.176 20.504 5.61467 21.1587C5.70533 19.8413 5.80933 17.6413 7.60933 15.0053C8.51733 13.6747 8.53067 11.9173 8.55067 10.8187L9.37733 11.384C9.98533 11.8333 10.4947 12.328 11.2253 12.328C12.3053 12.328 12.9027 11.7067 13.7347 11.1907C14.06 10.9907 14.552 10.788 14.9653 10.5067C15.6587 13.808 18.5307 17.7787 18.692 20.04C19.36 18.664 18.5027 15.3547 18.5027 15.3547C19.6253 17.068 19.7147 18.496 19.764 20.248C20.5493 20.5693 21.392 21.4067 21.4693 22.5093L21.1427 22.472C20.9747 21.2467 17.6667 19.4467 17.3693 21.7533C15.7827 21.9947 16.36 24.508 16.04 26.1373C15.8933 26.8827 15.6213 27.472 15.424 28.092V28.092ZM21.8853 28.0373C20.572 28.544 19.6853 29.62 19.076 30.288C17.9027 31.576 16.3507 30.9587 16.1853 29.7533C16.0107 28.4653 16.6653 27.7627 16.948 26.3213C17.2053 25.0053 16.9173 22.98 17.5227 22.764C17.916 25.1013 20.2773 24.1187 20.816 23.4813C21.692 23.4813 21.7653 23.7773 21.9613 24.5973C22.084 25.1107 22.2533 25.5427 22.732 26.0507C23.2893 26.6467 23.1187 27.5613 21.8853 28.0373ZM11.2187 10.696C10.3507 10.696 9.70133 10.1187 9.17333 9.67067C8.90267 9.44267 9.24 9.02133 9.51067 9.25067C10.0267 9.688 10.5467 10.1507 11.2187 10.1507C12.028 10.1507 12.7413 9.45867 13.708 9.07733C14.0373 8.948 14.2253 9.45733 13.8987 9.58667C12.96 9.956 12.2067 10.696 11.2187 10.696V10.696Z" fill="black"/>
</svg>
