<?xml version="1.0" encoding="UTF-8"?>
<svg width="1024px" height="269px" viewBox="0 0 1024 269" version="1.1" xmlns="http://www.w3.org/2000/svg" xmlns:xlink="http://www.w3.org/1999/xlink">
    <!-- Generator: Sketch 51.3 (57544) - http://www.bohemiancoding.com/sketch -->
    <title>Group 36</title>
    <desc>Created with Sketch.</desc>
    <defs>
        <path d="M1024,268.240747 C969.782393,268.733815 924.342732,266.524118 887.681017,261.611654 C780.973082,247.31339 713.600124,226.247821 645.001759,224.774294 C576.403393,223.300768 532.582662,233.799606 423.43696,235.268327 C314.291259,236.737049 300.503506,215.34219 208.792315,218.276876 C147.651521,220.233334 78.0540826,236.887958 0,268.240747 L0,0 L1024,0 L1024,268.240747 Z" id="path-1"></path>
        <linearGradient x1="50%" y1="0%" x2="50%" y2="100%" id="linearGradient-3">
            <stop stop-color="#A1EEE7" offset="0%"></stop>
            <stop stop-color="#C7EFCE" offset="100%"></stop>
        </linearGradient>
        <rect id="path-4" x="0" y="0" width="1024" height="288"></rect>
        <linearGradient x1="50%" y1="0%" x2="50%" y2="100%" id="linearGradient-6">
            <stop stop-color="#FFEC4F" offset="0%"></stop>
            <stop stop-color="#FFD427" offset="100%"></stop>
        </linearGradient>
        <linearGradient x1="50%" y1="0%" x2="50%" y2="100%" id="linearGradient-7">
            <stop stop-color="#A6B0BB" offset="0%"></stop>
            <stop stop-color="#7B8794" offset="100%"></stop>
        </linearGradient>
        <linearGradient x1="52.9059186%" y1="8.02456051%" x2="0%" y2="50%" id="linearGradient-8">
            <stop stop-color="#C99B81" offset="0%"></stop>
            <stop stop-color="#84888B" offset="100%"></stop>
        </linearGradient>
        <linearGradient x1="50%" y1="0%" x2="50%" y2="100%" id="linearGradient-9">
            <stop stop-color="#AC9083" offset="0%"></stop>
            <stop stop-color="#73574B" offset="100%"></stop>
        </linearGradient>
        <linearGradient x1="50%" y1="0%" x2="50%" y2="100%" id="linearGradient-10">
            <stop stop-color="#F2DCCF" offset="0%"></stop>
            <stop stop-color="#B4846B" offset="100%"></stop>
        </linearGradient>
        <linearGradient x1="50%" y1="0%" x2="50%" y2="100%" id="linearGradient-11">
            <stop stop-color="#F2DDCF" offset="0%"></stop>
            <stop stop-color="#D4A890" offset="100%"></stop>
        </linearGradient>
        <linearGradient x1="-11.3770283%" y1="157.213749%" x2="71.0627226%" y2="0%" id="linearGradient-12">
            <stop stop-color="#B1A7A7" offset="0%"></stop>
            <stop stop-color="#73574B" offset="100%"></stop>
        </linearGradient>
        <linearGradient x1="50%" y1="1.23712734%" x2="50%" y2="33.9887691%" id="linearGradient-13">
            <stop stop-color="#EFDDD2" offset="0%"></stop>
            <stop stop-color="#E8C3AF" offset="100%"></stop>
        </linearGradient>
        <linearGradient x1="50%" y1="5.04424426%" x2="50%" y2="100%" id="linearGradient-14">
            <stop stop-color="#CAAA9A" offset="0%"></stop>
            <stop stop-color="#737271" offset="100%"></stop>
        </linearGradient>
        <linearGradient x1="48.1356455%" y1="0%" x2="48.1356442%" y2="71.8470336%" id="linearGradient-15">
            <stop stop-color="#DFBAA6" offset="0%"></stop>
            <stop stop-color="#747372" offset="100%"></stop>
        </linearGradient>
        <linearGradient x1="50%" y1="0%" x2="50%" y2="100%" id="linearGradient-16">
            <stop stop-color="#727E8A" offset="0%"></stop>
            <stop stop-color="#98A6B4" offset="100%"></stop>
        </linearGradient>
        <linearGradient x1="50%" y1="-10.0224463%" x2="50%" y2="41.248421%" id="linearGradient-17">
            <stop stop-color="#75828E" offset="0%"></stop>
            <stop stop-color="#8FDC8B" offset="100%"></stop>
        </linearGradient>
        <linearGradient x1="50%" y1="0%" x2="50%" y2="100%" id="linearGradient-18">
            <stop stop-color="#81D585" offset="0%"></stop>
            <stop stop-color="#688E54" offset="100%"></stop>
        </linearGradient>
        <linearGradient x1="50%" y1="0%" x2="50%" y2="100%" id="linearGradient-19">
            <stop stop-color="#94DF81" offset="0%"></stop>
            <stop stop-color="#749551" offset="100%"></stop>
        </linearGradient>
        <linearGradient x1="142.018337%" y1="50%" x2="50%" y2="100%" id="linearGradient-20">
            <stop stop-color="#B9D295" stop-opacity="0.797865716" offset="0%"></stop>
            <stop stop-color="#77A245" stop-opacity="0.797865716" offset="100%"></stop>
        </linearGradient>
        <linearGradient x1="3.24699335%" y1="0%" x2="91.7514723%" y2="100%" id="linearGradient-21">
            <stop stop-color="#DEC2B2" offset="0%"></stop>
            <stop stop-color="#E0BDA9" offset="100%"></stop>
        </linearGradient>
        <linearGradient x1="3.24699335%" y1="0%" x2="91.7514723%" y2="100%" id="linearGradient-22">
            <stop stop-color="#97867D" offset="0%"></stop>
            <stop stop-color="#E0BDA9" offset="100%"></stop>
        </linearGradient>
        <linearGradient x1="95.468284%" y1="16.922114%" x2="-1.04102401%" y2="86.9740029%" id="linearGradient-23">
            <stop stop-color="#DAF9FF" offset="0%"></stop>
            <stop stop-color="#D8D8D8" stop-opacity="0.374037591" offset="100%"></stop>
        </linearGradient>
        <polygon id="path-24" points="0.00625728537 0.017880048 4.48067338 0.017880048 4.48067338 2.10713733 0.00625728537 2.10713733 0.00625728537 0.017880048"></polygon>
        <polygon id="path-26" points="4.21457448e-17 4.95719727 4.21457448e-17 0.0165667199 2.6145415 0.0165667199 2.6145415 4.95719727 0 4.95719727"></polygon>
        <polygon id="path-28" points="8.52734352e-13 0.0163907856 3.29911146 0.0163907856 3.29911146 6.18173017 6.25277607e-13 6.18173017"></polygon>
    </defs>
    <g id="V2-Site" stroke="none" stroke-width="1" fill="none" fill-rule="evenodd">
        <g id="Group-36">
            <mask id="mask-2" fill="white">
                <use xlink:href="#path-1"></use>
            </mask>
            <use id="Mask" fill="#FFFFFF" xlink:href="#path-1"></use>
            <g mask="url(#mask-2)">
                <g transform="translate(-39.000000, 0.000000)">
                    <g id="Screen-Shot-2018-01-25-at-4.35.58-AM-Copy-2" stroke-width="1" fill="none" transform="translate(39.000000, 0.000000)">
                        <mask id="mask-5" fill="white">
                            <use xlink:href="#path-4"></use>
                        </mask>
                        <use id="Mask" fill="url(#linearGradient-3)" opacity="0.567991395" xlink:href="#path-4"></use>
                    </g>
                    <circle id="Oval-7-Copy" fill="url(#linearGradient-6)" cx="109.5" cy="61.5" r="28.5"></circle>
                    <path d="M620,200.367578 C684.318864,160.66809 732.860626,141.220205 765.625284,142.023923 C798.389943,142.827641 846.931704,164.656987 911.250569,207.511962 L634.250149,223.9419 L620,200.367578 Z" id="Path-21-Copy-2" fill="url(#linearGradient-7)" opacity="0.542912138"></path>
                    <path d="M185,220.726712 C251.921719,194.262423 300.46348,174.814537 330.625284,162.383056 C360.787089,149.951575 409.32885,171.780921 476.250569,227.871096 L199.250149,244.301033 L185,220.726712 Z" id="Path-21-Copy-3" fill="url(#linearGradient-8)" opacity="0.542912138" transform="translate(330.625284, 201.650516) scale(-1, 1) translate(-330.625284, -201.650516) "></path>
                    <g id="Group-29-Copy" stroke-width="1" fill="none" transform="translate(39.000000, 73.000000)">
                        <g id="Group-32-Copy" transform="translate(151.000000, 32.000000)">
                            <path d="M0,34.6190433 C15.1492141,29.4635639 27.4692732,23.1075556 36.9601772,15.5510185 C46.4510812,7.99448134 52.9197574,2.81080852 56.3662059,0 C67.4135485,11.1170435 76.6862772,20.4039261 84.1843918,27.8606478 C91.2566897,34.8939035 105.195226,47.9403542 126,67 L0,34.6190433 Z" id="Path-23" fill="url(#linearGradient-9)"></path>
                            <path d="M56.7033943,0 C56.7033943,0 76.4625085,19.5846884 91.7232974,34.1655976 C106.984086,48.7465067 189.812901,119.626136 197.985387,125.350602 C202.308889,128.379025 103.759214,94.994159 78.3420674,86.479364 C55.3740666,78.7850376 34.5636757,39.0985466 44.2141524,35.2967862 C59.7140098,29.1906894 56.7033943,0 56.7033943,0 Z" id="Path-11-Copy" fill="url(#linearGradient-10)"></path>
                        </g>
                        <g id="Group-31-Copy" transform="translate(71.000000, 0.000000)">
                            <path d="M81.6636135,2 C81.6636135,2 101.128172,25.8470422 113.316679,40.6006404 C125.505187,55.3542385 223.129697,143.794033 223.129697,143.794033 C223.129697,143.794033 132.337104,125.357585 113.316679,122.602438 C86.4915052,118.716757 0.0812869268,99.1820842 0.0812869268,99.1820842 C0.0812869268,99.1820842 61.559201,39.650251 71.3431388,24.643143 C81.1270766,9.6360351 81.6636135,2 81.6636135,2 Z" id="Path-11" fill="url(#linearGradient-11)"></path>
                            <path d="M81.1960837,0 L36,57.0268341 L50.5358307,70 L77.1518464,66.2526405 C77.1518464,66.2526405 100.160517,64.6254817 99.9991552,50.2163082 C99.8377939,35.8071347 81.1960837,38.8981002 81.1960837,27.0040404 C81.1960837,2.33523194 81.1960837,0 81.1960837,0 Z" id="Path-10" fill="url(#linearGradient-12)"></path>
                            <path d="M67.5629697,17.197179 C67.5629697,17.197179 68.1600618,18.9501196 70.4877005,18.9501196 C72.8153392,18.9501196 72.5206009,18.9501196 74.8312062,18.9501196 C77.6992728,18.9501196 77.6578117,25 80.8556916,25 C84.0086908,25 85.3581524,19.2532269 87.3593513,17.197179 C89.3605502,15.1411311 92,14.180472 92,14.180472 L81.4460195,0.239035789 C81.4460195,0.239035789 80.1002064,-0.534599316 79.1447388,0.701704552 C78.1892712,1.93800842 67.5629697,17.197179 67.5629697,17.197179 Z" id="Path-25-Copy-3" fill="#F6F1F1"></path>
                            <path d="M67.4182769,17.2045258 C67.4182769,17.2045258 68.0013753,19.7082565 70.4337742,19.7082565 C72.8661731,19.7082565 72.6928886,18.9202627 75.1074875,18.9202627 C77.3162588,18.9202627 77.5336904,24.9982496 80.8993132,24.9982496 C81.1143555,25.0930984 80.921451,21.3209367 80.8993132,16.6797894 C80.8646212,9.40670282 80.8993132,6.82121026e-13 80.8993132,6.82121026e-13 C80.8993132,6.82121026e-13 80.6742086,0.0155683551 80.4484764,0.0836873662 C80.2227441,0.151806377 79.4811701,0.351920491 78.9583782,0.998408782 C77.9599078,2.23312455 67.4182769,17.2045258 67.4182769,17.2045258 Z" id="Path-25-Copy-5" fill="#E2E2E2"></path>
                        </g>
                        <g id="Group-30-Copy-2" transform="translate(0.000000, 32.000000)">
                            <path d="M15.7171462,83.0664532 C37.9625514,68.5593118 42.2273134,61.8423831 56.7132246,48.6214079 C71.1991358,35.4004327 101.810446,0 101.810446,0 C101.810446,0 108.598631,8.56197875 131.376097,31.1670886 C139.69716,39.4251862 153.134538,54.3466273 170.701544,71.4547587 C192.610104,92.7910372 204.686388,114.712229 216.431336,106.679385 C228.176284,98.6465403 76.5173351,91.005744 69.1497751,94.1671564 C55.1991832,100.153341 -34.9236928,116.091422 15.7171462,83.0664532 Z" id="Path-9" fill="url(#linearGradient-13)"></path>
                            <path d="M99.8803188,43.8578758 C96.9111633,52.9499875 88.6745628,60.0775053 75.2868089,62.8952448 C61.8990549,65.7129844 43.2068185,72.2002505 11.9229703,93.4570227 C-6.80437828,106.181895 40.3180278,60.139981 49.1276316,52.9499875 C73.0134625,33.4554708 101.831595,0 101.831595,0 C101.831595,0 102.849474,34.7657641 99.8803188,43.8578758 Z" id="Path-25" fill="url(#linearGradient-14)"></path>
                            <path d="M87,16.5596634 C87,16.5596634 88.1817841,21.4538746 90.7887395,21.4538746 C93.3956948,21.4538746 93.141308,19.1544111 95.729186,19.1544111 C98.9414207,19.1544111 98.9367491,25 102.518375,25 C106.049734,25 107.561131,19.4830978 109.802473,17.5092918 C112.043816,15.5354858 115,14.6132532 115,14.6132532 L101.854382,0.219810279 C101.854382,0.219810279 100.97624,0.450990757 99.906116,1.63784247 C98.8359923,2.82469418 87,16.5596634 87,16.5596634 Z" id="Path-25-Copy-2" fill="#F6F1F1"></path>
                            <path d="M87,16.1816482 C87,16.1816482 88.1482735,21.5768575 90.7403111,21.5768575 C93.3323487,21.5768575 93.1476916,18.9202627 95.720761,18.9202627 C98.6282484,18.9202627 98.2887994,23.9329813 101.892705,24.9982496 C102.121861,25.0930984 101.916296,21.3209367 101.892705,16.6797894 C101.855736,9.40670282 101.892705,6.82121026e-13 101.892705,6.82121026e-13 C101.892705,6.82121026e-13 101.652827,0.0155683551 101.41228,0.0836873662 C101.171733,0.151806377 100.857773,0.313113029 100.30067,0.95960132 C99.23667,2.19431709 87,16.1816482 87,16.1816482 Z" id="Path-25-Copy-4" fill="#E2E2E2"></path>
                        </g>
                    </g>
                    <path d="M777.209676,245.214557 C661.17257,237.489364 559.942267,242.698277 449.146631,227.407566 C338.350996,212.116856 315.148253,198.365273 185.048118,171.804561 C145.111965,163.65136 93.762592,159.049839 31,158 L31,280.948101 L1055,280.948101 C947.164521,262.275867 854.567747,250.364685 777.209676,245.214557 Z" id="Combined-Shape-Copy-4" fill="url(#linearGradient-15)"></path>
                    <path d="M713.457959,220.689926 C729.228,195.127572 735.842013,187.993248 744.725163,181.274804 C753.608313,174.556361 768.563956,163.375969 798.573697,163.375969 L831.770003,163.375969 C841.498878,163.375969 841.719164,162.303171 841.719164,141.966189 C841.719164,121.629206 837.660251,122.000461 876.726889,122.000461 C915.793528,122.000461 1062.48334,122.728185 1062.48334,122.728185 C1062.48334,122.728185 1077.22044,141.966189 1085.86089,181.446761 C1094.50135,220.927334 697.687917,246.252281 713.457959,220.689926 Z" id="Path-5-Copy-5" fill="url(#linearGradient-16)"></path>
                    <g id="Group-9-Copy-2" stroke-width="1" fill="none" transform="translate(864.000000, 122.000000)">
                        <path d="M199.593758,2.11201951 L51.4799845,2.68175937 C51.4799845,2.68175937 40.3496485,3.0110445 40.3496485,13.6461884 C40.3496485,24.2813324 40.3496485,80.5318302 40.3496485,80.5318302 C40.3496485,80.5318302 30.7897163,84.9386589 18.8414684,86.8657623 C6.89322052,88.7928656 0.122649706,89.5316232 0.122649706,89.5316232 C0.122649706,89.5316232 0.122649706,13.5074304 0.122649706,10.2724083 C0.122649706,7.03738617 -1.35753821,0 9.51266212,7.66510474e-17 C20.3828625,1.53302095e-16 198.317732,0 198.317732,0 L199.593758,2.11201951 Z" id="Path-7" fill="#CCFCF4"></path>
                        <path d="M193.275085,2.11201951 L55.307968,2.68175937 C55.307968,2.68175937 44.5142505,3.0110445 44.5142505,13.6461884 C44.5142505,24.2813324 44.5142505,80.5318302 44.5142505,80.5318302 C44.5142505,80.5318302 35.2434425,83.7796766 23.6565495,85.70678 C12.0696566,87.6338833 5.50385039,88.3726409 5.50385039,88.3726409 L5.50385039,10.2724083 C5.50385039,10.2724083 3.64664091,5.94045617e-16 14.6098775,7.66510474e-17 C25.5731141,7.66510474e-17 192.03765,0 192.03765,0 L193.275085,2.11201951 Z" id="Path-7-Copy" fill="#9FEADF"></path>
                        <path d="M199.46503,2.11201951 L62.3317637,2.68175937 C62.3317637,2.68175937 51.5380462,3.0110445 51.5380462,13.6461884 C51.5380462,24.2813324 51.5380462,80.5318302 51.5380462,80.5318302 C51.5380462,80.5318302 42.2672382,83.7796766 30.6803452,85.70678 C19.0934522,87.6338833 12.5276461,88.3726409 12.5276461,88.3726409 C12.5276461,88.3726409 11.9594258,15.7869013 12.5276461,10.2724083 C13.0958663,4.75791529 10.6704366,5.94045617e-16 21.6336732,7.66510474e-17 C32.5969098,7.66510474e-17 198.227595,0 198.227595,0 L199.46503,2.11201951 Z" id="Path-7-Copy-8" fill="#6BC3B7"></path>
                        <path d="M177.938929,2.11201951 L39.8162651,2.68175937 C39.8162651,2.68175937 29.5533691,3.0110445 29.5533691,13.6461884 L29.5533691,80.5318302 C29.5533691,80.5318302 42.9059717,83.7796766 31.8889076,85.70678 C20.8718435,87.6338833 14.6289354,88.3726409 14.6289354,88.3726409 L14.6289354,10.2724083 C14.6289354,10.2724083 12.8630612,6.13208379e-16 23.2871396,7.66510474e-17 C33.7112179,7.66510474e-17 198.245037,0 198.245037,0 L177.938929,2.11201951 Z" id="Path-7-Copy-2" fill="#78D3C6"></path>
                        <path d="M199.529204,2.11201951 L54.1073009,2.68175937 C54.1073009,2.68175937 44.1033422,3.0110445 44.1033422,13.6461884 L44.1033422,80.5318302 C44.1033422,80.5318302 53.1936231,83.7796766 42.4545243,85.70678 C31.7154255,87.6338833 25.6300287,88.3726409 25.6300287,88.3726409 L25.6300287,10.2724083 C25.6300287,10.2724083 23.9087082,5.36557332e-16 34.0697825,0 L198.38231,0 L199.529204,2.11201951 Z" id="Path-7-Copy-3" fill="#6BC3B7"></path>
                        <path d="M199.445579,2.11201951 L67.9207657,2.68175937 C67.9207657,2.68175937 57.9168071,3.0110445 57.9168071,13.6461884 L57.9168071,80.5318302 C57.9168071,80.5318302 67.0070879,83.7796766 56.2679891,85.70678 C45.5288903,87.6338833 39.4434935,88.3726409 39.4434935,88.3726409 L39.4434935,10.2724083 C39.4434935,10.2724083 37.722173,5.36557332e-16 47.8832474,0 L198.298684,0 L199.445579,2.11201951 Z" id="Path-7-Copy-7" fill="#4DB0A2"></path>
                        <path d="M199.315783,2.11201951 L51.1348197,2.68175937 C51.1348197,2.68175937 41.429845,3.0110445 41.429845,13.6461884 L41.429845,80.5318302 C41.429845,80.5318302 50.6612201,83.7796766 40.243076,85.70678 C29.8249319,87.6338833 29.6068849,88.3726409 29.6068849,88.3726409 L29.6068849,10.2724083 C29.6068849,10.2724083 27.9370088,6.13208379e-16 37.7944036,7.66510474e-17 C47.6517984,7.66510474e-17 198.290503,0 198.290503,0 L199.315783,2.11201951 Z" id="Path-7-Copy-4" fill="#9FEADF"></path>
                        <path d="M185.356442,2.11201951 L53.1427697,2.68175937 C53.1427697,2.68175937 43.9933041,3.0110445 43.9933041,13.6461884 L43.9933041,80.5318302 C43.9933041,80.5318302 50.8847278,83.7796766 41.0629145,85.70678 C31.2411012,87.6338833 34.7515471,86.0573999 34.7515471,86.0573999 L34.7515471,10.2724083 C34.7515471,10.2724083 33.177254,6.13208379e-16 42.4704151,7.66510474e-17 C51.7635762,7.66510474e-17 198.27703,0 198.27703,0 L185.356442,2.11201951 Z" id="Path-7-Copy-5" fill="#78D1C4"></path>
                        <path d="M199.506942,2.11201951 L61.8313516,2.68175937 C61.8313516,2.68175937 53.1609201,3.0110445 53.1609201,13.6461884 C53.1609201,24.2813324 53.1609201,80.5318302 53.1609201,80.5318302 C53.1609201,80.5318302 43.4511245,85.70678 43.4300371,85.70678 C43.4089497,85.70678 43.4089497,10.2724083 43.4089497,10.2724083 C43.4089497,10.2724083 41.9170812,6.13208379e-16 50.7236849,7.66510474e-17 C59.5302885,7.66510474e-17 198.28818,0 198.28818,0 L199.506942,2.11201951 Z" id="Path-7-Copy-6" fill="#4FBEAE"></path>
                    </g>
                    <g id="Group-6-Copy-2" stroke-width="1" fill="none" transform="translate(800.000000, 181.000000)">
                        <ellipse id="Oval-9" fill="#9FEADF" cx="56.7756818" cy="27.2360841" rx="7.84323851" ry="7.76518142"></ellipse>
                        <ellipse id="Oval-8" fill="#9FEADF" cx="47.4106209" cy="29.3222522" rx="4.09721415" ry="4.05643806"></ellipse>
                        <ellipse id="Oval-10" fill="#9FEADF" cx="35.3531049" cy="30.1335399" rx="12.8769588" ry="12.7488053"></ellipse>
                        <ellipse id="Oval-11" fill="#9FEADF" cx="73.2816016" cy="25.9612036" rx="13.5793383" ry="13.4441947"></ellipse>
                        <ellipse id="Oval-12" fill="#9FEADF" cx="93.8847356" cy="16.2257522" rx="16.3888566" ry="16.2257522"></ellipse>
                        <ellipse id="Oval-13" fill="#9FEADF" cx="114.839059" cy="14.4872788" rx="6.90673242" ry="6.83799558"></ellipse>
                        <ellipse id="Oval-14" fill="#9FEADF" cx="18.6130586" cy="29.3222522" rx="5.73609981" ry="5.67901328"></ellipse>
                        <ellipse id="Oval-15" fill="#9FEADF" cx="2.92658153" cy="30.2494381" rx="2.92658153" ry="2.89745576"></ellipse>
                        <ellipse id="Oval-16" fill="#9FEADF" cx="49.1665698" cy="12.5170089" rx="3.74602436" ry="3.70874337"></ellipse>
                    </g>
                    <path d="M1074.93672,159.643374 C1074.93672,159.643374 1048.75135,150.937935 1014.97005,153.457716 C981.188742,155.977497 936.420071,185.600866 936.420071,185.600866 C936.420071,185.600866 911.856044,201.820374 879.59579,208.088563 C847.335537,214.356751 814.37274,214.304296 814.37274,214.304296 L619.048379,214.304296 C619.048379,214.304296 617.661147,228.761655 618.07818,244.041841 C618.495214,259.322027 619.215652,260.81628 620.094643,267.769885 C620.094643,267.769885 1032.05671,267.769885 1032.05671,267.769885 C1032.05671,267.769885 1071.86431,271.564857 1071.86431,322.461399 C1071.86431,326.546773 1071.86431,325.543096 1071.86431,325.543096 C1071.86431,325.543096 1085.32962,292.684652 1087.41332,251.220454 C1090.00281,199.691414 1074.93672,159.643374 1074.93672,159.643374 Z" id="Path-3-Copy-4" fill="url(#linearGradient-17)"></path>
                    <path d="M1075.14128,160.079309 C1075.14128,160.079309 1043.38192,154.590934 1009.83711,161.447665 C976.292301,168.304397 947.702685,191.276354 929.695587,199.067903 C911.688488,206.859452 907.185224,209.193054 880.069629,214.461632 C852.954033,219.73021 814.583615,219.254783 814.583615,219.254783 L618.576167,219.254783 C618.576167,219.254783 617.506607,232.496318 618.281984,247.55398 C619.057361,262.611642 619.80476,266.099501 620.683751,273.053106 C620.683751,273.053106 1007.41005,273.053106 1032.50883,273.053106 C1057.60762,273.053106 1072.33985,289.973946 1071.39231,325.080249 C1071.39231,325.080249 1085.82588,293.867011 1087.4606,252.400071 C1089.3956,203.316189 1075.14128,160.079309 1075.14128,160.079309 Z" id="Path-3-Copy-5" fill="url(#linearGradient-18)"></path>
                    <path d="M727.114194,224 C727.114194,224 934.102571,235.797082 985.689948,241.877562 C1037.27732,247.958042 1058.47364,258.58227 1078.0716,274.859701 C1078.30325,275.052101 1082.03402,262.053915 1078.45664,275.563157 C1074.87926,289.072399 1056.94419,318 1056.94419,318 C1056.94419,318 944.953734,305.257833 852.812078,278.426517 C796.388349,261.996132 761.09549,248.976936 742.861531,238.48559 C724.627572,227.994245 727.114194,224 727.114194,224 Z" id="Path-28-Copy-4" fill="url(#linearGradient-19)"></path>
                    <g id="Group-31-Copy-2" stroke-width="1" fill="none" transform="translate(684.000000, 214.000000)">
                        <path d="M138,0.979859821 L22.6716262,1.24418749 C22.6716262,1.24418749 14.7378813,1.39695751 14.7378813,6.33107397 L14.7378813,37.362299 C14.7378813,37.362299 21.9470244,38.8691195 13.4302688,39.7631885 C4.91351325,40.6572575 0.0874251673,41 0.0874251673,41 L0.0874251673,4.76582725 C0.0874251673,4.76582725 -1.27768619,2.48932819e-16 6.78066098,0 L137.090444,0 L138,0.979859821 Z" id="Path-7-Copy-12" fill="#60C5B7"></path>
                        <g id="Group-30" transform="translate(7.000000, 0.000000)">
                            <path d="M173,0.990765234 L46.812382,1.25803475 C46.812382,1.25803475 37.3297354,1.41250504 37.3297354,6.40153606 C37.3297354,11.3905671 37.3297354,37.7781252 37.3297354,37.7781252 C37.3297354,37.7781252 29.1850163,39.8454037 19.005538,40.7494233 C8.82605978,41.6534429 3.05777651,42 3.05777651,42 C3.05777651,42 3.05777651,6.33644356 3.05777651,4.81886883 C3.05777651,3.3012941 1.79670954,0 11.05773,3.59576189e-17 C20.3187504,7.19152379e-17 171.912871,0 171.912871,0 L173,0.990765234 Z" id="Path-7-Copy-9" fill="#9FEADF"></path>
                            <path d="M167,0.979859821 L44.3724674,1.24418749 C44.3724674,1.24418749 34.7788268,1.39695751 34.7788268,6.33107397 C34.7788268,11.2651904 34.7788268,37.362299 34.7788268,37.362299 C34.7788268,37.362299 26.5387742,38.8691195 16.2401456,39.7631885 C5.941517,40.6572575 0.105716234,41 0.105716234,41 L0.105716234,4.76582725 C0.105716234,4.76582725 -1.54500331,2.75604192e-16 8.19930881,3.55618313e-17 C17.9436209,3.55618313e-17 165.900146,0 165.900146,0 L167,0.979859821 Z" id="Path-7-Copy-10" fill="#5FC2B3"></path>
                            <path d="M153.542835,0.979859821 L27.996728,1.24418749 C27.996728,1.24418749 18.6683049,1.39695751 18.6683049,6.33107397 L18.6683049,37.362299 C18.6683049,37.362299 30.8051059,38.8691195 20.7911844,39.7631885 C10.7772629,40.6572575 5.10279369,41 5.10279369,41 L5.10279369,4.76582725 C5.10279369,4.76582725 3.49770854,2.8449465e-16 12.9726377,3.55618313e-17 C22.4475669,3.55618313e-17 172,0 172,0 L153.542835,0.979859821 Z" id="Path-7-Copy-11" fill="#87D9CD"></path>
                            <path d="M145.372929,0.999170601 L36.6283327,1.26870756 C36.6283327,1.26870756 29.1029768,1.42448833 29.1029768,6.45584486 L29.1029768,38.0986239 C29.1029768,38.0986239 34.7711129,39.6351403 26.6927568,40.5468294 C18.6144008,41.4585184 21.501712,40.7127034 21.501712,40.7127034 L21.501712,4.85975073 C21.501712,4.85975073 20.2068696,2.90101384e-16 27.8504139,3.62626731e-17 C35.4939581,3.62626731e-17 156,0 156,0 L145.372929,0.999170601 Z" id="Path-7-Copy-13" fill="#78D1C4"></path>
                        </g>
                    </g>
                    <path d="M970,80 C969.116206,96.2156994 968.54924,106.627773 968.299102,111.236222 C968.048964,115.844671 968.174033,120.432597 968.67431,125 L966.029541,125 C965.943299,120.599637 966.04589,116.011711 966.337314,111.236222 C966.628738,106.460733 967.849633,96.0486592 970,80 Z" id="Rectangle-5-Copy-41" fill="#9D4C2A"></path>
                    <path d="M983.574397,77 C983.461739,96.3367796 983.461739,107.917523 983.574397,111.742232 C983.687054,115.56694 983.828922,119.986196 984,125 L981,125 C981.232741,120.061501 981.349112,115.642245 981.349112,111.742232 C981.349112,107.842219 982.090873,96.2614747 983.574397,77 Z" id="Rectangle-5-Copy-42" fill="#9D4C2A"></path>
                    <path d="M1013.19545,87 L1014.69861,115.505459 L1015,126 L1011,126 C1011.38562,122.164605 1011.66525,118.966597 1011.8389,116.405977 C1012.01256,113.845357 1012.46474,104.043365 1013.19545,87 Z" id="Rectangle-5-Copy-43" fill="#9D4C2A" transform="translate(1013.000000, 106.500000) scale(-1, 1) translate(-1013.000000, -106.500000) "></path>
                    <path d="M968.98121,81 C970.220599,97.7297253 970.893529,108.006501 971,111.830328 C971.106471,115.654154 971.106471,120.072392 971,125.08504 L968,125.08504 C968.05362,120.102211 968.08043,115.683974 968.08043,111.830328 C968.08043,107.976682 968.38069,97.6999058 968.98121,81 Z" id="Rectangle-5-Copy-44" fill="#C16843" transform="translate(969.539927, 103.042520) scale(-1, 1) translate(-969.539927, -103.042520) "></path>
                    <path d="M884.306192,80 C885.727438,96.1837187 886.491296,106.06003 886.597767,109.628935 C886.704239,113.19784 886.838316,117.321528 887,122 L884,122 C884.05362,117.34936 884.08043,113.225671 884.08043,109.628935 C884.08043,106.032199 884.155684,96.1558872 884.306192,80 Z" id="Rectangle-5-Copy-45" fill="#C16843"></path>
                    <path d="M891.204128,92 C892.151625,103.559799 892.660864,110.614307 892.731845,113.163525 C892.802826,115.712743 892.892211,118.658234 893,122 L891,122 C891.035747,118.678114 891.05362,115.732622 891.05362,113.163525 C891.05362,110.594428 891.10379,103.539919 891.204128,92 Z" id="Rectangle-5-Copy-46" fill="#C16843" transform="translate(892.000000, 107.000000) scale(-1, 1) translate(-892.000000, -107.000000) "></path>
                    <path d="M1013,88 C1014.62537,102.358671 1015.4913,111.194998 1015.59777,114.508981 C1015.70424,117.822964 1015.83832,121.652103 1016,125.996399 L1013,125.996399 C1013.05362,121.677947 1013.08043,117.848808 1013.08043,114.508981 C1013.08043,111.169155 1013.05362,102.332828 1013,88 Z" id="Rectangle-5-Copy-47" fill="#C16843"></path>
                    <path d="M983.408256,74 C985.30325,93.6516584 986.321728,105.644323 986.46369,109.977993 C986.605652,114.311663 986.784422,119.318999 987,125 L983,125 C983.071494,119.352794 983.10724,114.345458 983.10724,109.977993 C983.10724,105.610527 983.207579,93.6178631 983.408256,74 Z" id="Rectangle-5-Copy-48" fill="#C16843"></path>
                    <path d="M1001.30619,69 C1002.72744,90.9636183 1003.4913,104.367184 1003.59777,109.210698 C1003.70424,114.054211 1003.83832,119.650645 1004,126 L1001,126 C1001.05362,119.688417 1001.08043,114.091983 1001.08043,109.210698 C1001.08043,104.329413 1001.15568,90.925847 1001.30619,69 Z" id="Rectangle-5-Copy-49" fill="#C16843" transform="translate(1002.500000, 97.500000) scale(-1, 1) translate(-1002.500000, -97.500000) "></path>
                    <polygon id="Path-26-Copy-22" fill="url(#linearGradient-20)" transform="translate(969.000000, 97.500000) scale(-1, 1) translate(-969.000000, -97.500000) " points="967.833256 80 961 115 977 115"></polygon>
                    <polygon id="Path-26-Copy-23" fill="url(#linearGradient-20)" points="883.833256 78 877 110 893 110"></polygon>
                    <polygon id="Path-26-Copy-24" fill="url(#linearGradient-20)" transform="translate(891.500000, 101.500000) scale(-1, 1) translate(-891.500000, -101.500000) " points="890.552021 91 885 112 898 112"></polygon>
                    <polygon id="Path-26-Copy-25" fill="url(#linearGradient-20)" points="1012.83326 87 1006 116 1022 116"></polygon>
                    <polygon id="Path-26-Copy-26" fill="url(#linearGradient-20)" points="983.676963 74 973 112 998 112"></polygon>
                    <polygon id="Path-26-Copy-27" fill="url(#linearGradient-20)" transform="translate(1002.000000, 90.000000) scale(-1, 1) translate(-1002.000000, -90.000000) " points="1000.54157 69 992 111 1012 111"></polygon>
                    <path d="M954.913441,70 C956.471645,91.382022 957.321728,104.49479 957.46369,109.338303 C957.605652,114.181817 957.784422,119.778251 958,126.127606 L954,126.127606 C954.071494,119.816022 954.10724,114.219588 954.10724,109.338303 C954.10724,104.457019 954.375974,91.3442507 954.913441,70 Z" id="Rectangle-5-Copy-50" fill="#C16843"></path>
                    <path d="M954.8321,69 C955.243304,90.7675366 955.522047,104.102673 955.668331,109.00541 C955.814615,113.908147 955.925171,119.57301 956,126 L953,126 C953.07367,119.611243 953.110505,113.94638 953.110505,109.00541 C953.110505,104.06444 953.68437,90.7293035 954.8321,69 Z" id="Rectangle-5-Copy-51" fill="#9D4C2A"></path>
                    <polygon id="Path-26-Copy-28" fill="url(#linearGradient-20)" points="954.676963 68 944 110 969 110"></polygon>
                    <path d="M1037.19545,87 L1038.69861,115.505459 L1039,126 L1035,126 C1035.38562,122.164605 1035.66525,118.966597 1035.8389,116.405977 C1036.01256,113.845357 1036.46474,104.043365 1037.19545,87 Z" id="Rectangle-5-Copy-52" fill="#9D4C2A" transform="translate(1037.000000, 106.500000) scale(-1, 1) translate(-1037.000000, -106.500000) "></path>
                    <path d="M1060,83 C1061.64259,97.8083471 1062.64885,107.154729 1063.0188,111.039145 C1063.38874,114.923562 1063.71581,119.57718 1064,125 L1060,125 C1060.38562,121.214815 1060.66525,118.058674 1060.8389,115.531576 C1061.01256,113.004478 1060.73292,102.160619 1060,83 Z" id="Rectangle-5-Copy-53" fill="#9D4C2A" transform="translate(1062.000000, 104.000000) scale(-1, 1) translate(-1062.000000, -104.000000) "></path>
                    <path d="M1055.19545,77 L1056.69861,112.083642 L1057,125 L1053,125 C1053.38562,120.279514 1053.66525,116.343504 1053.8389,113.191972 C1054.01256,110.04044 1054.46474,97.9764489 1055.19545,77 Z" id="Rectangle-5-Copy-54" fill="#9D4C2A" transform="translate(1055.000000, 101.000000) scale(-1, 1) translate(-1055.000000, -101.000000) "></path>
                    <path d="M1025,76 C1027.72185,96.8288113 1029.19866,108.828121 1029.43043,111.997928 C1029.66221,115.167735 1029.88443,119.51949 1030.0971,125.053192 L1026.82408,125.053192 C1026.19087,121.383586 1025.93785,118.295957 1026.06501,115.790303 C1026.19217,113.28465 1025.83716,100.021216 1025,76 Z" id="Rectangle-5-Copy-55" fill="#9D4C2A" transform="translate(1027.548549, 100.526596) scale(-1, 1) translate(-1027.548549, -100.526596) "></path>
                    <path d="M1030,76 C1030.83383,94.6840279 1031.32173,106.192877 1031.46369,110.526547 C1031.60565,114.860217 1031.78442,119.867553 1032,125.548554 L1028,125.548554 C1028.07149,119.901348 1028.10724,114.894012 1028.10724,110.526547 C1028.10724,106.159081 1028.73816,94.6502325 1030,76 Z" id="Rectangle-5-Copy-56" fill="#C16843" transform="translate(1030.000000, 100.774277) scale(-1, 1) translate(-1030.000000, -100.774277) "></path>
                    <path d="M1037,86 C1038.62537,100.975174 1039.4913,110.247213 1039.59777,113.816118 C1039.70424,117.385023 1039.83832,121.508711 1040,126.187183 L1037,126.187183 C1037.05362,121.536542 1037.08043,117.412854 1037.08043,113.816118 C1037.08043,110.219382 1037.05362,100.947342 1037,86 Z" id="Rectangle-5-Copy-57" fill="#C16843"></path>
                    <path d="M1055,75 C1056.83133,94.0325286 1057.80023,105.715628 1057.9067,110.049298 C1058.01317,114.382968 1058.14725,119.390304 1058.30893,125.071305 L1055.30893,125.071305 C1055.36255,119.424099 1055.38936,114.416763 1055.38936,110.049298 C1055.38936,105.681833 1055.25957,93.9987332 1055,75 Z" id="Rectangle-5-Copy-58" fill="#C16843"></path>
                    <polygon id="Path-26-Copy-29" fill="url(#linearGradient-20)" points="1036.83326 82 1030 114 1046 114"></polygon>
                    <polygon id="Path-26-Copy-30" fill="url(#linearGradient-20)" points="1054.83326 74 1048 110 1064 110"></polygon>
                    <polygon id="Path-26-Copy-31" fill="url(#linearGradient-20)" points="1064.16674 82 1071 114 1055 114"></polygon>
                    <polygon id="Path-26-Copy-32" fill="url(#linearGradient-20)" transform="translate(1028.500000, 93.000000) scale(-1, 1) translate(-1028.500000, -93.000000) " points="1026.67696 74 1016 112 1041 112"></polygon>
                    <path d="M0.0337377367,145.039612 C0.0337377367,145.039612 35.1929418,140.755777 51.8460484,149.579863 C68.4991549,158.403948 79.8985127,172.424706 100.586637,176.679481 C121.274761,180.934256 161.990773,181.987266 189.564837,181.987266 C209.340735,181.987266 225.611868,193.002013 231.815415,196.498629 C238.018962,199.995245 239.710322,200.840586 239.710322,200.840586 C239.710322,200.840586 276.65572,216.012868 312.971743,220.192125 C316.195269,220.563089 323.97258,221.375659 326.877976,221.505632 C353.102718,222.678798 348.999986,226 348.999986,226 C348.999986,226 262.809704,218.743463 231.815415,218.743463 C200.821126,218.743463 31.1569741,226 31.1569741,226 C31.1569741,226 15.8484862,211.141549 7.45868971,188.031816 C-0.931106822,164.922083 0.0337377367,145.039612 0.0337377367,145.039612 Z" id="Path-2-Copy-4" fill="url(#linearGradient-21)"></path>
                    <path d="M0,146 C0,146 35.5636886,146.211453 52.2418603,154.92219 C68.9200321,163.632927 80.6231806,178.938712 101.342443,183.138833 C122.061706,187.338953 145.327483,188.519532 172.943049,188.519532 C200.558615,188.519532 213.987784,193.02032 231.757717,202.512232 C243.050935,208.54457 274.398437,214.93735 300.819748,217.996474 C315.972493,219.750896 326.667461,220.161866 336.695826,220.161866 C359.330368,220.161866 380.327241,230.974951 380.327241,230.974951 C380.327241,230.974951 260.603976,216.314103 185.717414,226 C110.830853,235.685897 28.7917267,273.140753 28.7917267,273.140753 C28.7917267,273.140753 16.2482651,210.761987 8.20856201,188.909704 C0.168858943,167.05742 0,146 0,146 Z" id="Path-2-Copy-5" fill="url(#linearGradient-22)"></path>
                    <path d="M139,234.759023 L139,210.851737 C139.922251,201.617246 144.004093,197 151.245525,197 C158.486958,197 162.568799,201.218516 163.49105,209.655548 L163.49105,229.566988 L139,234.759023 Z" id="Path-19-Copy" fill="#776C67"></path>
                    <g id="Group-35-Copy-2" stroke-width="1" fill="none" transform="translate(906.000000, 57.000000)">
                        <path d="M29.6750299,33.2732415 C29.6949698,33.3147776 29.7345464,33.3438533 29.7806529,33.3508395 C29.8267594,33.3578257 29.8733793,33.3418109 29.9050733,33.3080986 C30.7832198,32.3789387 34.6773681,26.6852472 35.2569006,21.8052514 C35.7247292,17.8663976 34.383178,14.3981149 32.9254991,12.5844558 C31.7531625,11.1269927 28.9804758,7.20665682 21.3359563,7.45937089 C13.480195,7.71862066 7.56542503,15.2172571 9.3615332,22.8912683 C10.7694431,28.9052096 14.1094965,32.7405813 14.9920669,33.4246521 C15.0282349,33.4529323 15.0762062,33.4618957 15.1203774,33.4486268 C15.1645485,33.435358 15.1992754,33.4015523 15.2132624,33.3582057 L17.3588596,30.2994941 C17.3746842,30.2525319 17.4145945,30.217348 17.4637318,30.2070416 C17.5128691,30.1967351 17.5638716,30.2128501 17.5977509,30.249387 L20.0928371,33.3135451 C20.1215082,33.3452787 20.1633034,33.3624085 20.2063679,33.3600757 C20.2494323,33.3577429 20.2890681,33.336202 20.3140327,33.3015629 L22.401013,30.2842441 C22.4274865,30.2468457 22.4708517,30.224557 22.5171407,30.224557 C22.5634298,30.224557 22.606795,30.2468457 22.6332684,30.2842441 L24.556564,33.2002595 C24.5817612,33.2373736 24.6234806,33.2603586 24.6687778,33.2620828 C24.714075,33.263807 24.7574711,33.2440619 24.7855015,33.2089737 L27.2993893,30.039155 C27.3294886,30.001248 27.3773073,29.9813075 27.4258925,29.9864028 C27.4744776,29.9914982 27.5169608,30.0209091 27.5382806,30.0642086 L29.6750299,33.2732415 Z" id="Shape" stroke="#000000" stroke-width="2" fill="#FFDF00" fill-rule="nonzero" transform="translate(22.194822, 20.451174) rotate(-8.000000) translate(-22.194822, -20.451174) "></path>
                        <rect id="Rectangle-path" fill="#000000" fill-rule="nonzero" transform="translate(22.232004, 23.391279) rotate(-8.000000) translate(-22.232004, -23.391279) " x="9.44753183" y="21.0822509" width="25.5689453" height="4.61805556"></rect>
                        <polygon id="Shape" fill="#000000" fill-rule="nonzero" transform="translate(21.098807, 15.328158) rotate(-8.000000) translate(-21.098807, -15.328158) " points="33.8832795 17.7587141 8.31433418 17.7587141 10.2388062 12.8976029 29.6704882 12.9206206"></polygon>
                        <path d="M24.9531881,13.6706564 C24.9531881,13.6706564 22.6295627,10.5136097 17.6794245,11.6362378 C12.7292863,12.758866 12.9416427,17.518721 12.9416427,17.518721 C12.9416427,17.518721 11.8899199,26.1288484 25.2784286,24.2522821 C37.0239699,22.6108386 33.603915,15.2756724 32.2582464,13.6706564 C30.8868715,12.0347322 27.8814704,9.96278231 24.9531881,13.6706564 Z" id="Shape" stroke="#000000" stroke-width="4" fill="#FFDF00" fill-rule="nonzero" transform="translate(23.348426, 17.957326) rotate(-8.000000) translate(-23.348426, -17.957326) "></path>
                        <path d="M25.1683873,14.2899748 C25.1683873,14.2899748 23.2770735,11.1684941 18.2957894,12.2916075 C13.3145052,13.4147209 13.5247762,18.3851894 13.5247762,18.3851894 C13.5247762,18.3851894 12.723048,25.7623294 25.9363821,25.134935 C37.2167981,24.5993815 34.3348497,16.2828096 33.1328197,14.5566451 C31.8599498,12.7297877 28.1144289,10.5742952 25.1683873,14.2899748 Z" id="Shape" fill="#FFFFFF" fill-rule="nonzero" transform="translate(23.941559, 18.610299) rotate(-8.000000) translate(-23.941559, -18.610299) "></path>
                        <ellipse id="Oval" fill="#FEE7E2" fill-rule="nonzero" transform="translate(25.857429, 17.972874) rotate(-11.140000) translate(-25.857429, -17.972874) " cx="25.857429" cy="17.9728745" rx="4.71660156" ry="1.57986111"></ellipse>
                        <ellipse id="Oval" fill="#231F20" fill-rule="nonzero" transform="translate(23.442031, 16.839671) rotate(-8.000000) translate(-23.442031, -16.839671) " cx="23.4420315" cy="16.8396713" rx="1" ry="1"></ellipse>
                        <ellipse id="Oval" fill="#231F20" fill-rule="nonzero" transform="translate(27.866905, 16.217796) rotate(-8.000000) translate(-27.866905, -16.217796) " cx="27.8669051" cy="16.2177958" rx="1" ry="1"></ellipse>
                        <polygon id="Shape" fill="#000000" fill-rule="nonzero" transform="translate(23.352808, 30.474364) rotate(-8.000000) translate(-23.352808, -30.474364) " points="32.1559258 32.661864 29.9931764 32.661864 28.5017391 30.2217452 26.9463673 32.661864 24.8795196 32.661864 23.6449226 30.1904473 22.4511113 32.661864 20.1726184 32.661864 18.6381907 30.2217452 17.4245377 32.661864 14.7899959 32.661864 12.1819097 28.286864 34.5237065 28.286864"></polygon>
                        <path d="M5.72215934,31.677717 L9.45563819,28.2771923 C9.57793741,28.1663379 9.74995193,28.1194522 9.91577981,28.1517723 C10.0816077,28.1840925 10.2200812,28.2914928 10.2861986,28.4390699 L11.7301493,31.6733419 C11.7962823,31.8219969 11.78053,31.991995 11.6880684,32.1274749 C11.5956069,32.2629547 11.4383922,32.3463976 11.2680851,32.3503843 L6.09065555,32.5166371 C5.87860773,32.5209 5.68546852,32.4016834 5.60402021,32.2162578 C5.5225719,32.0308322 5.56945977,31.8170924 5.72215934,31.677717 Z" id="Shape" fill="#000000" fill-rule="nonzero" transform="translate(8.667528, 30.329248) rotate(-8.000000) translate(-8.667528, -30.329248) "></path>
                        <ellipse id="Oval" fill="#A4DDEB" fill-rule="nonzero" opacity="0.49" transform="translate(9.285723, 6.188834) rotate(-33.200000) translate(-9.285723, -6.188834) " cx="9.28572276" cy="6.18883432" rx="3.35126953" ry="5.10416667"></ellipse>
                        <ellipse id="Oval" fill="#A4DDEB" fill-rule="nonzero" opacity="0.49" transform="translate(6.148596, 8.838727) rotate(-73.980000) translate(-6.148596, -8.838727) " cx="6.14859555" cy="8.83872661" rx="3.35126953" ry="5.10416667"></ellipse>
                        <path d="M27.488452,3.46638935 C27.5409966,3.79910981 27.4670192,4.14038574 27.2827938,4.41514032 C27.0985683,4.6898949 26.8191858,4.87562168 26.506107,4.93146287 C26.2776824,4.97572981 26.0419225,4.94114457 25.8333245,4.8327678 C25.7652208,4.79877283 24.9521033,6.01491545 24.5455445,7.16745457 C24.4640264,7.3999363 24.2669383,7.16745457 24.2782889,7.06656628 C24.4072733,5.91073731 25.4866145,4.60576913 25.4401801,4.55313176 C25.0873927,4.15726193 25.0112265,3.56648263 25.2508184,3.08435692 C25.4904103,2.6022312 25.9924729,2.33598823 26.4990288,2.42243295 C27.0055848,2.50887767 27.4039715,2.92878398 27.4894838,3.46638935 L27.488452,3.46638935 Z" id="Shape" fill="#000000" fill-rule="nonzero" transform="translate(25.891393, 4.836836) rotate(-8.000000) translate(-25.891393, -4.836836) "></path>
                        <path d="M31.3775165,5.40263805 C31.3132,5.72971585 31.1205581,6.01799421 30.8420252,6.20397243 C30.5634922,6.38995064 30.2219173,6.45837224 29.8925411,6.39416561 C29.6510636,6.34992126 29.4302107,6.23004601 29.2623532,6.05211025 C29.2067484,5.99582266 27.9779912,6.8195699 27.1722667,7.73316079 C27.0098134,7.91717791 26.8975135,7.63032769 26.9433057,7.54156649 C27.4753674,6.52081268 28.9995933,5.7143847 28.9712457,5.64835503 C28.7604012,5.15210591 28.891812,4.57762939 29.2978714,4.22047492 C29.7039308,3.86332045 30.2941868,3.8030463 30.7649719,4.07066156 C31.235757,4.33827682 31.482201,4.8741686 31.3775165,5.40263805 Z" id="Shape" fill="#000000" fill-rule="nonzero" transform="translate(29.167182, 5.849119) rotate(-8.000000) translate(-29.167182, -5.849119) "></path>
                    </g>
                    <g id="Group-7-Copy-2" stroke-width="1" fill="none" transform="translate(732.000000, 178.000000)">
                        <path d="M23.1538462,2 C23.1538462,5.50167778 23.1538462,8.17031796 23.1538462,10.0059205 C23.1538462,11.8415231 23.1538462,14.5101633 23.1538462,18.0118411 L45.0905568,18.0118411 L39.5424063,10.2664414 L45.0905568,2 L23.1538462,2 Z" id="Path-38" stroke="#1EE29A" stroke-width="2" fill="#FFFFFF"></path>
                        <g id="Page-1-Copy" transform="translate(0.076923, 0.050091)">
                            <path d="M20.9489378,32.1777528 C20.9880993,32.2589654 21.0956933,32.2758304 21.1568332,32.2097761 C21.9501522,31.35348 25.4676895,26.1063825 25.9912741,21.6089707 C26.413958,17.9789979 25.2025505,14.7818914 23.8853472,13.1111603 C22.8258901,11.7673877 20.3212557,8.15518336 13.4158535,8.38777868 C6.31973902,8.62679874 0.977498004,15.5367972 2.60000079,22.6094217 C3.87154906,28.151856 6.88927836,31.6861606 7.68649357,32.31729 C7.75622492,32.3724021 7.85872402,32.34068 7.88629688,32.2559539 L9.82478859,29.4371033 C9.8553585,29.3434428 9.97514059,29.3179446 10.0408759,29.391026 L12.2943575,32.2149962 C12.348704,32.2754288 12.4447095,32.2703091 12.4923626,32.2044556 L14.3775068,29.4236515 C14.4297554,29.3514737 14.5375493,29.3535818 14.5869007,29.4277674 L16.3238908,32.1153125 C16.3722432,32.1878919 16.4771399,32.1918069 16.5306872,32.1229419 L18.8013519,29.2012956 C18.8594947,29.1264074 18.9756803,29.1388553 19.0168398,29.2242841 L20.9489378,32.1777528 Z" id="Fill-1" fill="#FEFEFE"></path>
                            <path d="M20.9489378,32.1777528 C20.9880993,32.2589654 21.0956933,32.2758304 21.1568332,32.2097761 C21.9501522,31.35348 25.4676895,26.1063825 25.9912741,21.6089707 C26.413958,17.9789979 25.2025505,14.7818914 23.8853472,13.1111603 C22.8258901,11.7673877 20.3212557,8.15518336 13.4158535,8.38777868 C6.31973902,8.62679874 0.977498004,15.5367972 2.60000079,22.6094217 C3.87154906,28.151856 6.88927836,31.6861606 7.68649357,32.31729 C7.75622492,32.3724021 7.85872402,32.34068 7.88629688,32.2559539 L9.82478859,29.4371033 C9.8553585,29.3434428 9.97514059,29.3179446 10.0408759,29.391026 L12.2943575,32.2149962 C12.348704,32.2754288 12.4447095,32.2703091 12.4923626,32.2044556 L14.3775068,29.4236515 C14.4297554,29.3514737 14.5375493,29.3535818 14.5869007,29.4277674 L16.3238908,32.1153125 C16.3722432,32.1878919 16.4771399,32.1918069 16.5306872,32.1229419 L18.8013519,29.2012956 C18.8594947,29.1264074 18.9756803,29.1388553 19.0168398,29.2242841 L20.9489378,32.1777528 Z" id="Stroke-3" stroke="#E65485" stroke-width="2"></path>
                            <path d="M17.4344384,16.7779692 C14.6311387,16.9557767 12.4052,18.0789896 12.462625,19.2867544 C12.5200501,20.4943809 14.8391849,21.3292611 17.6424846,21.1514536 C20.4457844,20.9735079 22.6717231,19.8504332 22.614298,18.6426684 C22.556873,17.4349037 20.2377382,16.6001617 17.4344384,16.7779692 Z" id="Fill-5" fill="#FCE6E1"></path>
                            <path d="M15.6923077,16.7540995 C15.6923077,17.2681477 15.3823303,17.6848828 15,17.6848828 C14.6176697,17.6848828 14.3076923,17.2681477 14.3076923,16.7540995 C14.3076923,16.2400513 14.6176697,15.8233162 15,15.8233162 C15.3823303,15.8233162 15.6923077,16.2400513 15.6923077,16.7540995" id="Fill-7" fill="#231F20"></path>
                            <path d="M20.3076923,16.7540995 C20.3076923,17.2681477 19.9977149,17.6848828 19.6153846,17.6848828 C19.2330543,17.6848828 18.9230769,17.2681477 18.9230769,16.7540995 C18.9230769,16.2400513 19.2330543,15.8233162 19.6153846,15.8233162 C19.9977149,15.8233162 20.3076923,16.2400513 20.3076923,16.7540995" id="Fill-9" fill="#231F20"></path>
                            <path d="M10.5621871,0.422976376 C10.446453,0.791865521 10.3588786,1.16921404 10.2948704,1.55069154 L10.142389,3.47590415 C10.138195,3.53381058 10.1934159,3.50279288 10.142389,3.47590415 L6.42312179,1.36236976 C6.36909925,1.33376901 6.30459174,1.37425316 6.3060896,1.43568433 L6.63491811,5.14028605 C6.63651582,5.2057455 6.56411963,5.24572611 6.5102968,5.20916953 L3.2840227,3.06209976 C3.23089888,3.02604671 3.15940139,3.06431531 3.15940139,3.1289691 L3.4873312,7.5388208 C3.48723134,7.5992449 3.42382226,7.63811774 3.37059857,7.61042336 L0.640113602,6.65129144 C0.0190041629,6.44615162 -0.364545894,6.39660385 0.518987276,7.01343323 C0.810369485,7.21686104 0.96045429,7.47366348 1.2511375,8.00046094 L3.79508993,12.2166534 L3.80217976,12.212323 C3.8210527,12.2543178 3.84212249,12.2952047 3.86578856,12.3347825 C4.60832389,13.5742823 8.9499987,13.0997517 11.7745488,11.3788732 C14.598999,9.65789407 15.2243025,7.98908107 14.4817671,6.74968202 C14.4581011,6.71000353 14.4320384,6.67213776 14.4039787,6.6358833 L14.4110685,6.6315529 L11.6240646,1.56489121 C11.0537822,0.750172891 10.9237687,-0.729210551 10.5621871,0.422976376" id="Fill-11" fill="#EC208B"></path>
                            <path d="M12.3350144,1.23122397 C12.2205958,1.60084829 11.8886929,3.04120251 11.8254122,3.42354118 L11.5264824,5.22998796 C11.5224348,5.28800979 11.4614247,5.32282289 11.4109778,5.29577967 L8.57292186,1.95463012 C8.51961205,1.92607329 8.45583773,1.96653721 8.45721984,2.02819172 L7.94337257,6.96347858 C7.94495212,7.02906848 7.87347749,7.06912878 7.82016769,7.03249934 L4.04020648,5.35218699 C3.98768645,5.31606209 3.9170016,5.35450786 3.9170016,5.41918959 L4.83156089,9.36679346 C4.83156089,9.42733798 4.76887251,9.4663892 4.71625376,9.43863963 L1.09434624,8.24238074 C0.480395002,8.03683209 0.101105624,7.98718558 0.974596623,8.60524426 C1.26276573,8.80907749 2.03802848,9.21815665 2.32550653,9.746004 L3.92687378,12.4434644 C3.94543349,12.4854419 3.9662638,12.5264103 3.98975961,12.5661679 C4.72375662,13.808037 9.01608428,13.3325607 11.8085307,11.6082526 C14.6009772,9.8839446 15.2190748,8.21180576 14.4850778,6.96983576 C14.461582,6.93007819 13.1432503,5.1181824 14.4221919,6.84713219 L14.415084,6.85147121 L12.8758128,3.3809582 C12.3121109,2.5646162 12.6924863,0.0767408033 12.3350144,1.23122397" id="Fill-13" fill="#EE79AF"></path>
                            <path d="M3.23076923,8.92116479 C3.23076923,8.92116479 3.79029034,9.22095275 4.09495105,9.80088213 C4.39961175,10.3808115 6.2201009,13.2636621 6.2201009,13.2636621 C6.2201009,13.2636621 7.24105772,13.2167344 7.58763958,13.1514834 C7.95513151,13.0821606 4.5505279,7.9116581 4.5505279,7.9116581 L4.8959986,9.3347602 L3.23076923,8.92116479 Z" id="Fill-15" fill="#F7D4E4"></path>
                        </g>
                    </g>
                    <polygon id="Path-22-Copy" fill="#FFD252" points="725 203 730.436936 214.495434 768.465126 214.495434 773.853485 203"></polygon>
                    <polygon id="Path-31-Copy-2" fill="#E65485" points="728 208 772.54884 208 770.388203 212.297861 730.152392 212.297861"></polygon>
                    <g id="Group-35-Copy-3" stroke-width="1" fill="none" transform="translate(74.000000, 86.000000)">
                        <g id="Group-33">
                            <path d="M218.918494,10.1757723 C208.885525,18.9822694 179.112347,39.9626332 134.092708,50.3524121 C89.0730698,60.7421909 -15.1025222,63.3240801 9.79326828,50.3524121 C12.9103769,48.7282782 17.4753471,47.4156489 20.7873609,46.217196 C27.950933,43.6250558 34.9839924,41.6309995 41.886539,40.235027 C19.2823025,43.9819783 5.79424225,48.1491343 1.42235828,52.7364949 C-5.13546768,59.6175358 7.77793755,70.7880245 108.864699,63.7681351 C168.265463,59.6430965 235.521453,36.6484331 239.892481,25.4600609 C241.280555,21.9070549 228.951464,1.36927522 218.918494,10.1757723 Z" id="Path-40-Copy" fill="url(#linearGradient-23)" opacity="0.739923007"></path>
                            <g id="Group-32" transform="translate(214.000000, 0.000000)">
                                <path d="M32.0781589,27.7496477 C30.3813391,27.7496477 27.8888127,26.8681097 26.9794493,25.8038882 C26.4022635,25.1283181 26.0631384,24.3040115 26.0631384,23.4143132 C26.0631384,22.1060421 26.7963174,20.9392174 27.9416789,20.1787794 C28.8024098,19.6074444 30.7484714,19.3121477 31.938666,19.3121477 C34.7127835,19.3121477 35.8919055,21.122989 35.8919055,23.4143132 C35.8919055,25.7056373 34.8522764,27.7496477 32.0781589,27.7496477 Z" id="Fill-1-Copy" fill="#3CC4E6" transform="translate(30.977522, 23.530898) rotate(18.000000) translate(-30.977522, -23.530898) "></path>
                                <path d="M23.6939023,29.2174897 C23.7365584,29.3057098 23.8537539,29.3240299 23.9203497,29.2522761 C24.7844627,28.3220947 28.6158968,22.6222528 29.1863136,17.736783 C29.646608,13.793599 28.3270974,10.3206309 26.8923499,8.50574122 C25.7383494,7.04602161 23.0102073,3.12213913 15.4885831,3.37480388 C7.75922801,3.63444772 1.9402579,11.1406736 3.70754904,18.8235576 C5.0925673,24.8442195 8.3795917,28.6834805 9.24794853,29.3690668 C9.32390255,29.4289343 9.43554843,29.394475 9.46558183,29.3024383 L11.57706,26.240364 C11.6103579,26.138622 11.7408291,26.1109237 11.8124304,26.1903109 L14.2670075,29.2579466 C14.3262037,29.3235937 14.4307765,29.3180322 14.4826821,29.2464966 L16.5360522,26.2257515 C16.5929633,26.1473459 16.7103764,26.1496359 16.7641319,26.2302225 L18.6561269,29.1496617 C18.7087941,29.2285036 18.8230516,29.2327565 18.8813773,29.1579494 L21.3546709,25.9842097 C21.4180021,25.9028597 21.5445559,25.9163817 21.5893884,26.0091817 L23.6939023,29.2174897 Z" id="Fill-3-Copy" fill="#00BBF1" transform="translate(16.334361, 16.381006) rotate(18.000000) translate(-16.334361, -16.381006) "></path>
                                <path d="M23.6939023,29.2174897 C23.7365584,29.3057098 23.8537539,29.3240299 23.9203497,29.2522761 C24.7844627,28.3220947 28.6158968,22.6222528 29.1863136,17.736783 C29.646608,13.793599 28.3270974,10.3206309 26.8923499,8.50574122 C25.7383494,7.04602161 23.0102073,3.12213913 15.4885831,3.37480388 C7.75922801,3.63444772 1.9402579,11.1406736 3.70754904,18.8235576 C5.0925673,24.8442195 8.3795917,28.6834805 9.24794853,29.3690668 C9.32390255,29.4289343 9.43554843,29.394475 9.46558183,29.3024383 L11.57706,26.240364 C11.6103579,26.138622 11.7408291,26.1109237 11.8124304,26.1903109 L14.2670075,29.2579466 C14.3262037,29.3235937 14.4307765,29.3180322 14.4826821,29.2464966 L16.5360522,26.2257515 C16.5929633,26.1473459 16.7103764,26.1496359 16.7641319,26.2302225 L18.6561269,29.1496617 C18.7087941,29.2285036 18.8230516,29.2327565 18.8813773,29.1579494 L21.3546709,25.9842097 C21.4180021,25.9028597 21.5445559,25.9163817 21.5893884,26.0091817 L23.6939023,29.2174897 Z" id="Stroke-5-Copy" stroke="#A9DEF2" stroke-width="2" transform="translate(16.334361, 16.381006) rotate(18.000000) translate(-16.334361, -16.381006) "></path>
                                <path d="M20.2699113,10.0871499 C20.2699113,10.0871499 17.9997395,6.9558944 13.161672,8.06917859 C8.32360457,9.18246278 8.53166179,13.904093 8.53166179,13.904093 C8.53166179,13.904093 7.5039356,22.4396003 20.5871849,20.5835791 C32.064298,18.955427 28.7227135,11.6788386 27.4080759,10.0871499 C26.0683185,8.46502027 23.1315991,6.40970953 20.2699113,10.0871499" id="Fill-7-Copy" fill="#D7D7D7" transform="translate(18.701072, 14.338734) rotate(18.000000) translate(-18.701072, -14.338734) "></path>
                                <path d="M19.7708569,11.0176086 C19.7708569,11.0176086 17.9449089,7.91941393 13.1348564,9.03514592 C8.3248039,10.1507682 8.52763875,15.0788862 8.52763875,15.0788862 C8.52763875,15.0788862 7.75376083,22.3953972 20.5134626,21.7730586 C31.4067146,21.2419145 28.6234904,12.989207 27.4639222,11.2815346 C26.2335573,9.46960868 22.6159739,7.33208261 19.7708569,11.0176086" id="Fill-9-Copy" fill="#FEFEFE" transform="translate(18.587076, 15.301694) rotate(18.000000) translate(-18.587076, -15.301694) "></path>
                                <path d="M25.4444005,15.8636587 C25.3928812,14.8758402 23.3122544,14.1931132 20.7972558,14.3385401 C18.2822572,14.4839671 16.2852418,15.4026315 16.3367611,16.39045 C16.3882803,17.3781555 18.4689072,18.0609955 20.9839058,17.9155685 C23.4989044,17.7700286 25.4959197,16.8514771 25.4444005,15.8636587" id="Fill-11-Copy" fill="#FCE6E1" transform="translate(20.890581, 16.127053) rotate(18.000000) translate(-20.890581, -16.127053) "></path>
                                <path d="M19.4300307,13.9876525 C19.4300307,14.4536344 19.1616902,14.8314025 18.8307156,14.8314025 C18.4997409,14.8314025 18.2314005,14.4536344 18.2314005,13.9876525 C18.2314005,13.5216706 18.4997409,13.1439025 18.8307156,13.1439025 C19.1616902,13.1439025 19.4300307,13.5216706 19.4300307,13.9876525" id="Fill-13-Copy" fill="#231F20" transform="translate(18.830716, 13.987652) rotate(18.000000) translate(-18.830716, -13.987652) "></path>
                                <path d="M23.4300307,14.9876525 C23.4300307,15.4536344 23.1616902,15.8314025 22.8307156,15.8314025 C22.4997409,15.8314025 22.2314005,15.4536344 22.2314005,14.9876525 C22.2314005,14.5216706 22.4997409,14.1439025 22.8307156,14.1439025 C23.1616902,14.1439025 23.4300307,14.5216706 23.4300307,14.9876525" id="Fill-15-Copy" fill="#231F20" transform="translate(22.830716, 14.987652) rotate(18.000000) translate(-22.830716, -14.987652) "></path>
                                <path d="M23.1120691,4.63721756 C23.1266214,4.79029361 22.9883197,4.92866091 22.8048293,4.94463041 L19.658466,4.99810722 C19.6353792,5.0001034 19.1447584,5.83240846 19.1240788,5.82799583 C19.1085417,5.82473889 19.0949742,5.81906552 19.0806407,5.81433771 C19.1375369,5.83535021 19.1987004,5.84680202 19.2638029,5.84112864 L23.0306637,5.61944679 C23.2479636,5.60043048 23.4116498,5.43663805 23.3944715,5.25540526 L23.1120691,4.63721756 Z" id="Fill-17-Copy" fill="#0495BB" transform="translate(21.238175, 5.239896) rotate(18.000000) translate(-21.238175, -5.239896) "></path>
                                <path d="M20.4299526,4.34996013 L19.8838429,3.41515958 C19.8736191,3.30560915 19.9372591,3.20419421 20.0384629,3.14390248 L20.0314556,3.14390248 L19.5532363,3.45405388 C19.3671408,3.59347156 19.2148183,3.66657947 19.2328534,3.85882207 L19.8195136,4.83140248 C19.8398462,4.79964066 20.4378789,4.36299919 20.4299526,4.34996013" id="Fill-19-Copy" fill="#D5EEF6" transform="translate(19.830716, 3.987652) rotate(18.000000) translate(-19.830716, -3.987652) "></path>
                                <path d="M19.2323211,5.28692349 L19.1327051,5.13003676 C19.1321446,5.13093989 19.1299029,5.13287517 19.130043,5.13326222 C19.2397467,5.311179 19.3627606,5.53463938 19.6094888,5.61217961 C19.4392589,5.55166985 19.303075,5.41929667 19.2323211,5.28692349" id="Fill-21-Copy" fill="#79D0E8" transform="translate(19.630037, 5.630037) rotate(18.000000) translate(-19.630037, -5.630037) "></path>
                                <g id="Group-25-Copy" transform="translate(21.841167, 5.199127) rotate(18.000000) translate(-21.841167, -5.199127) translate(19.341167, 3.699127)">
                                    <mask id="mask-25" fill="white">
                                        <use xlink:href="#path-24"></use>
                                    </mask>
                                    <g id="Clip-24"></g>
                                    <path d="M0.971524132,1.24582505 L4.16762991,1.19033149 C4.35401477,1.17375973 4.49438691,1.03017423 4.47960505,0.871325265 L3.96324008,0.330126739 C3.7866357,0.155578222 3.66026743,-0.000218049366 3.43965089,0.0195154182 L0.218093625,0.0346698491 C0.120288809,0.0936522025 0.0586050902,0.192864664 0.0686078554,0.300035927 L0.511619214,1.02374177 C0.519176859,1.03660668 0.0259293904,1.65444956 0.00625728537,1.6855216 L0.0853902727,1.81809561 C0.141405758,1.92995493 0.249435623,2.04181426 0.384584096,2.09283781 C0.399254818,2.09774392 0.413036406,2.10363125 0.428818546,2.10712004 C0.449713212,2.11159006 0.948073205,1.24789652 0.971524132,1.24582505" id="Fill-23" fill="#79D0E8" mask="url(#mask-25)"></path>
                                </g>
                                <path d="M24.9434005,7.74833668 C24.9434005,7.96273908 24.7651626,8.13808961 24.5472299,8.13808961 L20.8163546,8.14148067 C20.7890018,8.14148067 20.1365378,8.92722169 20.1127431,8.91857997 C20.0948415,8.91212602 20.0793861,8.90260917 20.0630411,8.89429561 C20.1276426,8.93039397 20.1984708,8.95369383 20.2758591,8.95369383 L24.6280652,8.95369383 C24.8861376,8.95369383 25.0972877,8.74596416 25.0972877,8.49207234 L24.9434005,7.74833668 Z" id="Fill-26-Copy" fill="#0495BB" transform="translate(22.580164, 8.351015) rotate(18.000000) translate(-22.580164, -8.351015) "></path>
                                <path d="M20.5044723,6.74584267 L20.0271055,5.46777436 C20.0271055,5.32410163 20.1033645,5.19965042 20.2145024,5.13286377 L20.207279,5.1321036 L19.6790384,5.48048011 C19.4716223,5.64033367 19.3058957,5.71787134 19.3058957,5.96981445 L19.8217532,7.30174646 C19.8460033,7.26276043 20.5113862,6.76376104 20.5044723,6.74584267" id="Fill-28-Copy" fill="#D5EEF6" transform="translate(19.905211, 6.216925) rotate(18.000000) translate(-19.905211, -6.216925) "></path>
                                <path d="M19.2266018,8.28259326 L19.1332605,8.13003676 C19.1324559,8.13075131 19.1299077,8.13235904 19.1300419,8.13271632 C19.2321004,8.30554819 19.3442172,8.52143172 19.6094888,8.61217961 C19.4270978,8.5432255 19.2905728,8.41040845 19.2266018,8.28259326" id="Fill-30-Copy" fill="#79D0E8" transform="translate(19.630037, 8.630037) rotate(18.000000) translate(-19.630037, -8.630037) "></path>
                                <path d="M24.4037339,6.59812972 L24.9379234,7.3869981 L24.2522228,6.11462266 C24.1332332,5.89838909 23.8833881,5.72342649 23.6680423,5.72342649 L20.3353462,5.6994981 C20.2653589,5.6994981 20.2004255,5.71958477 20.1434028,5.75207469 L23.9400812,6.13492886 C24.1950902,6.13492886 24.4037339,6.34336925 24.4037339,6.59812972" id="Fill-32-Copy" fill="#79D0E8" transform="translate(22.540663, 6.543248) rotate(18.000000) translate(-22.540663, -6.543248) "></path>
                                <path d="M20.4658783,7.83397887 L24.1956987,7.8304748 C24.4135764,7.8304748 24.5918803,7.64916714 24.5918803,7.42773217 L24.0514104,6.61535179 C24.0514104,6.35299825 23.8403137,6.13834536 23.5823065,6.13834536 L19.7409905,5.74408033 C19.6211578,5.81359667 19.5391202,5.94313443 19.5391202,6.09267934 L20.0240091,7.31175857 C20.031457,7.33040929 19.3440308,7.96102987 19.3179077,8.00160933 L19.3952765,8.1946726 C19.4483008,8.35642525 19.5614638,8.52450785 19.7126442,8.61188367 C19.7290962,8.62036127 19.7444365,8.63019529 19.7623336,8.63686434 C19.7862335,8.64579408 20.4385324,7.83397887 20.4658783,7.83397887" id="Fill-34-Copy" fill="#79D0E8" transform="translate(21.954894, 7.190509) rotate(18.000000) translate(-21.954894, -7.190509) "></path>
                                <path d="M35.0019776,20.5159424 C35.0019776,20.5159424 36.2049834,19.061259 30.0630411,20.1569945 L30.1016718,20.5543526 C30.1016718,20.5543526 33.6710565,20.0261075 33.4250226,20.9536938 L35.0019776,20.5159424 Z" id="Fill-52-Copy" fill="#E9F6FB" transform="translate(32.580164, 20.351015) rotate(18.000000) translate(-32.580164, -20.351015) "></path>
                                <path d="M33.8843735,25.6680686 C33.8843735,25.6680686 34.993709,25.6499258 34.4917433,26.2477697 C33.0009668,28.0231587 30.4193971,27.8021857 27.1906139,26.2665644 L27.5398267,25.0892366 C27.5398267,25.0892366 31.0796344,26.3924777 31.0213587,25.3961436 L33.8843735,25.6680686 Z" id="Fill-54-Copy" fill="#0495BB" transform="translate(30.906367, 26.294594) rotate(18.000000) translate(-30.906367, -26.294594) "></path>
                                <path d="M35.1034133,24.4179854 C35.1034133,22.8203157 34.1374789,21.5251282 32.9459344,21.5251282 C31.7542792,21.5251282 30.7883448,22.8203157 30.7883448,24.4179854 C30.7883448,26.015655 31.7542792,27.3108425 32.9459344,27.3108425 C34.1374789,27.3108425 35.1034133,26.015655 35.1034133,24.4179854" id="Fill-56-Copy" fill="#0495BB" transform="translate(32.945879, 24.417985) rotate(18.000000) translate(-32.945879, -24.417985) "></path>
                                <path d="M34.5611991,24.1146334 C34.5611991,22.6501346 33.7025208,21.4628477 32.6433909,21.4628477 C31.5842609,21.4628477 30.7255826,22.6501346 30.7255826,24.1146334 C30.7255826,25.5791322 31.5842609,26.7664191 32.6433909,26.7664191 C33.7025208,26.7664191 34.5611991,25.5791322 34.5611991,24.1146334" id="Fill-58-Copy" fill="#ED2643" transform="translate(32.643391, 24.114633) rotate(18.000000) translate(-32.643391, -24.114633) "></path>
                                <path d="M34.4494563,24.0781074 C34.4494563,22.6964374 33.6591452,21.480546 32.4350694,21.480546 C31.4470127,21.480546 30.6138399,22.6659993 30.6138399,24.0476694 C30.6138399,24.8055768 30.8548948,25.4847801 31.235614,25.943525 C31.5488511,26.3210655 30.9939995,25.6670823 31.4399623,25.6670823 C32.3571798,25.6670823 33.4147329,25.0715836 33.8056359,23.8829778 C34.1053319,22.9719017 34.4494563,24.1770311 34.4494563,24.0781074" id="Fill-60-Copy" fill="#B0172F" transform="translate(32.531648, 23.770725) rotate(18.000000) translate(-32.531648, -23.770725) "></path>
                                <path d="M33.4395231,24.3932932 C33.4395231,23.2616364 32.795572,22.3441861 32.0011669,22.3441861 C31.2068683,22.3441861 30.5628108,23.2616364 30.5628108,24.3932932 C30.5628108,25.52495 31.2068683,26.4424003 32.0011669,26.4424003 C32.795572,26.4424003 33.4395231,25.52495 33.4395231,24.3932932" id="Fill-62-Copy" fill="#8B071F" transform="translate(32.001167, 24.393293) rotate(18.000000) translate(-32.001167, -24.393293) "></path>
                            </g>
                        </g>
                        <g id="Group-34" transform="translate(217.000000, 6.000000)">
                            <path d="M3.89059712,1.08065174 C4.15925611,1.13418412 4.2987543,1.4959332 4.24252335,1.75180715 L3.85878972,5.79398817 C3.85163305,5.82621575 4.66806101,6.78828446 4.65113493,6.81413141 C4.63841196,6.83348958 4.62250826,6.84917078 4.60785413,6.86636603 C4.66987858,6.79953167 4.71736249,6.72209898 4.73724212,6.63136431 L5.2845567,1.75180715 C5.35123866,1.4488896 5.1452857,1.1491083 4.82709804,1.08573461 L3.89059712,1.08065174 Z" id="Fill-36-Copy" fill="#0495BB" transform="translate(4.577921, 3.973509) rotate(18.000000) translate(-4.577921, -3.973509) "></path>
                            <path d="M3.24810352,5.6409894 L1.49128304,5.67968514 C1.31051549,5.64576289 1.17493982,5.52571468 1.12170627,5.3779396 L1.36261641,5.98569635 C1.506347,6.26987139 1.55810814,6.48508472 1.87535746,6.544601 L3.75869257,6.58329674 C3.716219,6.54521038 3.27256831,5.63692685 3.24810352,5.6409894" id="Fill-38-Copy" fill="#D5EEF6" transform="translate(2.440199, 5.980618) rotate(18.000000) translate(-2.440199, -5.980618) "></path>
                            <path d="M3.3471581,7.33485197 L3.13003676,7.36817314 C3.1309099,7.36890637 3.13255917,7.37118753 3.13304424,7.37110606 C3.37820316,7.33607402 3.68176558,7.30364902 3.84921484,7.13003676 C3.72542268,7.24784217 3.52634627,7.31741742 3.3471581,7.33485197" id="Fill-40-Copy" fill="#79D0E8" transform="translate(3.630037, 7.630037) rotate(18.000000) translate(-3.630037, -7.630037) "></path>
                            <g id="Group-44-Copy" transform="translate(3.199127, 2.841167) rotate(18.000000) translate(-3.199127, -2.841167) translate(1.699127, 0.341167)">
                                <mask id="mask-27" fill="white">
                                    <use xlink:href="#path-26"></use>
                                </mask>
                                <g id="Clip-43"></g>
                                <path d="M1.55263,0.23058124 L2.6145415,0.0165667199 L1.1047869,0.234240556 C0.820595274,0.324060121 0.552597209,0.583760643 0.499512359,0.846122485 L-2.14484244e-05,4.95719727 L0.892125769,0.677128636 C0.954969653,0.36653036 1.25224482,0.165600666 1.55263,0.23058124" id="Fill-42" fill="#79D0E8" mask="url(#mask-27)"></path>
                            </g>
                            <g id="Group-47-Copy" transform="translate(2.983673, 3.946732) rotate(18.000000) translate(-2.983673, -3.946732) translate(0.983673, 0.446732)">
                                <mask id="mask-29" fill="white">
                                    <use xlink:href="#path-28"></use>
                                </mask>
                                <g id="Clip-46"></g>
                                <path d="M2.55840751,4.77878819 L2.91605674,0.584604688 C2.96860538,0.326176634 2.80618231,0.0704803782 2.55501042,0.0163907856 L1.53694687,0.227176289 C1.23959588,0.163142953 0.945323495,0.361143644 0.883114398,0.667323519 L-2.12317734e-05,4.88489121 C0.0498734366,5.0439911 0.176945603,5.17304122 0.346481316,5.20953804 L1.85988215,5.17555447 C1.88281247,5.17129287 2.43186614,6.14086248 2.47156955,6.18173017 L2.7091531,6.13703796 C2.90522853,6.11365377 3.12306653,6.02044484 3.25841909,5.86232839 C3.27211358,5.84495416 3.28697582,5.82910973 3.29886562,5.80955006 C3.31478945,5.78343408 2.55182566,4.81124194 2.55840751,4.77878819" id="Fill-45" fill="#79D0E8" mask="url(#mask-29)"></path>
                            </g>
                            <polygon id="Fill-48-Copy" fill="#D5EEF6" transform="translate(2.814929, 2.820112) rotate(18.000000) translate(-2.814929, -2.820112) " points="4.25328518 1.37368325 1.49701241 3.31565411 1.37657285 4.26654039 4.17147926 2.28229578"></polygon>
                            <polygon id="Fill-50-Copy" fill="#D5EEF6" transform="translate(2.703186, 3.476203) rotate(18.000000) translate(-2.703186, -3.476203) " points="4.14154242 2.39138156 1.29344907 4.33298642 1.2648301 4.56102442 4.12111633 2.62354838"></polygon>
                        </g>
                    </g>
                    <path d="M181.27189,193.563712 L180.471374,193.563712 C178.799128,188.29265 175.602294,185.895822 170.88087,186.373227 C158.24064,187.651341 156.377782,191.906432 147.019595,195.029882 C144.114121,195.999632 125.629488,197.416716 138.51863,191.81554 C139.780455,191.267195 137.858517,188.608652 142.430072,186.373227 C145.477776,184.882944 148.502052,184.882944 151.5029,186.373227 C149.801802,180.124409 154.964672,177 166.991511,177 C179.01835,177 183.778476,182.521237 181.27189,193.563712 Z" id="Path-18-Copy" fill="#D8D8D8" opacity="0.8828125"></path>
                </g>
            </g>
        </g>
    </g>
</svg>