<?xml version="1.0" encoding="UTF-8"?>
<svg width="165px" height="126px" viewBox="0 0 165 126" version="1.1" xmlns="http://www.w3.org/2000/svg" xmlns:xlink="http://www.w3.org/1999/xlink">
    <!-- Generator: Sketch 51.3 (57544) - http://www.bohemiancoding.com/sketch -->
    <title>Group</title>
    <desc>Created with Sketch.</desc>
    <defs>
        <linearGradient x1="0.25781251%" y1="49.7500002%" x2="101.257813%" y2="49.7500002%" id="linearGradient-1">
            <stop stop-color="#969191" offset="0%"></stop>
            <stop stop-color="#53A0FE" offset="47.5247532%"></stop>
            <stop stop-color="#B4ED50" offset="100%"></stop>
        </linearGradient>
        <linearGradient x1="0%" y1="50%" x2="100%" y2="50%" id="linearGradient-2">
            <stop stop-color="#C8C6C6" offset="0%"></stop>
            <stop stop-color="#ACCF11" offset="23.6082627%"></stop>
            <stop stop-color="#DE3FF9" offset="100%"></stop>
        </linearGradient>
        <linearGradient x1="49.6234829%" y1="0%" x2="50.3765171%" y2="66.8274312%" id="linearGradient-3">
            <stop stop-color="#A47A7A" offset="0%"></stop>
            <stop stop-color="#FFD3A1" offset="66.3918803%"></stop>
            <stop stop-color="#FF8598" offset="100%"></stop>
        </linearGradient>
        <linearGradient x1="8.55796529%" y1="0%" x2="93.0997144%" y2="100.999999%" id="linearGradient-4">
            <stop stop-color="#8E0DB9" offset="0%"></stop>
            <stop stop-color="#C96DD8" offset="100%"></stop>
        </linearGradient>
        <linearGradient x1="10.2447448%" y1="95.9006714%" x2="79.7479096%" y2="4.25060314%" id="linearGradient-5">
            <stop stop-color="#FD9797" offset="0%"></stop>
            <stop stop-color="#FF5757" offset="100%"></stop>
        </linearGradient>
        <linearGradient x1="7.84196848%" y1="95.9006714%" x2="81.5458498%" y2="4.25060314%" id="linearGradient-6">
            <stop stop-color="#3C3185" offset="0%"></stop>
            <stop stop-color="#FF8484" offset="100%"></stop>
        </linearGradient>
        <linearGradient x1="50%" y1="0%" x2="50%" y2="100%" id="linearGradient-7">
            <stop stop-color="#FBDA61" offset="0%"></stop>
            <stop stop-color="#F76B1C" offset="100%"></stop>
        </linearGradient>
        <linearGradient x1="58.8838419%" y1="44.4592247%" x2="41.3453759%" y2="55.7195796%" id="linearGradient-8">
            <stop stop-color="#8D81FF" offset="0%"></stop>
            <stop stop-color="#53A0FE" offset="47.5247532%"></stop>
            <stop stop-color="#CFFF79" offset="100%"></stop>
        </linearGradient>
        <linearGradient x1="90.2789416%" y1="1.17276399%" x2="21.0521684%" y2="97.5257555%" id="linearGradient-9">
            <stop stop-color="#BFB5FF" offset="0%"></stop>
            <stop stop-color="#95FFB8" offset="100%"></stop>
        </linearGradient>
    </defs>
    <g id="V2-Site" stroke="none" stroke-width="1" fill="none" fill-rule="evenodd">
        <g id="Desktop-Copy-12" transform="translate(-435.000000, -1950.000000)" fill-rule="nonzero">
            <g id="Group" transform="translate(435.000000, 1950.000000)">
                <g id="canon8">
                    <path d="M31.7719728,125.747166 C46.9089198,126.238297 56.3402153,125.713601 72.5387294,124.393155 C88.7372436,123.072708 101.602291,116.0103 82.2565742,112.080628 C78.0397055,111.224062 65.5784118,109.454545 45.8406682,109.454545 C26.1029246,109.454545 0,113.382937 0,118.228853 C0,123.074769 9.83411309,125.035373 31.7719728,125.747166 Z" id="Oval-13-Copy-8" fill="#E2E2E2" opacity="0.59618433"></path>
                    <path d="M88.9443251,67.0266318 C91.3219143,67.0266318 93.8426206,67.2138453 95.2564629,64.9144727 C96.6703051,62.6150999 95.7280094,60.1170207 95.7280094,57.5636759 C95.7280094,53.7077013 93.364897,51.8973418 91.0811769,50.0796246 C88.797468,48.2619075 89.4394007,47.0909091 88.0204933,47.0909091 C83.7637485,47.0909091 80.3129771,51.7797265 80.3129771,57.5636759 C80.3129771,60.6230981 83.9327645,60.5819531 85.472327,62.49672 C87.0118783,64.4114867 86.939191,67.0266318 88.9443251,67.0266318 Z" id="Oval-7-Copy-8" stroke="#979797" fill="#5D3C08"></path>
                    <path d="M84.187916,47.6731493 C90.1075667,46.2936815 95.426936,54.4008946 95.1773013,54.4008946 C94.9276554,54.4008946 93.677778,52.7365136 91.3854696,53.9841854 C84.1145065,57.9416526 55.2417303,75.0909091 55.2417303,75.0909091 L77.0195237,52.8605095 C77.0195237,52.8605095 80.5346082,48.5244883 84.187916,47.6731493 Z" id="Path-12-Copy-8" fill="#332000"></path>
                    <path d="M52.4796382,111.049009 C59.3848339,110.479066 65.0152672,104.293274 65.0152672,96.3184614 C65.0152672,88.3436503 59.4028778,81.8787879 52.4796382,81.8787879 C45.5564097,81.8787879 39.9440204,88.3436503 39.9440204,96.3184614 C39.9440204,103.763326 48.5057977,111.049009 48.5057977,111.049009 C48.5057977,111.049009 49.685318,111.279647 52.4796382,111.049009 Z" id="Oval-5-Copy-20" fill="#5DC4C1"></path>
                    <ellipse id="Oval-5-Copy-21" fill="#267B79" cx="49.0801527" cy="96.7272727" rx="12.5356234" ry="14.4242424"></ellipse>
                    <path d="M82.3532174,47.5151515 C82.3532174,47.5151515 73.0236343,56.5153656 61.5334684,61.6921353 C50.0433026,66.868905 27.2294325,70.7851632 22.8914614,72.8972407 C12.6216895,77.8974088 14.6010594,76.8302977 14.6010594,76.8302977 L41.576445,104.787879 C41.576445,104.787879 62.308826,84.7060832 71.8399563,78.1225471 C81.3710755,71.539011 95.610687,67.4642113 95.610687,67.4642113 C95.610687,67.4642113 85.1161636,65.7013501 81.6454294,59.6291676 C78.1747063,53.556985 82.3532174,47.5151515 82.3532174,47.5151515 Z" id="Path-9-Copy-8" fill="#FFD772"></path>
                    <path d="M94.3959966,68.0397195 C90.7526006,70.1728595 85.1086224,67.1765345 81.7898147,61.3472403 C78.4710069,55.517946 78.7341334,49.0631176 82.3775403,46.9299775 C86.0209362,44.7968374 91.6649144,47.7931624 94.9837222,53.6224567 C98.30253,59.4517509 98.0394035,65.9065793 94.3959966,68.0397195 Z M93.6996041,65.002359 C96.3193049,63.4685751 96.3413847,58.5338591 93.7489389,53.9803627 C91.156482,49.4268661 86.9311976,46.9789055 84.3114968,48.5126896 C81.691796,50.0464736 81.6697162,54.9811895 84.262162,59.5346859 C86.8546189,64.0881825 91.0799033,66.5361431 93.6996041,65.002359 Z" id="Combined-Shape-Copy-29" fill="#E2A037"></path>
                    <path d="M20.8816218,73.7064661 C18.8722795,74.6895425 17.6087505,75.305966 17.4241218,75.3921399 C16.2124488,75.9576709 15.5284672,76.3404467 15.5284672,76.3404467 C8.07530015,80.1415743 4.45420047,87.8762204 5.80085683,95.4708055 C6.76366992,105.178947 14.9041845,112.759606 24.8039929,112.759606 C27.8239384,112.759606 30.6801843,112.054174 33.2188955,110.798113 C34.0760525,110.377722 34.9158354,109.886156 35.731301,109.321944 C35.731301,109.321944 22.049415,119.200762 35.8042304,109.269289 C36.7256631,108.60398 37.7268461,107.888497 38.7929491,107.132547 L60.928152,87.2673842 L51.1760133,93.642021 L67.9898219,76.5574307 L48.1862838,87.2673842 L64.2280956,72.4454831 L43.7338662,79.953123 L62.8857605,66.1469096 L42.8416053,71.1435071 L63.3938227,60.6666667 C63.3938227,60.6666667 62.6005414,61.3285135 48.9062357,65.7200355 C44.3663583,67.1758945 42.3336431,67.7214575 32.144672,70.4412313 C29.2673193,71.2092922 29.4942838,70.8876803 23.4848642,72.8174884 C22.5090427,73.1308532 21.648964,73.4257352 20.8816218,73.7064661 Z" id="Combined-Shape-Copy-30" fill="#FF7171"></path>
                    <path d="M71.389313,78.4848485 C71.389313,78.4848485 65.7725719,83.2582511 59.96049,88.365124 C54.1484081,93.4719958 49.7782445,97.4788527 47.1206773,99.7546344 C41.4074507,104.647107 34.2971952,109.97201 34.2971952,109.97201 C34.2971952,109.97201 19.5894725,117.101734 11.6811991,107.047078 C3.77292574,96.9924209 8.79732904,87.7000841 8.79732904,87.7000841 C8.79732904,87.7000841 10.4896381,85.9878706 10.7294101,89.1639089 C11.1200135,94.3379255 20.4654322,107.135133 33.5895263,101.984852 C39.4458047,99.6866798 47.8452804,95.7363238 47.8452804,95.7363238 C47.8452804,95.7363238 71.389313,78.4848485 71.389313,78.4848485 Z" id="Path-13-Copy-8" fill="#E66262"></path>
                    <path d="M50.9921625,101.565774 L24.6404963,110.727273 L23.7964377,105.020355 L50.9757739,98.8484848 C50.9757739,98.8484848 51.6779873,99.0912727 51.8268896,100.091397 C51.9758031,101.091522 50.9921625,101.565774 50.9921625,101.565774 Z" id="Path-11-Copy-8" fill="#165857"></path>
                    <path d="M28.3441265,124.866786 C25.4440867,125.327408 22.3273984,125.090712 22.4878704,125.090712 C22.6483536,125.090712 9.7735369,116.634648 9.7735369,106.788217 C9.7735369,98.0340909 21.4814785,89.4743741 22.4878704,89.2318122 C23.4942735,88.9892491 27.2766524,88.6666667 28.3441265,88.6666667 C36.8627428,88.6666667 43.7684478,96.7799611 43.7684478,106.788217 C43.7684478,116.796472 36.3218985,123.599647 28.3441265,124.866786 Z M27.8274312,119.973431 C34.4168745,119.973431 39.7586591,114.186529 39.7586591,107.048024 C39.7586591,99.9095189 34.4168745,94.1226174 27.8274312,94.1226174 C21.2379991,94.1226174 15.8962145,99.9095189 15.8962145,107.048024 C15.8962145,114.186529 21.2379991,119.973431 27.8274312,119.973431 Z" id="Combined-Shape-Copy-31" fill="#379D9A"></path>
                    <path d="M24.8005737,108.181818 L20.821883,95.3198788 C20.821883,95.3198788 23.1567381,94.2370592 24.5435548,93.9051091 C25.9303716,93.573159 26.7709924,93.9051091 26.7709924,93.9051091 L24.8005737,108.181818 Z" id="Path-7-Copy-120" fill="#54AFAD"></path>
                    <path d="M24.8177402,108.181818 L19.9720102,95.7776901 C19.9720102,95.7776901 21.0549301,94.9407513 22.5735982,94.4070975 C24.0922771,93.8734448 25.4961832,93.7575758 25.4961832,93.7575758" id="Path-7-Copy-121" fill="#73CCCA"></path>
                    <path d="M24.6314162,107.333333 L28.4707379,120.85537 C28.4707379,120.85537 27.0854576,120.976237 25.3603983,120.855377 C23.6353391,120.734517 22.5216285,120.041918 22.5216285,120.041918" id="Path-7-Copy-122" fill="#54AFAD"></path>
                    <path d="M24.7200274,107.333333 L27.6208651,121.332478 C27.6208651,121.332478 26.2131801,121.359016 24.4798142,121.116467 C22.7464483,120.873917 21.6717557,120.09319 21.6717557,120.09319" id="Path-7-Copy-123" fill="#73CCCA"></path>
                    <polyline id="Path-7-Copy-124" fill="#54AFAD" points="24.6463104 107.757576 36.5445293 114.2774 33.4898146 119.636364"></polyline>
                    <polyline id="Path-7-Copy-125" fill="#73CCCA" points="24.221374 107.333333 35.2697201 114.677565 31.8243148 119.636364"></polyline>
                    <polyline id="Path-7-Copy-126" fill="#ECECEC" points="24.6463104 108.004121 37.6460482 104.787879 39.0941476 110.727273"></polyline>
                    <polyline id="Path-7-Copy-127" fill="#73CCCA" points="23.7964377 107.820641 36.697232 104.363636 38.2442748 110.30303"></polyline>
                    <polyline id="Path-7-Copy-128" fill="#54AFAD" points="24.6463104 107.757576 31.0537503 95.8787879 36.5445293 98.8054425"></polyline>
                    <polyline id="Path-7-Copy-129" fill="#73CCCA" points="24.6463104 107.757576 30.8412863 95.030303 36.5445293 97.6216168"></polyline>
                    <path d="M24.6463104,108.181818 L14.4485388,103.28941 C14.4485388,103.28941 14.3876048,102.306805 15.4013895,100.266574 C16.4151629,98.2263443 17.5635566,98 17.5635566,98" id="Path-7-Copy-130" fill="#54AFAD"></path>
                    <path d="M24.6463104,107.757576 L14.0229008,103.733917 C14.0229008,103.733917 14.3081448,102.410265 15.0631134,100.883841 C15.8180819,99.3574179 16.7929171,98.4242424 16.7929171,98.4242424" id="Path-7-Copy-131" fill="#73CCCA"></path>
                    <path d="M24.6463104,107.52875 L15.0636038,111.966543 L14.5002213,112 C14.5002213,112 14.3249595,111.966543 13.8038226,109.364386 C13.2826968,106.76223 13.9153387,106.484848 13.9153387,106.484848" id="Path-7-Copy-132" fill="#54AFAD"></path>
                    <path d="M24.6463104,107.525022 L14.482286,112 C14.482286,112 13.962763,110.859168 13.7346889,109.313408 C13.5066148,107.767646 13.632761,106.484848 13.632761,106.484848" id="Path-7-Copy-133" fill="#73CCCA"></path>
                    <path d="M24.6463104,107.757576 C24.6463104,107.757576 19.8675224,117.009995 19.3636851,117.906407 C19.3331095,117.960809 18.5087237,118.377334 18.6126633,118.363289 C18.6126633,118.363289 18.2637215,118.185675 17.1051746,116.831972 C15.6548693,115.137361 15.723152,114.50897 15.723152,114.50897" id="Path-7-Copy-134" fill="#54AFAD"></path>
                    <path d="M24.6463104,107.333333 L18.5668312,117.939394 C18.5668312,117.939394 17.4677822,117.042444 16.5585193,115.80292 C15.6492674,114.563394 15.2977099,113.380877 15.2977099,113.380877" id="Path-7-Copy-135" fill="#73CCCA"></path>
                    <ellipse id="Oval-6-Copy-16" fill="#409795" cx="24.0089059" cy="107.333333" rx="3.1870229" ry="3.81818182"></ellipse>
                    <path d="M24.4338422,125.575758 C15.8678035,125.575758 8.92366412,117.408346 8.92366412,107.333333 C8.92366412,97.2583207 15.8678035,89.0909091 24.4338422,89.0909091 C32.9998697,89.0909091 39.9440204,97.2583207 39.9440204,107.333333 C39.9440204,117.408346 32.9998697,125.575758 24.4338422,125.575758 Z M24.3778139,121.521885 C31.0095837,121.521885 36.3856945,115.198728 36.3856945,107.398719 C36.3856945,99.5987087 31.0095837,93.2755517 24.3778139,93.2755517 C17.7460442,93.2755517 12.3699334,99.5987087 12.3699334,107.398719 C12.3699334,115.198728 17.7460442,121.521885 24.3778139,121.521885 Z" id="Combined-Shape-Copy-32" fill="#5DC4C1"></path>
                    <path d="M139.354738,45.3939394 C144.186262,45.3939394 145.328244,44.361662 145.328244,43.2501079 C145.328244,42.1385539 144.301054,40.7272727 139.469541,40.7272727 C134.638017,40.7272727 86.6870229,42.0580937 86.6870229,43.1696478 C86.6870229,44.2812018 134.523214,45.3939394 139.354738,45.3939394 Z" id="Oval-8-Copy-12" fill="url(#linearGradient-1)" transform="translate(116.007634, 43.060606) rotate(-28.000000) translate(-116.007634, -43.060606) "></path>
                    <path d="M116.324981,58.1212121 C118.748479,58.1212121 119.407125,57.5607423 119.407125,56.9905958 C119.407125,56.4204493 118.674466,55.5757576 116.250968,55.5757576 C113.82747,55.5757576 91.7862595,56.2107668 91.7862595,56.7809133 C91.7862595,57.3510598 113.901483,58.1212121 116.324981,58.1212121 Z" id="Oval-8-Copy-13" fill="url(#linearGradient-2)" transform="translate(105.596692, 56.848485) rotate(-21.000000) translate(-105.596692, -56.848485) "></path>
                    <path d="M125.230926,41.5757576 C127.668365,41.5757576 128.330789,40.9656402 128.330789,40.3449889 C128.330789,39.7243375 127.593927,38.8048213 125.156487,38.8048213 C122.719048,38.8048213 83.7124682,37.2859329 83.7124682,37.9065843 C83.7124682,38.5272356 122.793486,41.5757576 125.230926,41.5757576 Z" id="Oval-8-Copy-14" fill="url(#linearGradient-3)" transform="translate(106.021628, 39.666667) rotate(-39.000000) translate(-106.021628, -39.666667) "></path>
                    <path d="M135.761109,42.484462 C135.965844,42.3528534 136.130534,42.4441137 136.12895,42.6885368 L136.110159,45.5904787 L138.81506,47.3531244 C139.019014,47.4860307 138.995957,47.6528557 138.764228,47.7255303 L135.537539,48.737495 L134.592569,51.5656051 C134.515139,51.797338 134.339442,51.8228934 134.200009,51.6225191 L132.419243,49.063343 L128.997121,49.0107053 C128.754572,49.0069745 128.682453,48.8517792 128.837522,48.6622599 L130.756589,46.3168227 L129.729186,43.7655381 C129.637946,43.5389742 129.754014,43.4049468 129.989657,43.4664987 L133.007246,44.254746 L135.761109,42.484462 Z" id="Path-5-Copy-29" fill="url(#linearGradient-4)"></path>
                    <path d="M147.051171,51.8204053 C147.261252,51.6827905 147.430237,51.7787812 147.428611,52.034659 L147.417671,53.7564441 L149.009988,54.8138098 C149.219246,54.9527694 149.195536,55.1272106 148.957262,55.2033595 L147.050493,55.8127393 L146.498423,57.4964124 C146.419029,57.7385394 146.238979,57.765396 146.095545,57.5553489 L145.050996,56.025652 L143.026321,55.9939168 C142.777107,55.9900105 142.703922,55.826374 142.862068,55.6294155 L143.984882,54.2310453 L143.389886,52.7254171 C143.296152,52.4882339 143.416102,52.3481135 143.656375,52.4120699 L145.428041,52.8836615 L147.051171,51.8204053 Z" id="Path-5-Copy-30" fill="#69ACFD" transform="translate(145.965649, 54.727273) rotate(-34.000000) translate(-145.965649, -54.727273) "></path>
                    <path d="M130.053716,9.39616286 C130.263798,9.25854803 130.432783,9.35453873 130.431157,9.61041657 L130.420216,11.3322016 L132.012523,12.3895674 C132.221792,12.5285269 132.198082,12.7029682 131.959808,12.7791171 L130.053039,13.3884968 L129.500969,15.0721699 C129.421574,15.314297 129.241525,15.3411536 129.098091,15.1311065 L128.053541,13.6014095 L126.028866,13.5696744 C125.779651,13.5657681 125.706466,13.4021315 125.864612,13.2051731 L126.987427,11.8068029 L126.39243,10.3011747 C126.298697,10.0639914 126.418647,9.92387107 126.658908,9.98782743 L128.430575,10.4594191 L130.053716,9.39616286 Z" id="Path-5-Copy-31" fill="#69ACFD" transform="translate(128.968193, 12.303030) rotate(-34.000000) translate(-128.968193, -12.303030) "></path>
                    <path d="M144.274797,13.6336546 C144.474985,13.5070832 144.636009,13.5948897 144.634457,13.8302504 L144.627747,14.8496177 L145.616409,15.4832972 C145.816295,15.611417 145.794548,15.7719722 145.567819,15.8419116 L144.376179,16.2095022 L144.036682,17.2088578 C143.960883,17.4320008 143.789003,17.4568097 143.652991,17.2645443 L143.006206,16.3503073 L141.740081,16.331152 C141.502451,16.3275568 141.432145,16.177581 141.584023,15.9950071 L142.275747,15.1634846 L141.913276,14.2781608 C141.824098,14.0603385 141.938804,13.9318063 142.169163,13.9909916 L143.264538,14.2724227 L144.274797,13.6336546 Z" id="Path-5-Copy-32" fill="#FF6C7E" transform="translate(143.628499, 15.484848) rotate(-34.000000) translate(-143.628499, -15.484848) "></path>
                    <path d="M108.825893,21.7047899 C109.026381,21.5644869 109.187735,21.6466242 109.18629,21.8900549 L109.181122,22.759113 L109.924122,23.2862201 C110.12391,23.4279486 110.098091,23.6069506 109.865796,23.6862638 L108.975345,23.9902898 L108.714141,24.8413039 C108.643033,25.0730161 108.479133,25.0946412 108.348165,24.8897281 L107.854743,24.1177682 L106.911922,24.1019803 C106.666278,24.0978669 106.585434,23.9371484 106.732441,23.741554 L107.25726,23.0432736 L106.980985,22.2964117 C106.896874,22.0690123 107.019307,21.9388786 107.256248,22.006258 L108.066055,22.2365471 L108.825893,21.7047899 Z" id="Path-5-Copy-33" fill="#FFB19D" transform="translate(108.358779, 23.333333) rotate(-83.000000) translate(-108.358779, -23.333333) "></path>
                    <path d="M162.464257,25.0916133 C162.675734,24.9574027 162.845841,25.0509143 162.844215,25.3000885 L162.828088,27.7585408 L165.156507,29.2565111 C165.366939,29.3918899 165.343708,29.5616473 165.104055,29.635849 L162.323404,30.4968057 L161.511729,32.8950225 C161.431795,33.1312093 161.2508,33.157825 161.106436,32.9529976 L159.575088,30.7803307 L156.627365,30.7355679 C156.375836,30.7317484 156.300574,30.5734315 156.460986,30.3798767 L158.109716,28.3905434 L157.229245,26.2320014 C157.135003,26.0009723 157.255386,25.8644327 157.498266,25.9270667 L160.09333,26.5963004 L162.464257,25.0916133 Z" id="Path-5-Copy-34" fill="#AFE85A" transform="translate(160.838422, 29.060606) rotate(28.000000) translate(-160.838422, -29.060606) "></path>
                    <path d="M53.1170483,91.6363636 L62.1901912,83.3699003 L85.2295636,65.7575758 C85.2295636,65.7575758 86.7025375,68.0740898 90.8282041,68.5499037 C91.2640541,68.6001708 95.2905731,67.8566241 92.5203361,68.5499037 C89.7500992,69.2431832 81.1134728,71.2821366 68.4458284,80.2932423 C67.0759903,81.2676786 64.915559,82.8964764 62.8876023,84.4249902 C60.8596456,85.9535046 57.6355288,88.1703953 56.7850359,88.8549599 C55.269359,90.0749284 53.1170483,91.6363636 53.1170483,91.6363636 Z" id="Path-14-Copy-8" fill="#FABE46"></path>
                    <path d="M133.781202,61.9393939 L136.40458,62.3922163 C136.40458,62.3922163 136.236772,65.0035504 133.544994,66.7115246 C131.787046,67.8269694 132.12032,67.5911621 131.253739,66.635496 C130.387158,65.6798301 130.456806,65.1214122 130.456806,65.1214122 C133.495997,64.6721502 133.781202,61.9393939 133.781202,61.9393939 Z" id="Path-15-Copy-86" fill="url(#linearGradient-5)"></path>
                    <path d="M118.064477,8.90909091 L120.681934,9.38157602 C120.681934,9.38157602 120.514504,12.1063015 117.828803,13.8884407 C116.074835,15.0523211 116.528105,15.3082052 115.542731,13.8091107 C114.557346,12.3100164 114.747587,12.2292812 114.747587,12.2292812 C117.779916,11.760511 118.064477,8.90909091 118.064477,8.90909091 Z" id="Path-15-Copy-87" fill="url(#linearGradient-6)"></path>
                    <path d="M157.599407,16.9520963 L155.101781,16.1212121 C155.101781,16.1212121 156.379491,19.5166674 158.214228,20.9733189 C159.675095,21.9070421 160.317285,21.5813713 160.317285,21.5813713 C160.887,21.1254136 161.050891,20.891712 161.050891,20.891712 C158.030141,19.8338477 157.599407,16.9520963 157.599407,16.9520963 Z" id="Path-15-Copy-88" fill="url(#linearGradient-7)"></path>
                    <path d="M146.440813,1.18396048 L148.721828,0 C148.721828,0 148.929636,1.89597347 146.880215,4.00278396 C145.541784,4.90877502 145.792268,4.75205082 144.930786,4.33118881 C144.069304,3.95550733 144.053435,3.70581763 144.053435,3.70581763 C147.222318,3.3844105 146.440813,1.18396048 146.440813,1.18396048 Z" id="Path-15-Copy-89" fill="url(#linearGradient-7)"></path>
                    <path d="M151.115113,35.9718393 L153.396128,34.7878788 C153.396128,34.7878788 153.603936,36.6838523 151.554515,38.7906628 C150.216084,39.6966539 150.466569,39.5399295 149.605087,39.1190676 C148.743604,38.7433862 148.727735,38.4936965 148.727735,38.4936965 C151.896618,38.1722893 151.115113,35.9718393 151.115113,35.9718393 Z" id="Path-15-Copy-90" fill="url(#linearGradient-7)" transform="translate(151.064885, 37.121212) rotate(-73.000000) translate(-151.064885, -37.121212) "></path>
                    <path d="M152.064513,10.2216802 L150.467604,8.90909091 C150.467604,8.90909091 149.191273,10.994443 149.695509,14.2445268 C150.024812,16.1997885 149.975082,15.8141551 150.923443,15.1938927 C151.871791,14.5515758 152.127226,14.0211386 152.127226,14.0211386 C149.82675,13.2259961 152.064513,10.2216802 152.064513,10.2216802 Z" id="Path-15-Copy-91" fill="url(#linearGradient-8)"></path>
                    <path d="M160.361624,13.5757576 L157.657448,12.7425991 C157.657448,12.7425991 157.410237,10.6362506 160.076806,8.73334374 C161.72185,7.5257865 161.582586,7.47615625 162.51597,7.82250563 C163.449342,8.16885488 163.600509,8.30721006 163.600509,8.30721006 C160.516172,9.7760991 160.361624,13.5757576 160.361624,13.5757576 Z" id="Path-15-Copy-92" fill="url(#linearGradient-9)"></path>
                    <ellipse id="Oval-6-Copy-17" fill="#73CCCA" cx="23.1590331" cy="107.333333" rx="3.1870229" ry="3.81818182"></ellipse>
                </g>
            </g>
        </g>
    </g>
</svg>