<?xml version="1.0" encoding="UTF-8"?>
<svg width="120px" height="240px" viewBox="0 0 120 240" version="1.1" xmlns="http://www.w3.org/2000/svg" xmlns:xlink="http://www.w3.org/1999/xlink">
    <!-- Generator: Sketch 51.3 (57544) - http://www.bohemiancoding.com/sketch -->
    <title>Group 29</title>
    <desc>Created with Sketch.</desc>
    <defs>
        <rect id="path-1" x="0" y="0" width="120" height="240"></rect>
    </defs>
    <g id="V2-Site" stroke="none" stroke-width="1" fill="none" fill-rule="evenodd" opacity="0.7">
        <g id="Desktop-Copy" transform="translate(-706.000000, -2220.000000)">
            <g id="Group-29" transform="translate(706.000000, 2220.000000)">
                <mask id="mask-2" fill="white">
                    <use xlink:href="#path-1"></use>
                </mask>
                <use id="Mask" fill-opacity="0.01" fill="#FFFFFF" xlink:href="#path-1"></use>
                <g mask="url(#mask-2)" fill="#1EE29A">
                    <g transform="translate(-1151.000000, -7.000000)">
                        <path d="M247.273245,24.9137393 L104.914931,246.764226 L1383.19603,246.764226 L1271.11828,19.4327047 C1242.06603,20.4298231 1220.67809,20.9284055 1206.95194,20.9284055 C1201.8244,20.9284055 1196.88282,20.7776393 1180.05197,20.1748376 C1178.80181,20.1300627 1177.79407,20.0941598 1176.82356,20.0598843 C1164.40919,19.6214476 1156.92773,19.4219105 1151,19.4219105 C1102.34412,19.4219105 1069.72558,16.9863882 1005.58162,9.99770078 C1002.41755,9.65287843 1000.84663,9.48172747 999.25517,9.30861571 C963.360961,5.40420431 943.500731,3.550037 919.329313,2.16115654 C888.094496,0.366415864 856.817439,0.0536206799 822.190326,1.4445006 C773.316193,3.40764575 730.810013,6.64755071 671.673549,12.3399298 C663.505586,13.1261646 635.983366,15.8168088 635.554346,15.8585141 C621.50486,17.2242747 611.000921,18.2165874 600.861137,19.123537 C575.28509,21.411178 554.142397,22.9410574 533.844687,23.8765746 C518.949034,24.5631121 504.682404,24.9137393 490.662671,24.9137393 C383.536956,24.9137393 383.465409,24.9137393 247.273245,24.9137393 Z" id="Rectangle-4" stroke="#1EE29A" stroke-width="1" opacity="0.998811141"></path>
                        <rect id="Rectangle-5" stroke="none" x="0" y="224.56456" width="1310" height="13.7819405"></rect>
                    </g>
                </g>
            </g>
        </g>
    </g>
</svg>