<?xml version="1.0" encoding="UTF-8"?>
<svg width="120px" height="240px" viewBox="0 0 120 240" version="1.1" xmlns="http://www.w3.org/2000/svg" xmlns:xlink="http://www.w3.org/1999/xlink">
    <!-- Generator: Sketch 51.3 (57544) - http://www.bohemiancoding.com/sketch -->
    <title>Group 29</title>
    <desc>Created with Sketch.</desc>
    <defs>
        <rect id="path-1" x="0" y="0" width="120" height="240"></rect>
        <rect id="path-3" x="0" y="0" width="1024" height="241"></rect>
    </defs>
    <g id="V2-Site" stroke="none" stroke-width="1" fill="none" fill-rule="evenodd">
        <g id="Desktop-Copy" transform="translate(0.000000, -2546.000000)">
            <g id="Group-29" transform="translate(0.000000, 2546.000000)">
                <mask id="mask-2" fill="white">
                    <use xlink:href="#path-1"></use>
                </mask>
                <use id="Mask" fill-opacity="0.01" fill="#FFFFFF" xlink:href="#path-1"></use>
                <g mask="url(#mask-2)">
                    <g transform="translate(0.000000, -1.000000)">
                        <mask id="mask-4" fill="white">
                            <use xlink:href="#path-3"></use>
                        </mask>
                        <g id="Mask" stroke="none" fill="none"></g>
                        <g id="Group-29" opacity="0.7" stroke="none" stroke-width="1" fill="none" fill-rule="evenodd" mask="url(#mask-4)">
                            <g transform="translate(-248.000000, 0.811448)" fill="#1EE29A">
                                <path d="M247.27338,24.9361874 L104.914477,246.991582 L1383.5,246.991582 L1383.5,1.51079719 C1298.42793,11.926119 1212.53577,17.1337724 1125.82363,17.1337724 C1077.60214,17.1337724 1046.93137,14.9110361 992.276987,8.81380357 C991.282893,8.70290262 987.691738,8.30192008 987.894759,8.32458333 C986.136682,8.12832821 984.813157,7.98078668 983.519134,7.83689774 C921.371323,0.926371848 884.050836,-1.041689 822.190344,1.44536868 C773.316221,3.41031852 730.810049,6.65320195 671.673593,12.3508144 C663.50563,13.1377721 635.98341,15.8308902 635.55439,15.8726339 C621.504903,17.2396504 611.000963,18.2328757 600.861177,19.1406593 C575.285124,21.4304043 554.142425,22.9616908 533.844708,23.8980685 C518.949049,24.5852376 504.682411,24.9361874 490.662671,24.9361874 C383.536992,24.9361874 383.465409,24.9361874 247.27338,24.9361874 Z" id="Rectangle-4" stroke="#1EE29A" stroke-width="1" opacity="0.998811141"></path>
                                <rect id="Rectangle-5" stroke="none" x="0" y="224.771044" width="1310" height="13.7946128"></rect>
                            </g>
                        </g>
                    </g>
                </g>
            </g>
        </g>
    </g>
</svg>