<?xml version="1.0" encoding="UTF-8"?>
<svg width="120px" height="268px" viewBox="0 0 120 268" version="1.1" xmlns="http://www.w3.org/2000/svg" xmlns:xlink="http://www.w3.org/1999/xlink">
    <!-- Generator: Sketch 51.3 (57544) - http://www.bohemiancoding.com/sketch -->
    <title>Group 29</title>
    <desc>Created with Sketch.</desc>
    <defs>
        <rect id="path-1" x="0" y="0" width="120" height="268"></rect>
        <linearGradient x1="50%" y1="0%" x2="50%" y2="100%" id="linearGradient-3">
            <stop stop-color="#A1EEE7" offset="0%"></stop>
            <stop stop-color="#C7EFCE" offset="100%"></stop>
        </linearGradient>
        <rect id="path-4" x="0" y="0" width="1024" height="288"></rect>
        <linearGradient x1="3.24699335%" y1="0%" x2="91.7514723%" y2="100%" id="linearGradient-6">
            <stop stop-color="#DEC2B2" offset="0%"></stop>
            <stop stop-color="#E0BDA9" offset="100%"></stop>
        </linearGradient>
        <linearGradient x1="3.24699335%" y1="0%" x2="91.7514723%" y2="100%" id="linearGradient-7">
            <stop stop-color="#97867D" offset="0%"></stop>
            <stop stop-color="#E0BDA9" offset="100%"></stop>
        </linearGradient>
    </defs>
    <g id="V2-Site" stroke="none" stroke-width="1" fill="none" fill-rule="evenodd">
        <g id="Desktop-Copy" transform="translate(-242.000000, -233.000000)">
            <g id="Group-29" transform="translate(242.000000, 233.000000)">
                <mask id="mask-2" fill="white">
                    <use xlink:href="#path-1"></use>
                </mask>
                <g id="Mask"></g>
                <g mask="url(#mask-2)">
                    <g transform="translate(-43.000000, -101.000000)">
                        <g id="Screen-Shot-2018-01-25-at-4.35.58-AM-Copy-2" stroke-width="1" fill="none" transform="translate(43.000000, 101.000000)">
                            <mask id="mask-5" fill="white">
                                <use xlink:href="#path-4"></use>
                            </mask>
                            <use id="Mask" fill="url(#linearGradient-3)" opacity="0.567991395" xlink:href="#path-4"></use>
                        </g>
                        <path d="M43,369.240747 C121.054083,337.887958 190.651521,321.233334 251.792315,319.276876 C343.503506,316.34219 357.291259,337.737049 466.43696,336.268327 C575.582662,334.799606 619.403393,324.300768 688.001759,325.774294 C756.600124,327.247821 823.973082,348.31339 930.681017,362.611654 C967.342732,367.524118 1012.78239,369.733815 1067,369.240747 L1067,478 L43,478 L43,369.240747 Z" id="Rectangle-17-Copy" fill="#FFFFFF"></path>
                        <path d="M4.03373774,246.039612 C4.03373774,246.039612 39.2992726,241.138818 55.9523792,249.962904 C72.6054857,258.78699 144.234436,245.345893 164.414227,246.039612 C177.010677,246.47264 182.967669,282.987266 193.564837,282.987266 C213.340735,282.987266 229.611868,294.002013 235.815415,297.498629 C242.018962,300.995245 243.710322,301.840586 243.710322,301.840586 C243.710322,301.840586 280.65572,317.012868 316.971743,321.192125 C320.195269,321.563089 327.97258,322.375659 330.877976,322.505632 C357.102718,323.678798 352.999986,327 352.999986,327 C352.999986,327 266.809704,319.743463 235.815415,319.743463 C204.821126,319.743463 35.1569741,327 35.1569741,327 C35.1569741,327 19.8484862,312.141549 11.4586897,289.031816 C3.06889318,265.922083 4.03373774,246.039612 4.03373774,246.039612 Z" id="Path-2-Copy-4" fill="url(#linearGradient-6)"></path>
                        <path d="M0.568099316,248.450271 C0.568099316,248.450271 37.4964094,246.135864 54.1745812,254.846601 C70.852753,263.557338 157.764252,249.463596 185.379818,249.463596 C212.995384,249.463596 217.987784,294.02032 235.757717,303.512232 C247.050935,309.54457 278.398437,315.93735 304.819748,318.996474 C319.972493,320.750896 330.667461,321.161866 340.695826,321.161866 C363.330368,321.161866 384.327241,331.974951 384.327241,331.974951 C384.327241,331.974951 283.352092,358.826975 208.465531,368.512871 C133.57897,378.198768 32.7917267,374.140753 32.7917267,374.140753 C32.7917267,374.140753 20.2482651,311.761987 12.208562,289.909704 C4.16885894,268.05742 0.568099316,248.450271 0.568099316,248.450271 Z" id="Path-2-Copy-5" fill="url(#linearGradient-7)"></path>
                    </g>
                </g>
            </g>
        </g>
    </g>
</svg>