<?xml version="1.0" encoding="UTF-8"?>
<svg width="21px" height="14px" viewBox="0 0 21 14" version="1.1" xmlns="http://www.w3.org/2000/svg" xmlns:xlink="http://www.w3.org/1999/xlink">
    <!-- Generator: Sketch 52.5 (67469) - http://www.bohemiancoding.com/sketch -->
    <title>Combined Shape</title>
    <desc>Created with Sketch.</desc>
    <g id="Symbols" stroke="none" stroke-width="1" fill="none" fill-rule="evenodd">
        <g id="Tutorial-Card1-Copy-2" transform="translate(-104.000000, -275.000000)" fill="#0F573D">
            <path d="M121.656854,282.585786 L105,282.585786 C104.447715,282.585786 104,282.138071 104,281.585786 C104,281.033502 104.447715,280.585786 105,280.585786 L121.585786,280.585786 L117.707107,276.707107 C117.316582,276.316582 117.316582,275.683418 117.707107,275.292893 C118.097631,274.902369 118.730796,274.902369 119.12132,275.292893 L124.363961,280.535534 C124.423176,280.594749 124.473412,280.659542 124.514669,280.728222 C124.805462,280.903117 125,281.221733 125,281.585786 C125,281.926018 124.830088,282.226564 124.570489,282.4072 C124.522034,282.515977 124.453192,282.617876 124.363961,282.707107 L119.12132,287.949747 C118.730796,288.340272 118.097631,288.340272 117.707107,287.949747 C117.316582,287.559223 117.316582,286.926058 117.707107,286.535534 L121.656854,282.585786 Z" id="Combined-Shape"></path>
        </g>
    </g>
</svg>