<?xml version="1.0" encoding="UTF-8"?>
<svg width="120px" height="268px" viewBox="0 0 120 268" version="1.1" xmlns="http://www.w3.org/2000/svg" xmlns:xlink="http://www.w3.org/1999/xlink">
    <!-- Generator: Sketch 51.3 (57544) - http://www.bohemiancoding.com/sketch -->
    <title>Group 29</title>
    <desc>Created with Sketch.</desc>
    <defs>
        <rect id="path-1" x="0" y="0" width="120" height="268"></rect>
        <linearGradient x1="50%" y1="0%" x2="50%" y2="100%" id="linearGradient-3">
            <stop stop-color="#A1EEE7" offset="0%"></stop>
            <stop stop-color="#C7EFCE" offset="100%"></stop>
        </linearGradient>
        <rect id="path-4" x="0" y="0" width="1024" height="288"></rect>
        <linearGradient x1="48.1356455%" y1="0%" x2="48.1356442%" y2="71.8470336%" id="linearGradient-6">
            <stop stop-color="#DFBAA6" offset="0%"></stop>
            <stop stop-color="#747372" offset="100%"></stop>
        </linearGradient>
        <linearGradient x1="50%" y1="0%" x2="50%" y2="100%" id="linearGradient-7">
            <stop stop-color="#727E8A" offset="0%"></stop>
            <stop stop-color="#98A6B4" offset="100%"></stop>
        </linearGradient>
        <linearGradient x1="50%" y1="0%" x2="50%" y2="100%" id="linearGradient-8">
            <stop stop-color="#81D585" offset="0%"></stop>
            <stop stop-color="#688E54" offset="100%"></stop>
        </linearGradient>
        <linearGradient x1="142.018337%" y1="50%" x2="50%" y2="100%" id="linearGradient-9">
            <stop stop-color="#B9D295" stop-opacity="0.797865716" offset="0%"></stop>
            <stop stop-color="#77A245" stop-opacity="0.797865716" offset="100%"></stop>
        </linearGradient>
    </defs>
    <g id="V2-Site" stroke="none" stroke-width="1" fill="none" fill-rule="evenodd">
        <g id="Desktop-Copy" transform="translate(-739.000000, -389.000000)">
            <g id="Group-29" transform="translate(739.000000, 389.000000)">
                <mask id="mask-2" fill="white">
                    <use xlink:href="#path-1"></use>
                </mask>
                <g id="Mask"></g>
                <g mask="url(#mask-2)">
                    <g transform="translate(-943.000000, 0.000000)">
                        <g id="Screen-Shot-2018-01-25-at-4.35.58-AM-Copy-2" stroke-width="1" fill="none" transform="translate(39.000000, 0.000000)">
                            <mask id="mask-5" fill="white">
                                <use xlink:href="#path-4"></use>
                            </mask>
                            <use id="Mask" fill="url(#linearGradient-3)" opacity="0.567991395" xlink:href="#path-4"></use>
                        </g>
                        <path d="M777.209676,245.214557 C661.17257,237.489364 559.942267,242.698277 449.146631,227.407566 C338.350996,212.116856 315.148253,198.365273 185.048118,171.804561 C145.111965,163.65136 93.762592,159.049839 31,158 L31,280.948101 L1055,280.948101 C947.164521,262.275867 854.567747,250.364685 777.209676,245.214557 Z" id="Combined-Shape-Copy-4" fill="url(#linearGradient-6)"></path>
                        <path d="M713.457959,220.689926 C729.228,195.127572 735.842013,187.993248 744.725163,181.274804 C753.608313,174.556361 768.563956,163.375969 798.573697,163.375969 L831.770003,163.375969 C841.498878,163.375969 841.719164,162.303171 841.719164,141.966189 C841.719164,121.629206 837.660251,122.000461 876.726889,122.000461 C915.793528,122.000461 1062.48334,122.728185 1062.48334,122.728185 C1062.48334,122.728185 1077.22044,141.966189 1085.86089,181.446761 C1094.50135,220.927334 697.687917,246.252281 713.457959,220.689926 Z" id="Path-5-Copy-5" fill="url(#linearGradient-7)"></path>
                        <g id="Group-9-Copy-2" stroke-width="1" fill="none" transform="translate(864.000000, 122.000000)">
                            <path d="M199.593758,2.11201951 L51.4799845,2.68175937 C51.4799845,2.68175937 40.3496485,3.0110445 40.3496485,13.6461884 C40.3496485,24.2813324 40.3496485,80.5318302 40.3496485,80.5318302 C40.3496485,80.5318302 30.7897163,84.9386589 18.8414684,86.8657623 C6.89322052,88.7928656 0.122649706,89.5316232 0.122649706,89.5316232 C0.122649706,89.5316232 0.122649706,13.5074304 0.122649706,10.2724083 C0.122649706,7.03738617 -1.35753821,0 9.51266212,7.66510474e-17 C20.3828625,1.53302095e-16 198.317732,0 198.317732,0 L199.593758,2.11201951 Z" id="Path-7" fill="#CCFCF4"></path>
                            <path d="M193.275085,2.11201951 L55.307968,2.68175937 C55.307968,2.68175937 44.5142505,3.0110445 44.5142505,13.6461884 C44.5142505,24.2813324 44.5142505,80.5318302 44.5142505,80.5318302 C44.5142505,80.5318302 35.2434425,83.7796766 23.6565495,85.70678 C12.0696566,87.6338833 5.50385039,88.3726409 5.50385039,88.3726409 L5.50385039,10.2724083 C5.50385039,10.2724083 3.64664091,5.94045617e-16 14.6098775,7.66510474e-17 C25.5731141,7.66510474e-17 192.03765,0 192.03765,0 L193.275085,2.11201951 Z" id="Path-7-Copy" fill="#9FEADF"></path>
                            <path d="M199.46503,2.11201951 L62.3317637,2.68175937 C62.3317637,2.68175937 51.5380462,3.0110445 51.5380462,13.6461884 C51.5380462,24.2813324 51.5380462,80.5318302 51.5380462,80.5318302 C51.5380462,80.5318302 42.2672382,83.7796766 30.6803452,85.70678 C19.0934522,87.6338833 12.5276461,88.3726409 12.5276461,88.3726409 C12.5276461,88.3726409 11.9594258,15.7869013 12.5276461,10.2724083 C13.0958663,4.75791529 10.6704366,5.94045617e-16 21.6336732,7.66510474e-17 C32.5969098,7.66510474e-17 198.227595,0 198.227595,0 L199.46503,2.11201951 Z" id="Path-7-Copy-8" fill="#6BC3B7"></path>
                            <path d="M177.938929,2.11201951 L39.8162651,2.68175937 C39.8162651,2.68175937 29.5533691,3.0110445 29.5533691,13.6461884 L29.5533691,80.5318302 C29.5533691,80.5318302 42.9059717,83.7796766 31.8889076,85.70678 C20.8718435,87.6338833 14.6289354,88.3726409 14.6289354,88.3726409 L14.6289354,10.2724083 C14.6289354,10.2724083 12.8630612,6.13208379e-16 23.2871396,7.66510474e-17 C33.7112179,7.66510474e-17 198.245037,0 198.245037,0 L177.938929,2.11201951 Z" id="Path-7-Copy-2" fill="#78D3C6"></path>
                            <path d="M199.529204,2.11201951 L54.1073009,2.68175937 C54.1073009,2.68175937 44.1033422,3.0110445 44.1033422,13.6461884 L44.1033422,80.5318302 C44.1033422,80.5318302 53.1936231,83.7796766 42.4545243,85.70678 C31.7154255,87.6338833 25.6300287,88.3726409 25.6300287,88.3726409 L25.6300287,10.2724083 C25.6300287,10.2724083 23.9087082,5.36557332e-16 34.0697825,0 L198.38231,0 L199.529204,2.11201951 Z" id="Path-7-Copy-3" fill="#6BC3B7"></path>
                            <path d="M199.445579,2.11201951 L67.9207657,2.68175937 C67.9207657,2.68175937 57.9168071,3.0110445 57.9168071,13.6461884 L57.9168071,80.5318302 C57.9168071,80.5318302 67.0070879,83.7796766 56.2679891,85.70678 C45.5288903,87.6338833 39.4434935,88.3726409 39.4434935,88.3726409 L39.4434935,10.2724083 C39.4434935,10.2724083 37.722173,5.36557332e-16 47.8832474,0 L198.298684,0 L199.445579,2.11201951 Z" id="Path-7-Copy-7" fill="#4DB0A2"></path>
                            <path d="M199.315783,2.11201951 L51.1348197,2.68175937 C51.1348197,2.68175937 41.429845,3.0110445 41.429845,13.6461884 L41.429845,80.5318302 C41.429845,80.5318302 50.6612201,83.7796766 40.243076,85.70678 C29.8249319,87.6338833 29.6068849,88.3726409 29.6068849,88.3726409 L29.6068849,10.2724083 C29.6068849,10.2724083 27.9370088,6.13208379e-16 37.7944036,7.66510474e-17 C47.6517984,7.66510474e-17 198.290503,0 198.290503,0 L199.315783,2.11201951 Z" id="Path-7-Copy-4" fill="#9FEADF"></path>
                            <path d="M185.356442,2.11201951 L53.1427697,2.68175937 C53.1427697,2.68175937 43.9933041,3.0110445 43.9933041,13.6461884 L43.9933041,80.5318302 C43.9933041,80.5318302 50.8847278,83.7796766 41.0629145,85.70678 C31.2411012,87.6338833 34.7515471,86.0573999 34.7515471,86.0573999 L34.7515471,10.2724083 C34.7515471,10.2724083 33.177254,6.13208379e-16 42.4704151,7.66510474e-17 C51.7635762,7.66510474e-17 198.27703,0 198.27703,0 L185.356442,2.11201951 Z" id="Path-7-Copy-5" fill="#78D1C4"></path>
                            <path d="M199.506942,2.11201951 L61.8313516,2.68175937 C61.8313516,2.68175937 53.1609201,3.0110445 53.1609201,13.6461884 C53.1609201,24.2813324 53.1609201,80.5318302 53.1609201,80.5318302 C53.1609201,80.5318302 43.4511245,85.70678 43.4300371,85.70678 C43.4089497,85.70678 43.4089497,10.2724083 43.4089497,10.2724083 C43.4089497,10.2724083 41.9170812,6.13208379e-16 50.7236849,7.66510474e-17 C59.5302885,7.66510474e-17 198.28818,0 198.28818,0 L199.506942,2.11201951 Z" id="Path-7-Copy-6" fill="#4FBEAE"></path>
                        </g>
                        <path d="M1063.08731,158.766418 C1063.08731,158.766418 1047.45086,161.447665 1009.83711,161.447665 C972.223354,161.447665 964.188583,157.99853 942.996002,158.766418 C921.803421,159.534307 907.185224,209.193054 880.069629,214.461632 C852.954033,219.73021 814.583615,219.254783 814.583615,219.254783 L618.576167,219.254783 C618.576167,219.254783 617.506607,232.496318 618.281984,247.55398 C619.057361,262.611642 619.80476,266.099501 620.683751,273.053106 C620.683751,273.053106 1008.1054,281.154238 1033.20418,281.154238 C1058.30296,281.154238 1072.33985,289.973946 1071.39231,325.080249 C1071.39231,325.080249 1085.82588,293.867011 1087.4606,252.400071 C1089.3956,203.316189 1063.08731,158.766418 1063.08731,158.766418 Z" id="Path-3-Copy-5" fill="url(#linearGradient-8)"></path>
                        <path d="M39,268.240747 C117.054083,236.887958 186.651521,220.233334 247.792315,218.276876 C339.503506,215.34219 353.291259,236.737049 462.43696,235.268327 C571.582662,233.799606 615.403393,223.300768 684.001759,224.774294 C752.600124,226.247821 820.219553,253.942483 926.927487,268.240747 C963.589203,273.153211 1008.94671,273.153211 1063,268.240747 L1063,377 L39,377 L39,268.240747 Z" id="Rectangle-17-Copy" fill="#FFFFFF"></path>
                        <path d="M970,80 C969.116206,96.2156994 968.54924,106.627773 968.299102,111.236222 C968.048964,115.844671 968.174033,120.432597 968.67431,125 L966.029541,125 C965.943299,120.599637 966.04589,116.011711 966.337314,111.236222 C966.628738,106.460733 967.849633,96.0486592 970,80 Z" id="Rectangle-5-Copy-41" fill="#9D4C2A"></path>
                        <path d="M983.574397,77 C983.461739,96.3367796 983.461739,107.917523 983.574397,111.742232 C983.687054,115.56694 983.828922,119.986196 984,125 L981,125 C981.232741,120.061501 981.349112,115.642245 981.349112,111.742232 C981.349112,107.842219 982.090873,96.2614747 983.574397,77 Z" id="Rectangle-5-Copy-42" fill="#9D4C2A"></path>
                        <path d="M1013.19545,87 L1014.69861,115.505459 L1015,126 L1011,126 C1011.38562,122.164605 1011.66525,118.966597 1011.8389,116.405977 C1012.01256,113.845357 1012.46474,104.043365 1013.19545,87 Z" id="Rectangle-5-Copy-43" fill="#9D4C2A" transform="translate(1013.000000, 106.500000) scale(-1, 1) translate(-1013.000000, -106.500000) "></path>
                        <path d="M968.98121,81 C970.220599,97.7297253 970.893529,108.006501 971,111.830328 C971.106471,115.654154 971.106471,120.072392 971,125.08504 L968,125.08504 C968.05362,120.102211 968.08043,115.683974 968.08043,111.830328 C968.08043,107.976682 968.38069,97.6999058 968.98121,81 Z" id="Rectangle-5-Copy-44" fill="#C16843" transform="translate(969.539927, 103.042520) scale(-1, 1) translate(-969.539927, -103.042520) "></path>
                        <path d="M1013,88 C1014.62537,102.358671 1015.4913,111.194998 1015.59777,114.508981 C1015.70424,117.822964 1015.83832,121.652103 1016,125.996399 L1013,125.996399 C1013.05362,121.677947 1013.08043,117.848808 1013.08043,114.508981 C1013.08043,111.169155 1013.05362,102.332828 1013,88 Z" id="Rectangle-5-Copy-47" fill="#C16843"></path>
                        <path d="M983.408256,74 C985.30325,93.6516584 986.321728,105.644323 986.46369,109.977993 C986.605652,114.311663 986.784422,119.318999 987,125 L983,125 C983.071494,119.352794 983.10724,114.345458 983.10724,109.977993 C983.10724,105.610527 983.207579,93.6178631 983.408256,74 Z" id="Rectangle-5-Copy-48" fill="#C16843"></path>
                        <path d="M1001.30619,69 C1002.72744,90.9636183 1003.4913,104.367184 1003.59777,109.210698 C1003.70424,114.054211 1003.83832,119.650645 1004,126 L1001,126 C1001.05362,119.688417 1001.08043,114.091983 1001.08043,109.210698 C1001.08043,104.329413 1001.15568,90.925847 1001.30619,69 Z" id="Rectangle-5-Copy-49" fill="#C16843" transform="translate(1002.500000, 97.500000) scale(-1, 1) translate(-1002.500000, -97.500000) "></path>
                        <polygon id="Path-26-Copy-22" fill="url(#linearGradient-9)" transform="translate(969.000000, 97.500000) scale(-1, 1) translate(-969.000000, -97.500000) " points="967.833256 80 961 115 977 115"></polygon>
                        <polygon id="Path-26-Copy-25" fill="url(#linearGradient-9)" points="1012.83326 87 1006 116 1022 116"></polygon>
                        <polygon id="Path-26-Copy-26" fill="url(#linearGradient-9)" points="983.676963 74 973 112 998 112"></polygon>
                        <polygon id="Path-26-Copy-27" fill="url(#linearGradient-9)" transform="translate(1002.000000, 90.000000) scale(-1, 1) translate(-1002.000000, -90.000000) " points="1000.54157 69 992 111 1012 111"></polygon>
                        <path d="M954.913441,70 C956.471645,91.382022 957.321728,104.49479 957.46369,109.338303 C957.605652,114.181817 957.784422,119.778251 958,126.127606 L954,126.127606 C954.071494,119.816022 954.10724,114.219588 954.10724,109.338303 C954.10724,104.457019 954.375974,91.3442507 954.913441,70 Z" id="Rectangle-5-Copy-50" fill="#C16843"></path>
                        <path d="M954.8321,69 C955.243304,90.7675366 955.522047,104.102673 955.668331,109.00541 C955.814615,113.908147 955.925171,119.57301 956,126 L953,126 C953.07367,119.611243 953.110505,113.94638 953.110505,109.00541 C953.110505,104.06444 953.68437,90.7293035 954.8321,69 Z" id="Rectangle-5-Copy-51" fill="#9D4C2A"></path>
                        <polygon id="Path-26-Copy-28" fill="url(#linearGradient-9)" points="954.676963 68 944 110 969 110"></polygon>
                        <polygon id="Path-26-Copy-32" fill="url(#linearGradient-9)" transform="translate(1028.500000, 93.000000) scale(-1, 1) translate(-1028.500000, -93.000000) " points="1026.67696 74 1016 112 1041 112"></polygon>
                        <g id="Group-35-Copy-2" stroke-width="1" fill="none" transform="translate(906.000000, 57.000000)">
                            <path d="M29.6750299,33.2732415 C29.6949698,33.3147776 29.7345464,33.3438533 29.7806529,33.3508395 C29.8267594,33.3578257 29.8733793,33.3418109 29.9050733,33.3080986 C30.7832198,32.3789387 34.6773681,26.6852472 35.2569006,21.8052514 C35.7247292,17.8663976 34.383178,14.3981149 32.9254991,12.5844558 C31.7531625,11.1269927 28.9804758,7.20665682 21.3359563,7.45937089 C13.480195,7.71862066 7.56542503,15.2172571 9.3615332,22.8912683 C10.7694431,28.9052096 14.1094965,32.7405813 14.9920669,33.4246521 C15.0282349,33.4529323 15.0762062,33.4618957 15.1203774,33.4486268 C15.1645485,33.435358 15.1992754,33.4015523 15.2132624,33.3582057 L17.3588596,30.2994941 C17.3746842,30.2525319 17.4145945,30.217348 17.4637318,30.2070416 C17.5128691,30.1967351 17.5638716,30.2128501 17.5977509,30.249387 L20.0928371,33.3135451 C20.1215082,33.3452787 20.1633034,33.3624085 20.2063679,33.3600757 C20.2494323,33.3577429 20.2890681,33.336202 20.3140327,33.3015629 L22.401013,30.2842441 C22.4274865,30.2468457 22.4708517,30.224557 22.5171407,30.224557 C22.5634298,30.224557 22.606795,30.2468457 22.6332684,30.2842441 L24.556564,33.2002595 C24.5817612,33.2373736 24.6234806,33.2603586 24.6687778,33.2620828 C24.714075,33.263807 24.7574711,33.2440619 24.7855015,33.2089737 L27.2993893,30.039155 C27.3294886,30.001248 27.3773073,29.9813075 27.4258925,29.9864028 C27.4744776,29.9914982 27.5169608,30.0209091 27.5382806,30.0642086 L29.6750299,33.2732415 Z" id="Shape" stroke="#000000" stroke-width="2" fill="#FFDF00" fill-rule="nonzero" transform="translate(22.194822, 20.451174) rotate(-8.000000) translate(-22.194822, -20.451174) "></path>
                        </g>
                        <path d="M1037.19545,87 L1038.69861,115.505459 L1039,126 L1035,126 C1035.38562,122.164605 1035.66525,118.966597 1035.8389,116.405977 C1036.01256,113.845357 1036.46474,104.043365 1037.19545,87 Z" id="Rectangle-5-Copy-52" fill="#9D4C2A" transform="translate(1037.000000, 106.500000) scale(-1, 1) translate(-1037.000000, -106.500000) "></path>
                        <path d="M1055.19545,77 L1056.69861,112.083642 L1057,125 L1053,125 C1053.38562,120.279514 1053.66525,116.343504 1053.8389,113.191972 C1054.01256,110.04044 1054.46474,97.9764489 1055.19545,77 Z" id="Rectangle-5-Copy-54" fill="#9D4C2A" transform="translate(1055.000000, 101.000000) scale(-1, 1) translate(-1055.000000, -101.000000) "></path>
                        <path d="M1025,76 C1027.72185,96.8288113 1029.19866,108.828121 1029.43043,111.997928 C1029.66221,115.167735 1029.88443,119.51949 1030.0971,125.053192 L1026.82408,125.053192 C1026.19087,121.383586 1025.93785,118.295957 1026.06501,115.790303 C1026.19217,113.28465 1025.83716,100.021216 1025,76 Z" id="Rectangle-5-Copy-55" fill="#9D4C2A" transform="translate(1027.548549, 100.526596) scale(-1, 1) translate(-1027.548549, -100.526596) "></path>
                        <path d="M1030,76 C1030.83383,94.6840279 1031.32173,106.192877 1031.46369,110.526547 C1031.60565,114.860217 1031.78442,119.867553 1032,125.548554 L1028,125.548554 C1028.07149,119.901348 1028.10724,114.894012 1028.10724,110.526547 C1028.10724,106.159081 1028.73816,94.6502325 1030,76 Z" id="Rectangle-5-Copy-56" fill="#C16843" transform="translate(1030.000000, 100.774277) scale(-1, 1) translate(-1030.000000, -100.774277) "></path>
                        <path d="M1037,86 C1038.62537,100.975174 1039.4913,110.247213 1039.59777,113.816118 C1039.70424,117.385023 1039.83832,121.508711 1040,126.187183 L1037,126.187183 C1037.05362,121.536542 1037.08043,117.412854 1037.08043,113.816118 C1037.08043,110.219382 1037.05362,100.947342 1037,86 Z" id="Rectangle-5-Copy-57" fill="#C16843"></path>
                        <path d="M1055,75 C1056.83133,94.0325286 1057.80023,105.715628 1057.9067,110.049298 C1058.01317,114.382968 1058.14725,119.390304 1058.30893,125.071305 L1055.30893,125.071305 C1055.36255,119.424099 1055.38936,114.416763 1055.38936,110.049298 C1055.38936,105.681833 1055.25957,93.9987332 1055,75 Z" id="Rectangle-5-Copy-58" fill="#C16843"></path>
                        <polygon id="Path-26-Copy-29" fill="url(#linearGradient-9)" points="1036.83326 82 1030 114 1046 114"></polygon>
                        <polygon id="Path-26-Copy-30" fill="url(#linearGradient-9)" points="1054.83326 74 1048 110 1064 110"></polygon>
                        <polygon id="Path-26-Copy-31" fill="url(#linearGradient-9)" points="1064.16674 82 1071 114 1055 114"></polygon>
                        <path d="M1060,83 C1061.64259,97.8083471 1062.64885,107.154729 1063.0188,111.039145 C1063.38874,114.923562 1063.71581,119.57718 1064,125 L1060,125 C1060.38562,121.214815 1060.66525,118.058674 1060.8389,115.531576 C1061.01256,113.004478 1060.73292,102.160619 1060,83 Z" id="Rectangle-5-Copy-53" fill="#9D4C2A" transform="translate(1062.000000, 104.000000) scale(-1, 1) translate(-1062.000000, -104.000000) "></path>
                    </g>
                </g>
            </g>
        </g>
    </g>
</svg>