<svg width="20" height="20" viewBox="0 0 20 20" fill="none" xmlns="http://www.w3.org/2000/svg">
<path fill-rule="evenodd" clip-rule="evenodd" d="M10.0479 5.30062e-06C7.6626 -0.00247103 5.35436 0.862794 3.53687 2.44074C1.71938 4.01869 0.511441 6.20617 0.12952 8.61118C-0.252401 11.0162 0.216663 13.4815 1.45265 15.5654C2.68864 17.6492 4.61076 19.2154 6.87457 19.9831C7.37984 20.0776 7.55853 19.7566 7.55853 19.4859C7.55853 19.2153 7.55853 18.5985 7.55853 17.7425C4.75488 18.3656 4.16334 16.3642 4.16334 16.3642C3.97734 15.7438 3.5822 15.2109 3.04803 14.8599C2.14224 14.2305 3.12198 14.2305 3.12198 14.2305C3.4395 14.2763 3.74265 14.3953 4.00847 14.5785C4.2743 14.7617 4.49583 15.0043 4.65629 15.2879C4.79262 15.5404 4.97644 15.7629 5.19718 15.9427C5.41792 16.1225 5.67124 16.256 5.94261 16.3355C6.21397 16.415 6.49804 16.439 6.77852 16.4061C7.05899 16.3733 7.33035 16.2841 7.57702 16.1439C7.61569 15.6261 7.83423 15.1395 8.19321 14.7718C5.96261 14.5137 3.62109 13.6326 3.62109 9.73667C3.60577 8.71894 3.97421 7.73416 4.65012 6.98624C4.34909 6.10133 4.38427 5.13324 4.74871 4.27357C4.74871 4.27357 5.59289 3.99663 7.50924 5.32465C9.15482 4.86315 10.8918 4.86315 12.5373 5.32465C14.4537 3.99663 15.2917 4.27357 15.2917 4.27357C15.6612 5.12414 15.7052 6.08529 15.4149 6.96736C16.0908 7.71528 16.4593 8.70006 16.444 9.71779C16.444 13.6578 14.0963 14.52 11.8595 14.7529C12.0994 14.9992 12.2846 15.2952 12.4026 15.621C12.5206 15.9468 12.5687 16.2947 12.5435 16.6411C12.5435 18.0132 12.5435 19.1209 12.5435 19.4545C12.5435 19.788 12.7222 20.0461 13.2336 19.9454C15.4717 19.1573 17.365 17.5867 18.5792 15.511C19.7933 13.4353 20.2502 10.988 19.869 8.60156C19.4878 6.21511 18.2932 4.04306 16.4961 2.46912C14.699 0.89518 12.4151 0.0206425 10.0479 5.30062e-06Z" fill="black"/>
</svg>
