<?xml version="1.0" encoding="UTF-8"?>
<svg width="40px" height="30px" viewBox="0 0 40 30" version="1.1" xmlns="http://www.w3.org/2000/svg" xmlns:xlink="http://www.w3.org/1999/xlink">
    <!-- Generator: Sketch 52.5 (67469) - http://www.bohemiancoding.com/sketch -->
    <title>Group</title>
    <desc>Created with Sketch.</desc>
    <g id="Hi-Fi-Desktop" stroke="none" stroke-width="1" fill="none" fill-rule="evenodd">
        <g id="Desktop-Copy-7" transform="translate(-329.000000, -2241.000000)" stroke="#1EE29A" stroke-width="3">
            <g id="Group-6" transform="translate(241.000000, 2243.000000)">
                <g id="Group-4">
                    <g id="Group-2" transform="translate(90.000000, 0.000000)">
                        <g id="Group">
                            <path d="M0,18.664514 L0,3 C-2.02906125e-16,1.34314575 1.34314575,3.04359188e-16 3,0 L24.83484,6.21724894e-15 C26.4916942,4.44130756e-15 27.83484,1.34314575 27.83484,3 L27.83484,10.6891092 C27.83484,12.3459635 26.4916942,13.6891092 24.83484,13.6891092 C18.8922755,13.6891092 12.9497111,13.6891092 7.00714663,13.6891092 C4.23010414,13.6891092 3.59665065,13.5836429 3.59665065,15.9425171 C3.59665065,17.5150999 2.3977671,18.4224322 0,18.664514 Z" id="Path-34"></path>
                            <path d="M7.90243902,25.8369278 L7.90243902,10.1724138 C7.90243902,8.51555954 9.24558477,7.17241379 10.902439,7.17241379 L32.737279,7.17241379 C34.3941332,7.17241379 35.737279,8.51555954 35.737279,10.1724138 L35.737279,17.861523 C35.737279,19.5183773 34.3941332,20.861523 32.737279,20.861523 C26.7947145,20.861523 20.8521501,20.861523 14.9095857,20.861523 C12.1325432,20.861523 11.4990897,20.7560567 11.4990897,23.1149309 C11.4990897,24.6875137 10.3002061,25.594846 7.90243902,25.8369278 Z" id="Path-34-Copy" transform="translate(21.819859, 16.504671) scale(-1, 1) translate(-21.819859, -16.504671) "></path>
                        </g>
                    </g>
                </g>
            </g>
        </g>
    </g>
</svg>