<?xml version="1.0" encoding="UTF-8"?>
<svg width="655px" height="115px" viewBox="0 0 655 115" version="1.1" xmlns="http://www.w3.org/2000/svg" xmlns:xlink="http://www.w3.org/1999/xlink">
    <!-- Generator: Sketch 52.6 (67491) - http://www.bohemiancoding.com/sketch -->
    <title>Group 10</title>
    <desc>Created with Sketch.</desc>
    <g id="Hi-Fi-Desktop" stroke="none" stroke-width="1" fill="none" fill-rule="evenodd">
        <g id="Desktop-Copy-12" transform="translate(-182.000000, -1966.000000)" fill-rule="nonzero">
            <g id="Group-10" transform="translate(153.000000, 1934.000000)">
                <g id="peachierstargradient" transform="translate(539.000000, 69.000000)" fill="#FFC835">
                    <path d="M40.79763,8.488619 C42.05251,7.364398 43.14452,8.246107 43.25655,10.456697 L43.9505,25.331616 L56.43713,34.960724 C58.19029,36.226187 58.2095,37.726241 56.44536,38.310608 L41.81751,42.986991 L37.30726,57.36531 C36.5861,59.433039 34.99832,59.609457 33.79428,57.750061 L25.79503,44.208757 L9.70508,43.308687 C7.73726,43.197899 7.43516,41.761261 8.99493,40.108187 L19.2802,28.371649 L17.00057,15.177287 C16.70729,13.098764 17.65605,11.925032 19.10854,12.551962 L30.2826,17.174714 L40.79763,8.488619 Z" id="Path-5-Copy-17" transform="translate(32.880126, 33.518934) rotate(-22.000000) translate(-32.880126, -33.518934) "></path>
                </g>
                <g id="limestargradient-copy" transform="translate(644.500000, 110.000000) rotate(36.000000) translate(-644.500000, -110.000000) translate(593.000000, 60.000000)" fill="#FD384C">
                    <path d="M65.7427914,14.7914694 C67.6034814,13.6015794 69.1001914,14.4306394 69.0858114,16.6397794 L68.9439714,38.4359894 L89.4307514,51.7167394 C91.2822414,52.9169794 91.0778414,54.4220194 88.9692414,55.0798794 L64.5034414,62.7129694 L57.3618914,83.9751494 C56.6585614,86.0691394 55.0660814,86.3051094 53.7958514,84.4891494 L40.3221714,65.2266594 L14.3863714,64.8297994 C12.1732714,64.7959394 11.5110814,63.3923294 12.9225014,61.6762994 L27.4289414,44.0392194 L19.6820314,24.9019594 C18.8528814,22.8536894 19.9120914,21.6431494 22.0490414,22.1984594 L44.8819514,28.1317694 L65.7427914,14.7914694 Z" id="Path-5-Copy-22" transform="translate(51.437720, 49.979874) rotate(28.000000) translate(-51.437720, -49.979874) "></path>
                </g>
                <g id="peachierstar" transform="translate(509.000000, 33.000000)" fill="#B4ECE6">
                    <path d="M33.16791,0.488619 C34.4228,-0.635602 35.51481,0.246107 35.62683,2.456697 L36.32079,17.331616 L48.80742,26.960724 C50.56057,28.226187 50.57978,29.726241 48.81565,30.310608 L34.18779,34.986991 L29.67755,49.36531 C28.95638,51.433039 27.3686,51.609457 26.16457,49.750061 L18.16531,36.208757 L2.07536,35.308687 C0.10755,35.197899 -0.19455,33.761261 1.36522,32.108187 L11.65049,20.371649 L9.37086,7.177287 C9.07758,5.098764 10.02633,3.925032 11.47883,4.551962 L22.65289,9.174714 L33.16791,0.488619 Z" id="Path-5-Copy-23"></path>
                </g>
                <g id="purplestar" transform="translate(471.000000, 77.000000)" fill="#C474FF">
                    <path d="M47.7451204,11.9380207 C49.6057904,10.7481377 51.1024904,11.5781187 51.0880904,13.7905597 L50.9912104,28.6779287 L65.0943404,37.8204137 C66.9477804,39.0219237 66.7377904,40.5302257 64.6274104,41.1886447 L47.7391004,46.4576307 L42.8494104,61.0154657 C42.1462304,63.1090107 40.5515004,63.3412257 39.2811304,61.5250587 L30.0295004,48.2985747 L12.0968704,48.0241777 C9.88957043,47.9904017 9.24142043,46.5755227 10.6421204,44.8725267 L20.5869004,32.7815557 L15.3169704,19.7631817 C14.4867904,17.7123827 15.5491804,16.5008357 17.6772604,17.0538327 L33.3689404,21.1314377 L47.7451204,11.9380207 Z" id="Path-5-Copy-24" transform="translate(38.130597, 37.072173) rotate(-34.000000) translate(-38.130597, -37.072173) "></path>
                </g>
                <g id="Group-3" transform="translate(126.000000, 108.500000) rotate(66.000000) translate(-126.000000, -108.500000) translate(55.000000, 3.000000)">
                    <g id="pinkstargradient" transform="translate(88.354687, 3.263739)" fill="#FF6C7E">
                        <path d="M32.3767697,8.50912005 C34.2352197,7.32066105 35.7301597,8.14513205 35.7157797,10.355082 L35.6534897,19.926563 L44.8319397,25.876579 C46.6876797,27.079575 46.4857997,28.58713 44.3809097,29.243835 L33.3179297,32.695375 L30.1661697,42.078952 C29.4624297,44.174183 27.8667897,44.40713 26.6040197,42.601829 L20.5994597,34.017482 L8.84501967,33.83762 C6.63892967,33.803864 5.98628967,32.395646 7.39629967,30.681345 L13.8180897,22.873656 L10.4529797,14.560794 C9.62503967,12.515524 10.6899997,11.308654 12.8285897,11.864383 L22.9977397,14.506916 L32.3767697,8.50912005 Z" id="Path-5-Copy-20" transform="translate(26.376699, 25.891144) rotate(-34.000000) translate(-26.376699, -25.891144) "></path>
                    </g>
                    <g id="PORPLEstar" transform="translate(46.346349, 174.201093) rotate(-285.000000) translate(-46.346349, -174.201093) translate(16.346349, 147.201093)" fill="#FFC835">
                        <path d="M40.6173008,0.345330979 C41.7974716,-0.409379756 42.7468069,0.113950413 42.7376861,1.515595 L42.6293895,18.1567921 L58.2217585,28.2646906 C59.3974481,29.0268426 59.2645651,29.9834987 57.9287821,30.4002499 L39.328472,36.2033671 L33.8812265,52.4211704 C33.434888,53.7500446 32.4220363,53.896593 31.6183049,52.7475434 L21.3530448,38.0719434 L1.62624948,37.7700933 C0.228052945,37.7486951 -0.187677813,36.8587309 0.70620987,35.7719299 L11.7687172,22.3220162 L5.84624311,7.69166554 C5.32030155,6.39243561 5.98936883,5.62385028 7.34768462,5.97682528 L24.74261,10.4970273 L40.6173008,0.345330979 Z" id="Path-5-Copy-16"></path>
                    </g>
                    <g id="limestar" transform="translate(22.000000, -0.000000)" fill="#B4ECE6">
                        <path d="M50.2494486,11.4107333 C51.6476438,10.5116217 52.7723362,11.1380809 52.761538,12.8073641 L52.6549458,29.2771429 L68.0496034,39.3124204 C69.4408928,40.2193527 69.2872903,41.3565998 67.7028049,41.8536958 L49.31814,47.6214556 L43.9516789,63.6877076 C43.4231664,65.2699805 42.2265082,65.4482855 41.2720026,64.0760993 L31.1472983,49.5208647 L11.6580196,49.220987 C9.99500085,49.1954015 9.49740272,48.1347976 10.5580046,46.838121 L21.4587693,33.5110881 L15.637407,19.0504805 C15.0143479,17.5027548 15.8102764,16.5880396 17.4160804,17.0076461 L34.5737137,21.4910083 L50.2494486,11.4107333 Z" id="Path-5-Copy-28" transform="translate(39.500000, 38.000000) rotate(28.000000) translate(-39.500000, -38.000000) "></path>
                    </g>
                    <g id="bluestar" transform="translate(35.000000, 61.000000)" fill="#00D9A7">
                        <path d="M47.7451204,11.9380207 C49.6057904,10.7481377 51.1024904,11.5781187 51.0880904,13.7905597 L50.9912104,28.6779287 L65.0943404,37.8204137 C66.9477804,39.0219237 66.7377904,40.5302257 64.6274104,41.1886447 L47.7391004,46.4576307 L42.8494104,61.0154657 C42.1462304,63.1090107 40.5515004,63.3412257 39.2811304,61.5250587 L30.0295004,48.2985747 L12.0968704,48.0241777 C9.88957043,47.9904017 9.24142043,46.5755227 10.6421204,44.8725267 L20.5869004,32.7815557 L15.3169704,19.7631817 C14.4867904,17.7123827 15.5491804,16.5008357 17.6772604,17.0538327 L33.3689404,21.1314377 L47.7451204,11.9380207 Z" id="Path-5-Copy-25" transform="translate(38.130597, 37.072173) rotate(-34.000000) translate(-38.130597, -37.072173) "></path>
                    </g>
                    <g id="peachstar" transform="translate(0.000000, 63.000000)" fill="#FD384C">
                        <path d="M21.8074287,2.20540238 C23.6112787,0.925053381 25.0631187,1.67460538 25.0500887,3.89605538 L25.0035887,11.8267274 L31.6888487,16.6368934 C33.4863887,17.9302504 33.2541387,19.5637504 31.1640187,20.2875304 L23.1520687,23.0619484 L20.8019587,30.8279584 C20.1620687,32.9424704 18.6874387,33.1398124 17.5089887,31.2698584 L13.0694587,24.2252644 L4.58630867,24.0811904 C2.37614867,24.0436534 1.64874867,22.5770014 2.97144867,20.7920864 L7.69350867,14.4198624 L5.20775867,7.60430338 C4.45091867,5.52914838 5.55255867,4.34160038 7.68442867,4.95647838 L14.9707087,7.05800338 L21.8074287,2.20540238 Z" id="Path-5-Copy-27" transform="translate(17.604533, 17.066830) rotate(-83.000000) translate(-17.604533, -17.066830) "></path>
                    </g>
                </g>
            </g>
        </g>
    </g>
</svg>