<svg width="451" height="451" viewBox="0 0 451 451" fill="none" xmlns="http://www.w3.org/2000/svg">
<path d="M121.409 125.814C151.907 175.344 189.645 196.907 234.625 190.502C229.404 154.452 240.188 132.89 266.977 125.814C292.083 122.106 308.258 127.493 315.504 141.975C327.802 140.973 338.586 135.586 347.856 125.814C340.099 140.126 333.439 149.642 327.877 154.362C334.622 158.702 345.596 155.65 360.8 145.207C353.434 158.176 341.828 167.882 325.983 174.327C326.404 222.974 317.519 260.718 299.329 287.558C269.533 331.485 174.988 354.772 105.233 319.894C145.332 317.88 172.292 307.101 186.113 287.558C167.571 296.648 146.004 285.864 121.409 255.206C136.914 259.916 147.697 259.916 153.761 255.206C127.813 245.765 111.637 229.589 105.233 206.678C123.434 212.742 134.218 212.742 137.585 206.678C111.978 182.414 106.586 155.46 121.409 125.814Z" fill="#0F573F"/>
<path d="M105.167 30H345.7C387.192 30 420.867 63.6747 420.867 105.167V345.7C420.867 387.192 387.192 420.867 345.7 420.867H105.167C63.6747 420.867 30 387.192 30 345.7V105.167C30 63.6747 63.6747 30 105.167 30Z" stroke="#0F573F" stroke-width="45.1" stroke-miterlimit="2"/>
</svg>
